<?xml version="1.0" encoding="UTF-8" standalone="no"?>
<!DOCTYPE svg PUBLIC "-//W3C//DTD SVG 20010904//EN"
              "http://www.w3.org/TR/2001/REC-SVG-20010904/DTD/svg10.dtd">

<svg xmlns="http://www.w3.org/2000/svg"
     width="3.93741in" height="3.93741in"
     viewBox="0 0 3707 3707">
  <path id="Selection #3"
        fill="none" stroke="black" stroke-width="1"
        d="M 1263.00,285.08
           C 1263.00,285.08 1353.00,285.08 1353.00,285.08
             1353.00,285.08 1628.00,285.08 1628.00,285.08
             1628.00,285.08 2459.00,285.08 2459.00,285.08
             2471.18,285.02 2495.47,288.48 2508.00,290.59
             2532.80,294.75 2552.80,298.53 2577.00,305.98
             2641.95,325.96 2709.45,361.52 2760.00,407.17
             2760.00,407.17 2781.00,428.00 2781.00,428.00
             2781.00,428.00 2801.83,449.00 2801.83,449.00
             2835.79,486.60 2863.81,534.03 2882.60,581.00
             2896.22,615.05 2903.09,639.82 2909.08,676.00
             2911.11,688.27 2913.98,705.79 2914.00,718.00
             2914.00,718.00 2914.00,1431.00 2914.00,1431.00
             2914.00,1431.00 2915.00,1448.00 2915.00,1448.00
             2915.02,1462.56 2914.99,1475.31 2920.87,1489.00
             2925.44,1499.64 2934.23,1510.35 2941.85,1519.00
             2956.66,1535.82 2974.19,1550.36 2991.00,1565.15
             3022.28,1592.69 3062.09,1632.65 3088.20,1665.00
             3088.20,1665.00 3124.28,1712.00 3124.28,1712.00
             3187.35,1801.84 3230.93,1902.92 3250.42,2011.00
             3255.49,2039.09 3259.13,2065.54 3261.09,2094.00
             3261.09,2094.00 3262.00,2106.00 3262.00,2106.00
             3262.00,2106.00 3262.00,2951.00 3262.00,2951.00
             3262.00,2951.00 3261.09,2963.00 3261.09,2963.00
             3261.09,2963.00 3253.41,3024.00 3253.41,3024.00
             3238.81,3111.00 3199.20,3201.27 3139.83,3267.00
             3139.83,3267.00 3121.00,3286.00 3121.00,3286.00
             3121.00,3286.00 3105.00,3301.83 3105.00,3301.83
             3058.88,3343.49 2996.20,3377.74 2937.00,3396.66
             2937.00,3396.66 2903.00,3405.87 2903.00,3405.87
             2875.56,3412.73 2842.19,3418.12 2814.00,3420.09
             2814.00,3420.09 2802.00,3421.00 2802.00,3421.00
             2802.00,3421.00 1864.00,3421.00 1864.00,3421.00
             1864.00,3421.00 927.00,3421.00 927.00,3421.00
             900.81,3420.96 849.14,3411.41 823.00,3404.87
             823.00,3404.87 785.00,3394.33 785.00,3394.33
             720.44,3373.28 651.35,3334.30 601.00,3288.83
             601.00,3288.83 581.00,3269.00 581.00,3269.00
             581.00,3269.00 559.29,3247.00 559.29,3247.00
             529.64,3213.19 509.75,3182.00 489.75,3142.00
             469.84,3102.16 456.95,3061.88 449.59,3018.00
             447.34,3004.63 444.02,2986.31 444.00,2973.00
             444.00,2973.00 444.00,2023.00 444.00,2023.00
             444.00,2023.00 445.00,2006.00 445.00,2006.00
             445.07,1963.59 451.94,1909.26 465.35,1869.00
             489.03,1797.96 533.22,1735.69 582.28,1680.00
             582.28,1680.00 606.96,1654.00 606.96,1654.00
             606.96,1654.00 615.04,1645.00 615.04,1645.00
             615.04,1645.00 656.00,1604.96 656.00,1604.96
             656.00,1604.96 672.00,1589.04 672.00,1589.04
             672.00,1589.04 707.00,1556.00 707.00,1556.00
             707.00,1556.00 715.91,1547.83 715.91,1547.83
             715.91,1547.83 723.04,1540.00 723.04,1540.00
             723.04,1540.00 737.28,1525.00 737.28,1525.00
             740.24,1521.65 747.24,1514.68 748.99,1511.00
             750.41,1508.02 750.96,1493.96 751.00,1490.00
             751.00,1490.00 752.00,1476.00 752.00,1476.00
             752.00,1476.00 752.00,1448.00 752.00,1448.00
             752.00,1448.00 753.00,1431.00 753.00,1431.00
             753.00,1431.00 753.00,961.00 753.00,961.00
             753.00,961.00 753.00,719.00 753.00,719.00
             753.03,699.26 760.68,660.78 765.63,641.00
             788.33,550.19 843.16,464.83 915.00,405.08
             953.88,372.75 986.54,353.26 1032.00,331.78
             1067.87,314.83 1110.96,301.47 1150.00,294.42
             1150.00,294.42 1187.00,288.28 1187.00,288.28
             1187.00,288.28 1216.00,285.08 1216.00,285.08
             1216.00,285.08 1263.00,285.08 1263.00,285.08 Z
           M 1653.00,1185.00
           C 1653.00,1185.00 1653.00,1308.00 1653.00,1308.00
             1653.00,1308.00 2028.00,1308.00 2028.00,1308.00
             2028.00,1308.00 2028.00,1185.00 2028.00,1185.00
             2028.00,1185.00 1653.00,1185.00 1653.00,1185.00 Z
           M 1564.00,2197.00
           C 1564.00,2197.00 1564.00,2518.00 1564.00,2518.00
             1564.00,2518.00 2142.00,2518.00 2142.00,2518.00
             2142.00,2518.00 2142.00,2197.00 2142.00,2197.00
             2142.00,2197.00 1564.00,2197.00 1564.00,2197.00 Z" />
  <path id="Selection #2"
        fill="none" stroke="black" stroke-width="1"
        d="M 1270.00,341.08
           C 1270.00,341.08 1359.00,341.08 1359.00,341.08
             1359.00,341.08 1630.00,341.08 1630.00,341.08
             1630.00,341.08 2452.00,341.08 2452.00,341.08
             2470.08,341.03 2504.60,346.92 2523.00,350.60
             2594.17,364.84 2666.46,400.45 2721.00,448.29
             2721.00,448.29 2742.00,469.00 2742.00,469.00
             2760.34,487.34 2772.31,500.67 2787.28,522.00
             2804.92,547.13 2819.21,574.53 2830.60,603.00
             2841.82,631.06 2848.41,655.21 2853.41,685.00
             2855.31,696.29 2857.98,713.81 2858.00,725.00
             2858.00,725.00 2858.00,1438.00 2858.00,1438.00
             2858.00,1438.00 2859.00,1455.00 2859.00,1455.00
             2859.03,1476.71 2860.84,1494.99 2870.32,1515.00
             2888.17,1552.66 2929.10,1586.06 2960.00,1613.28
             2984.86,1635.18 3018.11,1669.59 3039.58,1695.00
             3119.89,1790.07 3173.34,1901.54 3195.42,2024.00
             3200.05,2049.65 3203.30,2075.03 3205.09,2101.00
             3205.09,2101.00 3206.00,2113.00 3206.00,2113.00
             3206.00,2113.00 3206.00,2944.00 3206.00,2944.00
             3206.00,2944.00 3205.09,2956.00 3205.09,2956.00
             3205.09,2956.00 3198.41,3011.00 3198.41,3011.00
             3185.21,3089.66 3151.65,3169.42 3097.83,3229.00
             3034.19,3299.46 2948.10,3342.67 2855.00,3358.08
             2855.00,3358.08 2807.00,3364.09 2807.00,3364.09
             2807.00,3364.09 2795.00,3365.00 2795.00,3365.00
             2795.00,3365.00 1864.00,3365.00 1864.00,3365.00
             1864.00,3365.00 934.00,3365.00 934.00,3365.00
             909.24,3364.96 862.59,3356.52 838.00,3350.37
             764.98,3332.12 695.11,3297.51 639.00,3246.83
             639.00,3246.83 621.00,3229.00 621.00,3229.00
             621.00,3229.00 602.17,3210.00 602.17,3210.00
             573.08,3177.79 548.59,3137.88 531.58,3098.00
             518.44,3067.21 510.25,3039.00 504.75,3006.00
             502.76,2994.06 500.02,2977.92 500.00,2966.00
             500.00,2966.00 500.00,2030.00 500.00,2030.00
             500.00,2030.00 501.00,2013.00 501.00,2013.00
             501.06,1973.36 506.81,1923.64 519.35,1886.00
             539.86,1824.49 582.02,1764.78 625.17,1717.00
             652.14,1687.13 680.92,1658.85 710.00,1631.04
             710.00,1631.04 733.00,1609.96 733.00,1609.96
             733.00,1609.96 747.00,1596.04 747.00,1596.04
             747.00,1596.04 755.99,1587.96 755.99,1587.96
             755.99,1587.96 765.04,1578.00 765.04,1578.00
             765.04,1578.00 788.28,1553.00 788.28,1553.00
             791.47,1549.34 801.32,1538.63 803.02,1535.00
             805.56,1529.58 805.57,1516.31 806.17,1510.00
             806.17,1510.00 808.00,1455.00 808.00,1455.00
             808.00,1455.00 809.00,1438.00 809.00,1438.00
             809.00,1438.00 809.00,953.00 809.00,953.00
             809.00,953.00 809.00,726.00 809.00,726.00
             809.03,707.46 815.52,674.43 820.13,656.00
             840.65,573.92 888.91,500.04 954.00,446.25
             984.76,420.83 1018.75,399.95 1055.00,383.31
             1089.19,367.61 1125.99,356.10 1163.00,349.42
             1163.00,349.42 1195.00,344.16 1195.00,344.16
             1195.00,344.16 1223.00,341.08 1223.00,341.08
             1223.00,341.08 1270.00,341.08 1270.00,341.08 Z
           M 1597.00,1129.00
           C 1597.00,1129.00 1597.00,1364.00 1597.00,1364.00
             1597.00,1364.00 2084.00,1364.00 2084.00,1364.00
             2084.00,1364.00 2084.00,1129.00 2084.00,1129.00
             2084.00,1129.00 1597.00,1129.00 1597.00,1129.00 Z
           M 1508.00,2141.00
           C 1508.00,2141.00 1508.00,2574.00 1508.00,2574.00
             1508.00,2574.00 2198.00,2574.00 2198.00,2574.00
             2198.00,2574.00 2198.00,2141.00 2198.00,2141.00
             2198.00,2141.00 1508.00,2141.00 1508.00,2141.00 Z" />
  <path id="Selection #1"
        fill="none" stroke="black" stroke-width="1"
        d="M 1283.00,526.08
           C 1283.00,526.08 1370.00,526.08 1370.00,526.08
             1370.00,526.08 1635.00,526.08 1635.00,526.08
             1635.00,526.08 2438.00,526.08 2438.00,526.08
             2450.01,526.02 2469.96,529.19 2482.00,531.60
             2560.13,547.23 2628.35,596.88 2658.40,672.00
             2665.92,690.79 2672.97,718.76 2673.00,739.00
             2673.00,739.00 2673.00,1452.00 2673.00,1452.00
             2673.00,1452.00 2673.96,1464.00 2673.96,1464.00
             2673.96,1464.00 2673.96,1478.00 2673.96,1478.00
             2673.96,1478.00 2674.91,1490.00 2674.91,1490.00
             2677.43,1526.00 2687.26,1561.23 2702.31,1594.00
             2716.60,1625.13 2741.25,1658.66 2764.17,1684.00
             2790.79,1713.43 2822.02,1738.09 2851.00,1765.09
             2863.42,1776.66 2875.50,1789.26 2886.72,1802.00
             2952.40,1876.64 2996.16,1960.74 3013.25,2059.00
             3013.25,2059.00 3020.09,2115.00 3020.09,2115.00
             3020.09,2115.00 3021.00,2127.00 3021.00,2127.00
             3021.00,2127.00 3021.00,2930.00 3021.00,2930.00
             3021.00,2930.00 3020.09,2942.00 3020.09,2942.00
             3020.09,2942.00 3017.13,2970.00 3017.13,2970.00
             3010.21,3019.73 2991.86,3069.32 2957.83,3107.00
             2922.95,3145.62 2873.54,3166.93 2823.00,3175.41
             2810.61,3177.49 2793.39,3179.98 2781.00,3180.00
             2781.00,3180.00 1600.00,3180.00 1600.00,3180.00
             1600.00,3180.00 1164.00,3180.00 1164.00,3180.00
             1164.00,3180.00 946.00,3180.00 946.00,3180.00
             930.08,3179.81 900.72,3174.80 885.00,3170.87
             885.00,3170.87 855.00,3162.31 855.00,3162.31
             792.38,3140.00 737.75,3097.00 707.75,3037.00
             696.09,3013.67 685.04,2978.16 685.00,2952.00
             685.00,2952.00 685.00,2044.00 685.00,2044.00
             685.00,2044.00 686.00,2029.00 686.00,2029.00
             686.00,2029.00 686.00,2013.00 686.00,2013.00
             686.00,2013.00 686.91,2003.00 686.91,2003.00
             688.29,1982.87 689.24,1961.10 696.42,1942.00
             711.30,1902.45 741.40,1864.75 769.91,1834.00
             769.91,1834.00 806.00,1796.01 806.00,1796.01
             806.00,1796.01 816.00,1786.96 816.00,1786.96
             816.00,1786.96 833.00,1770.09 833.00,1770.09
             833.00,1770.09 854.00,1750.91 854.00,1750.91
             854.00,1750.91 869.00,1736.04 869.00,1736.04
             869.00,1736.04 879.00,1726.99 879.00,1726.99
             879.00,1726.99 905.04,1700.00 905.04,1700.00
             929.60,1674.32 954.90,1647.36 972.14,1616.00
             980.65,1600.51 986.03,1572.72 988.15,1555.00
             988.15,1555.00 991.09,1525.00 991.09,1525.00
             991.09,1525.00 992.00,1515.00 992.00,1515.00
             992.00,1515.00 993.00,1496.00 993.00,1496.00
             993.00,1496.00 993.00,1469.00 993.00,1469.00
             993.00,1469.00 994.00,1452.00 994.00,1452.00
             994.00,1452.00 994.00,740.00 994.00,740.00
             994.02,728.35 997.28,712.41 1000.13,701.00
             1020.07,621.22 1086.24,565.75 1162.00,540.51
             1177.68,535.29 1201.52,530.39 1218.00,528.28
             1218.00,528.28 1237.00,526.08 1237.00,526.08
             1237.00,526.08 1283.00,526.08 1283.00,526.08 Z
           M 1433.00,947.00
           C 1429.95,947.62 1422.77,949.22 1420.48,951.08
             1417.99,953.10 1416.37,959.85 1415.66,963.00
             1413.24,973.83 1413.13,984.96 1413.00,996.00
             1413.00,996.00 1412.00,1011.00 1412.00,1011.00
             1412.00,1011.00 1412.00,1083.00 1412.00,1083.00
             1412.00,1083.00 1412.00,1335.00 1412.00,1335.00
             1412.00,1335.00 1412.00,1462.00 1412.00,1462.00
             1412.00,1462.00 1413.00,1477.00 1413.00,1477.00
             1413.02,1492.14 1413.68,1507.13 1416.80,1522.00
             1417.73,1526.40 1420.06,1535.56 1423.27,1538.58
             1426.04,1541.19 1433.20,1542.88 1437.00,1543.77
             1446.14,1545.90 1463.67,1547.99 1473.00,1548.00
             1473.00,1548.00 1486.00,1548.00 1486.00,1548.00
             1486.00,1548.00 1501.00,1549.00 1501.00,1549.00
             1501.00,1549.00 2081.00,1549.00 2081.00,1549.00
             2081.00,1549.00 2198.00,1549.00 2198.00,1549.00
             2198.00,1549.00 2213.00,1548.00 2213.00,1548.00
             2213.00,1548.00 2227.00,1548.00 2227.00,1548.00
             2227.00,1548.00 2252.00,1545.39 2252.00,1545.39
             2254.59,1544.92 2259.36,1544.20 2261.18,1542.28
             2263.63,1539.68 2264.87,1528.82 2265.42,1525.00
             2267.84,1508.18 2267.81,1491.92 2268.00,1475.00
             2268.00,1475.00 2269.00,1460.00 2269.00,1460.00
             2269.00,1460.00 2269.00,1068.00 2269.00,1068.00
             2269.00,1068.00 2269.00,1012.00 2269.00,1012.00
             2269.00,1012.00 2268.04,1000.00 2268.04,1000.00
             2268.04,1000.00 2268.04,989.00 2268.04,989.00
             2267.89,980.11 2265.25,960.68 2258.67,954.53
             2249.65,946.08 2225.02,945.14 2213.00,945.00
             2213.00,945.00 2198.00,944.07 2198.00,944.07
             2198.00,944.07 1713.00,944.07 1713.00,944.07
             1713.00,944.07 1551.00,944.07 1551.00,944.07
             1551.00,944.07 1468.00,944.07 1468.00,944.07
             1468.00,944.07 1433.00,947.00 1433.00,947.00 Z
           M 2382.00,2721.00
           C 2382.00,2721.00 2382.00,2704.00 2382.00,2704.00
             2382.00,2704.00 2383.00,2688.00 2383.00,2688.00
             2383.00,2688.00 2383.00,2151.00 2383.00,2151.00
             2383.00,2151.00 2383.00,2043.00 2383.00,2043.00
             2383.00,2043.00 2382.00,2028.00 2382.00,2028.00
             2382.00,2028.00 2382.00,2019.00 2382.00,2019.00
             2381.84,2005.64 2377.80,1981.61 2367.91,1972.18
             2361.81,1966.37 2350.19,1962.53 2342.00,1960.80
             2328.21,1957.90 2317.02,1957.02 2303.00,1957.00
             2303.00,1957.00 2286.00,1956.00 2286.00,1956.00
             2286.00,1956.00 1551.00,1956.00 1551.00,1956.00
             1551.00,1956.00 1413.00,1956.00 1413.00,1956.00
             1413.00,1956.00 1398.00,1957.00 1398.00,1957.00
             1398.00,1957.00 1386.00,1957.00 1386.00,1957.00
             1376.30,1957.12 1359.41,1959.58 1350.00,1962.15
             1344.79,1963.58 1339.08,1965.22 1335.21,1969.19
             1330.74,1973.78 1328.79,1982.81 1327.42,1989.00
             1324.64,2001.60 1324.02,2013.17 1324.00,2026.00
             1324.00,2026.00 1323.00,2043.00 1323.00,2043.00
             1323.00,2043.00 1323.00,2582.00 1323.00,2582.00
             1323.00,2582.00 1323.00,2691.00 1323.00,2691.00
             1323.00,2691.00 1324.00,2706.00 1324.00,2706.00
             1324.00,2706.00 1324.00,2717.00 1324.00,2717.00
             1324.07,2722.88 1325.73,2735.22 1327.13,2741.00
             1327.78,2743.69 1328.52,2747.50 1330.51,2749.49
             1333.35,2752.34 1344.75,2754.20 1349.00,2754.92
             1365.66,2757.72 1382.18,2757.81 1399.00,2758.00
             1399.00,2758.00 1414.00,2759.00 1414.00,2759.00
             1414.00,2759.00 1980.00,2759.00 1980.00,2759.00
             1980.00,2759.00 2311.00,2759.00 2311.00,2759.00
             2311.00,2759.00 2326.00,2758.00 2326.00,2758.00
             2326.00,2758.00 2344.00,2758.00 2344.00,2758.00
             2344.00,2758.00 2379.00,2755.00 2379.00,2755.00
             2379.00,2755.00 2382.00,2721.00 2382.00,2721.00 Z" />
  <path id="Selection"
        fill="none" stroke="black" stroke-width="1"
        d="M 1291.00,582.06
           C 1291.00,582.06 1380.00,582.06 1380.00,582.06
             1380.00,582.06 1653.00,582.06 1653.00,582.06
             1653.00,582.06 2173.00,582.06 2173.00,582.06
             2173.00,582.06 2346.00,582.06 2346.00,582.06
             2346.00,582.06 2433.00,582.06 2433.00,582.06
             2442.32,582.11 2459.62,584.72 2469.00,586.60
             2538.31,600.46 2599.20,647.13 2613.60,719.00
             2615.38,727.91 2616.99,736.89 2617.00,746.00
             2617.00,746.00 2617.00,1459.00 2617.00,1459.00
             2617.00,1459.00 2618.00,1476.00 2618.00,1476.00
             2618.04,1501.87 2621.61,1527.87 2627.89,1553.00
             2643.89,1616.97 2678.20,1673.40 2722.17,1722.00
             2750.08,1752.85 2782.62,1778.79 2813.00,1807.09
             2827.76,1820.84 2844.60,1839.42 2857.57,1855.00
             2910.40,1918.49 2944.11,1990.70 2958.25,2072.00
             2958.25,2072.00 2964.09,2122.00 2964.09,2122.00
             2964.09,2122.00 2965.00,2134.00 2965.00,2134.00
             2965.00,2134.00 2965.00,2923.00 2965.00,2923.00
             2965.00,2923.00 2964.09,2935.00 2964.09,2935.00
             2960.80,2982.84 2948.51,3033.93 2914.91,3070.00
             2885.78,3101.28 2845.31,3115.36 2804.00,3121.27
             2804.00,3121.27 2774.00,3124.00 2774.00,3124.00
             2774.00,3124.00 1206.00,3124.00 1206.00,3124.00
             1206.00,3124.00 1019.00,3124.00 1019.00,3124.00
             1019.00,3124.00 955.00,3124.00 955.00,3124.00
             931.16,3123.96 892.37,3116.01 870.00,3107.58
             811.77,3085.61 761.66,3040.84 746.13,2979.00
             743.51,2968.59 741.02,2955.71 741.00,2945.00
             741.00,2945.00 741.00,2051.00 741.00,2051.00
             741.00,2051.00 742.00,2035.00 742.00,2035.00
             742.00,2035.00 742.00,2020.00 742.00,2020.00
             742.00,2020.00 742.91,2010.00 742.91,2010.00
             744.12,1992.29 744.58,1973.73 751.20,1957.00
             757.94,1940.00 769.69,1923.56 780.63,1909.00
             795.95,1888.60 813.37,1870.39 830.96,1852.00
             830.96,1852.00 845.00,1837.04 845.00,1837.04
             845.00,1837.04 854.00,1828.96 854.00,1828.96
             854.00,1828.96 871.00,1812.09 871.00,1812.09
             905.64,1779.82 939.82,1747.58 971.15,1712.00
             990.59,1689.92 1013.42,1661.79 1025.69,1635.00
             1036.33,1611.78 1041.00,1586.15 1044.28,1561.00
             1044.28,1561.00 1047.09,1532.00 1047.09,1532.00
             1047.09,1532.00 1048.00,1522.00 1048.00,1522.00
             1048.00,1522.00 1049.00,1504.00 1049.00,1504.00
             1049.00,1504.00 1049.00,1476.00 1049.00,1476.00
             1049.00,1476.00 1050.00,1459.00 1050.00,1459.00
             1050.00,1459.00 1050.00,747.00 1050.00,747.00
             1050.02,736.93 1052.19,725.78 1054.63,716.00
             1067.62,663.80 1109.44,623.20 1158.00,602.43
             1179.16,593.37 1202.16,587.20 1225.00,584.28
             1225.00,584.28 1244.00,582.06 1244.00,582.06
             1244.00,582.06 1291.00,582.06 1291.00,582.06 Z
           M 1446.00,889.00
           C 1433.23,889.02 1415.01,892.32 1403.00,896.69
             1394.64,899.74 1384.25,905.54 1378.17,912.04
             1363.36,927.89 1357.03,959.76 1357.00,981.00
             1357.00,981.00 1356.00,1004.00 1356.00,1004.00
             1356.00,1004.00 1356.00,1303.00 1356.00,1303.00
             1356.00,1303.00 1356.00,1469.00 1356.00,1469.00
             1356.00,1469.00 1357.00,1484.00 1357.00,1484.00
             1357.00,1484.00 1357.00,1495.00 1357.00,1495.00
             1357.00,1495.00 1357.91,1507.00 1357.91,1507.00
             1359.59,1529.95 1365.33,1561.99 1382.17,1578.83
             1391.08,1587.75 1404.04,1593.27 1416.00,1596.71
             1435.84,1602.41 1456.46,1603.97 1477.00,1604.00
             1477.00,1604.00 1494.00,1605.00 1494.00,1605.00
             1494.00,1605.00 1953.00,1605.00 1953.00,1605.00
             1953.00,1605.00 2122.00,1605.00 2122.00,1605.00
             2122.00,1605.00 2207.00,1605.00 2207.00,1605.00
             2207.00,1605.00 2222.00,1604.00 2222.00,1604.00
             2238.84,1603.97 2255.57,1602.88 2272.00,1598.87
             2282.09,1596.41 2294.35,1592.11 2301.99,1584.91
             2316.68,1571.06 2320.11,1544.24 2322.16,1525.00
             2322.16,1525.00 2324.00,1502.00 2324.00,1502.00
             2324.00,1502.00 2324.00,1483.00 2324.00,1483.00
             2324.00,1483.00 2325.00,1467.00 2325.00,1467.00
             2325.00,1467.00 2325.00,1005.00 2325.00,1005.00
             2325.00,1005.00 2324.00,990.00 2324.00,990.00
             2323.83,975.52 2322.59,963.02 2318.57,949.00
             2316.59,942.06 2312.74,933.11 2308.94,927.00
             2292.62,900.75 2257.72,889.35 2228.00,888.96
             2228.00,888.96 2217.00,888.96 2217.00,888.96
             2217.00,888.96 2205.00,888.07 2205.00,888.07
             2205.00,888.07 1710.00,888.07 1710.00,888.07
             1710.00,888.07 1545.00,888.07 1545.00,888.07
             1545.00,888.07 1461.00,888.07 1461.00,888.07
             1454.93,889.16 1451.99,888.99 1446.00,889.00 Z
           M 1381.00,1901.00
           C 1381.00,1901.00 1369.00,1901.92 1369.00,1901.92
             1344.28,1903.89 1314.20,1910.05 1296.00,1928.01
             1273.33,1950.39 1268.05,1988.49 1268.00,2019.00
             1268.00,2019.00 1267.00,2036.00 1267.00,2036.00
             1267.00,2036.00 1267.00,2334.00 1267.00,2334.00
             1267.00,2334.00 1267.00,2578.00 1267.00,2578.00
             1267.00,2578.00 1267.00,2700.00 1267.00,2700.00
             1267.00,2700.00 1268.00,2715.00 1268.00,2715.00
             1268.04,2738.76 1271.62,2770.65 1288.17,2789.00
             1298.54,2800.48 1314.22,2805.63 1329.00,2808.60
             1350.58,2812.94 1368.13,2813.97 1390.00,2814.00
             1390.00,2814.00 1407.00,2815.00 1407.00,2815.00
             1407.00,2815.00 2187.00,2815.00 2187.00,2815.00
             2187.00,2815.00 2320.00,2815.00 2320.00,2815.00
             2320.00,2815.00 2335.00,2814.00 2335.00,2814.00
             2335.00,2814.00 2351.00,2814.00 2351.00,2814.00
             2364.27,2813.98 2389.39,2810.88 2402.00,2806.98
             2408.79,2804.87 2416.54,2801.94 2421.53,2796.70
             2428.36,2789.53 2432.43,2774.68 2434.08,2765.00
             2437.40,2745.45 2437.97,2731.66 2438.00,2712.00
             2438.00,2712.00 2439.00,2695.00 2439.00,2695.00
             2439.00,2695.00 2439.00,2036.00 2439.00,2036.00
             2439.00,2036.00 2438.00,2014.00 2438.00,2014.00
             2437.96,1989.00 2429.12,1956.18 2412.70,1937.00
             2393.70,1914.80 2364.96,1906.36 2337.00,1902.72
             2337.00,1902.72 2318.00,1900.96 2318.00,1900.96
             2318.00,1900.96 2305.00,1900.96 2305.00,1900.96
             2305.00,1900.96 2293.00,1900.06 2293.00,1900.06
             2293.00,1900.06 1700.00,1900.06 1700.00,1900.06
             1700.00,1900.06 1502.00,1900.06 1502.00,1900.06
             1502.00,1900.06 1437.00,1900.06 1437.00,1900.06
             1437.00,1900.06 1401.00,1900.06 1401.00,1900.06
             1394.33,1901.24 1387.72,1900.99 1381.00,1901.00 Z" />
</svg>
