solid OpenSCAD_Model
  facet normal 0 -1 0
    outer loop
      vertex 10.2836 -23.0762 0
      vertex 10.2836 -23.0762 3.1
      vertex 0.559929 -23.0762 3.1
    endloop
  endfacet
  facet normal 0 -1 0
    outer loop
      vertex -1.93576 -23.0762 0.6
      vertex 10.2836 -23.0762 0
      vertex 0.559929 -23.0762 0.6
    endloop
  endfacet
  facet normal 0 -1 0
    outer loop
      vertex 0.559929 -23.0762 0.6
      vertex 10.2836 -23.0762 0
      vertex 0.559929 -23.0762 3.1
    endloop
  endfacet
  facet normal 0 -1 0
    outer loop
      vertex -10.2836 -23.0762 0
      vertex 10.2836 -23.0762 0
      vertex -1.93576 -23.0762 0.6
    endloop
  endfacet
  facet normal 0 -1 0
    outer loop
      vertex -10.2836 -23.0762 3.1
      vertex -1.93576 -23.0762 0.6
      vertex -1.93576 -23.0762 3.1
    endloop
  endfacet
  facet normal 0 -1 0
    outer loop
      vertex -10.2836 -23.0762 0
      vertex -1.93576 -23.0762 0.6
      vertex -10.2836 -23.0762 3.1
    endloop
  endfacet
  facet normal 0 0 -1
    outer loop
      vertex 10.2836 23.0762 0
      vertex 10.2836 -23.0762 0
      vertex -10.2836 23.0762 0
    endloop
  endfacet
  facet normal 0 0 -1
    outer loop
      vertex -10.2836 23.0762 0
      vertex 10.2836 -23.0762 0
      vertex -10.2836 -23.0762 0
    endloop
  endfacet
  facet normal -1 0 0
    outer loop
      vertex -10.2836 23.0762 3.1
      vertex -10.2836 23.0762 0
      vertex -10.2836 -23.0762 3.1
    endloop
  endfacet
  facet normal -1 0 0
    outer loop
      vertex -10.2836 -23.0762 3.1
      vertex -10.2836 23.0762 0
      vertex -10.2836 -23.0762 0
    endloop
  endfacet
  facet normal 1 0 0
    outer loop
      vertex 10.2836 23.0762 0
      vertex 10.2836 23.0762 3.1
      vertex 10.2836 -23.0762 3.1
    endloop
  endfacet
  facet normal 1 0 0
    outer loop
      vertex 10.2836 -23.0762 0
      vertex 10.2836 23.0762 0
      vertex 10.2836 -23.0762 3.1
    endloop
  endfacet
  facet normal 0 0 1
    outer loop
      vertex -6.93646 15.1562 3.1
      vertex -10.2836 23.0762 3.1
      vertex -6.93646 10.1555 3.1
    endloop
  endfacet
  facet normal 0 0 1
    outer loop
      vertex -1.93576 -23.0762 3.1
      vertex -1.93576 10.1555 3.1
      vertex -6.93646 10.1555 3.1
    endloop
  endfacet
  facet normal 0 0 1
    outer loop
      vertex -10.2836 23.0762 3.1
      vertex -1.93576 -23.0762 3.1
      vertex -6.93646 10.1555 3.1
    endloop
  endfacet
  facet normal 0 0 1
    outer loop
      vertex -1.93576 15.1562 3.1
      vertex -1.93576 23.0762 3.1
      vertex -6.93646 15.1562 3.1
    endloop
  endfacet
  facet normal 0 0 1
    outer loop
      vertex -1.93576 23.0762 3.1
      vertex -10.2836 23.0762 3.1
      vertex -6.93646 15.1562 3.1
    endloop
  endfacet
  facet normal 0 0 1
    outer loop
      vertex -10.2836 23.0762 3.1
      vertex -10.2836 -23.0762 3.1
      vertex -1.93576 -23.0762 3.1
    endloop
  endfacet
  facet normal 1 0 0
    outer loop
      vertex -1.93576 -23.0762 3.1
      vertex -1.93576 -23.0762 0.6
      vertex -1.93576 10.1555 0.6
    endloop
  endfacet
  facet normal 1 0 0
    outer loop
      vertex -1.93576 10.1555 3.1
      vertex -1.93576 -23.0762 3.1
      vertex -1.93576 10.1555 0.6
    endloop
  endfacet
  facet normal 0 0 1
    outer loop
      vertex 6.93646 -11.9812 0.6
      vertex 0.559929 -5.60465 0.6
      vertex 6.92771 -11.999 0.6
    endloop
  endfacet
  facet normal 0 0 1
    outer loop
      vertex -6.93646 15.1562 0.6
      vertex -6.93646 10.1555 0.6
      vertex -1.93576 10.1555 0.6
    endloop
  endfacet
  facet normal 0 0 1
    outer loop
      vertex -1.93576 15.1562 0.6
      vertex -6.93646 15.1562 0.6
      vertex -1.93576 10.1555 0.6
    endloop
  endfacet
  facet normal 0 0 1
    outer loop
      vertex -1.93576 -23.0762 0.6
      vertex 0.559929 -23.0762 0.6
      vertex -1.93576 10.1555 0.6
    endloop
  endfacet
  facet normal 0 0 1
    outer loop
      vertex 0.559929 -23.0762 0.6
      vertex 0.559929 -18.3842 0.6
      vertex -1.93576 10.1555 0.6
    endloop
  endfacet
  facet normal 0 0 1
    outer loop
      vertex 0.559929 -18.3842 0.6
      vertex 6.93646 -12.0077 0.6
      vertex 6.92771 -11.999 0.6
    endloop
  endfacet
  facet normal 0 0 1
    outer loop
      vertex -1.93576 23.0762 0.6
      vertex -1.93576 15.1562 0.6
      vertex 0.559929 23.0762 0.6
    endloop
  endfacet
  facet normal 0 0 1
    outer loop
      vertex 0.559929 -18.3842 0.6
      vertex 0.559929 -14.8565 0.6
      vertex -1.93576 10.1555 0.6
    endloop
  endfacet
  facet normal 0 0 1
    outer loop
      vertex 0.559929 -9.14146 0.6
      vertex 6.92771 -11.999 0.6
      vertex 0.559929 -5.60465 0.6
    endloop
  endfacet
  facet normal 0 0 1
    outer loop
      vertex 0.559929 23.0762 0.6
      vertex -1.93576 15.1562 0.6
      vertex -1.93576 10.1555 0.6
    endloop
  endfacet
  facet normal 0 0 1
    outer loop
      vertex -1.93576 10.1555 0.6
      vertex 0.559929 -14.8565 0.6
      vertex 0.559929 -9.14146 0.6
    endloop
  endfacet
  facet normal 0 0 1
    outer loop
      vertex 0.559929 -18.3842 0.6
      vertex 6.92771 -11.999 0.6
      vertex 0.559929 -14.8565 0.6
    endloop
  endfacet
  facet normal 0 0 1
    outer loop
      vertex -1.93576 10.1555 0.6
      vertex 0.559929 -9.14146 0.6
      vertex 0.559929 -5.60465 0.6
    endloop
  endfacet
  facet normal 0 0 1
    outer loop
      vertex 3.41743 -11.999 0.6
      vertex 6.92771 -11.999 0.6
      vertex 0.559929 -9.14146 0.6
    endloop
  endfacet
  facet normal 0 0 1
    outer loop
      vertex 0.559929 -14.8565 0.6
      vertex 6.92771 -11.999 0.6
      vertex 3.41743 -11.999 0.6
    endloop
  endfacet
  facet normal 0 0 1
    outer loop
      vertex 0.559929 -5.60465 0.6
      vertex 0.559929 23.0762 0.6
      vertex -1.93576 10.1555 0.6
    endloop
  endfacet
  facet normal -1 0 0
    outer loop
      vertex 0.559929 -23.0762 0.6
      vertex 0.559929 -23.0762 3.1
      vertex 0.559929 -18.3842 0.6
    endloop
  endfacet
  facet normal -1 0 0
    outer loop
      vertex 0.559929 -18.3842 0.6
      vertex 0.559929 -23.0762 3.1
      vertex 0.559929 -18.3842 3.1
    endloop
  endfacet
  facet normal 0 0 1
    outer loop
      vertex 10.2836 -23.0762 3.1
      vertex 10.2836 23.0762 3.1
      vertex 0.559929 23.0762 3.1
    endloop
  endfacet
  facet normal 0 0 1
    outer loop
      vertex 6.93646 -11.9812 3.1
      vertex 10.2836 -23.0762 3.1
      vertex 0.559929 23.0762 3.1
    endloop
  endfacet
  facet normal 0 0 1
    outer loop
      vertex 0.559929 -5.60465 3.1
      vertex 6.93646 -11.9812 3.1
      vertex 0.559929 23.0762 3.1
    endloop
  endfacet
  facet normal 0 0 1
    outer loop
      vertex 6.93646 -12.0077 3.1
      vertex 10.2836 -23.0762 3.1
      vertex 6.93646 -11.9812 3.1
    endloop
  endfacet
  facet normal 0 0 1
    outer loop
      vertex 6.92771 -11.999 3.1
      vertex 6.93646 -12.0077 3.1
      vertex 6.93646 -11.9812 3.1
    endloop
  endfacet
  facet normal 0 0 1
    outer loop
      vertex 0.559929 -23.0762 3.1
      vertex 10.2836 -23.0762 3.1
      vertex 0.559929 -18.3842 3.1
    endloop
  endfacet
  facet normal 0 0 1
    outer loop
      vertex 6.93646 -12.0077 3.1
      vertex 0.559929 -18.3842 3.1
      vertex 10.2836 -23.0762 3.1
    endloop
  endfacet
  facet normal 0 1 0
    outer loop
      vertex -1.93576 23.0762 3.1
      vertex -1.93576 23.0762 0.6
      vertex -10.2836 23.0762 3.1
    endloop
  endfacet
  facet normal 0 1 0
    outer loop
      vertex -10.2836 23.0762 0
      vertex -1.93576 23.0762 0.6
      vertex 10.2836 23.0762 0
    endloop
  endfacet
  facet normal 0 1 0
    outer loop
      vertex 10.2836 23.0762 3.1
      vertex 0.559929 23.0762 0.6
      vertex 0.559929 23.0762 3.1
    endloop
  endfacet
  facet normal 0 1 0
    outer loop
      vertex 10.2836 23.0762 0
      vertex 0.559929 23.0762 0.6
      vertex 10.2836 23.0762 3.1
    endloop
  endfacet
  facet normal 0 1 0
    outer loop
      vertex -1.93576 23.0762 0.6
      vertex 0.559929 23.0762 0.6
      vertex 10.2836 23.0762 0
    endloop
  endfacet
  facet normal 0 1 0
    outer loop
      vertex -10.2836 23.0762 3.1
      vertex -1.93576 23.0762 0.6
      vertex -10.2836 23.0762 0
    endloop
  endfacet
  facet normal 1 0 0
    outer loop
      vertex -1.93576 15.1562 3.1
      vertex -1.93576 15.1562 0.6
      vertex -1.93576 23.0762 0.6
    endloop
  endfacet
  facet normal 1 0 0
    outer loop
      vertex -1.93576 23.0762 3.1
      vertex -1.93576 15.1562 3.1
      vertex -1.93576 23.0762 0.6
    endloop
  endfacet
  facet normal 0 -1 0
    outer loop
      vertex -6.93646 15.1562 3.1
      vertex -6.93646 15.1562 0.6
      vertex -1.93576 15.1562 0.6
    endloop
  endfacet
  facet normal 0 -1 0
    outer loop
      vertex -1.93576 15.1562 3.1
      vertex -6.93646 15.1562 3.1
      vertex -1.93576 15.1562 0.6
    endloop
  endfacet
  facet normal 1 0 0
    outer loop
      vertex -6.93646 10.1555 3.1
      vertex -6.93646 10.1555 0.6
      vertex -6.93646 15.1562 0.6
    endloop
  endfacet
  facet normal 1 0 0
    outer loop
      vertex -6.93646 15.1562 3.1
      vertex -6.93646 10.1555 3.1
      vertex -6.93646 15.1562 0.6
    endloop
  endfacet
  facet normal 0 1 0
    outer loop
      vertex -6.93646 10.1555 0.6
      vertex -6.93646 10.1555 3.1
      vertex -1.93576 10.1555 0.6
    endloop
  endfacet
  facet normal 0 1 0
    outer loop
      vertex -1.93576 10.1555 0.6
      vertex -6.93646 10.1555 3.1
      vertex -1.93576 10.1555 3.1
    endloop
  endfacet
  facet normal -1 0 0
    outer loop
      vertex 0.559929 -5.60465 0.6
      vertex 0.559929 -5.60465 3.1
      vertex 0.559929 23.0762 0.6
    endloop
  endfacet
  facet normal -1 0 0
    outer loop
      vertex 0.559929 23.0762 0.6
      vertex 0.559929 -5.60465 3.1
      vertex 0.559929 23.0762 3.1
    endloop
  endfacet
  facet normal -0.707107 -0.707107 0
    outer loop
      vertex 0.559929 -5.60465 3.1
      vertex 0.559929 -5.60465 0.6
      vertex 6.93646 -11.9812 0.6
    endloop
  endfacet
  facet normal -0.707107 -0.707107 0
    outer loop
      vertex 6.93646 -11.9812 3.1
      vertex 0.559929 -5.60465 3.1
      vertex 6.93646 -11.9812 0.6
    endloop
  endfacet
  facet normal -0.897257 0.441508 0
    outer loop
      vertex 6.92771 -11.999 0.6
      vertex 6.92771 -11.999 3.1
      vertex 6.93646 -11.9812 0.6
    endloop
  endfacet
  facet normal -0.897257 0.441508 0
    outer loop
      vertex 6.93646 -11.9812 0.6
      vertex 6.92771 -11.999 3.1
      vertex 6.93646 -11.9812 3.1
    endloop
  endfacet
  facet normal -0.707107 -0.707107 0
    outer loop
      vertex 6.92771 -11.999 3.1
      vertex 6.92771 -11.999 0.6
      vertex 6.93646 -12.0077 0.6
    endloop
  endfacet
  facet normal -0.707107 -0.707107 0
    outer loop
      vertex 6.93646 -12.0077 3.1
      vertex 6.92771 -11.999 3.1
      vertex 6.93646 -12.0077 0.6
    endloop
  endfacet
  facet normal -0.707107 0.707107 0
    outer loop
      vertex 0.559929 -18.3842 0.6
      vertex 0.559929 -18.3842 3.1
      vertex 6.93646 -12.0077 0.6
    endloop
  endfacet
  facet normal -0.707107 0.707107 0
    outer loop
      vertex 6.93646 -12.0077 0.6
      vertex 0.559929 -18.3842 3.1
      vertex 6.93646 -12.0077 3.1
    endloop
  endfacet
  facet normal 0.707107 -0.707107 0
    outer loop
      vertex 3.41743 -11.999 0.6
      vertex 3.41743 -11.999 3.1
      vertex 0.559929 -14.8565 3.1
    endloop
  endfacet
  facet normal 0.707107 -0.707107 0
    outer loop
      vertex 0.559929 -14.8565 0.6
      vertex 3.41743 -11.999 0.6
      vertex 0.559929 -14.8565 3.1
    endloop
  endfacet
  facet normal -1 0 0
    outer loop
      vertex 0.559929 -9.14146 3.1
      vertex 0.559929 -9.14146 0.6
      vertex 0.559929 -14.8565 3.1
    endloop
  endfacet
  facet normal -1 0 0
    outer loop
      vertex 0.559929 -14.8565 3.1
      vertex 0.559929 -9.14146 0.6
      vertex 0.559929 -14.8565 0.6
    endloop
  endfacet
  facet normal 0.707107 0.707107 0
    outer loop
      vertex 3.41743 -11.999 3.1
      vertex 3.41743 -11.999 0.6
      vertex 0.559929 -9.14146 3.1
    endloop
  endfacet
  facet normal 0.707107 0.707107 0
    outer loop
      vertex 0.559929 -9.14146 3.1
      vertex 3.41743 -11.999 0.6
      vertex 0.559929 -9.14146 0.6
    endloop
  endfacet
  facet normal 0 0 1
    outer loop
      vertex 3.41743 -11.999 3.1
      vertex 0.559929 -9.14146 3.1
      vertex 0.559929 -14.8565 3.1
    endloop
  endfacet
endsolid OpenSCAD_Model
