<?xml version="1.0" encoding="UTF-8" standalone="no"?>
<svg
   xmlns:dc="http://purl.org/dc/elements/1.1/"
   xmlns:cc="http://creativecommons.org/ns#"
   xmlns:rdf="http://www.w3.org/1999/02/22-rdf-syntax-ns#"
   xmlns:svg="http://www.w3.org/2000/svg"
   xmlns="http://www.w3.org/2000/svg"
   xmlns:sodipodi="http://sodipodi.sourceforge.net/DTD/sodipodi-0.dtd"
   xmlns:inkscape="http://www.inkscape.org/namespaces/inkscape"
   sodipodi:docname="dual_channel.svg"
   inkscape:version="0.48.4 r9939"
   version="1.1"
   id="svg3004"
   viewBox="0 0 944.47877 2011.1516"
   height="603.34375"
   width="283.34375">
  <sodipodi:namedview
     pagecolor="#ffffff"
     bordercolor="#666666"
     borderopacity="1"
     objecttolerance="10"
     gridtolerance="10"
     guidetolerance="10"
     inkscape:pageopacity="0"
     inkscape:pageshadow="2"
     inkscape:window-width="1148"
     inkscape:window-height="945"
     id="namedview3010"
     showgrid="false"
     inkscape:zoom="1.1326524"
     inkscape:cx="127.18704"
     inkscape:cy="298.67396"
     inkscape:window-x="0"
     inkscape:window-y="22"
     inkscape:window-maximized="0"
     inkscape:current-layer="svg3004"
     fit-margin-top="0"
     fit-margin-left="0"
     fit-margin-right="0"
     fit-margin-bottom="0" />
  <metadata
     id="metadata3014">
    <rdf:RDF>
      <cc:Work
         rdf:about="">
        <dc:format>image/svg+xml</dc:format>
        <dc:type
           rdf:resource="http://purl.org/dc/dcmitype/StillImage" />
        <dc:title />
      </cc:Work>
    </rdf:RDF>
  </metadata>
  <defs
     id="defs3012" />
  <path
     inkscape:connector-curvature="0"
     style="fill:#00ffff;fill-opacity:1;stroke:none"
     d="m -2098.1947,47.509 c -9.4637,0 -7.773,-0.099 -16.75,1.6875 -9.1221,1.8156 -7.5239,1.3244 -16.0937,4.875 -8.507,3.5244 -7.0352,2.7299 -14.7813,7.9062 -7.6926,5.14 -6.4043,4.0284 -13.0313,10.6563 -6.6258,6.6252 -5.5178,5.3417 -10.6562,13.0312 -5.1757,7.7453 -4.3811,6.2719 -7.9062,14.7813 -3.5532,8.5746 -3.0595,6.9725 -4.875,16.0937 -1.7856,8.9733 -1.6861,7.286 -1.6876,16.75 l 0,885.8437 c 0,9.4649 -0.096,7.7827 1.6876,16.75 1.8156,9.1212 1.3248,7.5247 4.875,16.0938 3.5261,8.5126 2.7301,7.0355 7.9062,14.7812 5.1384,7.6894 4.0331,6.4082 10.6562,13.0313 6.6275,6.6284 5.3422,5.5182 13.0313,10.6563 7.7459,5.176 6.2756,4.3821 14.7813,7.9062 8.5711,3.5512 6.9724,3.0595 16.0937,4.875 8.9769,1.7868 7.282,1.6865 16.75,1.6875 l 177.1875,0 c 9.4731,-5e-4 7.7741,0.099 16.75,-1.6875 9.1213,-1.8155 7.5226,-1.3238 16.0938,-4.875 8.5072,-3.5247 7.045,-2.7381 14.7812,-7.9062 7.6855,-5.1364 6.4076,-4.0327 13.0312,-10.6563 6.6211,-6.6215 5.5179,-5.3419 10.6563,-13.0313 5.1769,-7.7469 4.383,-6.2784 7.9063,-14.7812 3.5472,-8.5639 3.0588,-6.9679 4.875,-16.0938 1.7867,-8.9769 1.686,-7.2862 1.6874,-16.75 l 0,-268.5 64.6876,0 0,268.5 c 0,9.4638 -0.099,7.7743 1.6874,16.75 1.8165,9.1301 1.3271,7.5287 4.875,16.0938 3.5224,8.4999 2.7292,7.0341 7.9063,14.7812 5.1389,7.6901 4.0378,6.4119 10.6563,13.0313 6.6212,6.6207 5.3452,5.5196 13.0312,10.6563 7.7393,5.1706 6.2749,4.3818 14.7812,7.9062 8.5712,3.5512 6.9725,3.0595 16.0938,4.875 8.9769,1.7868 7.282,1.6865 16.75,1.6875 l 118.125,0 59.0625,0 c 9.468,-10e-4 7.7731,0.099 16.75,-1.6875 9.1213,-1.8155 7.5226,-1.3238 16.0937,-4.875 8.5066,-3.5244 7.0385,-2.7327 14.7813,-7.9062 7.6896,-5.1385 6.4063,-4.0308 13.0313,-10.6563 6.6257,-6.6252 5.5183,-5.3426 10.6562,-13.0313 5.1764,-7.7461 4.3805,-6.2702 7.9062,-14.7812 3.5533,-8.575 3.0596,-6.9738 4.875,-16.0938 1.7842,-8.9685 1.6861,-7.2851 1.6876,-16.75 l 0,-401.4687 0,-82.8125 0,-224.375 c 0,-9.464 0.098,-7.7767 -1.6876,-16.75 -1.8157,-9.1222 -1.3239,-7.5231 -4.875,-16.0937 -3.5265,-8.5139 -2.731,-7.0367 -7.9062,-14.7813 -5.1384,-7.6895 -4.0304,-6.406 -10.6562,-13.0312 -6.6246,-6.625 -5.3382,-5.516 -13.0313,-10.6563 -7.7461,-5.1763 -6.2743,-4.3818 -14.7813,-7.9062 -8.5698,-3.5506 -6.9716,-3.0594 -16.0937,-4.875 -8.977,-1.7868 -7.2863,-1.686 -16.75,-1.6875 l -177.1875,0 c -9.4637,0 -7.773,-0.099 -16.75,1.6875 -9.1221,1.8156 -7.5239,1.3244 -16.0938,4.875 -8.5073,3.5246 -7.0393,2.7333 -14.7812,7.9062 -7.6895,5.1385 -6.4103,4.0358 -13.0312,10.6563 -6.6209,6.6213 -5.5174,5.341 -10.6563,13.0312 -5.1762,7.7461 -4.3835,6.2801 -7.9063,14.7813 -3.5471,8.5635 -3.0587,6.9665 -4.875,16.0937 -1.7868,8.977 -1.686,7.286 -1.6874,16.75 l 0,91.4063 -68.8438,0 c -0.533,-1.4859 -1.0222,-2.7836 -2.4062,-6.125 -3.5228,-8.5012 -2.7301,-7.0352 -7.9063,-14.7813 -5.1389,-7.6902 -4.0354,-6.4099 -10.6563,-13.0312 -6.6209,-6.6205 -5.3417,-5.5178 -13.0312,-10.6563 -7.7419,-5.1729 -6.2739,-4.3816 -14.7812,-7.9062 -3.3443,-1.3856 -4.6384,-1.8732 -6.125,-2.4063 l 0,-213.6875 c 0,-9.465 0.097,-7.7814 -1.6876,-16.75 -1.8157,-9.1222 -1.3239,-7.5231 -4.875,-16.0937 -3.5265,-8.5139 -2.731,-7.0367 -7.9062,-14.7813 -5.1384,-7.6895 -4.0304,-6.406 -10.6562,-13.0312 -6.6251,-6.6255 -5.3405,-5.5172 -13.0313,-10.6563 -7.7461,-5.1763 -6.2743,-4.3818 -14.7813,-7.9062 -8.5698,-3.5506 -6.9716,-3.0594 -16.0937,-4.875 -8.977,-1.7868 -7.2863,-1.686 -16.75,-1.6875 l -118.125,0 z"
     id="path5112" />
  <path
     inkscape:connector-curvature="0"
     style="fill:#ff6600;fill-opacity:1;stroke:none"
     d="m -2098.1947,77.2902 c -1.8943,3e-4 -9.0796,0.724 -10.9375,1.0938 -1.8579,0.3697 -8.7499,2.4624 -10.5,3.1875 -1.7501,0.725 -8.0812,4.1037 -9.6562,5.1562 -1.5751,1.0525 -7.1606,5.6293 -8.5,6.9688 -1.3395,1.3394 -5.9163,6.9249 -6.9688,8.5 -1.0525,1.575 -4.4312,7.9061 -5.1562,9.6562 -0.7251,1.7501 -2.8178,8.6421 -3.1876,10.5 -0.3697,1.8579 -1.0934,9.0432 -1.0937,10.9375 l 0,885.8437 c 3e-4,1.8944 0.724,9.0797 1.0937,10.9376 0.3698,1.8578 2.4625,8.7499 3.1876,10.5 0.725,1.75 4.1037,8.0812 5.1562,9.6562 1.0525,1.575 5.6293,7.1605 6.9688,8.5 1.3394,1.3395 6.9249,5.9163 8.5,6.9688 1.575,1.0524 7.9061,4.4311 9.6562,5.1562 1.7501,0.7251 8.6421,2.8177 10.5,3.1875 1.8579,0.3698 9.0432,1.0934 10.9375,1.0937 l 177.1875,0 c 1.8943,-2e-4 9.0796,-0.7239 10.9375,-1.0937 1.8579,-0.3698 8.7499,-2.4624 10.5,-3.1875 1.7501,-0.7251 8.0812,-4.1038 9.6563,-5.1562 1.575,-1.0525 7.1605,-5.6293 8.5,-6.9688 1.3394,-1.3395 5.9162,-6.925 6.9687,-8.5 1.0525,-1.575 4.4312,-7.9062 5.1563,-9.6562 0.725,-1.7501 2.8177,-8.6422 3.1874,-10.5 0.3698,-1.8579 1.0935,-9.0432 1.0938,-10.9376 l 0,-298.2812 124.25,0 0,298.2812 c 3e-4,1.8944 0.724,9.0797 1.0938,10.9376 0.3697,1.8578 2.4624,8.7499 3.1874,10.5 0.7251,1.75 4.1038,8.0812 5.1563,9.6562 1.0525,1.575 5.6293,7.1605 6.9687,8.5 1.3395,1.3395 6.925,5.9163 8.5,6.9688 1.5751,1.0524 7.9062,4.4311 9.6563,5.1562 1.7501,0.7251 8.6421,2.8177 10.5,3.1875 1.8579,0.3698 9.0432,1.0935 10.9375,1.0937 l 118.125,0 59.0625,0 c 1.8943,-3e-4 9.0796,-0.7239 10.9375,-1.0937 1.8579,-0.3698 8.7499,-2.4624 10.5,-3.1875 1.7501,-0.7251 8.0812,-4.1038 9.6562,-5.1562 1.5751,-1.0525 7.1606,-5.6293 8.5,-6.9688 1.3395,-1.3395 5.9163,-6.925 6.9688,-8.5 1.0525,-1.575 4.4312,-7.9062 5.1562,-9.6562 0.7251,-1.7501 2.8178,-8.6422 3.1876,-10.5 0.3697,-1.8579 1.0934,-9.0432 1.0937,-10.9376 l 0,-401.4687 0,-82.8125 0,-224.375 c -3e-4,-1.8943 -0.724,-9.0796 -1.0937,-10.9375 -0.3698,-1.8579 -2.4625,-8.7499 -3.1876,-10.5 -0.725,-1.7501 -4.1037,-8.0812 -5.1562,-9.6563 -1.0525,-1.575 -5.6293,-7.1605 -6.9688,-8.5 -1.3394,-1.3394 -6.9249,-5.9162 -8.5,-6.9687 -1.575,-1.0525 -7.9061,-4.4312 -9.6562,-5.1563 -1.7501,-0.725 -8.6421,-2.8177 -10.5,-3.1875 -1.8579,-0.3697 -9.0432,-1.0934 -10.9375,-1.0937 l -177.1875,0 c -1.8943,3e-4 -9.0796,0.724 -10.9375,1.0937 -1.8579,0.3698 -8.7499,2.4625 -10.5,3.1875 -1.7501,0.7251 -8.0812,4.1038 -9.6563,5.1563 -1.575,1.0525 -7.1605,5.6293 -8.5,6.9687 -1.3394,1.3395 -5.9162,6.925 -6.9687,8.5 -1.0525,1.5751 -4.4312,7.9062 -5.1563,9.6563 -0.725,1.7501 -2.8177,8.6421 -3.1874,10.5 -0.3698,1.8579 -1.0935,9.0432 -1.0938,10.9375 l 0,121.1875 -124.25,0 0,-3.0625 c -3e-4,-1.8943 -0.724,-9.0796 -1.0938,-10.9375 -0.3697,-1.8579 -2.4624,-8.7499 -3.1874,-10.5 -0.7251,-1.7501 -4.1038,-8.0812 -5.1563,-9.6563 -1.0525,-1.575 -5.6293,-7.1605 -6.9687,-8.5 -1.3395,-1.3394 -6.925,-5.9162 -8.5,-6.9687 -1.5751,-1.0525 -7.9062,-4.4312 -9.6563,-5.1563 -1.7501,-0.725 -8.6421,-2.8177 -10.5,-3.1875 -1.8579,-0.3697 -9.0432,-1.0934 -10.9375,-1.0937 l -3.0625,0 0,-239.3125 c -3e-4,-1.8943 -0.724,-9.0796 -1.0937,-10.9375 -0.3698,-1.8579 -2.4625,-8.7499 -3.1876,-10.5 -0.725,-1.7501 -4.1037,-8.0812 -5.1562,-9.6563 -1.0525,-1.575 -5.6293,-7.1605 -6.9688,-8.5 -1.3394,-1.3394 -6.9249,-5.9162 -8.5,-6.9687 -1.575,-1.0525 -7.9061,-4.4312 -9.6562,-5.1563 -1.7501,-0.725 -8.6421,-2.8177 -10.5,-3.1875 -1.8579,-0.3697 -9.0432,-1.0934 -10.9375,-1.0937 l -118.125,0 z"
     id="path5107" />
  <path
     sodipodi:type="inkscape:offset"
     inkscape:radius="12.833309"
     inkscape:original="M -2062.875 471.375 L -2062.875 1357.2188 L -1885.6875 1357.2188 L -1885.6875 1002.9375 L -1649.4375 1002.9375 L -1649.4375 1357.2188 L -1531.3125 1357.2188 L -1472.25 1357.2188 L -1472.25 955.75 L -1543.5312 955.75 L -1543.5312 872.9375 L -1472.25 872.9375 L -1472.25 648.5625 L -1649.4375 648.5625 L -1649.4375 825.75 L -1885.6875 825.75 L -1885.6875 766.6875 L -1944.75 766.6875 L -1944.75 471.375 L -2062.875 471.375 z "
     style="fill:#ff0000;fill-opacity:1;stroke:none"
     id="path5084"
     d="m -2062.875,458.53125 a 12.834593,12.834593 0 0 0 -12.8438,12.84375 l 0,885.8438 a 12.834593,12.834593 0 0 0 12.8438,12.8437 l 177.1875,0 a 12.834593,12.834593 0 0 0 12.8437,-12.8437 l 0,-341.4376 210.5626,0 0,341.4376 a 12.834593,12.834593 0 0 0 12.8437,12.8437 l 118.125,0 59.0625,0 a 12.834593,12.834593 0 0 0 12.8438,-12.8437 l 0,-401.4688 a 12.834593,12.834593 0 0 0 -12.8438,-12.84375 l -58.4375,0 0,-57.125 58.4375,0 a 12.834593,12.834593 0 0 0 12.8438,-12.84375 l 0,-224.375 a 12.834593,12.834593 0 0 0 -12.8438,-12.84375 l -177.1875,0 a 12.834593,12.834593 0 0 0 -12.8437,12.84375 l 0,164.34375 -210.5626,0 0,-46.21875 a 12.834593,12.834593 0 0 0 -12.8437,-12.84375 l -46.2187,0 0,-282.46875 a 12.834593,12.834593 0 0 0 -12.8438,-12.84375 l -118.125,0 z"
     transform="translate(-35.322572,-338.0852)" />
  <rect
     style="fill:#ff0000;fill-opacity:1;stroke:none"
     id="rect4829"
     width="17.716587"
     height="885.82928"
     x="-1250.6976"
     y="100.93388" />
  <rect
     y="100.93388"
     x="-1114.8705"
     height="295.27643"
     width="17.716587"
     id="rect4835"
     style="fill:#ff0000;fill-opacity:1;stroke:none" />
  <rect
     style="fill:#ff0000;fill-opacity:1;stroke:none"
     id="rect4837"
     width="17.716587"
     height="153.54375"
     x="83.217331"
     y="1097.1539"
     transform="matrix(0,1,-1,0,0,0)" />
  <rect
     transform="matrix(0,1,-1,0,0,0)"
     y="1055.8151"
     x="378.49368"
     height="59.055286"
     width="17.716587"
     id="rect4845"
     style="fill:#ff0000;fill-opacity:1;stroke:none" />
  <rect
     style="fill:#ff0000;fill-opacity:1;stroke:none"
     id="rect4847"
     width="17.716587"
     height="76.771873"
     x="1038.0985"
     y="-455.26566"
     transform="scale(-1,-1)" />
  <rect
     transform="matrix(0,1,-1,0,0,0)"
     y="819.59412"
     x="437.5491"
     height="236.22115"
     width="17.716587"
     id="rect4851"
     style="fill:#ff0000;fill-opacity:1;stroke:none" />
  <rect
     transform="scale(-1,-1)"
     y="-455.26566"
     x="819.59412"
     height="177.16586"
     width="17.716587"
     id="rect4853"
     style="fill:#ff0000;fill-opacity:1;stroke:none" />
  <rect
     style="fill:#ff0000;fill-opacity:1;stroke:none"
     id="rect4855"
     width="17.716587"
     height="212.59903"
     x="260.38309"
     y="624.71155"
     transform="matrix(0,1,-1,0,0,0)" />
  <rect
     style="fill:#ff0000;fill-opacity:1;stroke:none"
     id="rect4859"
     width="17.716587"
     height="253.93773"
     x="624.71155"
     y="-514.32086"
     transform="scale(-1,-1)" />
  <rect
     transform="matrix(0,1,-1,0,0,0)"
     y="624.71155"
     x="514.32086"
     height="76.771873"
     width="17.716587"
     id="rect4861"
     style="fill:#ff0000;fill-opacity:1;stroke:none" />
  <rect
     transform="scale(-1,-1)"
     y="-573.37628"
     x="683.76697"
     height="59.055286"
     width="17.716587"
     id="rect4865"
     style="fill:#ff0000;fill-opacity:1;stroke:none" />
  <rect
     style="fill:#ff0000;fill-opacity:1;stroke:none"
     id="rect4867"
     width="17.716587"
     height="76.771873"
     x="555.65973"
     y="624.71155"
     transform="matrix(0,1,-1,0,0,0)" />
  <rect
     transform="scale(-1,-1)"
     y="-986.76324"
     x="624.71155"
     height="431.10361"
     width="17.716587"
     id="rect4869"
     style="fill:#ff0000;fill-opacity:1;stroke:none" />
  <rect
     transform="matrix(0,1,-1,0,0,0)"
     y="624.71155"
     x="260.38309"
     height="212.59903"
     width="17.716587"
     id="rect4871"
     style="fill:#ff0000;fill-opacity:1;stroke:none" />
  <path
     style="fill:#00ff00;fill-opacity:1;stroke:none"
     d="m -1722.2011,1532.6287 0,545.1057 242.9174,0 0,-545.1057 z"
     id="path4875"
     inkscape:connector-curvature="0"
     sodipodi:nodetypes="ccccc" />
  <path
     inkscape:connector-curvature="0"
     style="fill:#ff0000;fill-opacity:1;stroke:none"
     d="m -1623.4508,1532.6287 0,50.8335 0,42.7084 -59.0627,0 0,59.0627 59.0627,0 0,71.0419 0,85.6252 0,41.771 0,126.4587 0,41.6668 0,25.9375 29.4792,0 0,-55.4168 75.3127,-75.3127 -0.104,-0.104 0.104,-0.2083 -75.3127,-75.3128 0,-338.7509 -29.4792,0 z m 29.4792,380.5219 33.7501,33.7501 -33.7501,33.7501 0,-67.5002 z"
     id="rect4892" />
  <path
     sodipodi:nodetypes="cccccccccccccccccccc"
     inkscape:connector-curvature="0"
     id="path5123"
     d="m -761.55247,-2825.196 0,885.8438 177.1875,0 0,-354.2813 236.25,0 0,354.2813 118.125,0 59.0625,0 0,-401.4819 -71.2923,0 0,-82.7863 71.2923,0 0,-224.3881 -177.1875,0 0,177.1875 -236.25,0 0,-59.0625 -59.0625,0 0,-295.3125 z"
     style="fill:#00ff00;fill-opacity:1;stroke:none" />
  <path
     style="fill:#00ffff;fill-opacity:1;stroke:none"
     d="m -1926.6968,-2127.3937 -0.9575,0.9575 -0.9576,-0.9575 -22.0971,22.0971 0.9575,0.9576 -25.0434,25.0434 -0.9576,-0.9575 -22.0971,22.0971 0.9575,0.9576 -25.0434,25.0434 -0.9575,-0.9575 -22.0972,22.0971 0.9576,0.9576 -25.0435,25.0434 -0.9575,-0.9575 -22.0972,22.0971 0.9576,0.9576 -25.0435,25.0434 -0.9575,-0.9576 -22.0972,22.0972 0.9576,0.9575 -25.0435,25.0435 -0.9575,-0.9576 -22.0972,22.0971 0.9576,0.9576 -25.0434,25.0434 -0.9576,-0.9575 -22.0971,22.0971 0.9575,0.9576 -25.0434,25.0434 -0.9576,-0.9575 -22.0971,22.0971 0.9575,0.9576 -25.0434,25.0434 -0.9576,-0.9575 -22.0971,22.0971 0.9575,0.9575 -25.0434,25.0435 -0.9576,-0.9576 -22.0971,22.0972 0.9575,0.9575 -25.0434,25.0435 -0.9575,-0.9576 -22.0972,22.0972 0.9576,0.9575 -25.0435,25.0435 -0.9575,-0.9576 -22.0972,22.0972 0.9576,0.9575 -25.0435,25.0434 -0.9575,-0.9575 -22.0972,22.0972 0.9576,0.9575 -25.0435,25.0434 -0.9575,-0.9575 -22.0972,22.0971 0.9576,0.9576 -0.9576,0.9575 22.0972,22.0972 0.9575,-0.9576 25.0435,25.0435 -0.9576,0.9575 22.0972,22.0972 0.9575,-0.9576 25.0435,25.0435 -0.9576,0.9575 22.0972,22.0971 0.9575,-0.9575 25.0435,25.0434 -0.9576,0.9576 22.0972,22.0971 0.9575,-0.9575 25.0434,25.0434 -0.9575,0.9576 22.0971,22.0971 0.9576,-0.9575 25.0434,25.0434 -0.9575,0.9576 22.0971,22.0971 0.9576,-0.9575 25.0434,25.0434 -0.9575,0.9575 22.0971,22.0972 0.9576,-0.9576 25.0434,25.0435 -0.9575,0.9575 22.0971,22.0972 0.9576,-0.9576 25.0434,25.0435 -0.9576,0.9575 22.0972,22.0972 0.9575,-0.9576 25.0435,25.0435 -0.9576,0.9575 22.0972,22.0972 0.9575,-0.9576 25.0435,25.0434 -0.9576,0.9575 22.0972,22.0972 0.9575,-0.9576 25.0435,25.0435 -0.9576,0.9575 22.0972,22.0972 0.9575,-0.9576 25.0434,25.0435 -0.9575,0.9575 22.0971,22.0972 0.9576,-0.9576 24.5278,24.528 0.5156,0.5156 -0.9575,0.9575 0.4419,0.4419 21.6552,21.6553 0.442,0.4419 0.9575,-0.9575 0.5156,0.5156 24.5279,24.5278 -0.9576,0.9575 22.0972,22.0972 0.9575,-0.9576 25.0434,25.0435 -0.9575,0.9575 22.0972,22.0972 0.9575,-0.9576 25.0434,25.0435 -0.9575,0.9575 22.0971,22.0972 0.9576,-0.9576 25.0434,25.0434 -0.9575,0.9576 22.0971,22.0971 0.9576,-0.9575 25.0434,25.0434 -0.9575,0.9576 22.0971,22.0971 0.9576,-0.9575 25.0434,25.0434 -0.9576,0.9576 22.0972,22.0971 0.9575,-0.9575 25.0435,25.0434 -0.9576,0.9576 22.0972,22.0971 0.9575,-0.9575 25.0435,25.0434 -0.9576,0.9575 22.0972,22.0972 0.9575,-0.9576 25.0435,25.0435 -0.9576,0.9575 22.0972,22.0972 0.9575,-0.9576 25.0434,25.0435 -0.9575,0.9575 22.0971,22.0972 0.9576,-0.9576 25.0434,25.0435 -0.9575,0.9575 22.0971,22.0972 0.9576,-0.9576 25.0434,25.0434 -0.9575,0.9576 22.0971,22.0971 0.9576,-0.9575 25.0434,25.0434 -0.9575,0.9576 22.0971,22.0971 0.9576,-0.9575 0.9575,0.9575 22.0971,-22.0971 -0.9575,-0.9576 25.0434,-25.0434 0.9576,0.9575 22.0971,-22.0971 -0.9575,-0.9576 25.0434,-25.0434 0.9576,0.9576 22.0971,-22.0972 -0.9575,-0.9575 25.0434,-25.0435 0.9576,0.9576 22.0971,-22.0972 -0.9575,-0.9575 25.0434,-25.0435 0.9576,0.9576 22.0971,-22.0972 -0.9575,-0.9575 25.0434,-25.0435 0.9576,0.9576 22.0971,-22.0972 -0.9575,-0.9575 25.0434,-25.0434 0.9575,0.9575 22.0972,-22.0971 -0.9575,-0.9576 25.04353,-25.0434 0.9575,0.9575 22.0972,-22.0971 -0.9576,-0.9576 25.0435,-25.0434 0.9575,0.9575 22.0972,-22.0971 -0.9576,-0.9576 25.0435,-25.0434 0.9575,0.9575 22.0972,-22.0971 -0.9576,-0.9576 25.0435,-25.0434 0.9575,0.9576 22.0971,-22.0972 -0.9575,-0.9575 25.0434,-25.0435 0.9576,0.9576 22.0971,-22.0972 -0.9575,-0.9575 25.0434,-25.0435 0.9576,0.9576 22.0971,-22.0972 -0.9575,-0.9575 25.0434,-25.0434 0.9575,0.9575 22.0972,-22.0972 -0.9575,-0.9575 0.9575,-0.9575 -22.0972,-22.0973 -0.9575,0.9577 -25.0434,-25.0436 0.9575,-0.9575 -22.0971,-22.0972 -0.9576,0.9576 -25.0434,-25.0435 0.9575,-0.9575 -22.0971,-22.0972 -0.9576,0.9576 -25.0434,-25.0435 0.9575,-0.9575 -22.0971,-22.0971 -0.9575,0.9575 -25.0435,-25.0434 0.9576,-0.9575 -22.0972,-22.0972 -0.9575,0.9576 -25.0435,-25.0435 0.9576,-0.9575 -22.0972,-22.0972 -0.9575,0.9576 -25.0435,-25.0435 0.9576,-0.9575 -22.0972,-22.0972 -0.9575,0.9576 -25.04353,-25.0435 0.9575,-0.9575 -22.0972,-22.0972 -0.9575,0.9576 -25.0434,-25.0434 0.9575,-0.9576 -22.0971,-22.0971 -0.9576,0.9575 -25.0434,-25.0434 0.9575,-0.9576 -22.0971,-22.0971 -0.9576,0.9575 -25.0434,-25.0434 0.9575,-0.9576 -22.0971,-22.0971 -0.9576,0.9575 -25.0434,-25.0434 0.9575,-0.9575 -22.0971,-22.0972 -0.9576,0.9575 -25.0434,-25.0434 0.9575,-0.9575 -22.0971,-22.0972 -0.9576,0.9576 -24.5278,-24.5279 -0.5156,-0.5156 0.9575,-0.9575 -0.4419,-0.442 -21.6552,-21.6552 -0.4419,-0.4419 -0.9576,0.9575 -0.5156,-0.5156 -24.5278,-24.5278 0.9575,-0.9575 -22.0971,-22.0972 -0.9576,0.9575 -25.0434,-25.0434 0.9575,-0.9575 -22.0971,-22.0972 -0.9576,0.9576 -25.0434,-25.0435 0.9575,-0.9575 -22.0971,-22.0972 -0.9576,0.9576 -25.0434,-25.0435 0.9576,-0.9575 -22.0972,-22.0972 -0.9575,0.9576 -25.0435,-25.0435 0.9576,-0.9575 -22.0972,-22.0971 -0.9575,0.9575 -25.0435,-25.0434 0.9576,-0.9576 -22.0972,-22.0971 -0.9575,0.9575 -25.0434,-25.0434 0.9575,-0.9576 -22.0972,-22.0971 -0.9575,0.9575 -25.0434,-25.0434 0.9575,-0.9576 -22.0971,-22.0971 -0.9576,0.9576 -25.0434,-25.0435 0.9575,-0.9575 -22.0971,-22.0972 -0.9576,0.9576 -25.0434,-25.0434 0.9575,-0.9576 -22.0971,-22.0971 -0.9576,0.9575 -25.0434,-25.0434 0.9575,-0.9576 -22.0971,-22.0971 -0.9575,0.9575 -25.0435,-25.0434 0.9576,-0.9576 -22.0972,-22.0971 -0.9575,0.9575 -25.0435,-25.0434 0.9576,-0.9576 -22.0972,-22.0971 z m -0.9575,45.1518 25.0434,25.0435 -25.0434,25.0434 -25.0435,-25.0434 25.0435,-25.0435 z m 47.1406,47.1406 25.0434,25.0435 -25.0434,25.0434 -25.0435,-25.0434 25.0435,-25.0435 z m 47.1406,47.1406 25.0434,25.0435 -25.0434,25.0434 -25.0435,-25.0434 25.0435,-25.0435 z m 47.1405,47.1406 25.0435,25.0434 -25.0435,25.0435 -25.0434,-25.0435 25.0434,-25.0434 z m 47.1406,47.1406 25.0435,25.0434 -25.0435,25.0434 -25.0434,-25.0434 25.0434,-25.0434 z m 47.1406,47.1405 25.0434,25.0435 -25.0434,25.0434 -25.0434,-25.0434 25.0434,-25.0435 z m 47.1406,47.1406 25.0434,25.0435 -25.0434,25.0434 -25.0434,-25.0434 25.0434,-25.0435 z m 47.1406,47.1406 25.0434,25.0434 -25.0434,25.0435 -25.0434,-25.0435 25.0434,-25.0434 z m 47.1406,47.1406 25.0434,25.0434 -25.0434,25.0435 -25.0435,-25.0435 25.0435,-25.0434 z m 47.1406,47.1406 25.0434,25.0434 -25.0434,25.0435 -25.0435,-25.0435 25.0435,-25.0434 z m 47.1405,47.1406 25.0435,25.0434 -25.0435,25.0434 -25.0434,-25.0434 25.0434,-25.0434 z m 47.1406,47.1406 25.0435,25.0434 -25.0435,25.0434 -25.0434,-25.0434 25.0434,-25.0434 z m 47.1406,47.1405 24.5279,24.5279 0.5156,0.5156 -25.0435,25.0434 -0.5156,-0.5156 -24.5278,-24.5278 25.0434,-25.0435 z m 47.5826,47.5826 0.5156,0.5156 24.5278,24.5278 -25.0434,25.0434 -24.5279,-24.5278 -0.5156,-0.5156 25.0435,-25.0434 z m 47.1405,47.1406 25.0435,25.0434 -25.0435,25.0434 -25.0434,-25.0434 25.0434,-25.0434 z m 47.1406,47.1405 25.0435,25.0435 -25.0435,25.0434 -25.0434,-25.0434 25.0434,-25.0435 z m 47.1406,47.1406 25.0435,25.0435 -25.0435,25.0434 -25.0434,-25.0434 25.0434,-25.0435 z m 47.1406,47.1406 25.0435,25.0435 -25.0435,25.0434 -25.0434,-25.0434 25.0434,-25.0435 z m 47.1406,47.1406 25.0435,25.0434 -25.0435,25.0435 -25.0434,-25.0435 25.0434,-25.0434 z m 47.1406,47.1406 25.0434,25.0434 -25.0434,25.0435 -25.0434,-25.0435 25.0434,-25.0434 z m 47.14073,47.1406 25.0434,25.0434 -25.0434,25.0435 -25.04353,-25.0435 25.04353,-25.0434 z m 47.1406,47.1406 25.0434,25.0434 -25.0434,25.0434 -25.0435,-25.0434 25.0435,-25.0434 z m 47.1406,47.1406 25.0434,25.0433 -25.0434,25.0435 -25.0435,-25.0435 25.0435,-25.0433 z m 47.1406,47.1405 25.0434,25.0434 -25.0434,25.0435 -25.0435,-25.0435 25.0435,-25.0434 z m 47.1405,47.1406 25.0435,25.0434 -25.0435,25.0436 -25.0434,-25.0436 25.0434,-25.0434 z m 47.1406,47.1406 25.0435,25.0435 -25.0435,25.0434 -25.0434,-25.0434 25.0434,-25.0435 z m -1226.09733,-1131.816 25.0434,25.0435 -25.0434,25.0434 -25.0434,-25.0434 25.0434,-25.0435 z m 47.1406,47.1406 25.0434,25.0435 -25.0434,25.0434 -25.0435,-25.0434 25.0435,-25.0435 z m 47.1406,47.1406 25.0434,25.0434 -25.0434,25.0435 -25.0435,-25.0435 25.0435,-25.0434 z m 47.1406,47.1406 25.0434,25.0434 -25.0434,25.0434 -25.0435,-25.0434 25.0435,-25.0434 z m 47.1405,47.1405 25.0435,25.0435 -25.0435,25.0434 -25.0434,-25.0434 25.0434,-25.0435 z m 47.1406,47.1406 25.0435,25.0435 -25.0435,25.0434 -25.0434,-25.0434 25.0434,-25.0435 z m 47.1406,47.1406 25.0434,25.0434 -25.0434,25.0435 -25.0434,-25.0435 25.0434,-25.0434 z m 47.1406,47.1406 25.0434,25.0434 -25.0434,25.0435 -25.0434,-25.0435 25.0434,-25.0434 z m 47.1406,47.1406 25.0434,25.0434 -25.0434,25.0435 -25.0434,-25.0435 25.0434,-25.0434 z m 47.1406,47.1406 25.0434,25.0434 -25.0434,25.0434 -25.0435,-25.0434 25.0435,-25.0434 z m 47.1406,47.1406 25.0434,25.0434 -25.0434,25.0434 -25.0435,-25.0434 25.0435,-25.0434 z m 47.1405,47.1405 25.0435,25.0435 -25.0435,25.0434 -25.0434,-25.0434 25.0434,-25.0435 z m 47.1406,47.1406 24.5279,24.5279 0.5156,0.5156 -25.0435,25.0434 -0.5156,-0.5156 -24.5278,-24.5278 25.0434,-25.0435 z m 47.5826,47.5826 0.5156,0.5156 24.5278,24.5278 -25.0434,25.0434 -24.5279,-24.5278 -0.5156,-0.5156 25.0435,-25.0434 z m 47.1406,47.1405 25.0434,25.0435 -25.0434,25.0434 -25.0435,-25.0434 25.0435,-25.0435 z m 47.1405,47.1406 25.0435,25.0435 -25.0435,25.0434 -25.0434,-25.0434 25.0434,-25.0435 z m 47.1406,47.1406 25.0435,25.0435 -25.0435,25.0434 -25.0434,-25.0434 25.0434,-25.0435 z m 47.1406,47.1406 25.0435,25.0434 -25.0435,25.0435 -25.0434,-25.0435 25.0434,-25.0434 z m 47.1406,47.1406 25.0435,25.0434 -25.0435,25.0435 -25.0434,-25.0435 25.0434,-25.0434 z m 47.1406,47.1406 25.0435,25.0434 -25.0435,25.0435 -25.0434,-25.0435 25.0434,-25.0434 z m 47.1406,47.1406 25.0434,25.0434 -25.0434,25.0434 -25.0434,-25.0434 25.0434,-25.0434 z m 47.14073,47.1406 25.0434,25.0433 -25.0434,25.0435 -25.04353,-25.0435 25.04353,-25.0433 z m 47.1406,47.1405 25.0434,25.0434 -25.0434,25.0435 -25.0435,-25.0435 25.0435,-25.0434 z m 47.1406,47.1406 25.0434,25.0434 -25.0434,25.0436 -25.0435,-25.0436 25.0435,-25.0434 z m 47.1406,47.1406 25.0434,25.0435 -25.0434,25.0434 -25.0435,-25.0434 25.0435,-25.0435 z m 47.1405,47.1407 25.0435,25.0434 -25.0435,25.0434 -25.0434,-25.0434 25.0434,-25.0434 z m -1226.09733,-1131.8161 25.0434,25.0435 -25.0434,25.0434 -25.0434,-25.0434 25.0434,-25.0435 z m 47.1406,47.1406 25.0434,25.0434 -25.0434,25.0435 -25.0434,-25.0435 25.0434,-25.0434 z m 47.1406,47.1406 25.0434,25.0434 -25.0434,25.0434 -25.0435,-25.0434 25.0435,-25.0434 z m 47.1406,47.1405 25.0434,25.0435 -25.0434,25.0434 -25.0435,-25.0434 25.0435,-25.0435 z m 47.1406,47.1406 25.0434,25.0435 -25.0434,25.0434 -25.0435,-25.0434 25.0435,-25.0435 z m 47.1405,47.1406 25.0435,25.0434 -25.0435,25.0435 -25.0434,-25.0435 25.0434,-25.0434 z m 47.1406,47.1406 25.0435,25.0434 -25.0435,25.0435 -25.0434,-25.0435 25.0434,-25.0434 z m 47.1406,47.1406 25.0434,25.0434 -25.0434,25.0435 -25.0434,-25.0435 25.0434,-25.0434 z m 47.1406,47.1406 25.0434,25.0434 -25.0434,25.0434 -25.0434,-25.0434 25.0434,-25.0434 z m 47.1406,47.1406 25.0434,25.0434 -25.0434,25.0434 -25.0434,-25.0434 25.0434,-25.0434 z m 47.1406,47.1405 25.0434,25.0435 -25.0434,25.0434 -25.0435,-25.0434 25.0435,-25.0435 z m 47.1406,47.1406 25.0434,25.0435 -25.0434,25.0434 -25.0435,-25.0434 25.0435,-25.0435 z m 47.1405,47.1406 24.5279,24.5279 0.5156,0.5156 -25.0435,25.0434 -0.5156,-0.5156 -24.5278,-24.5278 25.0434,-25.0435 z m 47.5826,47.5825 0.5156,0.5156 24.5278,24.5279 -25.0434,25.0434 -24.5279,-24.5278 -0.5156,-0.5156 25.0435,-25.0435 z m 47.1406,47.1406 25.0434,25.0435 -25.0434,25.0434 -25.0435,-25.0434 25.0435,-25.0435 z m 47.1406,47.1406 25.0434,25.0435 -25.0434,25.0434 -25.0435,-25.0434 25.0435,-25.0435 z m 47.1405,47.1406 25.0435,25.0434 -25.0435,25.0435 -25.0434,-25.0435 25.0434,-25.0434 z m 47.1406,47.1406 25.0435,25.0434 -25.0435,25.0435 -25.0434,-25.0435 25.0434,-25.0434 z m 47.1406,47.1406 25.0435,25.0434 -25.0435,25.0435 -25.0434,-25.0435 25.0434,-25.0434 z m 47.1406,47.1406 25.0435,25.0434 -25.0435,25.0434 -25.0434,-25.0434 25.0434,-25.0434 z m 47.1406,47.1406 25.0435,25.0433 -25.0435,25.0435 -25.0434,-25.0435 25.0434,-25.0433 z m 47.1406,47.1405 25.0434,25.0434 -25.0434,25.0435 -25.0434,-25.0435 25.0434,-25.0434 z m 47.14073,47.1406 25.0434,25.0434 -25.0434,25.0436 -25.04353,-25.0436 25.04353,-25.0434 z m 47.1406,47.1406 25.0434,25.0435 -25.0434,25.0434 -25.0435,-25.0434 25.0435,-25.0435 z m 47.1406,47.1407 25.0434,25.0434 -25.0434,25.0434 -25.0435,-25.0434 25.0435,-25.0434 z m 47.1406,47.1405 25.0434,25.0435 -25.0434,25.0434 -25.0435,-25.0434 25.0435,-25.0435 z m -1226.09743,-1131.816 25.0435,25.0434 -25.0435,25.0435 -25.0434,-25.0435 25.0434,-25.0434 z m 47.1406,47.1406 25.0434,25.0434 -25.0434,25.0434 -25.0434,-25.0434 25.0434,-25.0434 z m 47.1406,47.1405 25.0434,25.0435 -25.0434,25.0434 -25.0434,-25.0434 25.0434,-25.0435 z m 47.1406,47.1406 25.0434,25.0435 -25.0434,25.0434 -25.0435,-25.0434 25.0435,-25.0435 z m 47.1406,47.1406 25.0434,25.0434 -25.0434,25.0435 -25.0435,-25.0435 25.0435,-25.0434 z m 47.1406,47.1406 25.0434,25.0434 -25.0434,25.0435 -25.0435,-25.0435 25.0435,-25.0434 z m 47.1405,47.1406 25.0435,25.0434 -25.0435,25.0435 -25.0434,-25.0435 25.0434,-25.0434 z m 47.1406,47.1406 25.0435,25.0434 -25.0435,25.0434 -25.0434,-25.0434 25.0434,-25.0434 z m 47.1406,47.1406 25.0434,25.0434 -25.0434,25.0434 -25.0434,-25.0434 25.0434,-25.0434 z m 47.1406,47.1405 25.0434,25.0435 -25.0434,25.0434 -25.0434,-25.0434 25.0434,-25.0435 z m 47.1406,47.1406 25.0434,25.0435 -25.0434,25.0434 -25.0434,-25.0434 25.0434,-25.0435 z m 47.1406,47.1406 25.0434,25.0435 -25.0434,25.0434 -25.0435,-25.0434 25.0435,-25.0435 z m 47.1406,47.1406 24.5278,24.5278 0.5156,0.5156 -25.0434,25.0435 -0.5156,-0.5156 -24.5279,-24.5279 25.0435,-25.0434 z m 47.5825,47.5825 0.5156,0.5156 24.5278,24.5279 -25.0434,25.0434 -24.5278,-24.5278 -0.5156,-0.5156 25.0434,-25.0435 z m 47.1406,47.1406 25.0434,25.0435 -25.0434,25.0434 -25.0435,-25.0434 25.0435,-25.0435 z m 47.1406,47.1406 25.0434,25.0434 -25.0434,25.0435 -25.0435,-25.0435 25.0435,-25.0434 z m 47.1406,47.1406 25.0434,25.0434 -25.0434,25.0435 -25.0435,-25.0435 25.0435,-25.0434 z m 47.1405,47.1406 25.0435,25.0434 -25.0435,25.0435 -25.0434,-25.0435 25.0434,-25.0434 z m 47.1406,47.1406 25.0435,25.0434 -25.0435,25.0434 -25.0434,-25.0434 25.0434,-25.0434 z m 47.1406,47.1406 25.0435,25.0433 -25.0435,25.0435 -25.0434,-25.0435 25.0434,-25.0433 z m 47.1406,47.1405 25.0435,25.0434 -25.0435,25.0435 -25.0434,-25.0435 25.0434,-25.0434 z m 47.1406,47.1406 25.0435,25.0434 -25.0435,25.0436 -25.0434,-25.0436 25.0434,-25.0434 z m 47.1406,47.1406 25.0434,25.0435 -25.0434,25.0434 -25.0434,-25.0434 25.0434,-25.0435 z m 47.14073,47.1407 25.0434,25.0434 -25.0434,25.0434 -25.04353,-25.0434 25.04353,-25.0434 z m 47.1406,47.1405 25.0434,25.0435 -25.0434,25.0434 -25.0435,-25.0434 25.0435,-25.0435 z m 47.1406,47.1406 25.0434,25.0435 -25.0434,25.0434 -25.0435,-25.0434 25.0435,-25.0435 z m -1226.09743,-1131.816 25.0435,25.0434 -25.0435,25.0434 -25.0434,-25.0434 25.0434,-25.0434 z m 47.1406,47.1405 25.0435,25.0435 -25.0435,25.0434 -25.0434,-25.0434 25.0434,-25.0435 z m 47.1406,47.1406 25.0434,25.0435 -25.0434,25.0434 -25.0434,-25.0434 25.0434,-25.0435 z m 47.1406,47.1406 25.0434,25.0434 -25.0434,25.0435 -25.0434,-25.0435 25.0434,-25.0434 z m 47.1406,47.1406 25.0434,25.0434 -25.0434,25.0435 -25.0435,-25.0435 25.0435,-25.0434 z m 47.1406,47.1406 25.0434,25.0434 -25.0434,25.0435 -25.0435,-25.0435 25.0435,-25.0434 z m 47.1406,47.1406 25.0434,25.0434 -25.0434,25.0434 -25.0435,-25.0434 25.0435,-25.0434 z m 47.1405,47.1406 25.0435,25.0434 -25.0435,25.0434 -25.0434,-25.0434 25.0434,-25.0434 z m 47.1406,47.1405 25.0435,25.0435 -25.0435,25.0434 -25.0434,-25.0434 25.0434,-25.0435 z m 47.1406,47.1406 25.0434,25.0435 -25.0434,25.0434 -25.0434,-25.0434 25.0434,-25.0435 z m 47.1406,47.1406 25.0434,25.0435 -25.0434,25.0434 -25.0434,-25.0434 25.0434,-25.0435 z m 47.1406,47.1406 25.0434,25.0434 -25.0434,25.0435 -25.0434,-25.0435 25.0434,-25.0434 z m 47.1406,47.1406 24.5278,24.5278 0.5156,0.5156 -25.0434,25.0435 -0.5156,-0.5156 -24.5279,-24.5279 25.0435,-25.0434 z m 47.5825,47.5825 0.5156,0.5156 24.5278,24.5279 -25.0434,25.0434 -24.5278,-24.5278 -0.5156,-0.5156 25.0434,-25.0435 z m 47.1406,47.1406 25.0434,25.0434 -25.0434,25.0435 -25.0434,-25.0435 25.0434,-25.0434 z m 47.1406,47.1406 25.0434,25.0434 -25.0434,25.0435 -25.0435,-25.0435 25.0435,-25.0434 z m 47.1406,47.1406 25.0434,25.0434 -25.0434,25.0435 -25.0435,-25.0435 25.0435,-25.0434 z m 47.1406,47.1406 25.0434,25.0434 -25.0434,25.0434 -25.0435,-25.0434 25.0435,-25.0434 z m 47.1405,47.1406 25.0435,25.0433 -25.0435,25.0435 -25.0434,-25.0435 25.0434,-25.0433 z m 47.1406,47.1405 25.0435,25.0434 -25.0435,25.0435 -25.0434,-25.0435 25.0434,-25.0434 z m 47.1406,47.1406 25.0435,25.0434 -25.0435,25.0436 -25.0434,-25.0436 25.0434,-25.0434 z m 47.1406,47.1406 25.0435,25.0435 -25.0435,25.0434 -25.0434,-25.0434 25.0434,-25.0435 z m 47.1406,47.1407 25.0435,25.0434 -25.0435,25.0434 -25.0434,-25.0434 25.0434,-25.0434 z m 47.1406,47.1405 25.0434,25.0435 -25.0434,25.0434 -25.0434,-25.0434 25.0434,-25.0435 z m 47.14073,47.1406 25.0434,25.0435 -25.0434,25.0434 -25.04353,-25.0434 25.04353,-25.0435 z m 47.1406,47.1406 25.0434,25.0434 -25.0434,25.0435 -25.0435,-25.0435 25.0435,-25.0434 z m -1226.09743,-1131.8161 25.0435,25.0435 -25.0435,25.0434 -25.0434,-25.0434 25.0434,-25.0435 z m 47.1406,47.1406 25.0435,25.0435 -25.0435,25.0434 -25.0434,-25.0434 25.0434,-25.0435 z m 47.1406,47.1406 25.0435,25.0434 -25.0435,25.0435 -25.0434,-25.0435 25.0434,-25.0434 z m 47.1406,47.1406 25.0434,25.0434 -25.0434,25.0435 -25.0434,-25.0435 25.0434,-25.0434 z m 47.1406,47.1406 25.0434,25.0434 -25.0434,25.0435 -25.0434,-25.0435 25.0434,-25.0434 z m 47.1406,47.1406 25.0434,25.0434 -25.0434,25.0434 -25.0435,-25.0434 25.0435,-25.0434 z m 47.1406,47.1406 25.0434,25.0434 -25.0434,25.0434 -25.0435,-25.0434 25.0435,-25.0434 z m 47.1406,47.1405 25.0434,25.0435 -25.0434,25.0434 -25.0435,-25.0434 25.0435,-25.0435 z m 47.1405,47.1406 25.0435,25.0435 -25.0435,25.0434 -25.0434,-25.0434 25.0434,-25.0435 z m 47.1406,47.1406 25.0435,25.0435 -25.0435,25.0434 -25.0434,-25.0434 25.0434,-25.0435 z m 47.1406,47.1406 25.0434,25.0434 -25.0434,25.0435 -25.0434,-25.0435 25.0434,-25.0434 z m 47.1406,47.1406 25.0434,25.0434 -25.0434,25.0435 -25.0434,-25.0435 25.0434,-25.0434 z m 47.1406,47.1406 24.5278,24.5278 0.5156,0.5156 -25.0434,25.0434 -0.5156,-0.5156 -24.5278,-24.5278 25.0434,-25.0434 z m 47.5825,47.5825 0.5156,0.5156 24.5279,24.5278 -25.0435,25.0435 -24.5278,-24.5279 -0.5156,-0.5156 25.0434,-25.0434 z m 47.1406,47.1406 25.0434,25.0434 -25.0434,25.0435 -25.0434,-25.0435 25.0434,-25.0434 z m 47.1406,47.1406 25.0434,25.0434 -25.0434,25.0435 -25.0434,-25.0435 25.0434,-25.0434 z m 47.1406,47.1406 25.0434,25.0434 -25.0434,25.0434 -25.0435,-25.0434 25.0435,-25.0434 z m 47.1406,47.1406 25.0434,25.0433 -25.0434,25.0435 -25.0435,-25.0435 25.0435,-25.0433 z m 47.1406,47.1405 25.0434,25.0434 -25.0434,25.0435 -25.0435,-25.0435 25.0435,-25.0434 z m 47.1405,47.1406 25.0435,25.0434 -25.0435,25.0436 -25.0434,-25.0436 25.0434,-25.0434 z m 47.1406,47.1406 25.0435,25.0435 -25.0435,25.0434 -25.0434,-25.0434 25.0434,-25.0435 z m 47.1406,47.1407 25.0435,25.0434 -25.0435,25.0434 -25.0434,-25.0434 25.0434,-25.0434 z m 47.1406,47.1405 25.0435,25.0435 -25.0435,25.0434 -25.0434,-25.0434 25.0434,-25.0435 z m 47.1406,47.1406 25.0435,25.0435 -25.0435,25.0434 -25.0434,-25.0434 25.0434,-25.0435 z m 47.1406,47.1406 25.0434,25.0434 -25.0434,25.0435 -25.0434,-25.0435 25.0434,-25.0434 z m 47.14073,47.1406 25.0434,25.0434 -25.0434,25.0435 -25.04353,-25.0435 25.04353,-25.0434 z m -1226.09733,-1131.8161 25.0434,25.0435 -25.0434,25.0434 -25.0435,-25.0434 25.0435,-25.0435 z m 47.1405,47.1406 25.0435,25.0434 -25.0435,25.0435 -25.0434,-25.0435 25.0434,-25.0434 z m 47.1406,47.1406 25.0435,25.0434 -25.0435,25.0435 -25.0434,-25.0435 25.0434,-25.0434 z m 47.1406,47.1406 25.0435,25.0434 -25.0435,25.0435 -25.0434,-25.0435 25.0434,-25.0434 z m 47.1406,47.1406 25.0434,25.0434 -25.0434,25.0434 -25.0434,-25.0434 25.0434,-25.0434 z m 47.1406,47.1406 25.0434,25.0434 -25.0434,25.0434 -25.0434,-25.0434 25.0434,-25.0434 z m 47.1406,47.1405 25.0434,25.0435 -25.0434,25.0434 -25.0435,-25.0434 25.0435,-25.0435 z m 47.1406,47.1406 25.0434,25.0435 -25.0434,25.0434 -25.0435,-25.0434 25.0435,-25.0435 z m 47.1406,47.1406 25.0434,25.0435 -25.0434,25.0434 -25.0435,-25.0434 25.0435,-25.0435 z m 47.1405,47.1406 25.0435,25.0434 -25.0435,25.0435 -25.0434,-25.0435 25.0434,-25.0434 z m 47.1406,47.1406 25.0435,25.0434 -25.0435,25.0435 -25.0434,-25.0435 25.0434,-25.0434 z m 47.1406,47.1406 25.0434,25.0434 -25.0434,25.0434 -25.0434,-25.0434 25.0434,-25.0434 z m 47.1406,47.1406 24.5278,24.5278 0.5156,0.5156 -25.0434,25.0434 -0.5156,-0.5156 -24.5278,-24.5278 25.0434,-25.0434 z m 47.5825,47.5825 0.5156,0.5156 24.5279,24.5278 -25.0435,25.0435 -24.5278,-24.5279 -0.5156,-0.5156 25.0434,-25.0434 z m 47.1406,47.1406 25.0435,25.0434 -25.0435,25.0435 -25.0434,-25.0435 25.0434,-25.0434 z m 47.1406,47.1406 25.0434,25.0434 -25.0434,25.0434 -25.0434,-25.0434 25.0434,-25.0434 z m 47.1406,47.1406 25.0434,25.0433 -25.0434,25.0435 -25.0434,-25.0435 25.0434,-25.0433 z m 47.1406,47.1405 25.0434,25.0434 -25.0434,25.0435 -25.0435,-25.0435 25.0435,-25.0434 z m 47.1406,47.1406 25.0434,25.0434 -25.0434,25.0436 -25.0435,-25.0436 25.0435,-25.0434 z m 47.1406,47.1406 25.0434,25.0435 -25.0434,25.0434 -25.0435,-25.0434 25.0435,-25.0435 z m 47.1405,47.1407 25.0435,25.0434 -25.0435,25.0434 -25.0434,-25.0434 25.0434,-25.0434 z m 47.1406,47.1405 25.0435,25.0435 -25.0435,25.0434 -25.0434,-25.0434 25.0434,-25.0435 z m 47.1406,47.1406 25.0435,25.0435 -25.0435,25.0434 -25.0434,-25.0434 25.0434,-25.0435 z m 47.1406,47.1406 25.0435,25.0434 -25.0435,25.0435 -25.0434,-25.0435 25.0434,-25.0434 z m 47.1406,47.1406 25.0435,25.0434 -25.0435,25.0435 -25.0434,-25.0435 25.0434,-25.0434 z m 47.1406,47.1406 25.0434,25.0434 -25.0434,25.0435 -25.0434,-25.0435 25.0434,-25.0434 z m -1226.0972,-1131.8161 25.0434,25.0434 -25.0434,25.0435 -25.0435,-25.0435 25.0435,-25.0434 z m 47.1406,47.1406 25.0434,25.0434 -25.0434,25.0435 -25.0435,-25.0435 25.0435,-25.0434 z m 47.1405,47.1406 25.0435,25.0434 -25.0435,25.0435 -25.0434,-25.0435 25.0434,-25.0434 z m 47.1406,47.1406 25.0435,25.0434 -25.0435,25.0434 -25.0434,-25.0434 25.0434,-25.0434 z m 47.1406,47.1406 25.0435,25.0434 -25.0435,25.0434 -25.0434,-25.0434 25.0434,-25.0434 z m 47.1406,47.1405 25.0434,25.0435 -25.0434,25.0434 -25.0434,-25.0434 25.0434,-25.0435 z m 47.1406,47.1406 25.0434,25.0435 -25.0434,25.0434 -25.0434,-25.0434 25.0434,-25.0435 z m 47.1406,47.1406 25.0434,25.0435 -25.0434,25.0434 -25.0435,-25.0434 25.0435,-25.0435 z m 47.1406,47.1406 25.0434,25.0434 -25.0434,25.0435 -25.0435,-25.0435 25.0435,-25.0434 z m 47.1406,47.1406 25.0434,25.0434 -25.0434,25.0435 -25.0435,-25.0435 25.0435,-25.0434 z m 47.1405,47.1406 25.0435,25.0434 -25.0435,25.0434 -25.0434,-25.0434 25.0434,-25.0434 z m 47.1406,47.1406 25.0435,25.0434 -25.0435,25.0434 -25.0434,-25.0434 25.0434,-25.0434 z m 47.1406,47.1405 24.5278,24.5279 0.5156,0.5156 -25.0434,25.0434 -0.5156,-0.5156 -24.5278,-24.5278 25.0434,-25.0435 z m 47.5825,47.5826 0.5156,0.5156 24.5279,24.5278 -25.0435,25.0435 -24.5278,-24.5279 -0.5156,-0.5156 25.0434,-25.0434 z m 47.1406,47.1406 25.0435,25.0434 -25.0435,25.0434 -25.0434,-25.0434 25.0434,-25.0434 z m 47.1406,47.1406 25.0435,25.0433 -25.0435,25.0435 -25.0434,-25.0435 25.0434,-25.0433 z m 47.1406,47.1405 25.0434,25.0434 -25.0434,25.0435 -25.0434,-25.0435 25.0434,-25.0434 z m 47.1406,47.1406 25.0434,25.0434 -25.0434,25.0436 -25.0434,-25.0436 25.0434,-25.0434 z m 47.1406,47.1406 25.0434,25.0435 -25.0434,25.0434 -25.0435,-25.0434 25.0435,-25.0435 z m 47.1406,47.1407 25.0434,25.0434 -25.0434,25.0434 -25.0435,-25.0434 25.0435,-25.0434 z m 47.1406,47.1405 25.0434,25.0435 -25.0434,25.0434 -25.0435,-25.0434 25.0435,-25.0435 z m 47.1405,47.1406 25.0435,25.0435 -25.0435,25.0434 -25.0434,-25.0434 25.0434,-25.0435 z m 47.1406,47.1406 25.0435,25.0434 -25.0435,25.0435 -25.0434,-25.0435 25.0434,-25.0434 z m 47.1406,47.1406 25.0435,25.0434 -25.0435,25.0435 -25.0434,-25.0435 25.0434,-25.0434 z m 47.1406,47.1406 25.0435,25.0434 -25.0435,25.0435 -25.0434,-25.0435 25.0434,-25.0434 z m 47.1406,47.1406 25.0435,25.0434 -25.0435,25.0434 -25.0434,-25.0434 25.0434,-25.0434 z m -1226.0972,-1131.8161 25.0434,25.0434 -25.0434,25.0435 -25.0435,-25.0435 25.0435,-25.0434 z m 47.1406,47.1406 25.0434,25.0434 -25.0434,25.0435 -25.0435,-25.0435 25.0435,-25.0434 z m 47.1406,47.1406 25.0434,25.0434 -25.0434,25.0434 -25.0435,-25.0434 25.0435,-25.0434 z m 47.1405,47.1406 25.0435,25.0434 -25.0435,25.0434 -25.0434,-25.0434 25.0434,-25.0434 z m 47.1406,47.1405 25.0435,25.0435 -25.0435,25.0434 -25.0434,-25.0434 25.0434,-25.0435 z m 47.1406,47.1406 25.0435,25.0435 -25.0435,25.0434 -25.0434,-25.0434 25.0434,-25.0435 z m 47.1406,47.1406 25.0434,25.0435 -25.0434,25.0434 -25.0434,-25.0434 25.0434,-25.0435 z m 47.1406,47.1406 25.0434,25.0434 -25.0434,25.0435 -25.0434,-25.0435 25.0434,-25.0434 z m 47.1406,47.1406 25.0434,25.0434 -25.0434,25.0435 -25.0435,-25.0435 25.0435,-25.0434 z m 47.1406,47.1406 25.0434,25.0434 -25.0434,25.0434 -25.0435,-25.0434 25.0435,-25.0434 z m 47.1406,47.1406 25.0434,25.0434 -25.0434,25.0434 -25.0435,-25.0434 25.0435,-25.0434 z m 47.1405,47.1405 25.0435,25.0435 -25.0435,25.0434 -25.0434,-25.0434 25.0434,-25.0435 z m 47.1406,47.1406 24.5279,24.5279 0.5156,0.5156 -25.0435,25.0434 -0.5156,-0.5156 -24.5278,-24.5278 25.0434,-25.0435 z m 47.5826,47.5826 0.5156,0.5156 24.5278,24.5278 -25.0434,25.0434 -24.5279,-24.5278 -0.5156,-0.5156 25.0435,-25.0434 z m 47.1405,47.1406 25.0435,25.0433 -25.0435,25.0435 -25.0434,-25.0435 25.0434,-25.0433 z m 47.1406,47.1405 25.0435,25.0434 -25.0435,25.0435 -25.0434,-25.0435 25.0434,-25.0434 z m 47.1406,47.1406 25.0435,25.0434 -25.0435,25.0436 -25.0434,-25.0436 25.0434,-25.0434 z m 47.1406,47.1406 25.0434,25.0435 -25.0434,25.0434 -25.0434,-25.0434 25.0434,-25.0435 z m 47.1406,47.1407 25.0434,25.0434 -25.0434,25.0434 -25.0434,-25.0434 25.0434,-25.0434 z m 47.1406,47.1405 25.0434,25.0435 -25.0434,25.0434 -25.0435,-25.0434 25.0435,-25.0435 z m 47.1406,47.1406 25.0434,25.0435 -25.0434,25.0434 -25.0435,-25.0434 25.0435,-25.0435 z m 47.1406,47.1406 25.0434,25.0434 -25.0434,25.0435 -25.0435,-25.0435 25.0435,-25.0434 z m 47.1405,47.1406 25.0435,25.0434 -25.0435,25.0435 -25.0434,-25.0435 25.0434,-25.0434 z m 47.1406,47.1406 25.0435,25.0434 -25.0435,25.0435 -25.0434,-25.0435 25.0434,-25.0434 z m 47.1406,47.1406 25.0435,25.0434 -25.0435,25.0434 -25.0434,-25.0434 25.0434,-25.0434 z m 47.1406,47.1406 25.0435,25.0434 -25.0435,25.0434 -25.0434,-25.0434 25.0434,-25.0434 z m -1226.0972,-1131.8161 25.0434,25.0434 -25.0434,25.0435 -25.0434,-25.0435 25.0434,-25.0434 z m 47.1406,47.1406 25.0434,25.0434 -25.0434,25.0434 -25.0435,-25.0434 25.0435,-25.0434 z m 47.1406,47.1406 25.0434,25.0434 -25.0434,25.0434 -25.0435,-25.0434 25.0435,-25.0434 z m 47.1406,47.1405 25.0434,25.0435 -25.0434,25.0434 -25.0435,-25.0434 25.0435,-25.0435 z m 47.1405,47.1406 25.0435,25.0435 -25.0435,25.0434 -25.0434,-25.0434 25.0434,-25.0435 z m 47.1406,47.1406 25.0435,25.0435 -25.0435,25.0434 -25.0434,-25.0434 25.0434,-25.0435 z m 47.1406,47.1406 25.0435,25.0434 -25.0435,25.0435 -25.0434,-25.0435 25.0434,-25.0434 z m 47.1406,47.1406 25.0434,25.0434 -25.0434,25.0435 -25.0434,-25.0435 25.0434,-25.0434 z m 47.1406,47.1406 25.0434,25.0434 -25.0434,25.0434 -25.0434,-25.0434 25.0434,-25.0434 z m 47.1406,47.1406 25.0434,25.0434 -25.0434,25.0434 -25.0435,-25.0434 25.0435,-25.0434 z m 47.1406,47.1405 25.0434,25.0435 -25.0434,25.0434 -25.0435,-25.0434 25.0435,-25.0435 z m 47.1406,47.1406 25.0434,25.0435 -25.0434,25.0434 -25.0435,-25.0434 25.0435,-25.0435 z m 47.1405,47.1406 24.5279,24.5279 0.5156,0.5156 -25.0435,25.0434 -0.5156,-0.5156 -24.5278,-24.5278 25.0434,-25.0435 z m 47.5826,47.5826 0.5156,0.5156 24.5278,24.5277 -25.0434,25.0435 -24.5279,-24.5279 -0.5156,-0.5156 25.0435,-25.0433 z m 47.1406,47.1405 25.0434,25.0434 -25.0434,25.0435 -25.0435,-25.0435 25.0435,-25.0434 z m 47.1405,47.1406 25.0435,25.0434 -25.0435,25.0436 -25.0434,-25.0436 25.0434,-25.0434 z m 47.1406,47.1406 25.0435,25.0435 -25.0435,25.0434 -25.0434,-25.0434 25.0434,-25.0435 z m 47.1406,47.1407 25.0435,25.0434 -25.0435,25.0434 -25.0434,-25.0434 25.0434,-25.0434 z m 47.1406,47.1405 25.0434,25.0435 -25.0434,25.0434 -25.0434,-25.0434 25.0434,-25.0435 z m 47.1406,47.1406 25.0434,25.0435 -25.0434,25.0434 -25.0434,-25.0434 25.0434,-25.0435 z m 47.1406,47.1406 25.0434,25.0434 -25.0434,25.0435 -25.0435,-25.0435 25.0435,-25.0434 z m 47.1406,47.1406 25.0434,25.0434 -25.0434,25.0435 -25.0435,-25.0435 25.0435,-25.0434 z m 47.1406,47.1406 25.0434,25.0434 -25.0434,25.0435 -25.0435,-25.0435 25.0435,-25.0434 z m 47.1405,47.1406 25.0435,25.0434 -25.0435,25.0434 -25.0434,-25.0434 25.0434,-25.0434 z m 47.1406,47.1406 25.0435,25.0434 -25.0435,25.0434 -25.0434,-25.0434 25.0434,-25.0434 z m 47.1406,47.1405 25.0435,25.0435 -25.0435,25.0434 -25.0434,-25.0434 25.0434,-25.0435 z m -1226.0972,-1131.816 25.0434,25.0434 -25.0434,25.0434 -25.0434,-25.0434 25.0434,-25.0434 z m 47.1406,47.1406 25.0434,25.0434 -25.0434,25.0434 -25.0434,-25.0434 25.0434,-25.0434 z m 47.1406,47.1405 25.0434,25.0435 -25.0434,25.0434 -25.0435,-25.0434 25.0435,-25.0435 z m 47.1406,47.1406 25.0434,25.0435 -25.0434,25.0434 -25.0435,-25.0434 25.0435,-25.0435 z m 47.1406,47.1406 25.0434,25.0435 -25.0434,25.0434 -25.0435,-25.0434 25.0435,-25.0435 z m 47.1405,47.1406 25.0435,25.0434 -25.0435,25.0435 -25.0434,-25.0435 25.0434,-25.0434 z m 47.1406,47.1406 25.0435,25.0434 -25.0435,25.0435 -25.0434,-25.0435 25.0434,-25.0434 z m 47.1406,47.1406 25.0435,25.0434 -25.0435,25.0434 -25.0434,-25.0434 25.0434,-25.0434 z m 47.1406,47.1406 25.0434,25.0434 -25.0434,25.0434 -25.0434,-25.0434 25.0434,-25.0434 z m 47.1406,47.1405 25.0434,25.0435 -25.0434,25.0434 -25.0434,-25.0434 25.0434,-25.0435 z m 47.1406,47.1406 25.0434,25.0435 -25.0434,25.0434 -25.0435,-25.0434 25.0435,-25.0435 z m 47.1406,47.1406 25.0434,25.0435 -25.0434,25.0434 -25.0435,-25.0434 25.0435,-25.0435 z m 47.1406,47.1406 24.5278,24.5278 0.5156,0.5156 -25.0434,25.0434 -0.5156,-0.5156 -24.5279,-24.5278 25.0435,-25.0434 z m 47.5825,47.5825 0.5156,0.5156 24.5278,24.5278 -25.0434,25.0435 -24.5279,-24.5279 -0.5156,-0.5156 25.0435,-25.0434 z m 47.1406,47.1406 25.0434,25.0434 -25.0434,25.0436 -25.0435,-25.0436 25.0435,-25.0434 z m 47.1406,47.1406 25.0434,25.0435 -25.0434,25.0434 -25.0435,-25.0434 25.0435,-25.0435 z m 47.1405,47.1407 25.0435,25.0434 -25.0435,25.0434 -25.0434,-25.0434 25.0434,-25.0434 z m 47.1406,47.1405 25.0435,25.0435 -25.0435,25.0434 -25.0434,-25.0434 25.0434,-25.0435 z m 47.1406,47.1406 25.0435,25.0435 -25.0435,25.0434 -25.0434,-25.0434 25.0434,-25.0435 z m 47.1406,47.1406 25.0434,25.0434 -25.0434,25.0435 -25.0434,-25.0435 25.0434,-25.0434 z m 47.1406,47.1406 25.0434,25.0434 -25.0434,25.0435 -25.0434,-25.0435 25.0434,-25.0434 z m 47.1406,47.1406 25.0434,25.0434 -25.0434,25.0435 -25.0435,-25.0435 25.0435,-25.0434 z m 47.1406,47.1406 25.0434,25.0434 -25.0434,25.0434 -25.0435,-25.0434 25.0435,-25.0434 z m 47.1406,47.1406 25.0434,25.0434 -25.0434,25.0434 -25.0435,-25.0434 25.0435,-25.0434 z m 47.1405,47.1405 25.0435,25.0435 -25.0435,25.0434 -25.0434,-25.0434 25.0434,-25.0435 z m 47.1406,47.1406 25.0435,25.0435 -25.0435,25.0434 -25.0434,-25.0434 25.0434,-25.0435 z m -1226.0972,-1131.816 25.0435,25.0434 -25.0435,25.0434 -25.0434,-25.0434 25.0434,-25.0434 z m 47.1406,47.1405 25.0434,25.0435 -25.0434,25.0434 -25.0434,-25.0434 25.0434,-25.0435 z m 47.1406,47.1406 25.0434,25.0435 -25.0434,25.0434 -25.0434,-25.0434 25.0434,-25.0435 z m 47.1406,47.1406 25.0434,25.0435 -25.0434,25.0434 -25.0435,-25.0434 25.0435,-25.0435 z m 47.1406,47.1406 25.0434,25.0434 -25.0434,25.0435 -25.0435,-25.0435 25.0435,-25.0434 z m 47.1406,47.1406 25.0434,25.0434 -25.0434,25.0435 -25.0435,-25.0435 25.0435,-25.0434 z m 47.1405,47.1406 25.0435,25.0434 -25.0435,25.0434 -25.0434,-25.0434 25.0434,-25.0434 z m 47.1406,47.1406 25.0435,25.0434 -25.0435,25.0434 -25.0434,-25.0434 25.0434,-25.0434 z m 47.1406,47.1405 25.0435,25.0435 -25.0435,25.0434 -25.0434,-25.0434 25.0434,-25.0435 z m 47.1406,47.1406 25.0434,25.0435 -25.0434,25.0434 -25.0434,-25.0434 25.0434,-25.0435 z m 47.1406,47.1406 25.0434,25.0435 -25.0434,25.0434 -25.0434,-25.0434 25.0434,-25.0435 z m 47.1406,47.1406 25.0434,25.0434 -25.0434,25.0434 -25.0435,-25.0434 25.0435,-25.0434 z m 47.1406,47.1405 24.5278,24.5279 0.5156,0.5156 -25.0434,25.0434 -0.5156,-0.5156 -24.5279,-24.5278 25.0435,-25.0435 z m 47.5825,47.5826 0.5156,0.5156 24.5278,24.5278 -25.0434,25.0436 -24.5278,-24.528 -0.5156,-0.5156 25.0434,-25.0434 z m 47.1406,47.1406 25.0434,25.0435 -25.0434,25.0434 -25.0435,-25.0434 25.0435,-25.0435 z m 47.1406,47.1407 25.0434,25.0434 -25.0434,25.0434 -25.0435,-25.0434 25.0435,-25.0434 z m 47.1406,47.1405 25.0434,25.0435 -25.0434,25.0434 -25.0435,-25.0434 25.0435,-25.0435 z m 47.1405,47.1406 25.0435,25.0435 -25.0435,25.0434 -25.0434,-25.0434 25.0434,-25.0435 z m 47.1406,47.1406 25.0435,25.0434 -25.0435,25.0435 -25.0434,-25.0435 25.0434,-25.0434 z m 47.1406,47.1406 25.0435,25.0434 -25.0435,25.0435 -25.0434,-25.0435 25.0434,-25.0434 z m 47.1406,47.1406 25.0434,25.0434 -25.0434,25.0435 -25.0434,-25.0435 25.0434,-25.0434 z m 47.1406,47.1406 25.0434,25.0434 -25.0434,25.0434 -25.0434,-25.0434 25.0434,-25.0434 z m 47.1406,47.1406 25.0434,25.0434 -25.0434,25.0434 -25.0435,-25.0434 25.0435,-25.0434 z m 47.1406,47.1405 25.0434,25.0435 -25.0434,25.0434 -25.0435,-25.0434 25.0435,-25.0435 z m 47.1406,47.1406 25.0434,25.0435 -25.0434,25.0434 -25.0435,-25.0434 25.0435,-25.0435 z m 47.1405,47.1406 25.0435,25.0435 -25.0435,25.0434 -25.0434,-25.0434 25.0434,-25.0435 z m -1226.0972,-1131.8161 25.0435,25.0435 -25.0435,25.0434 -25.0434,-25.0434 25.0434,-25.0435 z m 47.1406,47.1406 25.0435,25.0435 -25.0435,25.0434 -25.0434,-25.0434 25.0434,-25.0435 z m 47.1406,47.1406 25.0434,25.0435 -25.0434,25.0434 -25.0434,-25.0434 25.0434,-25.0435 z m 47.1406,47.1406 25.0434,25.0434 -25.0434,25.0435 -25.0434,-25.0435 25.0434,-25.0434 z m 47.1406,47.1406 25.0434,25.0434 -25.0434,25.0435 -25.0435,-25.0435 25.0435,-25.0434 z m 47.1406,47.1406 25.0434,25.0434 -25.0434,25.0434 -25.0435,-25.0434 25.0435,-25.0434 z m 47.1406,47.1406 25.0434,25.0434 -25.0434,25.0434 -25.0435,-25.0434 25.0435,-25.0434 z m 47.1405,47.1405 25.0435,25.0435 -25.0435,25.0434 -25.0434,-25.0434 25.0434,-25.0435 z m 47.1406,47.1406 25.0435,25.0435 -25.0435,25.0434 -25.0434,-25.0434 25.0434,-25.0435 z m 47.1406,47.1406 25.0435,25.0435 -25.0435,25.0434 -25.0434,-25.0434 25.0434,-25.0435 z m 47.1406,47.1406 25.0434,25.0434 -25.0434,25.0434 -25.0434,-25.0434 25.0434,-25.0434 z m 47.1406,47.1405 25.0434,25.0435 -25.0434,25.0434 -25.0434,-25.0434 25.0434,-25.0435 z m 47.1406,47.1406 24.5278,24.5279 0.5156,0.5156 -25.0434,25.0435 -0.5156,-0.5157 -24.5279,-24.5278 25.0435,-25.0435 z m 47.5825,47.5826 0.5156,0.5156 24.5278,24.5279 -25.0434,25.0434 -24.5278,-24.5278 -0.5156,-0.5156 25.0434,-25.0435 z m 47.1406,47.1407 25.0434,25.0434 -25.0434,25.0434 -25.0434,-25.0434 25.0434,-25.0434 z m 47.1406,47.1405 25.0434,25.0435 -25.0434,25.0434 -25.0435,-25.0434 25.0435,-25.0435 z m 47.1406,47.1406 25.0434,25.0435 -25.0434,25.0434 -25.0435,-25.0434 25.0435,-25.0435 z m 47.1406,47.1406 25.0434,25.0434 -25.0434,25.0435 -25.0435,-25.0435 25.0435,-25.0434 z m 47.1405,47.1406 25.0435,25.0434 -25.0435,25.0435 -25.0434,-25.0435 25.0434,-25.0434 z m 47.1406,47.1406 25.0435,25.0434 -25.0435,25.0435 -25.0434,-25.0435 25.0434,-25.0434 z m 47.1406,47.1406 25.0435,25.0434 -25.0435,25.0434 -25.0434,-25.0434 25.0434,-25.0434 z m 47.1406,47.1406 25.0434,25.0434 -25.0434,25.0434 -25.0434,-25.0434 25.0434,-25.0434 z m 47.1406,47.1405 25.0434,25.0435 -25.0434,25.0434 -25.0434,-25.0434 25.0434,-25.0435 z m 47.1406,47.1406 25.0434,25.0435 -25.0434,25.0434 -25.0435,-25.0434 25.0435,-25.0435 z m 47.1406,47.1406 25.0434,25.0435 -25.0434,25.0434 -25.0435,-25.0434 25.0435,-25.0435 z m 47.1406,47.1406 25.0434,25.0434 -25.0434,25.0435 -25.0435,-25.0435 25.0435,-25.0434 z"
     id="rect5589"
     inkscape:connector-curvature="0" />
  <path
     style="fill:#0000ff;fill-opacity:1;stroke:none"
     d="m -2098.1947,90.8215 a 42.475492,42.475492 0 0 0 -42.4687,42.4687 l 0,885.8437 a 42.475492,42.475492 0 0 0 42.4687,42.4688 l 177.1875,0 a 42.475492,42.475492 0 0 0 42.4688,-42.4688 l 0,-311.8124 151.3124,0 0,311.8124 a 42.475492,42.475492 0 0 0 42.4688,42.4688 l 118.125,0 59.0625,0 a 42.475492,42.475492 0 0 0 42.4687,-42.4688 l 0,-401.4687 0,-82.8125 0,-224.375 a 42.475492,42.475492 0 0 0 -42.4687,-42.4687 l -177.1875,0 a 42.475492,42.475492 0 0 0 -42.4688,42.4687 l 0,134.7188 -151.3124,0 0,-16.5938 a 42.475492,42.475492 0 0 0 -42.4688,-42.4687 l -16.5938,0 0,-252.8438 a 42.475492,42.475492 0 0 0 -42.4687,-42.4687 l -118.125,0 z"
     id="path5102"
     inkscape:connector-curvature="0" />
  <path
     inkscape:connector-curvature="0"
     style="fill:#800000;fill-opacity:1;stroke:none"
     d="m -2103.973,34.2911 c -4.7053,0.1366 -6.9728,0.5675 -13.5417,1.875 -8.964,1.7842 -10.1109,2.132 -18.5418,5.625 -8.3558,3.4618 -9.4612,4.0731 -17.0833,9.1667 -7.5271,5.0294 -8.5605,5.7472 -15.1043,12.2917 -6.5427,6.5425 -7.2635,7.5798 -12.2917,15.1042 -5.0925,7.6209 -5.7039,8.6206 -9.1666,16.9792 -3.4961,8.4365 -3.8414,9.6843 -5.6251,18.6459 -1.7421,8.7541 -1.8735,9.8996 -1.875,19.2709 l 0,885.8359 c 0,9.3753 0.1354,10.6293 1.875,19.375 1.784,8.9634 2.1322,10.1115 5.6251,18.5417 3.4637,8.362 4.0741,9.4629 9.1666,17.0834 5.0286,7.525 5.7518,8.564 12.2917,15.1042 6.5451,6.5459 7.5811,7.2643 15.1043,12.2917 7.6221,5.0935 8.7289,5.7052 17.0833,9.1667 8.4325,3.4938 9.579,3.841 18.5418,5.625 8.7569,1.7432 9.8963,1.8741 19.2708,1.8751 l 177.1881,0 c 9.3805,-5e-4 10.6205,-0.1327 19.375,-1.8751 8.9628,-1.784 10.1091,-2.1312 18.5417,-5.625 8.3594,-3.4634 9.472,-4.082 17.0834,-9.1667 7.5206,-5.0264 8.5627,-5.7501 15.1042,-12.2917 6.5381,-6.5384 7.2627,-7.5785 12.2917,-15.1042 5.0949,-7.6241 5.7062,-8.7324 9.1667,-17.0834 3.4889,-8.4232 3.8397,-9.5715 5.625,-18.5417 1.7431,-8.7581 1.8737,-10.0049 1.875,-19.375 l 0,-255.2091 38.2293,0 0,255.2091 c 0,9.3715 0.1327,10.6196 1.875,19.375 1.7856,8.9745 2.1359,10.1183 5.625,18.5417 3.4596,8.3477 4.0711,9.4583 9.1667,17.0834 5.03,7.5273 5.7567,8.5683 12.2917,15.1042 6.5388,6.5383 7.5823,7.2644 15.1042,12.2917 7.615,5.0876 8.7261,5.704 17.0834,9.1667 8.4326,3.4938 9.579,3.841 18.5417,5.625 8.757,1.7432 9.8963,1.8741 19.2709,1.8751 l 118.1254,0 59.0626,0 c 9.3749,-10e-4 10.6184,-0.1324 19.3751,-1.8751 8.9629,-1.784 10.1092,-2.1312 18.5417,-5.625 8.3565,-3.4622 9.4647,-4.0761 17.0834,-9.1667 7.5245,-5.0283 8.5619,-5.7489 15.1042,-12.2917 6.543,-6.5426 7.2642,-7.5806 12.2917,-15.1042 5.093,-7.6213 5.7036,-8.7233 9.1667,-17.0834 3.4963,-8.4369 3.8416,-9.5814 5.625,-18.5417 1.7406,-8.7486 1.8735,-10.0014 1.875,-19.375 l 0,-401.4595 0,-82.8128 0,-224.3756 c 0,-9.3725 -0.1333,-10.5182 -1.875,-19.2709 -1.7841,-8.9638 -2.1313,-10.2139 -5.625,-18.6459 -3.4642,-8.3637 -4.0755,-9.3602 -9.1667,-16.9792 -5.028,-7.5243 -5.7487,-8.5616 -12.2917,-15.1042 -6.5411,-6.5413 -7.5756,-7.2613 -15.1042,-12.2917 -7.6222,-5.0936 -8.7275,-5.7049 -17.0834,-9.1667 -8.4309,-3.493 -9.5776,-3.8408 -18.5417,-5.625 -8.7582,-1.7432 -10.0051,-1.8735 -19.3751,-1.875 l -177.188,0 c -9.3696,0 -10.5122,0.1317 -19.2709,1.875 -8.964,1.7842 -10.1107,2.1321 -18.5417,5.625 -8.3575,3.4626 -9.4657,4.0769 -17.0834,9.1667 -7.5257,5.0292 -8.5665,5.7544 -15.1042,12.2917 -6.5375,6.538 -7.2621,7.5776 -12.2917,15.1042 -5.0944,7.6237 -5.7065,8.6298 -9.1667,16.9792 -3.4888,8.4229 -3.8396,9.6744 -5.625,18.6459 -1.7432,8.7582 -1.8737,9.9007 -1.875,19.2709 l 0,78.2294 -46.6668,0 c -2.5472,-6.0371 -3.7319,-8.27 -8.2292,-15 -5.0296,-7.5267 -5.7541,-8.5663 -12.2917,-15.1043 -6.5376,-6.5373 -7.5784,-7.2625 -15.1042,-12.2917 -6.7248,-4.4932 -8.9579,-5.6798 -15,-8.2291 l 0,-204.7923 c 0,-9.3746 -0.1344,-10.5233 -1.875,-19.2709 -1.7841,-8.9638 -2.1313,-10.2139 -5.625,-18.6459 -3.4643,-8.3637 -4.0754,-9.3602 -9.1667,-16.9792 -5.0281,-7.5243 -5.7488,-8.5617 -12.2917,-15.1042 -6.542,-6.5424 -7.5784,-7.2628 -15.1043,-12.2917 -7.6221,-5.0936 -8.7275,-5.7049 -17.0833,-9.1667 -8.4309,-3.493 -9.5777,-3.8408 -18.5418,-5.625 -8.7581,-1.7432 -10.005,-1.8735 -19.375,-1.875 l -118.1254,0 c -2.3424,5e-4 -4.1607,-0.045 -5.7291,0 z m 5.7291,98.9586 118.1254,0 0,295.3133 59.0627,0 0,59.0627 236.2506,0 0,-177.188 177.188,0 0,224.3756 -71.2502,0 0,82.8128 71.2502,0 0,401.4595 -59.0626,0 -118.1254,0 0,-354.2719 -236.2506,0 0,354.2719 -177.1881,0 0,-885.8359 z m 205.1048,821.044 c 8.8061,0 15.9376,7.2356 15.9376,16.0417 l 0,33.3335 c 0,8.8061 -7.1315,15.9375 -15.9376,15.9375 -8.8061,0 -15.9375,-7.1314 -15.9375,-15.9375 l 0,-33.3335 c 0,-8.8061 7.1314,-16.0417 15.9375,-16.0417 z"
     id="path5121" />
  <path
     inkscape:connector-curvature="0"
     id="rect5589-9"
     d="m -4306.8821,-1131.6249 c 0,33.1667 0,66.3333 0,99.5 4.7233,4.6196 9.3916,9.296 14.0938,13.9375 -7.7897,6.3449 -16.4611,15.2636 -14.0938,26.25 0,45.9479 0,91.8958 0,137.8438 4.7212,4.6217 9.3866,9.3011 14.0938,13.9375 -7.3017,6.2262 -16.2599,14.5749 -14.0938,25.25 0,46.2395 0,92.4791 0,138.7187 4.7233,4.6196 9.3916,9.296 14.0938,13.9375 -7.7897,6.3449 -16.4611,15.2637 -14.0938,26.25 0,45.9479 0,91.8958 0,137.8438 4.7212,4.6217 9.3866,9.3011 14.0938,13.9375 -7.3017,6.2262 -16.2599,14.5749 -14.0938,25.25 0,46.2395 0,92.4791 0,138.7187 4.7233,4.6196 9.3916,9.296 14.0938,13.9375 -7.7897,6.3449 -16.4611,15.2637 -14.0938,26.25 0,17.4271 0,34.8542 0,52.2813 16.2708,0 32.5417,0 48.8124,0 7.7704,-6.8409 13.8892,-15.4716 22.25,-21.7188 7.8935,7.7665 14.8201,17.7873 25.5937,21.7188 33.5105,0 67.0209,0 100.5313,0 0.013,-118.1667 -0.03,-236.3334 0.031,-354.5 11.4748,0.1697 26.1409,3.0972 34.0366,-7.6986 5.519,-5.4859 11.0381,-10.9718 16.5571,-16.4577 8.1402,8.0681 16.2637,16.2328 24.2187,24.375 43.625,0 87.2501,0 130.875,0 7.8935,-7.867 15.7921,-15.7288 23.6876,-23.5937 11.0312,11.0312 22.0624,22.0625 33.0937,33.0937 -11.2107,11.0635 -22.0131,22.9949 -33.7187,33.2813 -7.3627,-2.7032 -14.8463,5.427 -12.562,12.6562 0.028,37.7396 0.036,75.4792 0.031,113.2188 6.1211,-2.6155 10.6458,-7.8621 13.5,-13.7188 10.9774,10.8089 22.0155,21.6437 32.5625,32.7813 -11.5475,10.6094 -21.6101,23.6438 -33.9375,32.9375 -7.3259,-2.2216 -14.379,5.7779 -12.1557,12.875 0.028,37.677 0.036,75.3541 0.031,113.0312 6.2378,-2.6673 10.7581,-8.0274 13.7187,-14 7.9794,7.4092 14.223,17.7062 24.8126,21.7188 43.7083,0 87.4166,0 131.125,0 8.4073,-11.2825 22.4568,-18.4083 27.5312,-32.0938 0,-31.8229 0,-63.6458 0,-95.4687 -13.1789,-12.9554 -26.1784,-26.0926 -39.2812,-39.125 13.0539,-13.0712 26.1215,-26.129 39.2812,-39.0938 0,-33.2708 0,-66.5417 0,-99.8125 -13.1598,-12.9647 -26.2273,-26.0226 -39.2812,-39.0937 13.0793,-13.078 26.1372,-26.1013 39.2812,-39.0313 0,-12.5833 0,-25.1667 0,-37.75 -24.6875,0 -49.375,0 -74.0625,0 -7.0199,7.0113 -14.0418,14.0207 -21.0625,21.0313 -11.0625,-11.0625 -22.125,-22.125 -33.1875,-33.1875 11.0729,-11.0834 22.1458,-22.1667 33.2187,-33.25 8.0157,8.0425 15.9006,16.0275 23.8438,24.0937 0,-13.8333 0,-27.6667 0,-41.5 23.4896,0 46.9792,0 70.4688,0 -12.8711,-12.7434 -25.6802,-25.5489 -38.5,-38.3437 13.0539,-13.0712 26.1215,-26.129 39.2812,-39.0938 0,-33.2292 0,-66.4583 0,-99.6875 -13.441,-13.2564 -26.8136,-26.5822 -40.125,-39.9687 9.1277,-9.1225 18.315,-18.185 27.4688,-27.2813 -55.4896,0 -110.9792,0 -166.4688,0 9.1242,9.0528 18.26,18.094 27.3438,27.1875 -11.5954,10.9085 -22.0008,23.936 -34.5938,33.375 -7.6021,-1.3146 -13.0402,7.4922 -10.9014,14.25 0.2082,34.1247 -0.034,68.2504 0.1826,102.375 -53.5624,0 -107.125,0 -160.6874,0 9.4062,9.3333 18.8228,18.6562 28.1874,28.0313 -11.0729,11.0729 -22.1458,22.1458 -33.2187,33.2187 -11.0833,-11.0729 -22.1667,-22.1458 -33.25,-33.2187 9.3647,-9.375 18.7812,-18.6981 28.1875,-28.0313 -15.1875,0 -30.375,0 -45.5625,0 0,-22.1042 0,-44.2083 0,-66.3125 -12.769,12.8768 -25.5556,25.736 -38.3437,38.5938 -11.073,-11.073 -22.1459,-22.1459 -33.2188,-33.2188 7.1394,-5.7751 14.6875,-14.0559 12.5,-24.0625 0,-47.2083 0,-94.4167 0,-141.625 -4.164,-4.1172 -8.3701,-8.1921 -12.5,-12.3438 7.1495,-5.8075 14.7091,-14.07 12.5,-24.0624 0,-30.448 0,-60.8959 0,-91.3438 -20.5208,0 -41.0417,0 -61.5625,0 8.8167,8.8187 17.6245,17.6463 26.4375,26.4688 -11.0729,11.0729 -22.1458,22.1458 -33.2188,33.2187 -11.0416,-11.0729 -22.0833,-22.1458 -33.1249,-33.2187 8.8804,-8.8279 17.7602,-17.6565 26.6562,-26.4688 -21.1042,0 -42.2082,0 -63.3124,0 l 0,1 0,1 z m 102.9999,202.4688 c -11.0729,11.0416 -22.1458,22.0833 -33.2188,33.125 -11.0416,-11.0417 -22.0833,-22.0834 -33.1249,-33.125 11.0416,-11.073 22.0833,-22.1459 33.1249,-33.2188 11.073,11.0729 22.1459,22.1458 33.2188,33.2188 z m 444.9375,88.9375 c -11.0625,11.0729 -22.125,22.1458 -33.1875,33.2187 -11.0625,-11.0625 -22.125,-22.125 -33.1875,-33.1875 11.0417,-11.0729 22.0833,-22.1458 33.125,-33.2187 11.0833,11.0625 22.1667,22.125 33.25,33.1875 z m -444.9375,89 c -11.0729,11.0729 -22.1458,22.1458 -33.2188,33.2187 -11.0416,-11.0729 -22.0833,-22.1458 -33.1249,-33.2187 11.0416,-11.0834 22.0833,-22.1667 33.1249,-33.25 11.073,11.0833 22.1459,22.1666 33.2188,33.25 z m 324.5938,-31.2188 c 10.4625,10.3726 20.8769,20.8307 31.3437,31.2188 -11.0625,11.0625 -22.125,22.125 -33.1875,33.1875 -11.0833,-11.0625 -22.1667,-22.125 -33.25,-33.1875 7.5001,-7.1236 14.9189,-15.7065 22.4688,-21.9375 5.5737,0.2226 8.9455,-6.2441 11.4062,-10.5 l 0.7071,0.7071 0.5117,0.5116 z m -235.625,120.1563 c -11.0417,11.0833 -22.0834,22.1666 -33.125,33.25 -11.073,-11.0834 -22.1459,-22.1667 -33.2188,-33.25 11.0729,-11.073 22.1458,-22.1459 33.2188,-33.2188 11.0416,11.0729 22.0833,22.1458 33.125,33.2188 z m 177.9687,0.062 c -11.0625,11.0625 -22.125,22.125 -33.1875,33.1875 -11.0729,-11.0834 -22.1458,-22.1667 -33.2188,-33.25 11.073,-11.073 22.1459,-22.1459 33.2188,-33.2188 11.0625,11.0938 22.125,22.1875 33.1875,33.2813 z m -266.9375,88.9062 c -11.0729,11.0729 -22.1458,22.1458 -33.2188,33.2188 -11.0416,-11.073 -22.0833,-22.1459 -33.1249,-33.2188 11.0416,-11.0417 22.0833,-22.0833 33.1249,-33.125 11.073,11.0417 22.1459,22.0833 33.2188,33.125 z m 87.375,87.3438 c 4.2449,1.8227 -2.0551,4.7885 -3.375,6.4062 -9.2396,9.5216 -18.7515,19.0601 -28.1875,28.5 -11.0625,-11.0625 -22.125,-22.125 -33.1875,-33.1875 11.0729,-11.0729 22.1458,-22.1458 33.2188,-33.2187 10.5104,10.5 21.0208,21 31.5312,31.5 z m 358.375,2.5625 c -11.0833,11.0416 -22.1667,22.0833 -33.25,33.125 -11.0417,-11.0417 -22.0833,-22.0834 -33.125,-33.125 11.0417,-11.0834 22.0833,-22.1667 33.125,-33.25 11.0833,11.0833 22.1667,22.1666 33.25,33.25 z m -445.6875,88.0625 c -11.0833,11.0729 -22.1667,22.1458 -33.25,33.2187 -11.0521,-11.0521 -22.1042,-22.1042 -33.1562,-33.1562 11.0416,-11.0834 22.0833,-22.1667 33.1249,-33.25 11.0938,11.0625 22.1875,22.125 33.2813,33.1875 z m 445.6875,89.8437 c -11.0833,11.0729 -22.1667,22.1458 -33.25,33.2188 -11.0417,-11.073 -22.0833,-22.1459 -33.125,-33.2188 11.0417,-11.0729 22.0833,-22.1458 33.125,-33.2187 11.0833,11.0729 22.1667,22.1458 33.25,33.2187 z m -381.625,-25.6875 c 8.5549,8.5285 17.0549,17.1118 25.5625,25.6875 -10.9925,11.0804 -21.9922,22.1536 -33,33.2188 -11.0833,-11.073 -22.1667,-22.1459 -33.25,-33.2188 11.0625,-11.0625 22.125,-22.125 33.1875,-33.1875 2.5,2.5 5,5 7.5,7.5 z m 382.3438,223.5313 c -9.6243,0.9742 -21.9231,-1.7641 -28.5313,7.2187 -2.0401,1.9077 -3.2477,4.5386 -5.3437,6.375 -5.9601,-8.192 -15.2898,-15.4871 -26.0625,-13.2355 -46.4266,0.3402 -92.8542,0.032 -139.2813,0.1418 -4.277,4.2957 -8.384,8.5461 -12.6562,12.8125 -5.8679,-7.2005 -14.1921,-14.9724 -24.3438,-12.8125 -46.9688,0 -93.9375,0 -140.9062,0 -4.277,4.2957 -8.3841,8.5461 -12.6563,12.8125 -5.8678,-7.2005 -14.192,-14.9724 -24.3437,-12.8125 -25.7917,0 -51.5834,0 -77.375,0 4.0611,11.3161 -3.5439,25.9793 6.375,35.25 1.8944,2.0053 4.9956,0.4368 6.6562,0.062 9.9665,11.7752 22.0626,22.0031 32.7812,33.1875 -11.7074,11.3395 -22.3773,23.9248 -35.0312,34.1875 -8.0516,-0.4516 -11.6462,9.2409 -9.7352,15.8748 0.5257,35.6336 -0.156,71.272 0.2352,106.9064 4.6748,-2.9966 9.3869,-6.3465 12.2188,-11.2187 10.6374,10.839 21.6018,21.4004 32.2812,32.2187 -11.7366,11.2752 -22.33,23.9327 -35,34.125 -8.0905,-0.4301 -11.667,9.2545 -9.7014,15.9061 0.3994,19.2482 -0.049,38.5003 0.1076,57.7502 -19.6873,0 -39.3749,0 -59.0623,0 0,19.6875 -1e-4,39.375 0,59.0625 -19.6876,0 -39.375,0 -59.0626,0 0,124.7916 1e-4,249.5833 0,374.375 29.7188,0 59.4375,0 89.1563,0 13.4786,-13.4693 26.9583,-26.9375 40.4374,-40.4063 13.4998,13.469 27.0014,26.9361 40.5,40.4063 32.3333,0 64.6667,0 97,0 13.4986,-13.4702 27.0002,-26.9373 40.5,-40.4063 13.5101,13.4691 27.0227,26.9356 40.5312,40.4063 32.2917,0 64.5834,0 96.875,0 13.5086,-13.4707 27.0212,-26.9372 40.5313,-40.4063 13.4998,13.469 27.0014,26.9361 40.5,40.4063 32.3333,0 64.6667,0 97,0 13.4986,-13.4702 27.0002,-26.9373 40.5,-40.4063 13.7641,13.7463 27.5479,27.473 41.25,41.2813 7.24,-2.4757 17.5302,2.1674 22.375,-5.75 3.6097,-18.5812 0.397,-37.9324 1.4614,-56.8123 -0.07,-8.768 0.9652,-18.1246 -1.2114,-26.5315 -2.3095,-2.7783 -6.0608,-5.3241 -7.75,-7.9687 6.5422,-5.5016 11.2692,-14.243 9,-22.9688 0,-48.5417 0,-97.0833 0,-145.625 -2.664,-3.2996 -6.8313,-6.1632 -9,-9.3437 6.5888,-5.4427 11.2477,-14.246 9,-22.9375 0,-27.0625 0,-54.125 0,-81.1875 -7.6501,8.3657 -20.5514,-0.592 -28.4063,7.1875 -2.5886,1.5303 -2.1363,5.1653 -2.4062,6.9687 -12.0806,10.634 -22.4982,23.2948 -34.5312,33.9375 -7.4189,-8.2538 -16.056,-15.2772 -23.5516,-23.5519 -2.6216,-4.3169 -13.7015,-8.6267 -5.9129,-12.9524 11.8716,-11.8965 23.7768,-23.7595 35.7457,-35.5582 0,-10.3958 0,-20.7917 0,-31.1875 -19.5001,-0.5911 -39.6412,0.9422 -58.75,-0.6562 -1.3024,-7.1825 -11.565,-11.6814 -16.4338,-5.1447 -6.8178,6.4381 -13.1982,14.5644 -20.285,20.0197 -8.8257,-9.6454 -18.6265,-18.1206 -27.5423,-27.7413 -8.2948,-4.3543 -2.2917,-8.695 2.5393,-13.0369 8.4489,-8.449 16.8979,-16.8979 25.3468,-25.3468 12.0638,12.009 24.1175,24.0282 36.1562,36.0625 0,-113.0417 1e-4,-226.0834 0,-339.125 -0.7291,0.062 -1.4583,0.125 -2.1874,0.1875 z m -267.5938,69.125 c -11.0833,11.0833 -22.1667,22.1666 -33.25,33.25 -11.0729,-11.0834 -22.1458,-22.1667 -33.2188,-33.25 11.073,-11.073 22.1459,-22.1459 33.2188,-33.2188 11.0833,11.0729 22.1667,22.1458 33.25,33.2188 z m 177.9062,0 c -11.0729,11.0833 -22.1458,22.1666 -33.2187,33.25 -11.0833,-11.0834 -22.1667,-22.1667 -33.25,-33.25 11.0833,-11.073 22.1667,-22.1459 33.25,-33.2188 11.0729,11.0729 22.1458,22.1458 33.2187,33.2188 z m -299.6874,56 c 9.1549,8.3995 16.4333,19.7165 27.7187,25.2812 6.4487,0.7494 10.1701,-6.3043 9.8125,-11.9062 42.1139,0.3461 84.2292,-0.026 126.3438,0.125 4.6547,-4.4828 8.8852,-9.3703 13.7187,-13.6563 6.1926,7.3182 14.5239,15.8361 25.1563,13.6563 16.8958,0 33.7916,0 50.6874,0 0,29.7916 1e-4,59.5833 0,89.375 6.0562,-2.6613 10.5597,-7.6951 13.4376,-13.5625 11.1043,10.6428 21.769,21.7313 32.6874,32.5625 -11.4182,10.9443 -21.784,23.5095 -34.0937,33.1875 -7.9838,-2.3959 -14.5355,6.7939 -12.125,14.0937 0.5684,3.7136 -7.9229,0.1815 -10.625,1.4063 -68.5104,0 -137.0208,0 -205.5313,0 10e-5,-47.4063 0,-94.8125 0,-142.2188 -12.5195,12.6262 -25.0555,25.2361 -37.5937,37.8438 -11.0833,-11.073 -22.1667,-22.1459 -33.25,-33.2188 11.3303,-10.8808 21.7544,-22.6107 33.6563,-32.9687 z m 388.1562,32.4687 c -1.9643,4.3393 -8.3828,8.6766 -12.0266,13.0151 -6.9078,6.9012 -13.8156,13.8024 -20.7234,20.7037 -11.0417,-11.073 -22.0833,-22.1459 -33.125,-33.2188 11.0417,-11.0729 22.0833,-22.1458 33.125,-33.2187 10.9167,10.9062 21.8333,21.8125 32.75,32.7187 z m -355.4375,178.4063 c -11.0417,11.0833 -22.0833,22.1666 -33.125,33.25 -11.0833,-11.0834 -22.1667,-22.1667 -33.25,-33.25 11.0833,-11.0417 22.1667,-22.0834 33.25,-33.125 11.0417,11.0416 22.0833,22.0833 33.125,33.125 z m 161.875,-16.0625 c 5.375,5.3541 10.75,10.7083 16.125,16.0625 -11.0729,11.0833 -22.1458,22.1666 -33.2187,33.25 -11.073,-11.0834 -22.1459,-22.1667 -33.2188,-33.25 11.0893,-10.994 22.1622,-22.0045 33.2188,-33.0313 5.6979,5.6563 11.3958,11.3125 17.0937,16.9688 z m -250.8437,105.125 c -11.073,11.0416 -22.1459,22.0833 -33.2188,33.125 -11.0417,-11.0417 -22.0833,-22.0834 -33.1249,-33.125 11.0416,-11.073 22.0832,-22.1459 33.1249,-33.2188 11.0729,11.0729 22.1458,22.1458 33.2188,33.2188 z m 183.8124,5.7812 c 16.1327,6.3264 34.1245,1.382 51.0313,2.9688 15.2917,0 30.5833,0 45.875,0 13.9996,-13.9901 28.0001,-27.9791 42,-41.9688 14.6125,14.5958 29.2547,29.1626 43.75,43.875 3.4462,-4.4539 2.7048,0.9795 2.5857,3.9371 -0.7797,70.1332 0,140.2714 -0.3044,210.4067 -111.4584,0 -222.9167,0 -334.375,0 0,-41.4688 -10e-5,-82.9375 0,-124.4063 -3.8581,-3.88 -7.867,-7.6275 -11.6876,-11.5625 7.1941,-5.8068 14.0048,-14.5528 11.6876,-24.4062 -10e-5,-18.625 0,-37.25 0,-55.875 22.8645,0 45.7291,0 68.5937,0 13.8623,-14.0643 27.8515,-28.0027 41.8125,-41.9688 13.0104,13 26.0208,26 39.0312,39 z m -272.7811,83.1875 c -11.0729,11.0729 -22.1458,22.1458 -33.2188,33.2188 -11.0953,-11.0193 -22.1208,-22.1085 -33.125,-33.2188 11.0042,-11.1103 22.0297,-22.1995 33.125,-33.2187 11.073,11.0729 22.1459,22.1458 33.2188,33.2187 z m 533.8749,0 c -11.0833,11.0729 -22.1667,22.1458 -33.25,33.2188 -11.0243,-11.0592 -22.0385,-22.1283 -33.0312,-33.2188 10.9926,-11.0906 22.0069,-22.1597 33.0312,-33.2187 11.0833,11.0729 22.1667,22.1458 33.25,33.2187 z m -444.9062,88.9688 c -11.073,11.0729 -22.1459,22.1458 -33.2188,33.2187 -11.0417,-11.0729 -22.0833,-22.1458 -33.1249,-33.2187 11.0416,-11.0834 22.0832,-22.1667 33.1249,-33.25 11.0729,11.0833 22.1458,22.1666 33.2188,33.25 z m 533.8437,0 c -11.0417,11.0729 -22.0833,22.1458 -33.125,33.2187 -11.0729,-11.0729 -22.1458,-22.1458 -33.2187,-33.2187 11.0729,-11.0834 22.1458,-22.1667 33.2187,-33.25 11.0417,11.0833 22.0833,22.1666 33.125,33.25 z m -622.8124,88.9375 c -11.0729,11.0833 -22.1458,22.1666 -33.2188,33.25 -11.0953,-11.0193 -22.1208,-22.1085 -33.125,-33.2188 10.9782,-11.1465 22.0664,-22.1836 33.125,-33.25 11.073,11.0729 22.1459,22.1458 33.2188,33.2188 z m 533.8749,0 c -11.0833,11.0833 -22.1667,22.1666 -33.25,33.25 -11.0417,-11.0834 -22.0833,-22.1667 -33.125,-33.25 11.0417,-11.073 22.0833,-22.1459 33.125,-33.2188 11.0833,11.0729 22.1667,22.1458 33.25,33.2188 z m -372,-16.125 c 5.3542,5.375 10.7083,10.75 16.0625,16.125 -11.0417,11.0833 -22.0833,22.1666 -33.125,33.25 -11.0833,-11.0834 -22.1667,-22.1667 -33.25,-33.25 11.0549,-11.1014 22.1218,-22.1911 33.2813,-33.1875 5.677,5.6875 11.3541,11.375 17.0312,17.0625 z m 168.4375,-9.5 c 8.5563,8.527 17.1016,17.065 25.625,25.625 -11.0729,11.0833 -22.1458,22.1666 -33.2187,33.25 -11.073,-11.0834 -22.1459,-22.1667 -33.2188,-33.25 11.0341,-11.0805 22.0801,-22.1496 33.2188,-33.125 2.5312,2.5 5.0624,5 7.5937,7.5 z"
     style="fill:#00ffff;fill-opacity:1;stroke:none" />
  <path
     id="path6366"
     style="fill:#00ffff;fill-opacity:1;stroke:none"
     d="m 366.30159,1275.837 0,152.7088 211.8756,0 0,-152.7088 -211.8756,0 z m 42.9168,43.021 125.9378,0 0,66.771 -125.9378,0 0,-66.771 z m -101.9795,252.1882 0,211.8756 330.001,0 0,-211.8756 -330.001,0 z m 29.7918,29.7918 270.4174,0 0,152.2921 -270.4174,0 0,-152.2921 z"
     inkscape:connector-curvature="0" />
  <path
     style="fill:#00ffff;fill-opacity:1;stroke:none"
     d="m 156.97103,0 c -9.3696,0 -10.6165,0.236 -19.3751,1.9792 -8.9641,1.7842 -10.1113,2.1321 -18.5417,5.625 -8.3567,3.4618 -9.4614,4.0731 -17.0834,9.1667 -7.528002,5.0295 -8.560502,5.7472 -15.104202,12.2917 -6.543,6.5425 -7.2637,7.4757 -12.2917,15.0001 -5.0923,7.6208 -5.704,8.7248 -9.1667,17.0834 -3.496,8.4365 -3.8413,9.5801 -5.625,18.5417 -1.742,8.7541 -1.8737,10.0037 -1.875,19.375 l 0,905.8359 c 0,9.3753 0.1367,10.6294 1.875,19.3751 1.784,8.9634 2.1323,10.1113 5.625,18.5417 3.4637,8.362 4.0744,9.4629 9.1667,17.0834 5.0284,7.525 5.7517,8.4598 12.2917,15 6.545,6.5459 7.5802,7.2643 15.104202,12.2917 7.622,5.0933 8.728,5.7052 17.0834,9.1667 4.9312,2.0433 7.4482,2.9423 10.4167,3.75 -1.5531,2.9235 -3.0137,5.8877 -3.8542,7.9167 -1.8253,4.406 -4.6942,13.7602 -5.625,18.4376 -0.9307,4.6774 -1.8747,14.2933 -1.875,19.0625 l 0,118.1254 0,146.667 c -4.9637,2.205 -10.0311,4.626 -13.1251,6.5626 -5.062402,3.1688 -14.402702,10.7986 -18.541702,15.1042 -4.139,4.3056 -11.4083,14.0874 -14.375,19.2709 -2.1157,3.6967 -4.8475,10.0695 -6.9792,15.7292 -7.6726,3.0034 -17.304,7.7468 -22.2917,11.1458 -6.5016,4.43 -18.1641,15.3987 -22.9168,21.6668 -4.754,6.2681 -12.1761997,20.4619 -14.6874997,27.9167 -2.5113,7.4547 -5.19939997381,23.2795 -5.20839997,31.1459 l 0,354.376 c 3e-4,4.7692 0.9444,14.385 1.87509997,19.0626 0.9306,4.6774 3.7996,14.0314 5.625,18.4375 1.8253,4.4061 6.4117997,12.9098 9.0624997,16.8751 2.6496,3.9653 8.8152,11.5236 12.1875,14.8959 3.3724,3.3722 10.8264,9.4336 14.7917,12.0833 3.9654,2.6497 12.4691,7.2373 16.8751,9.0626 4.406,1.8253 13.7601,4.6943 18.4375,5.625 4.6787,0.9307 14.2936,1.8746 19.0626,1.875 l 748.648002,0 c 4.7691,-4e-4 14.3851,-0.9443 19.0625,-1.875 4.6775,-0.9307 14.0315,-3.7997 18.4376,-5.625 4.4061,-1.8253 12.9097,-6.4129 16.875,-9.0626 3.9653,-2.6497 11.5237,-8.7111 14.8959,-12.0833 3.3723,-3.3723 9.4336,-10.9306 12.0834,-14.8959 2.6497,-3.9654 7.2372,-12.469 9.0625,-16.8751 1.8253,-4.4061 4.6943,-13.7601 5.625,-18.4375 0.9307,-4.6776 1.8746,-14.2934 1.875,-19.0626 l 0,-354.376 c 0,-7.8781 -2.5914,-23.6793 -5.1042,-31.1459 -2.5129,-7.4666 -10.0305,-21.6401 -14.7917,-27.9167 -4.7611,-6.2766 -16.4037,-17.4429 -22.9167,-21.8751 -4.9974,-3.4009 -14.7088,-8.0415 -22.3959,-11.0417 -2.1311,-5.6391 -4.7625,-11.9406 -6.875,-15.625 -2.9602,-5.1625 -10.2512,-14.8762 -14.3751,-19.1668 -4.1239,-4.2905 -13.5004,-11.942 -18.5417,-15.1042 -3.0751,-1.9289 -8.086,-4.3607 -13.0209,-6.5625 l 0,-264.8966 c -4e-4,-4.7692 -0.9442,-14.3851 -1.875,-19.0625 -0.9307,-4.6774 -3.7998,-14.0316 -5.625,-18.4376 -0.8405,-2.029 -2.3011,-4.9932 -3.8542,-7.9167 2.9267,-0.8026 5.4327,-1.7282 10.3126,-3.75 8.3565,-3.4622 9.4647,-4.0763 17.0833,-9.1667 7.5244,-5.0283 8.562,-5.7489 15.1043,-12.2917 6.5429,-6.5426 7.2641,-7.4764 12.2917,-15 5.093,-7.6213 5.7035,-8.7233 9.1666,-17.0834 3.4964,-8.4371 3.8417,-9.5814 5.6251,-18.5417 1.7406,-8.7486 1.8735,-10.0015 1.875,-19.3751 l 0,-401.4594 0,-82.8128 0,-244.3757 c 0,-9.3724 -0.1334,-10.6223 -1.875,-19.375 -1.7841,-8.9638 -2.1313,-10.1098 -5.6251,-18.5417 -3.4642,-8.3638 -4.0754,-9.4645 -9.1666,-17.0834 -5.0281,-7.5243 -5.7488,-8.4575 -12.2917,-15.0001 -6.5411,-6.5413 -7.5758,-7.2613 -15.1043,-12.2917 -7.6221,-5.0936 -8.7274,-5.7049 -17.0833,-9.1667 -8.4309,-3.4929 -9.5778,-3.8408 -18.5418,-5.625 -8.7582,-1.7432 -10.005,-1.9777 -19.375,-1.9792 l -177.188,0 c -9.3696,0 -10.5122,0.236 -19.2709,1.9792 -8.9641,1.7842 -10.1107,2.1321 -18.5417,5.625 -8.3575,3.4626 -9.4657,4.0769 -17.0834,9.1667 -7.5258,5.0292 -8.5665,5.7544 -15.1042,12.2917 -6.5376,6.538 -7.2621,7.4734 -12.2917,15.0001 -5.0944,7.6236 -5.7066,8.7339 -9.1667,17.0834 -3.4888,8.4228 -3.8396,9.5702 -5.625,18.5417 -1.7432,8.7582 -1.8737,10.0048 -1.875,19.375 l 0,78.1252 -86.6669,0 c -2.5473,-6.037 -3.7319,-8.2699 -8.2292,-15 -5.0296,-7.5266 -5.7542,-8.462 -12.2917,-15 -6.5376,-6.5374 -7.5785,-7.2626 -15.1042,-12.2917 -6.7248,-4.4933 -8.9579,-5.6799 -15.0001,-8.2292 l 0,-204.7923 c 0,-9.3745 -0.1343,-10.6274 -1.875,-19.375 -1.7841,-8.9638 -2.1313,-10.1098 -5.625,-18.5417 -3.4642,-8.3638 -4.0755,-9.4644 -9.1667,-17.0834 -5.028,-7.5243 -5.7487,-8.4575 -12.2917,-15.0001 -6.5421,-6.5424 -7.5783,-7.2628 -15.1042,-12.2917 -7.6222,-5.0936 -8.7275,-5.7049 -17.0834,-9.1667 -8.4309,-3.4929 -9.5776,-3.8408 -18.5417,-5.625 C 285.60903,0.236 284.46633,0.0015 275.09633,0 z m 1.3541,89.8961 c 1.5474,-0.084 3.1707,0.1346 4.5834,0.4167 23.0417,0.073 46.021,-0.1283 69.0627,-0.1042 15.5178,0.3409 31.2567,-0.5091 46.6668,0.7292 8.4341,4.4847 4.5839,15.7033 5.3125,23.2292 l 0,271.355 c 17.9631,0.6357 36.148,-1.1037 53.9585,0.8333 7.984,4.1511 4.4672,14.9384 5.1042,22.0834 l 0,36.1459 258.4382,0 c 0.309,-57.1119 -0.5568,-114.3076 0.5208,-171.3546 3.2788,-8.0477 13.639,-5.7794 20.4168,-5.8334 55.9885,0.2601 112.0896,-0.4696 168.0213,0.5209 8.3579,3.0696 5.8742,13.5509 5.9375,20.4167 -0.2417,71.7107 0.6069,163.4341 -0.3124,235.1048 -3.4269,8.6191 -14.4314,5.7266 -21.5625,6.0417 l -49.3752,0 0,65.1044 c 22.0325,0.5982 44.2124,-0.9664 66.1461,0.8333 8.366,4.4421 4.2877,15.5445 5.1041,23.1251 -0.1893,129.5891 0.3947,259.1852 -0.3123,388.7511 -2.2574,7.9146 -12.2446,6.8615 -18.6459,6.4583 -56.7274,-0.326 -113.5412,0.6838 -170.2088,-0.5208 -8.314,-3.4115 -5.3968,-14.384 -5.7292,-21.3542 l 0,-332.3968 -258.4382,0 c -0.206,115.9433 0.4026,231.8935 -0.3123,347.8135 -2.2575,7.9146 -12.3488,6.8615 -18.7501,6.4583 -56.7274,-0.326 -113.5413,0.6838 -170.2088,-0.5208 -8.314,-3.4115 -5.3969,-14.384 -5.7292,-21.3542 0.1003,-291.5173 -0.1929,-603.0865 0.2083,-894.5859 0.8505,-5.0023 14.7532,-7.3959 10.1042,-7.3959 z m 223.5423,610.2101 175.313,0 0,317.3967 3.3334,0 0,12.9167 14.6875,0 0,20.9376 -18.0209,0 0,0.4167 -175.313,0 0,-1.3542 -13.75,0 0,-18.6459 13.75,0 z m -166.0421,439.2721 c 158.234,0.1213 356.4829,-0.266 514.689,0.2083 7.8207,2.0678 6.4813,11.8688 6.1458,18.0209 l 0,336.0426 c 18.1424,0.6594 36.6053,-1.1895 54.5835,0.8334 7.3919,4.6526 3.661,15.2464 4.4792,22.5 l 0,35.7293 c 18.1737,0.6553 36.5741,-1.1744 54.5835,0.8333 7.3907,4.6525 3.6678,15.2465 4.4791,22.5001 -0.1923,113.8495 0.3962,227.7373 -0.3123,341.5635 -2.1239,7.5097 -11.9754,6.2334 -18.0209,5.9375 -233.3941,-0.059 -506.7208,0.047 -740.106202,-0.2084 -7.6658,-1.5413 -7.2891,-11.09 -6.6667,-17.0833 0.1972,-115.8391 -0.3982,-231.6852 0.3125,-347.501 2.483,-8.0146 12.558702,-6.0822 18.958402,-6.0417 l 39.7917,0 c 0.7457,-18.2164 -1.3136,-36.638 0.9375,-54.6877 4.4238,-7.0365 14.4677,-3.6798 21.3543,-4.375 l 36.7709,0 c 0.206,-116.0967 -0.4026,-232.327 0.3125,-348.3343 0.9425,-3.279 4.2476,-5.8807 7.7084,-5.9375 z"
     id="path6252"
     inkscape:connector-curvature="0"
     sodipodi:nodetypes="cccccccccsccsccccccccccsscccsccccccsscccssssssscscssccsscccscsccccccccsccsccsscccsccscccccscccsccsccsscccccccccccccccccccccccccccccccccscccccccccccccccccccccccccccccccccccccc" />
  <path
     inkscape:export-ydpi="89.948212"
     inkscape:export-xdpi="89.948212"
     inkscape:export-filename="/home/fincham/Working/k8/rect5589-9.png"
     sodipodi:nodetypes="cscccccccscccccccccccccsscccsccssccsscccssssssscccssccssccccccccccccccsccsccssccssccscccccscccsccsccsscccccssccsccsccccsccccccsccscccssccsccsccccccccssccccsccsccsscccccccssccsccscccsccssc"
     inkscape:connector-curvature="0"
     id="path6147"
     d="m 156.97103,0 c -9.3696,0 -10.6165,0.236 -19.3751,1.9792 -8.9641,1.7842 -10.1111,2.1321 -18.5415,5.625 -8.3567,3.4618 -9.4614,4.0731 -17.0834,9.1667 -7.528002,5.0295 -8.560702,5.7472 -15.104402,12.2917 -6.543,6.5425 -7.2637,7.4757 -12.2917,15.0001 -5.0923,7.6208 -5.704,8.7248 -9.1667,17.0834 -3.496,8.4365 -3.8413,9.5801 -5.625,18.5417 -1.742,8.7541 -1.8737,10.0037 -1.875,19.375 l 0,905.836 c 0,9.3753 0.1367,10.6293 1.875,19.375 1.784,8.9634 2.1323,10.1113 5.625,18.5417 3.4637,8.362 4.0744,9.4629 9.1667,17.0834 5.0284,7.525 5.7517,8.4599 12.2917,15.0001 6.545,6.5459 7.5804,7.2643 15.104402,12.2917 7.622,5.0933 8.728,5.7052 17.0834,9.1667 4.9312,2.0433 7.448,2.9423 10.4165,3.75 -1.5531,2.9235 -3.0137,5.8877 -3.8542,7.9167 -1.8253,4.406 -4.6942,13.7601 -5.625,18.4375 -0.9307,4.6774 -1.8747,14.2934 -1.875,19.0626 l 0,118.1253 0,146.6671 c -4.9637,2.2049 -10.031,4.6259 -13.125,6.5625 -5.062402,3.1688 -14.402802,10.7986 -18.541802,15.1042 -4.139,4.3056 -11.4083,14.0874 -14.375,19.2709 -2.1157,3.6967 -4.8477,10.0695 -6.9794,15.7292 -7.6726,3.0034 -17.3037,7.7469 -22.2914,11.1459 -6.5016,4.4299 -18.164,15.3986 -22.9167,21.6667 -4.754,6.2681 -12.1763997,20.462 -14.6876997,27.9168 -2.5113,7.4547 -5.19929997381,23.2795 -5.20829997,31.1459 l 0,354.376 c 3e-4,4.7691 0.9443,14.385 1.87499997,19.0626 0.9306,4.6774 3.7996,14.0314 5.625,18.4375 1.8253,4.406 6.4119997,12.9098 9.0626997,16.8751 2.6496,3.9653 8.815,11.5235 12.1873,14.8958 3.3724,3.3722 10.8264,9.4337 14.7917,12.0834 3.9654,2.6497 12.4691,7.2372 16.8751,9.0625 4.406,1.8253 13.76,4.6943 18.4374,5.625 4.6787,0.9307 14.2937,1.8746 19.0627,1.875 l 748.648002,0 c 4.7691,-4e-4 14.3851,-0.9443 19.0625,-1.875 4.6775,-0.9307 14.0316,-3.7997 18.4376,-5.625 4.4061,-1.8253 12.9097,-6.4128 16.875,-9.0625 3.9653,-2.6497 11.5237,-8.7112 14.8959,-12.0834 3.3723,-3.3723 9.4337,-10.9305 12.0834,-14.8958 2.6497,-3.9654 7.2372,-12.4691 9.0625,-16.8751 1.8253,-4.4061 4.6943,-13.7601 5.625,-18.4375 0.9307,-4.6776 1.8746,-14.2935 1.875,-19.0626 l 0,-354.376 c 0,-7.8781 -2.5914,-23.6793 -5.1042,-31.1459 -2.5129,-7.4666 -10.0305,-21.6402 -14.7917,-27.9168 -4.7611,-6.2766 -16.4037,-17.4428 -22.9167,-21.875 -4.9974,-3.4009 -14.7088,-8.0415 -22.3959,-11.0417 -2.1311,-5.6391 -4.7625,-11.9407 -6.875,-15.6251 -2.9602,-5.1625 -10.2512,-14.8762 -14.3751,-19.1667 -4.1239,-4.2905 -13.5004,-11.942 -18.5417,-15.1042 -3.0751,-1.9289 -8.086,-4.3607 -13.0209,-6.5625 l 0,-264.8966 c -4e-4,-4.7692 -0.9442,-14.3852 -1.875,-19.0626 -0.9307,-4.6774 -3.7998,-14.0315 -5.625,-18.4375 -0.8405,-2.029 -2.3011,-4.9932 -3.8542,-7.9167 2.9267,-0.8026 5.4328,-1.7282 10.3126,-3.75 8.3565,-3.4622 9.4647,-4.0763 17.0834,-9.1667 7.5244,-5.0283 8.5619,-5.7489 15.1042,-12.2917 6.543,-6.5426 7.2642,-7.4765 12.2917,-15.0001 5.093,-7.6213 5.7036,-8.7233 9.1667,-17.0834 3.4963,-8.4371 3.8416,-9.5814 5.625,-18.5417 1.7406,-8.7486 1.8735,-10.0014 1.875,-19.375 l 0,-401.4595 0,-82.8128 0,-244.3757 c 0,-9.3724 -0.1333,-10.6223 -1.875,-19.375 -1.7841,-8.9638 -2.1313,-10.1097 -5.625,-18.5417 -3.4642,-8.3638 -4.0755,-9.4644 -9.1667,-17.0834 -5.028,-7.5243 -5.7487,-8.4575 -12.2917,-15.0001 -6.5411,-6.5413 -7.5757,-7.2613 -15.1042,-12.2917 -7.6222,-5.0935 -8.7275,-5.7048 -17.0834,-9.1667 -8.4309,-3.4929 -9.5777,-3.8408 -18.5417,-5.625 -8.7582,-1.7432 -10.0051,-1.9776 -19.3751,-1.9791 l -177.188,0 c -9.3696,0 -10.5122,0.236 -19.2709,1.9791 -8.9641,1.7842 -10.1107,2.1321 -18.5417,5.625 -8.3575,3.4626 -9.4657,4.0769 -17.0834,9.1667 -7.5258,5.0292 -8.5665,5.7544 -15.1042,12.2917 -6.5376,6.538 -7.2621,7.4735 -12.2917,15.0001 -5.0944,7.6237 -5.7066,8.7339 -9.1667,17.0834 -3.4888,8.4228 -3.8396,9.5702 -5.625,18.5417 -1.7432,8.7582 -1.8737,10.0048 -1.875,19.375 l 0,78.1253 -86.6669,0 c -2.5472,-6.0371 -3.7319,-8.27 -8.2292,-15.0001 -5.0296,-7.5266 -5.7541,-8.462 -12.2917,-15 -6.5376,-6.5374 -7.5784,-7.2626 -15.1042,-12.2917 -6.7248,-4.4933 -8.9579,-5.6798 -15.0001,-8.2292 l 0,-204.7923 c 0,-9.3745 -0.1343,-10.6274 -1.875,-19.375 -1.7841,-8.9638 -2.1313,-10.1098 -5.625,-18.5417 -3.4642,-8.3638 -4.0755,-9.4644 -9.1667,-17.0834 -5.028,-7.5243 -5.7487,-8.4575 -12.2917,-15.0001 -6.5421,-6.5424 -7.5783,-7.2628 -15.1042,-12.2917 -7.6222,-5.0936 -8.7275,-5.7049 -17.0834,-9.1667 -8.4309,-3.4929 -9.5776,-3.8408 -18.5417,-5.625 C 285.60903,0.236 284.46633,0.0015 275.09633,0 z m -5.4167,13.3334 c 1.3127,-0.02 3.0508,5e-4 5.4167,0 l 118.1253,0 c 9.4637,0 7.6897,-0.12 16.6667,1.6667 9.1221,1.8156 7.5761,1.3453 16.1459,4.8958 8.507,3.5245 7.0456,2.6362 14.7917,7.8126 7.6908,5.1391 6.3959,4.1037 13.0209,10.7292 6.6258,6.6252 5.4866,5.3313 10.625,13.0208 5.1752,7.7446 4.3902,6.2779 7.9167,14.7917 3.5511,8.5707 3.08,6.9196 4.8959,16.0417 1.7847,8.9687 1.6666,7.3059 1.6666,16.7709 l 0,213.6465 c 1.4866,0.533 2.8016,1.1145 6.1459,2.5 8.5073,3.5246 7.0499,2.6396 14.7917,7.8125 7.6895,5.1385 6.4,4.1087 13.0209,10.7292 6.6208,6.6213 5.4861,5.3306 10.625,13.0209 5.1763,7.746 4.3939,6.2905 7.9167,14.7917 1.3839,3.3414 1.8627,4.66 2.3958,6.1458 l 108.8545,0 0,-91.4586 c 0,-9.464 -0.1204,-7.7939 1.6667,-16.7709 1.8163,-9.1271 1.3486,-7.4781 4.8958,-16.0417 3.5228,-8.5011 2.7405,-7.0456 7.9167,-14.7917 5.139,-7.6902 4.0041,-6.3995 10.625,-13.0208 6.6209,-6.6205 5.3315,-5.5907 13.0209,-10.7292 7.7418,-5.1729 6.2844,-4.288 14.7917,-7.8126 8.5698,-3.5505 7.0239,-3.0802 16.1459,-4.8958 8.9771,-1.7867 7.203,-1.6647 16.6667,-1.6667 l 177.188,0 c 9.4637,0 7.794,-0.12 16.7709,1.6667 9.1222,1.8156 7.5761,1.3453 16.1459,4.8958 8.507,3.5245 7.0455,2.6362 14.7917,7.8126 7.6931,5.1403 6.3963,4.1042 13.0208,10.7292 6.6258,6.6252 5.4867,5.3313 10.6251,13.0208 5.1752,7.7447 4.3902,6.2779 7.9167,14.7917 3.5511,8.5707 3.0801,6.9196 4.8958,16.0417 1.7855,8.9734 1.6667,7.3069 1.6667,16.7709 l 0,244.3757 0,82.8128 0,401.4595 c 0,9.4649 0.1173,7.8023 -1.6667,16.7708 -1.8154,9.12 -1.3425,7.4667 -4.8958,16.0418 -3.5257,8.511 -2.7403,7.0456 -7.9167,14.7917 -5.1379,7.6887 -3.9994,6.3955 -10.6251,13.0208 -6.6249,6.6254 -5.3312,5.5906 -13.0208,10.7292 -7.7429,5.1734 -6.2851,4.3923 -14.7917,7.9167 -8.5711,3.5512 -7.0245,2.9762 -16.1459,4.7917 -6.372,1.2682 -7.504,1.6684 -10.9375,1.7708 13.1402,15.2913 20.595,35.3593 20.625,55.521 l 0,273.23 c 26.4876,8.6604 48.0406,31.1013 55.6252,57.9168 17.7853,4.9717 33.8335,15.9165 45.0001,30.6251 11.1666,14.7085 17.3859,33.0956 17.3959,51.5626 l 0,354.3761 c 0.01,22.3645 -9.186,44.6027 -25.0001,60.4168 -15.8141,15.8141 -38.0522,25.0101 -60.4168,25.0001 l -748.648002,0 c -22.3644,0.01 -44.6028,-9.186 -60.4168,-25.0001 -15.8141,-15.8141 -25.0001,-38.0523 -25.0001,-60.4168 l 0,-354.3761 c 0.033,-18.4365 6.2503,-36.772 17.396,-51.4584 11.1447,-14.6863 27.1461,-25.6391 44.8958,-30.6251 7.5641,-26.9369 29.222502,-49.4842 55.833502,-58.1252 l 0,-155.0004 0,-118.1254 c 0.059,-20.1745 7.552,-40.2445 20.7293,-55.521 -3.6277,-0.093 -4.6295,-0.4737 -11.1459,-1.7708 -9.1212,-1.8155 -7.5748,-1.2405 -16.1459,-4.7917 -8.5058,-3.5241 -7.0448,-2.7408 -14.7919,-7.9167 -7.6887,-5.1382 -6.3933,-4.1009 -13.020702,-10.7292 -6.623,-6.6232 -5.4867,-5.3314 -10.625,-13.0208 -5.176,-7.7457 -4.3907,-6.2791 -7.9167,-14.7917 -3.5503,-8.5692 -3.0807,-6.9206 -4.8957,-16.0418 -1.7833,-8.9673 -1.6666,-7.3059 -1.6666,-16.7708 l 0,-905.836 c 0,-9.464 -0.12,-7.7975 1.6666,-16.7709 1.815,-9.1211 1.3424,-7.467 4.8957,-16.0417 3.525,-8.5093 2.741,-7.0463 7.9167,-14.7917 5.1383,-7.6895 3.9993,-6.3956 10.625,-13.0208 6.627102,-6.6279 5.328402,-5.5893 13.020702,-10.7292 7.7471,-5.1764 6.2851,-4.2881 14.7919,-7.8126 8.5698,-3.5505 7.0239,-3.0802 16.1459,-4.8958 6.7328,-1.34 7.4165,-1.6107 11.3542,-1.6667 z"
     style="fill:#ff00ff;fill-opacity:1;stroke:none" />
  <path
     inkscape:export-ydpi="89.948212"
     inkscape:export-xdpi="89.948212"
     inkscape:export-filename="/home/fincham/Working/k8/rect5589-9.png"
     inkscape:connector-curvature="0"
     id="path5147"
     d="m 156.97103,43.021 c -1.8943,3e-4 -9.0797,0.776 -10.9376,1.1458 -1.8579,0.3698 -8.7707,2.5041 -10.5208,3.2292 -1.7501,0.7251 -8.1125,4.0517 -9.6875,5.1042 -1.5752,1.0525 -7.2024,5.6397 -8.5417,6.9792 -1.3394,1.3395 -5.8227,6.9666 -6.8751,8.5417 -1.0523,1.575 -4.4833,7.8333 -5.2083,9.5833 -0.725,1.7501 -2.8594,8.663 -3.229,10.5209 -0.3707,1.8579 -1.041,9.0432 -1.042,10.9375 l 0,905.836 c 0,1.8944 0.6713,9.0796 1.042,10.9375 0.3696,1.8578 2.504,8.7708 3.229,10.5209 0.725,1.75 4.156,8.1125 5.2083,9.6875 1.0524,1.575 5.5357,7.098 6.8751,8.4375 1.3393,1.3395 6.9665,5.9267 8.5417,6.9792 1.575,1.0524 7.9374,4.4832 9.6875,5.2083 1.7501,0.7251 8.6629,2.7553 10.5208,3.1251 1.8579,0.3698 9.0433,1.1455 10.9376,1.1458 l 160.7296,0 0,0.1042 312.6051,0 0,-0.1042 98.1252,0 59.0627,0 c 1.8943,-3e-4 9.0796,-0.776 10.9375,-1.1458 1.8579,-0.3698 8.7708,-2.4 10.5209,-3.1251 1.7501,-0.7251 8.1125,-4.1559 9.6875,-5.2083 1.5751,-1.0525 7.2023,-5.6397 8.5417,-6.9792 1.3395,-1.3395 5.8225,-6.8625 6.875,-8.4375 1.0525,-1.575 4.4834,-7.9375 5.2084,-9.6875 0.7251,-1.7501 2.8594,-8.6631 3.2292,-10.5209 0.3697,-1.8579 1.0413,-9.0431 1.0416,-10.9375 l 0,-401.4595 0,-82.8128 0,-244.3757 c -3e-4,-1.8943 -0.6719,-9.0796 -1.0416,-10.9375 -0.3698,-1.8579 -2.5041,-8.7708 -3.2292,-10.5209 -0.725,-1.75 -4.1559,-8.0083 -5.2084,-9.5833 -1.0525,-1.5751 -5.5355,-7.2022 -6.875,-8.5417 -1.3394,-1.3395 -6.9666,-5.9267 -8.5417,-6.9792 -1.575,-1.0525 -7.9374,-4.3791 -9.6875,-5.1042 -1.7501,-0.7251 -8.663,-2.8594 -10.5209,-3.2292 -1.8579,-0.3698 -9.0432,-1.1455 -10.9375,-1.1458 l -177.188,0 c -1.8943,3e-4 -9.0796,0.776 -10.9375,1.1458 -1.8579,0.3698 -8.6666,2.5041 -10.4167,3.2292 -1.7501,0.7251 -8.1125,4.0517 -9.6876,5.1042 -1.575,1.0525 -7.2022,5.6397 -8.5417,6.9792 -1.3394,1.3395 -5.9266,6.9666 -6.9791,8.5417 -1.0525,1.575 -4.3791,7.8333 -5.1042,9.5833 -0.725,1.7501 -2.8595,8.663 -3.2292,10.5209 -0.3698,1.8579 -1.0414,9.0432 -1.0417,10.9375 l 0,121.1462 -164.2713,0 0,-3.0208 c -3e-4,-1.8944 -0.6718,-9.0796 -1.0416,-10.9376 -0.3697,-1.8579 -2.5042,-8.7708 -3.2292,-10.5208 -0.7251,-1.7501 -4.0517,-8.0083 -5.1042,-9.5834 -1.0525,-1.575 -5.6398,-7.2022 -6.9792,-8.5417 -1.3395,-1.3395 -6.9667,-5.9267 -8.5417,-6.9792 -1.5751,-1.0525 -7.9374,-4.3791 -9.6875,-5.1041 -1.7501,-0.7251 -8.5588,-2.8594 -10.4167,-3.2292 -1.8579,-0.3698 -9.0432,-1.1456 -10.9375,-1.1459 l -3.125,0 0,-239.2715 c -3e-4,-1.8943 -0.672,-9.0796 -1.0417,-10.9375 -0.3698,-1.8579 -2.5041,-8.7708 -3.2292,-10.5209 -0.725,-1.75 -4.0517,-8.0083 -5.1042,-9.5833 -1.0525,-1.5751 -5.6396,-7.2022 -6.9791,-8.5417 -1.3394,-1.3395 -6.9666,-5.9267 -8.5417,-6.9792 -1.575,-1.0525 -7.9375,-4.3791 -9.6876,-5.1042 -1.7501,-0.7251 -8.5588,-2.8594 -10.4167,-3.2292 -1.8579,-0.3698 -9.0432,-1.1455 -10.9375,-1.1458 z m 0,13.5417 118.1253,0 c 11.1109,0.021 22.1451,4.6113 29.992,12.4776 7.847,7.8662 12.4105,18.9116 12.404,30.0225 l 0,252.8133 16.6667,0 c 11.1109,0.021 22.145,4.6113 29.992,12.4776 7.8469,7.8662 12.4104,18.9116 12.4039,30.0225 l 0,16.5625 191.3547,0 0,-134.6879 c -0.01,-11.1109 4.557,-22.1563 12.404,-30.0225 7.8469,-7.8663 18.8811,-12.4568 29.992,-12.4776 l 177.188,0 c 11.1283,-0.01 22.1905,4.5719 30.0593,12.4408 7.8689,7.8689 12.4473,18.9311 12.4408,30.0593 l 0,244.3757 0,82.8128 0,401.4595 c 0.01,11.1282 -4.5719,22.1904 -12.4408,30.0593 -7.8688,7.8689 -18.931,12.4472 -30.0593,12.4408 l -59.0627,0 -118.1253,0 c -11.1109,-0.021 -22.1451,-4.6113 -29.992,-12.4776 -7.847,-7.8662 -12.4105,-18.9116 -12.404,-30.0225 l 0,-311.7718 -191.3547,0 0,311.7718 c 0.01,11.1109 -4.557,22.1562 -12.4039,30.0225 -7.847,7.8662 -18.8811,12.4568 -29.992,12.4776 l -177.188,0 c -11.1282,0.01 -22.1904,-4.572 -30.0593,-12.4408 -7.8688,-7.8689 -12.4472,-18.9311 -12.4407,-30.0593 l 0,-905.836 c -0.01,-11.1282 4.5719,-22.1904 12.4407,-30.0593 7.8689,-7.8688 18.9311,-12.4472 30.0593,-12.4408 z m 233.1256,650.106 164.2713,0 0,298.2301 c 3e-4,1.8944 0.6719,9.0796 1.0417,10.9375 0.3697,1.8578 2.5042,8.7708 3.2292,10.5209 0.7251,1.75 4.0517,8.1125 5.1042,9.6875 1.0525,1.575 5.6397,7.098 6.9791,8.4375 0.5714,0.5714 2.0574,1.8982 3.5417,3.125 l -204.063,0 c 1.4843,-1.2268 2.9703,-2.5536 3.5416,-3.125 1.3394,-1.3395 5.9267,-6.8625 6.9792,-8.4375 1.0525,-1.575 4.3791,-7.9375 5.1042,-9.6875 0.725,-1.7501 2.8595,-8.6631 3.2292,-10.5209 0.3698,-1.8579 1.0413,-9.0431 1.0416,-10.9375 z m -174.063,383.7511 c -14.4229,0.012 -28.7523,5.955 -38.9508,16.1535 -10.1985,10.1986 -16.1412,24.528 -16.1535,38.9509 l 0,118.1253 0,181.0422 -3.9583,0 c -14.4229,0.012 -28.7523,5.9549 -38.9509,16.1535 -10.1985,10.1985 -16.1412,24.5279 -16.1535,38.9508 l 0,3.9584 -3.958302,0 c -14.4229,0.012 -28.7522,5.955 -38.9507,16.1535 -10.1986,10.1985 -16.1412,24.5279 -16.1535,38.9508 l 0,354.376 c -0.015,14.4402 5.9155,28.7977 16.1166,39.0181 10.2012,10.2205 24.5474,16.178 38.9876,16.1904 l 748.648002,0 c 14.4576,0.015 28.8319,-5.9304 39.055,-16.1535 10.2231,-10.2231 16.1684,-24.5974 16.1535,-39.055 l 0,-354.376 c -0.012,-14.4403 -5.9699,-28.7865 -16.1903,-38.9877 -10.2205,-10.2011 -24.5779,-16.1316 -39.0182,-16.1166 l -3.8542,0 0,-3.9584 c -0.012,-14.4403 -5.9699,-28.7865 -16.1903,-38.9876 -10.2205,-10.2012 -24.5779,-16.1316 -39.0182,-16.1167 l -3.8542,0 0,-3.9584 0,-295.2091 c -0.012,-14.4229 -5.955,-28.7523 -16.1535,-38.9509 -10.1985,-10.1985 -24.5279,-16.1411 -38.9508,-16.1535 z m 0.2084,13.1251 512.0848,0 c 0.3683,0.4151 15.2324,3.4372 16.3542,3.3333 0.027,0 0.093,0.01 0.1041,0 1.7185,1.4503 11.3528,8.0039 13.2293,8.9584 -0.02,-0.082 0.083,-0.1257 0.2083,0 0.1257,0.1256 0.082,0.228 0,0.2083 0.9616,1.8906 7.5747,11.8289 8.9583,13.4376 0,-0.1689 0.1241,-0.2037 0.2084,0 0.1104,0.2668 0.022,0.2681 -0.2084,0 -0.017,1.4874 2.9243,15.887 3.3334,16.25 l 0,295.0008 0,17.0834 16.9792,0 c 0.8498,0.4844 14.3441,3.2934 16.0417,3.3334 -0.02,-0.02 0.014,-0.088 0,-0.1042 0.2219,0.092 0.2163,0.1093 0,0.1042 1.1576,1.1308 12.6615,8.8777 13.6459,9.1667 -0.048,-0.095 0.019,-0.1558 0,-0.2084 0.1327,0.1328 0.098,0.2371 0,0.2084 1.0017,1.9693 8.095,12.6136 9.0625,13.5417 -0.01,-0.2163 0.012,-0.3261 0.1042,-0.1042 0.069,0.1668 -0.033,0.2616 -0.1042,0.2083 0.172,2.2749 2.8344,15.6914 3.2292,16.0418 l 0,16.875 17.0834,0 c 0.8498,0.4844 14.344,3.2933 16.0417,3.3333 -0.02,-0.02 0.014,-0.088 0,-0.1041 0.2219,0.092 0.2163,0.1092 0,0.1041 1.1576,1.1308 12.6615,8.8777 13.6459,9.1667 -0.048,-0.095 0.018,-0.1558 0,-0.2083 0.1327,0.1327 0.098,0.237 0,0.2083 1.0017,1.9693 8.095,12.6136 9.0625,13.5417 -0.01,-0.2162 0.012,-0.3261 0.1041,-0.1041 0.069,0.1667 -0.033,0.2615 -0.1041,0.2083 0.172,2.2748 2.8344,15.6914 3.2292,16.0417 l 0,354.0635 c -0.3948,0.3503 -3.0572,13.7669 -3.2292,16.0418 0,0.058 0,0.061 0,0.1041 l 0.1041,-0.1041 c 0.036,-0.01 0.055,-0.029 0,0.1041 -0.092,0.222 -0.1092,0.2163 -0.1041,0 -1.0139,0.9727 -8.6596,12.4989 -9.0625,13.6459 -1.147,0.4029 -12.6732,8.0486 -13.6459,9.0625 0.2163,0 0.2219,0.012 0,0.1042 l 0,-0.1042 -0.1042,0 c -2.2048,0.1667 -14.8401,2.7141 -15.9375,3.2292 l -748.439702,0 c -0.3503,-0.3948 -13.871,-3.0572 -16.1457,-3.2292 0.083,0.094 0.08,0.1806 -0.1043,0.1042 -0.222,-0.092 -0.2163,-0.1093 0,-0.1042 -1.0957,-1.0703 -11.4854,-8.0701 -13.4377,-9.0625 -0.01,-8e-4 -0.086,0.013 -0.104,0 -0.3713,-1.0808 -7.607,-11.8505 -9.0627,-13.5417 0.074,-1.2274 -2.844,-15.3159 -3.3334,-16.1459 l 0,-354.1677 c 0.4084,-0.3611 3.2164,-14.5323 3.2294,-16.1459 -0.116,0.1114 -0.188,0.096 -0.104,-0.1041 0.077,-0.1865 0.2007,-0.1286 0.208,0 1.3847,-1.6087 7.996,-11.547 8.9587,-13.4376 -0.099,0.029 -0.134,-0.076 0,-0.2083 -0.024,0.053 0.048,0.1138 0,0.2083 0.9803,-0.2878 12.4114,-7.9887 13.6457,-9.1667 -0.2163,0 -0.222,-0.012 0,-0.1041 l 0,0.1041 0.1043,0 c 2.2747,-0.172 15.7954,-2.9385 16.1457,-3.3333 l 16.875102,0 0,-16.875 c 0.413,-0.3665 3.4073,-15.0015 3.3333,-16.2501 -0.2306,0.2681 -0.3186,0.2668 -0.2083,0 0.077,-0.1864 0.2007,-0.1285 0.2083,0 1.3837,-1.6087 7.9968,-11.547 8.9584,-13.4375 -0.098,0.029 -0.1327,-0.076 0,-0.2084 -0.024,0.053 0.048,0.1138 0,0.2084 0.9806,-0.2879 12.4116,-7.9888 13.6459,-9.1667 -0.2163,0 -0.222,-0.012 0,-0.1042 l 0,0.1042 0.1041,0 c 2.2749,-0.172 15.7955,-2.9385 16.1459,-3.3334 l 16.8751,0 0,-194.1672 0,-117.917 c 0.4091,-0.363 3.3504,-14.7626 3.3333,-16.25 -0.2306,0.2681 -0.3188,0.2668 -0.2083,0 0.084,-0.2037 0.2064,-0.1689 0.2083,0 1.3836,-1.6087 7.9967,-11.547 8.9584,-13.4376 -0.082,0.02 -0.1257,-0.083 0,-0.2083 0.1256,-0.1257 0.228,-0.082 0.2083,0 1.8764,-0.9545 11.5107,-7.5081 13.2292,-8.9584 -0.01,0 0.1023,0.01 0.1042,0 1.1216,0.1039 15.9859,-2.9183 16.3542,-3.3333 z"
     style="fill:#ff00ff;fill-opacity:1;stroke:none"
     sodipodi:nodetypes="csscccsccscccccsscccccccssccsccccccccsccssccssccsccccccccsccsscccccsccssccccscccsccccsccsccccscccsccccsccsccsccccccsccccscccccsccccscccsccsccsccscccsccccsccccccccccccccccccccccccccccccccccccccccccccccccccccccccccccccccccccccccccccccccccccccccccccccc" />
  <path
     d="m 216.03363,1133.3366 c -3.1912,0 -6.3636,1.3109 -8.6201,3.5674 -2.2566,2.2566 -3.5694,5.4289 -3.5674,8.6202 l 0,118.1253 0,223.959 -46.8751,0 c -3.1912,0 -6.3636,1.3108 -8.6202,3.5673 -2.2565,2.2566 -3.5694,5.429 -3.5674,8.6202 l 0,46.8752 -46.875102,0 c -3.1912,0 -6.3635,1.3108 -8.62,3.5674 -2.2566,2.2565 -3.5694,5.4289 -3.5674,8.6201 l 0,354.376 c 0,3.1912 1.3108,6.3636 3.5673,8.6201 2.2566,2.2565 5.4289,3.5694 8.6201,3.5674 l 748.648002,0 c 3.1912,0 6.3636,-1.3108 8.6201,-3.5674 2.2566,-2.2565 3.5694,-5.4289 3.5674,-8.6201 l 0,-354.376 c 0,-3.1912 -1.3108,-6.3636 -3.5674,-8.6201 -2.2565,-2.2566 -5.4289,-3.5694 -8.6201,-3.5674 l -46.8752,0 0,-46.8752 c 0,-3.1912 -1.3108,-6.3636 -3.5674,-8.6201 -2.2565,-2.2565 -5.4289,-3.5694 -8.6201,-3.5674 l -46.771,0 0,-46.8752 0,-295.2091 c 0,-3.1913 -1.3108,-6.3636 -3.5674,-8.6202 -2.2565,-2.2565 -5.4289,-3.5694 -8.6201,-3.5674 z m 0,12.1876 512.5015,0 0,295.2091 0,59.0627 58.9585,0 0,59.0627 59.0627,0 0,354.376 -748.648002,0 0,-354.376 59.062702,0 0,-59.0627 59.0626,0 0,-236.1465 z M 155.61683,86.2503 c -3.1391,0.3126 -6.1429,1.8307 -8.2564,4.1727 -2.1134,2.3419 -3.3163,5.4852 -3.3062,8.6398 l 0,905.836 c 0.01,3.3527 1.3884,6.6826 3.7592,9.0534 2.3707,2.3707 5.7007,3.7534 9.0534,3.7591 l 177.188,0 c 3.3701,0.022 6.7281,-1.3488 9.1207,-3.7222 2.3927,-2.3734 3.7903,-5.7202 3.796,-9.0903 l 0,-341.4594 250.5215,0 0,341.4594 c 0.01,3.3527 1.3884,6.6826 3.7592,9.0534 2.3707,2.3707 5.7007,3.7534 9.0534,3.7591 l 118.1253,0 59.0627,0 c 3.3701,0.022 6.7281,-1.3488 9.1207,-3.7222 2.3927,-2.3734 3.7903,-5.7202 3.796,-9.0903 l 0,-401.4595 c -0.01,-3.3702 -1.4033,-6.7169 -3.796,-9.0903 -2.3926,-2.3734 -5.7506,-3.7438 -9.1207,-3.7223 l -58.4377,0 0,-57.1876 58.4377,0 c 3.3701,0.022 6.7281,-1.3489 9.1207,-3.7223 2.3927,-2.3733 3.7903,-5.7201 3.796,-9.0903 l 0,-244.3757 c -0.01,-3.3701 -1.4033,-6.7169 -3.796,-9.0903 -2.3926,-2.3733 -5.7506,-3.7438 -9.1207,-3.7222 l -177.188,0 c -3.3527,0.01 -6.6827,1.3884 -9.0534,3.7591 -2.3708,2.3708 -3.7534,5.7007 -3.7592,9.0534 l 0,164.3755 -250.5215,0 0,-46.2501 c -0.01,-3.3702 -1.4033,-6.7169 -3.796,-9.0903 -2.3926,-2.3734 -5.7506,-3.7438 -9.1207,-3.7223 l -46.146,0 0,-282.5008 c -0.01,-3.3701 -1.4033,-6.7169 -3.796,-9.0903 -2.3926,-2.3734 -5.7506,-3.7438 -9.1207,-3.7222 l -118.1253,0 c -0.4163,-0.02 -0.8337,-0.02 -1.25,0 z m 1.25,12.8125 118.1253,0 0,295.3134 59.0627,0 0,59.0626 276.2508,0 0,-177.188 177.188,0 0,244.3757 -71.2502,0 0,82.8128 71.2502,0 0,401.4595 -59.0627,0 -118.1253,0 0,-354.2719 -276.2508,0 0,354.2719 -177.188,0 z"
     style="fill:#ff00ff;fill-opacity:1;stroke:none"
     id="path5944"
     inkscape:connector-curvature="0"
     sodipodi:nodetypes="csccccscccsccsccsccscccsccccsccccccccccccccccccsccsccsccccscccsccsccccsccsccsccccscccsccccccccccccccccccccccc" />
  <path
     id="path6649"
     style="fill:#ff00ff;fill-opacity:1;stroke:none"
     d="m 337.03069,1600.838 0,152.2921 270.4174,0 0,-152.2921 -270.4174,0 z m 13.2292,13.2292 243.959,0 0,125.9378 -243.959,0 0,-125.9378 z m 45.8334,-308.4384 0,93.1253 152.2921,0 0,-93.1253 -152.2921,0 z m 13.1251,13.2292 125.9378,0 0,66.771 -125.9378,0 0,-66.771 z"
     inkscape:connector-curvature="0" />
  <path
     id="path6662"
     style="fill:#ff00ff;fill-opacity:1;stroke:none"
     d="m 295.05139,1558.8587 0,236.2507 354.376,0 0,-236.2507 -354.376,0 z m 12.1875,12.1875 330.001,0 0,211.8756 -330.001,0 0,-211.8756 z m 46.8751,-307.3967 0,177.0838 236.2507,0 0,-177.0838 -236.2507,0 z m 12.1876,12.1875 211.87559,0 0,152.7088 -211.87559,0 0,-152.7088 z"
     inkscape:connector-curvature="0" />
  <path
     style="fill:#ff0000;fill-opacity:1;stroke:none"
     d="m 376.32833,963.279 c 0,-8.1538 -6.6379,-14.6875 -14.7918,-14.6875 -8.1538,0 -14.6875,6.5337 -14.6875,14.6875 l 0,33.3335 c 0,8.1538 6.5337,14.7917 14.6875,14.7917 8.1539,0 14.7918,-6.6379 14.7918,-14.7917 z"
     id="path7441" />
  <path
     style="fill:#ff0000;fill-opacity:1;stroke:none"
     d="m 455.52054,1571.0476 c -8.1538,0 -14.6875,6.6379 -14.6875,14.7918 0,8.1538 6.5337,14.6875 14.6875,14.6875 l 33.3334,0 c 8.1539,0 14.7918,-6.5337 14.7918,-14.6875 0,-8.1539 -6.6379,-14.7918 -14.7918,-14.7918 z"
     id="path7439"
     inkscape:connector-curvature="0" />
  <path
     style="fill:#ff0000;fill-opacity:1;stroke:none"
     d="m 455.52054,1276.4573 c -8.1538,0 -14.6875,6.6379 -14.6875,14.7918 0,8.1538 6.5337,14.6875 14.6875,14.6875 l 33.3334,0 c 8.1539,0 14.7918,-6.5337 14.7918,-14.6875 0,-8.1539 -6.6379,-14.7918 -14.7918,-14.7918 z"
     id="path7437"
     inkscape:connector-curvature="0" />
  <path
     style="fill:#ff0000;fill-opacity:1;stroke:none"
     d="m 455.52054,1103.6435 c -8.1538,0 -14.6875,6.6379 -14.6875,14.7918 0,8.1538 6.5337,14.6875 14.6875,14.6875 l 33.3334,0 c 8.1539,0 14.7918,-6.5337 14.7918,-14.6875 0,-8.1539 -6.6379,-14.7918 -14.7918,-14.7918 z"
     id="path7435"
     inkscape:connector-curvature="0" />
  <path
     style="fill:#ff0000;fill-opacity:1;stroke:none"
     d="m 800.12347,1105.2915 c 0,8.1538 -6.61,14.7638 -14.7638,14.7638 -8.1538,0 -14.7638,-6.61 -14.7638,-14.7638 0,-8.1539 6.61,-14.7639 14.7638,-14.7639 8.1538,0 14.7638,6.61 14.7638,14.7639 z"
     id="path7433"
     inkscape:connector-curvature="0" />
  <path
     style="fill:#ff0000;fill-opacity:1;stroke:none"
     d="m 150.91583,1073.0362 c 0,8.1539 -6.61,14.7638 -14.7638,14.7638 -8.1538,0 -14.7638,-6.6099 -14.7638,-14.7638 0,-8.1538 6.61,-14.7638 14.7638,-14.7638 8.1538,0 14.7638,6.61 14.7638,14.7638 z"
     id="path7346" />
</svg>
