<?xml version="1.0" encoding="UTF-8" standalone="no"?>
<svg
   xmlns:dc="http://purl.org/dc/elements/1.1/"
   xmlns:cc="http://creativecommons.org/ns#"
   xmlns:rdf="http://www.w3.org/1999/02/22-rdf-syntax-ns#"
   xmlns:svg="http://www.w3.org/2000/svg"
   xmlns="http://www.w3.org/2000/svg"
   xmlns:sodipodi="http://sodipodi.sourceforge.net/DTD/sodipodi-0.dtd"
   xmlns:inkscape="http://www.inkscape.org/namespaces/inkscape"
   width="269.47946"
   height="684.46271"
   viewBox="0 0 898.2645 2281.5489"
   id="svg3004"
   version="1.1"
   inkscape:version="0.48.4 r9939"
   sodipodi:docname="k_no_dimensions.svg">
  <sodipodi:namedview
     pagecolor="#ffffff"
     bordercolor="#666666"
     borderopacity="1"
     objecttolerance="10"
     gridtolerance="10"
     guidetolerance="10"
     inkscape:pageopacity="0"
     inkscape:pageshadow="2"
     inkscape:window-width="1149"
     inkscape:window-height="1046"
     id="namedview3010"
     showgrid="false"
     inkscape:zoom="1.1326524"
     inkscape:cx="-616.3994"
     inkscape:cy="461.81734"
     inkscape:window-x="0"
     inkscape:window-y="22"
     inkscape:window-maximized="0"
     inkscape:current-layer="svg3004"
     fit-margin-top="0"
     fit-margin-left="0"
     fit-margin-right="0"
     fit-margin-bottom="0" />
  <metadata
     id="metadata3014">
    <rdf:RDF>
      <cc:Work
         rdf:about="">
        <dc:format>image/svg+xml</dc:format>
        <dc:type
           rdf:resource="http://purl.org/dc/dcmitype/StillImage" />
        <dc:title></dc:title>
      </cc:Work>
    </rdf:RDF>
  </metadata>
  <defs
     id="defs3012" />
  <path
     sodipodi:type="inkscape:offset"
     inkscape:radius="13.243289"
     inkscape:original="M -2098.1875 317.90625 C -2107.6512 317.90825 -2105.9605 317.80705 -2114.9375 319.59375 C -2124.0596 321.40938 -2122.4615 320.91824 -2131.0312 324.46875 C -2139.5383 327.99319 -2138.0664 327.19865 -2145.8125 332.375 C -2153.5051 337.51498 -2152.2167 336.40338 -2158.8438 343.03125 C -2165.4695 349.65651 -2164.3616 348.37302 -2169.5 356.0625 C -2174.6757 363.80784 -2173.8811 362.33443 -2177.4062 370.84375 C -2180.9594 379.41844 -2180.4657 377.81631 -2182.2812 386.9375 C -2184.0669 395.91082 -2183.9673 394.22352 -2183.9688 403.6875 L -2183.9688 1289.5312 C -2183.9688 1298.9961 -2184.0649 1297.314 -2182.2812 1306.2812 C -2180.4657 1315.4025 -2180.9564 1313.8059 -2177.4062 1322.375 C -2173.8801 1330.8876 -2174.6761 1329.4106 -2169.5 1337.1562 C -2164.3616 1344.8456 -2165.4669 1343.5644 -2158.8438 1350.1875 C -2152.2162 1356.8159 -2153.5016 1355.7056 -2145.8125 1360.8438 C -2138.0666 1366.0197 -2139.5369 1365.2259 -2131.0312 1368.75 C -2122.4601 1372.3012 -2124.0588 1371.8095 -2114.9375 1373.625 C -2105.9606 1375.4118 -2107.6555 1375.3115 -2098.1875 1375.3125 L -1921 1375.3125 C -1911.5269 1375.312 -1913.2259 1375.4115 -1904.25 1373.625 C -1895.1287 1371.8095 -1896.7275 1372.3012 -1888.1562 1368.75 C -1879.649 1365.2253 -1881.1112 1366.0118 -1873.375 1360.8438 C -1865.6895 1355.7073 -1866.9674 1356.8111 -1860.3438 1350.1875 C -1853.7226 1343.566 -1854.8259 1344.8457 -1849.6875 1337.1562 C -1844.5106 1329.4093 -1845.3045 1330.8778 -1841.7812 1322.375 C -1838.2341 1313.8111 -1838.7224 1315.4072 -1836.9062 1306.2812 C -1835.1195 1297.3043 -1835.2202 1298.995 -1835.2188 1289.5312 L -1835.2188 1021.0312 L -1770.5312 1021.0312 L -1770.5312 1289.5312 C -1770.5312 1298.995 -1770.6302 1297.3056 -1768.8438 1306.2812 C -1767.0273 1315.4114 -1767.5166 1313.8099 -1763.9688 1322.375 C -1760.4463 1330.8749 -1761.2396 1329.4091 -1756.0625 1337.1562 C -1750.9236 1344.8464 -1752.0247 1343.5681 -1745.4062 1350.1875 C -1738.785 1356.8082 -1740.061 1355.707 -1732.375 1360.8438 C -1724.6357 1366.0143 -1726.1 1365.2256 -1717.5938 1368.75 C -1709.0225 1372.3012 -1710.6213 1371.8095 -1701.5 1373.625 C -1692.5231 1375.4118 -1694.218 1375.3115 -1684.75 1375.3125 L -1566.625 1375.3125 L -1507.5625 1375.3125 C -1498.0945 1375.3115 -1499.7894 1375.4115 -1490.8125 1373.625 C -1481.6912 1371.8095 -1483.2898 1372.3012 -1474.7188 1368.75 C -1466.2122 1365.2256 -1467.6803 1366.0172 -1459.9375 1360.8438 C -1452.2479 1355.7052 -1453.5312 1356.813 -1446.9062 1350.1875 C -1440.2805 1343.5623 -1441.3879 1344.845 -1436.25 1337.1562 C -1431.0736 1329.4101 -1431.8694 1330.886 -1428.3438 1322.375 C -1424.7904 1313.8 -1425.2841 1315.4013 -1423.4688 1306.2812 C -1421.6845 1297.3128 -1421.7827 1298.9961 -1421.7812 1289.5312 L -1421.7812 888.0625 L -1421.7812 805.25 L -1421.7812 580.875 C -1421.7812 571.41102 -1421.6831 573.09832 -1423.4688 564.125 C -1425.2845 555.0028 -1424.7927 556.60194 -1428.3438 548.03125 C -1431.8702 539.51739 -1431.0748 540.99461 -1436.25 533.25 C -1441.3884 525.56052 -1440.2804 526.84401 -1446.9062 520.21875 C -1453.5309 513.59378 -1452.2444 514.7028 -1459.9375 509.5625 C -1467.6836 504.38615 -1466.2117 505.18069 -1474.7188 501.65625 C -1483.2885 498.10574 -1481.6904 498.59688 -1490.8125 496.78125 C -1499.7895 494.99451 -1498.0988 495.09525 -1507.5625 495.09375 L -1684.75 495.09375 C -1694.2137 495.09575 -1692.523 494.99455 -1701.5 496.78125 C -1710.6221 498.59688 -1709.0238 498.10574 -1717.5938 501.65625 C -1726.101 505.18085 -1724.6331 504.38963 -1732.375 509.5625 C -1740.0645 514.70101 -1738.7853 513.59828 -1745.4062 520.21875 C -1752.0271 526.84006 -1750.9236 525.55975 -1756.0625 533.25 C -1761.2387 540.99606 -1760.4459 539.53011 -1763.9688 548.03125 C -1767.5159 556.59483 -1767.0275 554.99783 -1768.8438 564.125 C -1770.6306 573.10199 -1770.5298 571.41102 -1770.5312 580.875 L -1770.5312 672.28125 L -1839.375 672.28125 C -1839.908 670.79542 -1840.3972 669.49766 -1841.7812 666.15625 C -1845.304 657.65511 -1844.5113 659.12106 -1849.6875 651.375 C -1854.8264 643.68475 -1853.7229 644.96506 -1860.3438 638.34375 C -1866.9646 631.72328 -1865.6855 632.82601 -1873.375 627.6875 C -1881.1169 622.51463 -1879.6489 623.30585 -1888.1562 619.78125 C -1891.5005 618.39573 -1892.7946 617.90807 -1894.2812 617.375 L -1894.2812 403.6875 C -1894.2812 394.22247 -1894.1842 395.90613 -1895.9688 386.9375 C -1897.7845 377.8153 -1897.2927 379.41444 -1900.8438 370.84375 C -1904.3702 362.32989 -1903.5748 363.80711 -1908.75 356.0625 C -1913.8884 348.37302 -1912.7804 349.65651 -1919.4062 343.03125 C -1926.0313 336.40576 -1924.7467 337.51411 -1932.4375 332.375 C -1940.1836 327.19865 -1938.7117 327.99319 -1947.2188 324.46875 C -1955.7885 320.91824 -1954.1904 321.40938 -1963.3125 319.59375 C -1972.2895 317.80701 -1970.5988 317.90775 -1980.0625 317.90625 L -2098.1875 317.90625 z "
     style="fill:#800000;fill-opacity:1;stroke:none"
     id="path5121"
     d="m -2098.1875,304.65625 c -9.3696,0.002 -10.5851,0.19425 -19.3437,1.9375 -8.9641,1.78418 -10.1317,2.13203 -18.5626,5.625 -8.3559,3.46181 -9.4402,4.06267 -17.0624,9.15625 -7.5272,5.02945 -8.5188,5.73672 -15.0626,12.28125 -6.5429,6.5425 -7.2531,7.53816 -12.2812,15.0625 -5.0925,7.62086 -5.6936,8.7039 -9.1562,17.0625 -3.496,8.43652 -3.8413,9.60094 -5.625,18.5625 -1.7421,8.7541 -1.9361,9.97244 -1.9376,19.34375 l 0,885.8437 c 0,9.3753 0.1979,10.5981 1.9376,19.3438 1.784,8.9634 2.1322,10.1321 5.625,18.5625 3.4636,8.362 4.0637,9.442 9.1562,17.0625 5.0285,7.525 5.7411,8.5223 12.2812,15.0625 6.5451,6.5459 7.5393,7.2539 15.0626,12.2813 7.6222,5.0933 8.7079,5.6947 17.0624,9.1562 8.4325,3.4938 9.5997,3.841 18.5626,5.625 8.7569,1.743 9.9691,1.9365 19.3437,1.9375 l 177.1875,0 c 9.3805,-5e-4 10.5893,-0.1951 19.3438,-1.9375 8.9628,-1.784 10.1298,-2.1312 18.5624,-5.625 8.3594,-3.4634 9.4512,-4.0717 17.0626,-9.1562 7.5206,-5.0264 8.5209,-5.7397 15.0624,-12.2813 6.5381,-6.5384 7.2523,-7.5368 12.2813,-15.0625 5.0949,-7.6241 5.6958,-8.7115 9.1563,-17.0625 3.4889,-8.4234 3.8397,-9.5923 5.625,-18.5625 1.7431,-8.7581 1.9361,-9.9737 1.9374,-19.3438 l 0,-255.25 38.1876,0 0,255.25 c 0,9.3715 0.1949,10.5884 1.9374,19.3438 1.7856,8.9745 2.1359,10.1389 5.625,18.5625 3.4595,8.3477 4.0607,9.4374 9.1563,17.0625 5.03,7.5273 5.7462,8.5266 12.2813,15.0625 6.5388,6.5383 7.5404,7.254 15.0624,12.2813 7.615,5.0874 8.7053,5.6935 17.0626,9.1562 8.4326,3.4938 9.5996,3.841 18.5624,5.625 8.757,1.743 9.9692,1.9365 19.3438,1.9375 l 118.125,0 59.0625,0 c 9.3749,-10e-4 10.587,-0.1948 19.3437,-1.9375 8.9629,-1.784 10.1301,-2.1312 18.5626,-5.625 8.3565,-3.4622 9.4437,-4.0658 17.0624,-9.1562 7.5245,-5.0283 8.5203,-5.7385 15.0626,-12.2813 6.543,-6.5426 7.2537,-7.5389 12.2812,-15.0625 5.093,-7.6213 5.6931,-8.7024 9.1562,-17.0625 3.4963,-8.4371 3.8416,-9.6022 5.625,-18.5625 1.7406,-8.7486 1.9361,-9.9702 1.9376,-19.3438 l 0,-401.4687 0,-82.8125 0,-224.375 c 0,-9.37246 -0.1958,-10.59104 -1.9376,-19.34375 -1.7841,-8.96378 -2.1313,-10.13052 -5.625,-18.5625 -3.4642,-8.36376 -4.065,-9.44352 -9.1562,-17.0625 -5.028,-7.52428 -5.7382,-8.51996 -12.2812,-15.0625 -6.5411,-6.54132 -7.534,-7.25089 -15.0626,-12.28125 -7.6222,-5.09358 -8.7065,-5.69444 -17.0624,-9.15625 -8.4309,-3.49297 -9.5985,-3.84082 -18.5626,-5.625 -8.7582,-1.7432 -9.9737,-1.93601 -19.3437,-1.9375 l -177.1875,0 c -9.3696,0.002 -10.5851,0.19425 -19.3438,1.9375 -8.9641,1.78419 -10.1314,2.13205 -18.5624,5.625 -8.3575,3.46254 -9.4449,4.06642 -17.0626,9.15625 -7.5258,5.02918 -8.5247,5.74394 -15.0624,12.28125 -6.5376,6.53799 -7.2517,7.53587 -12.2813,15.0625 -5.0944,7.62368 -5.6962,8.71309 -9.1563,17.0625 -3.4888,8.42286 -3.8396,9.59101 -5.625,18.5625 -1.7432,8.75823 -1.9361,9.97357 -1.9374,19.34375 l 0,78.15625 -46.6876,0 c -2.5472,-6.03705 -3.7214,-8.26991 -8.2187,-15 -5.0296,-7.52663 -5.7437,-8.52451 -12.2813,-15.0625 -6.5376,-6.53735 -7.5366,-7.2521 -15.0624,-12.28125 -6.7248,-4.49325 -8.9578,-5.66939 -15,-8.21875 l 0,-204.78125 c 0,-9.37455 -0.1969,-10.59617 -1.9376,-19.34375 -1.7841,-8.96378 -2.1313,-10.13052 -5.625,-18.5625 -3.4642,-8.36376 -4.065,-9.44352 -9.1562,-17.0625 -5.028,-7.52428 -5.7382,-8.51996 -12.2812,-15.0625 -6.5421,-6.54242 -7.5367,-7.25235 -15.0626,-12.28125 -7.6222,-5.09358 -8.7065,-5.69444 -17.0624,-9.15625 -8.4309,-3.49297 -9.5985,-3.84082 -18.5626,-5.625 -8.7582,-1.7432 -9.9737,-1.93601 -19.3437,-1.9375 l -118.125,0 z" />
  <path
     style="fill:#00ffff;fill-opacity:1;stroke:none"
     d="m -2098.1875,317.90625 c -9.4637,0.002 -7.773,-0.0992 -16.75,1.6875 -9.1221,1.81563 -7.5239,1.32449 -16.0937,4.875 -8.507,3.52444 -7.0352,2.7299 -14.7813,7.90625 -7.6926,5.13998 -6.4043,4.02838 -13.0313,10.65625 -6.6258,6.62526 -5.5178,5.34177 -10.6562,13.03125 -5.1757,7.74534 -4.3811,6.27193 -7.9062,14.78125 -3.5532,8.57469 -3.0595,6.97256 -4.875,16.09375 -1.7856,8.97332 -1.6861,7.28602 -1.6876,16.75 l 0,885.8437 c 0,9.4649 -0.096,7.7827 1.6876,16.75 1.8156,9.1212 1.3248,7.5247 4.875,16.0938 3.5261,8.5126 2.7301,7.0355 7.9062,14.7812 5.1384,7.6894 4.0331,6.4082 10.6562,13.0313 6.6275,6.6284 5.3422,5.5182 13.0313,10.6563 7.7459,5.176 6.2756,4.3821 14.7813,7.9062 8.5711,3.5512 6.9724,3.0595 16.0937,4.875 8.9769,1.7868 7.282,1.6865 16.75,1.6875 l 177.1875,0 c 9.4731,-5e-4 7.7741,0.099 16.75,-1.6875 9.1213,-1.8155 7.5226,-1.3238 16.0938,-4.875 8.5072,-3.5247 7.045,-2.7381 14.7812,-7.9062 7.6855,-5.1364 6.4076,-4.0327 13.0312,-10.6563 6.6211,-6.6215 5.5179,-5.3419 10.6563,-13.0313 5.1769,-7.7469 4.383,-6.2784 7.9063,-14.7812 3.5472,-8.5639 3.0588,-6.9679 4.875,-16.0938 1.7867,-8.9769 1.686,-7.2862 1.6874,-16.75 l 0,-268.5 64.6876,0 0,268.5 c 0,9.4638 -0.099,7.7743 1.6874,16.75 1.8165,9.1301 1.3271,7.5287 4.875,16.0938 3.5224,8.4999 2.7292,7.0341 7.9063,14.7812 5.1389,7.6901 4.0378,6.4119 10.6563,13.0313 6.6212,6.6207 5.3452,5.5196 13.0312,10.6563 7.7393,5.1706 6.2749,4.3818 14.7812,7.9062 8.5712,3.5512 6.9725,3.0595 16.0938,4.875 8.9769,1.7868 7.282,1.6865 16.75,1.6875 l 118.125,0 59.0625,0 c 9.468,-10e-4 7.7731,0.099 16.75,-1.6875 9.1213,-1.8155 7.5226,-1.3238 16.0937,-4.875 8.5066,-3.5244 7.0385,-2.7327 14.7813,-7.9062 7.6896,-5.1385 6.4063,-4.0308 13.0313,-10.6563 6.6257,-6.6252 5.5183,-5.3426 10.6562,-13.0313 5.1764,-7.7461 4.3805,-6.2702 7.9062,-14.7812 3.5533,-8.575 3.0596,-6.9738 4.875,-16.0938 1.7842,-8.9685 1.6861,-7.2851 1.6876,-16.75 l 0,-401.4687 0,-82.8125 0,-224.375 c -0,-9.46398 0.098,-7.77668 -1.6876,-16.75 -1.8157,-9.1222 -1.3239,-7.52306 -4.875,-16.09375 -3.5265,-8.51386 -2.731,-7.03664 -7.9062,-14.78125 -5.1384,-7.68948 -4.0304,-6.40599 -10.6562,-13.03125 -6.6246,-6.62497 -5.3382,-5.51595 -13.0313,-10.65625 -7.7461,-5.17635 -6.2743,-4.38181 -14.7813,-7.90625 -8.5698,-3.55051 -6.9716,-3.05937 -16.0937,-4.875 -8.977,-1.78674 -7.2863,-1.686 -16.75,-1.6875 l -177.1875,0 c -9.4637,0.002 -7.773,-0.0992 -16.75,1.6875 -9.1221,1.81563 -7.5239,1.32449 -16.0938,4.875 -8.5073,3.5246 -7.0393,2.73338 -14.7812,7.90625 -7.6895,5.13851 -6.4103,4.03578 -13.0312,10.65625 -6.6209,6.62131 -5.5174,5.341 -10.6563,13.03125 -5.1762,7.74606 -4.3835,6.28011 -7.9063,14.78125 -3.5471,8.56358 -3.0587,6.96658 -4.875,16.09375 -1.7868,8.97699 -1.686,7.28602 -1.6874,16.75 l 0,91.40625 -68.8438,0 c -0.533,-1.48583 -1.0222,-2.78359 -2.4062,-6.125 -3.5228,-8.50114 -2.7301,-7.03519 -7.9063,-14.78125 -5.1389,-7.69025 -4.0354,-6.40994 -10.6563,-13.03125 -6.6209,-6.62047 -5.3417,-5.51774 -13.0312,-10.65625 -7.7419,-5.17287 -6.2739,-4.38165 -14.7812,-7.90625 -3.3443,-1.38552 -4.6384,-1.87318 -6.125,-2.40625 l 0,-213.6875 c -0,-9.46503 0.097,-7.78137 -1.6876,-16.75 -1.8157,-9.1222 -1.3239,-7.52306 -4.875,-16.09375 -3.5265,-8.51386 -2.731,-7.03664 -7.9062,-14.78125 -5.1384,-7.68948 -4.0304,-6.40599 -10.6562,-13.03125 -6.6251,-6.62549 -5.3405,-5.51714 -13.0313,-10.65625 -7.7461,-5.17635 -6.2743,-4.38181 -14.7813,-7.90625 -8.5698,-3.55051 -6.9716,-3.05937 -16.0937,-4.875 -8.977,-1.78674 -7.2863,-1.686 -16.75,-1.6875 l -118.125,0 z"
     id="path5112" />
  <path
     style="fill:#ff6600;fill-opacity:1;stroke:none"
     d="m -2098.1875,347.6875 c -1.8943,3e-4 -9.0796,0.72396 -10.9375,1.09375 -1.8579,0.36979 -8.7499,2.46243 -10.5,3.1875 -1.7501,0.72507 -8.0812,4.10375 -9.6562,5.15625 -1.5751,1.0525 -7.1606,5.62926 -8.5,6.96875 -1.3395,1.33949 -5.9163,6.92496 -6.9688,8.5 -1.0525,1.57504 -4.4312,7.90617 -5.1562,9.65625 -0.7251,1.75008 -2.8178,8.64211 -3.1876,10.5 -0.3697,1.85789 -1.0934,9.04317 -1.0937,10.9375 l 0,885.8437 c 3e-4,1.8944 0.724,9.0797 1.0937,10.9376 0.3698,1.8578 2.4625,8.7499 3.1876,10.5 0.725,1.75 4.1037,8.0812 5.1562,9.6562 1.0525,1.575 5.6293,7.1605 6.9688,8.5 1.3394,1.3395 6.9249,5.9163 8.5,6.9688 1.575,1.0524 7.9061,4.4311 9.6562,5.1562 1.7501,0.7251 8.6421,2.8177 10.5,3.1875 1.8579,0.3698 9.0432,1.0934 10.9375,1.0937 l 177.1875,0 c 1.8943,-2e-4 9.0796,-0.7239 10.9375,-1.0937 1.8579,-0.3698 8.7499,-2.4624 10.5,-3.1875 1.7501,-0.7251 8.0812,-4.1038 9.6563,-5.1562 1.575,-1.0525 7.1605,-5.6293 8.5,-6.9688 1.3394,-1.3395 5.9162,-6.925 6.9687,-8.5 1.0525,-1.575 4.4312,-7.9062 5.1563,-9.6562 0.725,-1.7501 2.8177,-8.6422 3.1874,-10.5 0.3698,-1.8579 1.0935,-9.0432 1.0938,-10.9376 l 0,-298.2812 124.25,0 0,298.2812 c 3e-4,1.8944 0.724,9.0797 1.0938,10.9376 0.3697,1.8578 2.4624,8.7499 3.1874,10.5 0.7251,1.75 4.1038,8.0812 5.1563,9.6562 1.0525,1.575 5.6293,7.1605 6.9687,8.5 1.3395,1.3395 6.925,5.9163 8.5,6.9688 1.5751,1.0524 7.9062,4.4311 9.6563,5.1562 1.7501,0.7251 8.6421,2.8177 10.5,3.1875 1.8579,0.3698 9.0432,1.0935 10.9375,1.0937 l 118.125,0 59.0625,0 c 1.8943,-3e-4 9.0796,-0.7239 10.9375,-1.0937 1.8579,-0.3698 8.7499,-2.4624 10.5,-3.1875 1.7501,-0.7251 8.0812,-4.1038 9.6562,-5.1562 1.5751,-1.0525 7.1606,-5.6293 8.5,-6.9688 1.3395,-1.3395 5.9163,-6.925 6.9688,-8.5 1.0525,-1.575 4.4312,-7.9062 5.1562,-9.6562 0.7251,-1.7501 2.8178,-8.6422 3.1876,-10.5 0.3697,-1.8579 1.0934,-9.0432 1.0937,-10.9376 l 0,-401.4687 0,-82.8125 0,-224.375 c -3e-4,-1.89433 -0.724,-9.07961 -1.0937,-10.9375 -0.3698,-1.85789 -2.4625,-8.74992 -3.1876,-10.5 -0.725,-1.75008 -4.1037,-8.08121 -5.1562,-9.65625 -1.0525,-1.57504 -5.6293,-7.16051 -6.9688,-8.5 -1.3394,-1.33949 -6.9249,-5.91625 -8.5,-6.96875 -1.575,-1.0525 -7.9061,-4.43118 -9.6562,-5.15625 -1.7501,-0.72507 -8.6421,-2.81771 -10.5,-3.1875 -1.8579,-0.36979 -9.0432,-1.09345 -10.9375,-1.09375 l -177.1875,0 c -1.8943,3e-4 -9.0796,0.72396 -10.9375,1.09375 -1.8579,0.36979 -8.7499,2.46243 -10.5,3.1875 -1.7501,0.72507 -8.0812,4.10375 -9.6563,5.15625 -1.575,1.0525 -7.1605,5.62925 -8.5,6.96875 -1.3394,1.3395 -5.9162,6.92496 -6.9687,8.5 -1.0525,1.57504 -4.4312,7.90617 -5.1563,9.65625 -0.725,1.75008 -2.8177,8.64211 -3.1874,10.5 -0.3698,1.85789 -1.0935,9.04317 -1.0938,10.9375 l 0,121.1875 -124.25,0 0,-3.0625 c -3e-4,-1.89433 -0.724,-9.07961 -1.0938,-10.9375 -0.3697,-1.85789 -2.4624,-8.74992 -3.1874,-10.5 -0.7251,-1.75008 -4.1038,-8.08121 -5.1563,-9.65625 -1.0525,-1.57504 -5.6293,-7.1605 -6.9687,-8.5 -1.3395,-1.3395 -6.925,-5.91625 -8.5,-6.96875 -1.5751,-1.0525 -7.9062,-4.43118 -9.6563,-5.15625 -1.7501,-0.72507 -8.6421,-2.81771 -10.5,-3.1875 -1.8579,-0.36979 -9.0432,-1.09345 -10.9375,-1.09375 l -3.0625,0 0,-239.3125 c -3e-4,-1.89433 -0.724,-9.07961 -1.0937,-10.9375 -0.3698,-1.85789 -2.4625,-8.74992 -3.1876,-10.5 -0.725,-1.75008 -4.1037,-8.08121 -5.1562,-9.65625 -1.0525,-1.57504 -5.6293,-7.16051 -6.9688,-8.5 -1.3394,-1.33949 -6.9249,-5.91625 -8.5,-6.96875 -1.575,-1.0525 -7.9061,-4.43118 -9.6562,-5.15625 -1.7501,-0.72507 -8.6421,-2.81771 -10.5,-3.1875 -1.8579,-0.36979 -9.0432,-1.09345 -10.9375,-1.09375 l -118.125,0 z"
     id="path5107" />
  <path
     style="fill:#0000ff;fill-opacity:1;stroke:none"
     d="m -2098.1875,361.21875 a 42.475492,42.475492 0 0 0 -42.4687,42.46875 l 0,885.8437 a 42.475492,42.475492 0 0 0 42.4687,42.4688 l 177.1875,0 a 42.475492,42.475492 0 0 0 42.4688,-42.4688 l 0,-311.81245 151.3124,0 0,311.81245 A 42.475492,42.475492 0 0 0 -1684.75,1332 l 118.125,0 59.0625,0 a 42.475492,42.475492 0 0 0 42.4687,-42.4688 l 0,-401.4687 0,-82.8125 0,-224.375 a 42.475492,42.475492 0 0 0 -42.4687,-42.46875 l -177.1875,0 a 42.475492,42.475492 0 0 0 -42.4688,42.46875 l 0,134.71875 -151.3124,0 0,-16.59375 A 42.475492,42.475492 0 0 0 -1921,656.53125 l -16.5938,0 0,-252.84375 a 42.475492,42.475492 0 0 0 -42.4687,-42.46875 l -118.125,0 z"
     id="path5102" />
  <path
     sodipodi:nodetypes="ccsccccccccccccccccccccccccccccccccccccccccccccccccccccccccccccccccccccccccccccccccccccccccccccccccccsccccsccccccccccccccccccccccccccccccccccccccccccccccccccccccccccccccccccccccccccccccccccccccccccccccccccccccccccccccccsccccccccccccccccccccccccccccccccccccccccccccccccccccccccccc"
     inkscape:connector-curvature="0"
     id="Selection #3"
     transform="matrix(3.3333429,0,0,3.3333429,-0.00147386,0)"
     d="m 42.96875,0.0625 c -1.619119,0.0024147 -3.48926,0.4188879 -5.0625,0.8125 -3.476102,0.86812 -4.857921,1.2883353 -8.09375,2.90625 -2.74804,1.3740204 -5.421069,2.9317255 -7.71875,5 L 20.03125,10.8125 18,12.84375 c -2.132267,2.370125 -3.708721,5.137399 -5.125,7.96875 -1.41145,2.822899 -2.007307,4.151814 -2.78125,7.25 -0.5046928,2.016356 -1.152629,4.717805 -1.15625,6.78125 l 0,39.71875 0,168.4375 0,84.15625 c 0.00604,3.49904 1.416821,8.47282 2.53125,11.8125 0.899512,2.69612 3.42136,7.37428 5.125,9.65625 l 1.65625,2.1875 c 0.720818,0.82827 3.985431,4.0583 4.8125,4.71875 4.408214,3.51596 9.129062,5.85318 14.59375,7.21875 0.275309,0.0689 0.598983,0.14769 0.90625,0.21875 -3.627097,4.67701 -6.366205,10.08919 -7.78125,15.75 -0.473192,1.8908 -1.18462,5.58173 -1.1875,7.46875 l 0,23.125 0,44.9375 -0.09375,1.625 0,2.6875 -0.09375,1.3125 c -0.0038,0.37857 -0.08301,1.7464 -0.21875,2.03125 -0.167289,0.35181 -0.810792,0.99225 -1.09375,1.3125 l -1.375,1.4375 -0.6875,0.75 -0.84375,0.78125 -3.34375,3.15625 -1.53125,1.53125 -3.90625,3.8125 -0.78125,0.875 -2.34375,2.5 c -4.6898491,5.3236 -8.9238309,11.27148 -11.1875,18.0625 -1.28191741,3.8486 -1.93080842,9.03959 -1.9375,13.09375 l -0.09375,1.625 0,90.8125 c 0.0019119,1.27236 0.31616319,3.00313 0.53125,4.28125 0.703573,4.19465 1.9092207,8.06654 3.8125,11.875 1.9118828,3.82376 3.8218836,6.79921 6.65625,10.03125 l 2.09375,2.09375 1.90625,1.90625 c 4.813165,4.34666 11.422192,8.08151 17.59375,10.09375 l 3.625,1 c 2.498831,0.62523 7.433887,1.52735 9.9375,1.53125 l 89.5625,0 89.6875,0 1.125,-0.0937 c 2.69479,-0.18834 5.90814,-0.68798 8.53125,-1.34375 l 3.25,-0.875 c 5.65918,-1.80863 11.6537,-5.08004 16.0625,-9.0625 l 1.5,-1.53125 1.8125,-1.8125 c 5.67542,-6.28339 9.47933,-14.90208 10.875,-23.21875 l 0.71875,-5.84375 0.0937,-1.125 0,-80.78125 -0.0937,-1.15625 c -0.18736,-2.7206 -0.54659,-5.25227 -1.03125,-7.9375 -1.86313,-10.33179 -6.00213,-20.00558 -12.03125,-28.59375 l -3.46875,-4.4688 c -2.49597,-3.09248 -6.29107,-6.92983 -9.28125,-9.5625 -1.60693,-1.41384 -3.303,-2.79834 -4.71875,-4.40625 -0.72843,-0.82689 -1.56314,-1.85788 -2,-2.875 -0.56204,-1.30869 -0.5607,-2.5144 -0.5625,-3.90625 l -0.0937,-1.625 0,-68.15625 c -0.002,-1.16721 -0.2747,-2.85831 -0.46875,-4.03125 -0.57261,-3.45857 -1.22926,-5.80751 -2.53125,-9.0625 -1.35248,-3.38083 -3.21947,-6.76862 -5.4375,-9.78125 1.07282,-0.20837 2.1369,-0.44022 3,-0.65625 6.09857,-1.52376 11.97097,-4.47196 16.78125,-8.53125 l 3.15625,-3.09375 c 2.83859,-2.83859 4.52917,-5.37207 6.3125,-8.9375 1.45491,-2.91104 1.99523,-4.47972 2.78125,-7.625 0.39361,-1.57323 0.8101,-3.44337 0.8125,-5.0625 l 0,-107.8125 c -0.005,-2.79754 -1.09034,-7.27959 -1.84375,-10.03125 l -0.875,-2.65625 c -0.11712,-0.33566 -0.35221,-0.85064 -0.34375,-1.1875 0.007,-0.27046 0.30483,-1.04069 0.40625,-1.34375 L 258.8125,203.5 c 0.71478,-2.50294 1.74637,-6.98726 1.75,-9.53125 l 0,-65.5625 c -0.002,-1.61912 -0.41889,-3.48926 -0.8125,-5.0625 -0.88985,-3.55941 -1.12711,-4.31431 -2.78125,-7.625 l -1.75,-3.25 c -0.69426,-1.11805 -2.39637,-3.51973 -3.25,-4.46875 l -1.9375,-1.9375 -2.15625,-2.125 c -4.3563,-3.79002 -10.34,-6.850624 -15.9375,-8.25 -2.09725,-0.52522 -4.85325,-1.21512 -7,-1.21875 l -16.90625,0 -10.875,0 c -1.89924,0.0024 -4.06376,0.538775 -5.90625,1 -3.87455,0.968334 -5.00067,1.437835 -8.5625,3.21875 l -3.5,1.90625 c -2.58625,1.665 -4.02988,2.96738 -6.1875,5.125 l -2.59375,2.65625 c -2.82411,3.34691 -5.02378,7.44633 -6.40625,11.59375 -0.69426,2.08276 -1.62137,5.67888 -1.625,7.84375 l 0,36.5625 -35,0 c -0.21009,-1.49114 -1.48323,-6.04345 -2,-7.59375 -1.17963,-3.54009 -2.12711,-5.50423 -3.78125,-8.8125 l -1.9375,-3.875 -7.53125,-12.3125 -4.15625,-6.625 -2.21875,-3.625 c -0.3429,-0.8488 -0.40945,-2.43685 -0.5,-3.375 l -0.21875,-3.28125 -0.125,-1.4375 -0.125,-2.78125 0,-5.4375 -0.0937,-2.03125 0,-68.21875 c -0.004,-2.365292 -0.68011,-4.752888 -1.25,-7.03125 C 102.11293,22.639433 99.310763,16.878098 95.71875,12.75 L 93.4375,10.4375 91.15625,8.1875 C 88.665387,6.085418 86.65607,4.9692626 83.78125,3.53125 80.754301,2.018379 79.551951,1.6839574 76.3125,0.875 74.73926,0.4813879 72.837872,0.06491469 71.21875,0.0625 z m 3.15625,28.375 22.21875,0 c 4.898419,0.05795 7.961505,5.199742 7.96875,9.65625 l 0,47.09375 0,21.375 0.125,1.8125 0,5.65625 0.09375,1.21875 0,1.5625 0.125,1.21875 0.21875,3.25 c 0.3755,3.87817 0.924912,7.56516 2.375,11.21875 1.023873,2.58021 2.662837,4.90282 4.125,7.25 l 7.21875,11.59375 c 3.815383,6.12634 6.780379,10.45909 8.5625,17.625 0.381539,1.53219 0.810085,4.00133 0.8125,5.5625 l 0,7.25 0.125,1.8125 0,1.8125 c 9e-4,1.09028 0.23544,3.17435 0.53125,4.21875 0.17628,0.62423 0.44367,1.30688 0.9375,1.75 0.53971,0.48296 1.45837,0.76378 2.15625,0.90625 1.84611,0.37671 2.77179,0.32322 4.59375,0.34375 l 1.78125,0.125 61.84375,0 1.4375,-0.0937 1.5625,0 c 0.92608,-0.0157 2.57272,-0.25156 3.5,-0.4375 4.88876,-0.97799 9.76241,-3.53035 11.53125,-8.5 0.56627,-1.59256 0.57642,-2.37243 0.6875,-4 l 0.0937,-1.4375 0,-47.34375 c 0.007,-4.58933 5.31004,-8.08771 9.5625,-8.09375 l 21.71875,0 c 0.68943,0.008 1.51256,0.1892 2.1875,0.34375 3.97114,0.91038 7.96151,3.94157 7.96875,8.34375 l 0,18.25 0,33.4375 0,7.625 c -0.005,3.46765 -1.49366,7.45906 -3.6875,10.125 -2.66956,3.24187 -6.53462,5.27428 -10.5625,6.28125 l -4.71875,0.84375 3.625,0.625 c 5.01191,1.06734 10.54571,3.1192 13.1875,7.84375 0.69667,1.24604 1.18473,2.46128 1.53125,3.84375 0.31151,1.24 0.62259,2.94736 0.625,4.21875 l 0,78.5 0,23.0625 c -0.008,5.46586 -6.69292,9.14899 -11.59375,9.15625 l -19.8125,0 c -5.1399,-0.008 -10.0228,-3.29831 -10.03125,-8.8125 l 0,-83.40625 -0.0937,-1.9375 c -0.007,-1.52857 -0.29935,-3.02712 -0.8125,-4.46875 -1.86664,-5.24373 -6.63184,-7.37719 -11.75,-8.21875 l -3.28125,-0.375 -1.5625,0 -1.8125,-0.0937 -39.59375,0 -21.96875,0 -1.8125,0.0937 c -1.92097,0.002 -4.70737,0.3399 -6.15625,1.71875 -1.27622,1.21585 -1.80888,3.5992 -1.8125,5.3125 l -0.125,2.15625 0,75.71875 0,10.5 c -0.0097,6.55741 -7.229196,11.80284 -13.40625,11.8125 l -39.71875,0 c -5.065038,-0.008 -8.070941,-3.53058 -9.125,-8.1875 C 37.501419,326.19511 37.313706,324.98163 37.3125,324 l 0,-74.25 0,-148.5 0,-42.375 0,-21.15625 c 0.05554,-4.7161 3.962375,-9.274006 8.8125,-9.28125 z m 77.28125,222.09375 44.90625,0.34375 -0.125,93.78284 -44.78125,-0.28315 z m -46.875,122.5625 4.5,0 8.5,0 26.09375,0 49.71875,0 16.53125,0 8.3125,0 c 0.89094,0.005 2.54083,0.2578 3.4375,0.4375 6.62563,1.32495 12.43595,5.78591 13.8125,12.65625 0.17016,0.85173 0.3428,1.69163 0.34375,2.5625 l 0,68.1875 0.0937,1.625 c 0.004,2.47301 0.33717,4.94148 0.9375,7.34375 1.5295,6.11515 4.79672,11.51037 9,16.15625 2.66804,2.94905 5.78335,5.4197 8.6875,8.125 1.41097,1.31442 3.0414,3.10437 4.28125,4.59375 5.05024,6.06925 8.2733,12.97822 9.625,20.75 l 0.5625,4.78125 0.0625,1.125 0,75.4375 -0.0625,1.15625 c -0.3145,4.57322 -1.50679,9.45818 -4.71875,12.90625 -2.78466,2.99018 -6.64475,4.31004 -10.59375,4.875 l -2.875,0.28125 -149.90625,0 -17.875,0 -6.09375,0 c -2.278964,-0.004 -5.986558,-0.75664 -8.125,-1.5625 -5.566448,-2.1002 -10.359172,-6.40096 -11.84375,-12.3125 -0.250456,-0.99513 -0.498088,-2.22619 -0.5,-3.25 l 0,-85.46875 0.09375,-1.53125 0,-1.40625 0.09375,-0.96875 c 0.115669,-1.69299 0.148417,-3.4632 0.78125,-5.0625 0.644305,-1.62513 1.766703,-3.2019 2.8125,-4.59375 1.464503,-1.95014 3.130999,-3.67954 4.8125,-5.4375 l 1.34375,-1.4375 0.875,-0.78125 1.625,-1.59375 c 3.311382,-3.0848 6.567534,-6.19251 9.5625,-9.59375 1.858351,-2.1107 4.045807,-4.78278 5.21875,-7.34375 1.01712,-2.21969 1.4677,-4.65831 1.78125,-7.0625 l 0.25,-2.78125 0.09375,-0.96875 0.09375,-1.71875 0,-2.65625 0.09375,-1.625 0,-68.09375 c 0.0018,-0.96264 0.204254,-2.00258 0.4375,-2.9375 1.241768,-4.99004 5.264201,-8.88955 9.90625,-10.875 2.022771,-0.8661 4.22288,-1.43963 6.40625,-1.71875 z m 19.5,38.125 0,50.75 75.03125,0 0,-50.75 z m 19.59375,19.5 35.84375,0 0,11.78125 -35.84375,0 z m -28.40625,76.96875 0,69.9375 94.875,0 0,-69.9375 z m 19.90625,19.78125 55.25,0 0,30.6875 -55.25,0 z"
     style="fill:#ff00ff;stroke:#000000;stroke-width:0.12073991" />
  <path
     sodipodi:nodetypes="ccccccccccccsccccsccccccccccccccccccsccccccccccccccccccscccccccccccccccccccccccccccccccccccccccccccccccccccccccccccccccccccccccccccccccccccccccccccccscccccccccccccccccccccccccccccccccccccccccccccccccccccccccccccccccccccccccsccccccccccccccccccccccccccccccccccccccccccccccccccccccccccccccc"
     inkscape:connector-curvature="0"
     id="Selection #2-5"
     d="m 146.04061,151.25043 c -7.74347,0.012 -18.75258,2.84942 -26.14591,5.31252 -12.07805,4.0287 -24.547787,11.00775 -34.166761,19.37505 l -6.458352,6.25002 c -6.495825,6.49583 -10.442687,11.1143 -15.312544,18.95839 l -5.729183,10.83337 c -5.393066,10.79417 -10.709077,28.21444 -10.729198,40.31261 l 0,-42.60429 0,603.12673 0,274.89667 c 0.016,10.8465 3.962809,25.1176 7.395855,35.4167 2.885692,8.6491 9.022223,20.3392 14.375041,27.7084 4.712894,6.4878 5.647683,7.3143 11.250033,12.9167 l 6.354184,6.3542 c 10.39976,9.0475 22.833725,15.3531 35.833435,19.6876 6.88621,2.2941 18.64534,4.8838 25.83341,4.8958 l 21.56256,0 c -2.53274,1.8146 -4.98357,3.6315 -7.39585,5.625 -20.7408,17.1402 -36.16981,40.7206 -42.70846,66.8752 -1.46897,5.8727 -3.53168,16.3841 -3.54168,22.2918 l 0,72.396 0,154.4796 -0.3125,5.4167 -0.625,17.6042 c -0.1912,2.0107 -0.12813,6.1896 -0.9375,7.9167 -0.5417,1.1567 -3.67103,4.563 -4.68752,5.7292 l -7.39585,8.0208 -2.916675,3.1251 -2.916675,2.6041 -4.375012,4.375 -7.395855,6.7709 c -9.266286,8.8616 -18.385306,17.8779 -26.979244,27.3959 -13.749666,15.225 -27.214625,34.2543 -33.750097,53.8543 -3.995846,11.9939 -5.81423,27.7856 -5.83335,40.4168 l -0.312501,5.4167 0,298.23 c 0.0064,3.7983 0.824228,9.0079 1.458338,12.8126 1.752564,10.5153 4.354656,19.4597 8.541691,29.2709 5.420202,12.7076 13.230595,25.4656 22.500064,35.7292 l 6.041684,6.0417 5.729184,5.625 c 17.879344,16.1491 40.169998,27.2056 63.437678,33.021 7.83555,1.9596 22.63122,4.6745 30.52092,4.6875 l 296.35502,0 296.66752,0 3.85418,-0.3124 15.31254,-1.875 c 29.66615,-4.9103 57.1173,-18.694 77.39606,-41.1459 17.14965,-18.985 27.77311,-44.4145 31.97926,-69.4794 l 2.1875,-17.5 0.31234,-3.8542 0,-264.7924 -0.31234,-3.8544 c -0.57037,-8.2753 -1.64967,-16.3059 -3.12501,-24.4792 -7.03575,-39.0216 -24.09703,-74.6024 -49.68764,-104.8961 -6.84135,-8.0968 -17.39095,-19.0634 -25.31257,-26.0418 -9.8462,-8.6736 -22.8539,-19.2498 -28.54175,-31.2501 -3.02078,-6.3761 -3.63584,-12.2489 -3.64584,-19.1667 l -0.31234,-5.4167 0,-227.1881 c -0.007,-3.5657 -0.8529,-9.1109 -1.45834,-12.7084 -1.59323,-9.4925 -3.71647,-17.2047 -7.29168,-26.1459 -3.62941,-9.0719 -8.12909,-17.8258 -13.75004,-25.8334 -4.77015,-6.7967 -8.63523,-11.0311 -14.47921,-16.8751 l -6.66669,-6.5625 c -2.5215,-2.2117 -5.17425,-4.3148 -7.91669,-6.3542 l 25.10424,0 c 8.32706,-0.013 22.62,-3.3732 30.62509,-6.0417 14.12257,-4.7048 28.97558,-12.8323 40.20845,-22.6042 l 6.45835,-6.3542 6.77085,-6.7708 c 8.02923,-9.2285 14.98651,-21.8344 18.85422,-33.4376 2.24578,-6.7413 4.91552,-16.6867 5.00002,-23.7501 l 0,-42.2918 0,-84.06272 0,-281.56331 c -0.0133,-8.89855 -3.60888,-25.30184 -6.45835,-33.85426 l -4.06252,-10.83336 c -0.60773,-1.41671 -1.83217,-3.27841 -1.5625,-4.79168 l 2.29167,-5.62502 2.81251,-7.70836 c 3.16341,-9.49019 6.96309,-24.67063 6.97919,-34.58343 l 0,-146.25042 c -0.0167,-11.44216 -4.91285,-26.48837 -10.00003,-36.66677 -4.02065,-8.04129 -8.12662,-14.75234 -13.95837,-21.66673 l -6.25002,-6.45835 -6.04169,-5.93752 c -13.13653,-11.43006 -29.81145,-19.74455 -46.6668,-23.9584 -6.14165,-1.53744 -14.66307,-3.53368 -20.93756,-3.54168 l -53.54182,0 -33.43759,0 c -5.61845,0.007 -12.65151,1.54827 -18.12506,2.91668 -13.7523,3.43707 -27.07097,9.12516 -38.64594,17.39588 -6.21812,4.44325 -8.73789,6.96705 -14.06254,12.2917 l -7.08335,7.29169 c -8.41963,9.67933 -14.50498,21.32736 -18.54172,33.4376 -2.19748,6.59645 -4.57125,15.99028 -4.58335,22.91673 l 0,46.6668 0,23.43757 -149.68793,0 c -0.13667,-6.33082 -3.28194,-18.85699 -4.89585,-25.31258 -9.00319,-36.01683 -30.24492,-66.33769 -49.58347,-97.39611 l -13.02087,-20.93756 -6.14585,-10.10419 c -2.01234,-4.92219 -2.38945,-14.61861 -2.91668,-20.10423 -1.21549,-12.70187 -1.12574,-25.45897 -1.14584,-38.22928 l -0.3125,-6.77085 0,-40.72928 c -0.0122,-7.18002 -2.01554,-14.83638 -3.75017,-21.7709 -8.5444,-34.18559 -34.29876,-63.47899 -67.91687,-74.68771 -6.81378,-2.26992 -17.88445,-4.98795 -25.00007,-5.00002 z m 4.89585,59.16684 78.85439,0 c 4.9423,0.008 10.90554,1.76087 15.31255,3.95835 13.40216,6.68901 21.61034,17.90354 25.2084,32.29175 0.98202,3.94017 1.76279,6.69601 1.77084,10.83337 l 0,-29.68759 0,71.25021 0.41667,6.04168 0,18.85422 0.3125,4.06251 0,5.20835 0.41667,4.06251 0.72917,10.83337 c 1.23557,12.75824 2.99167,25.66804 8.54169,37.39594 l 14.06254,23.0209 18.54172,29.68758 16.56254,26.97925 4.89585,9.68753 c 5.75932,11.52266 8.13493,18.16068 11.25003,30.62508 1.49314,5.96459 3.11698,13.99074 3.12501,20.10423 l 0,24.16673 0.41667,6.04169 0,6.04168 c 0.003,1.44887 0.18834,7.25569 1.04167,8.12503 0.80494,0.82503 4.52178,1.02557 5.72918,1.04167 l 5.31252,0 6.45835,0.41666 129.58371,0 71.5627,0 6.04169,-0.41666 3.22917,0 3.64585,-0.31234 c 11.16043,-1.11484 25.46664,-4.54251 31.25009,-15.31254 2.3504,-4.37482 2.2822,-7.81129 2.60417,-12.50004 l 0.31233,-4.79168 0,-91.14609 c 0.003,-3.19558 0.36104,-3.83235 1.14584,-6.87502 3.42098,-13.28544 13.38297,-23.46237 25.41674,-29.47925 3.34854,-1.67428 5.60438,-2.70408 9.27086,-3.64585 3.83551,-0.98603 6.92089,-1.86697 10.93753,-1.875 l 78.02106,0 c 3.28011,0.0403 7.32125,1.0741 10.52086,1.875 14.49688,3.62221 27.11698,12.88364 33.85427,26.35424 2.47114,4.94632 4.36697,10.0227 4.37501,15.62505 l 0,33.43759 0,46.87514 0,57.0835 c -0.0403,3.30827 -1.06204,8.81935 -1.87501,12.08336 -2.81324,11.30534 -7.00942,20.7121 -14.47921,29.79176 l -11.45836,11.6667 c 3.19557,1.6461 5.50945,3.94694 8.02085,6.45835 5.96859,5.96458 8.01183,8.62779 11.77087,16.14588 4.48751,8.97906 8.00476,19.97012 8.02086,30.10425 l 0,69.89604 0,33.02092 0,294.58422 c -0.007,4.1374 -1.16287,8.2639 -2.70834,12.0833 -6.23825,15.3944 -21.0868,26.434 -36.77094,30.9376 -4.31848,1.2396 -9.57503,2.3879 -14.06254,2.3959 l -72.50021,0 c -2.99438,-0.036 -7.47465,-0.9261 -10.4167,-1.6667 -11.86073,-2.9782 -23.0826,-9.5319 -29.79175,-20.0001 l -2.91667,-5.625 c -2.42284,-4.8658 -4.36698,-11.5217 -4.37502,-16.9792 l 0,-278.02163 -0.31233,-6.45835 c -0.0233,-4.76522 -0.73884,-9.7964 -3.02084,-14.06254 -7.02709,-13.12448 -26.95968,-14.43045 -40.10428,-14.58338 l -6.04169,-0.31233 -166.56298,0 -32.18759,0 -4.89585,0.31233 -4.37501,0 c -1.54547,0.0363 -6.87025,0.50047 -7.91669,1.45834 -0.8814,0.81297 -1.08497,2.70311 -1.25,3.85418 l -0.52084,10.41669 0,287.39669 c -0.0133,6.8581 -2.4983,13.6344 -5.52085,19.6875 -8.26265,16.5253 -24.16607,28.2571 -41.97928,32.7085 -3.93614,0.9861 -8.0104,1.867 -12.08337,1.875 l -138.02123,0 c -5.2522,-0.01 -11.33237,-1.5853 -16.14588,-3.6459 -16.31201,-6.9869 -25.4122,-20.8768 -29.06258,-37.8126 -0.79689,-3.7027 -1.45431,-7.4467 -1.45834,-11.25 l 0,-257.6051 0,-568.02246 0,-0.10417 c 0.012,-6.61254 2.17824,-13.41096 5.10418,-19.27089 2.26186,-4.5197 3.70665,-7.41404 7.08335,-11.3542 7.33698,-8.56048 20.57689,-16.02561 32.08343,-16.04171 z m 231.1465,596.56421 208.02143,0 0,21.04173 -0.137,338.85509 -208.1641,0 c 0.69787,-108.0479 0.27967,-216.11437 0.27967,-324.16755 l 0,-13.64587 z m -129.27121,418.85542 14.68754,0 27.70842,0 84.47941,0 255.83406,0 c 3.82695,-0.02 10.22603,1.0029 14.06254,1.7708 24.89598,4.9805 46.5706,20.7508 56.146,44.6876 2.39624,5.9874 4.67795,14.905 4.68751,21.3542 l 0,227.1882 0.31234,3.8542 0,4.4792 0.31233,3.75 c 0.803,11.4713 3.95438,22.683 8.75003,33.1251 4.55348,9.9195 12.38416,20.6756 19.68755,28.75 8.48243,9.3778 18.47399,17.2301 27.70841,25.8335 3.95762,3.6868 7.77896,7.7112 11.3542,11.7708 20.9288,23.7838 34.86694,50.5651 40.31262,81.8753 l 2.18751,17.8125 0.31233,3.8542 0,255.834 -0.31233,3.8542 -0.93751,8.9584 c -2.20504,15.8463 -8.11482,31.6393 -18.95838,43.6459 -11.11447,12.3062 -26.81231,19.0688 -42.91679,21.7709 -3.94805,0.6628 -9.4895,1.452 -13.43754,1.4584 l -376.25108,0 -138.95873,0 -69.47937,0 c -5.07288,-0.061 -14.36591,-1.6644 -19.37506,-2.9167 l -9.58336,-2.7083 c -19.95306,-7.109 -37.419522,-20.7772 -46.978966,-39.896 -3.715437,-7.4341 -7.174774,-18.7475 -7.18752,-27.0834 l 0,-289.3758 0.312501,-4.7917 0,-5.1042 0.312501,-3.125 c 0.439734,-6.4144 0.732948,-13.393 3.020842,-19.4792 4.74148,-12.6025 14.248737,-24.5767 23.333402,-34.3751 l 11.56253,-12.1876 3.12501,-2.8125 5.41668,-5.4166 6.77085,-6.1459 4.79169,-4.6875 3.125,-2.9167 8.33336,-8.5417 c 7.82599,-8.1829 15.86074,-16.7781 21.35423,-26.7709 2.71169,-4.9358 4.42864,-13.8327 5.10418,-19.4792 l 0.9375,-9.5834 0.3125,-3.125 0.31251,-6.0417 0,-8.6458 0.3125,-5.4167 0,-226.8757 c 0.006,-3.7123 1.07103,-8.76 1.97917,-12.3958 6.35385,-25.4217 27.42187,-43.1034 51.56265,-51.146 4.99639,-1.6634 12.56124,-3.2858 17.81255,-3.9583 z m 85.00025,162.6046 0,133.7504 213.95894,0 0,-133.7504 z m 29.79175,29.4792 155.10461,0 0,74.8961 -155.10461,0 z m -58.646,292.8134 0,197.0839 279.47996,0 0,-197.0839 z m 30.20842,29.6876 219.89646,0 0,137.917 -219.89646,0 z"
     style="fill:#00ffff;stroke:#000000;stroke-width:0.31864753" />
  <path
     d="m 1419.3188,1725.7021 c 0,-8.584 -6.5337,-15.5721 -14.6876,-15.5721 l -32.2917,0 c -8.1538,0 -14.7917,6.9881 -14.7917,15.5721 0,8.584 6.6379,15.5721 14.7917,15.5721 l 32.2917,0 c 8.1539,0 14.6876,-6.9881 14.6876,-15.5721 z m 0,-319.3104 c 0,-8.584 -6.5337,-15.5721 -14.6876,-15.5721 l -32.2917,0 c -8.1538,0 -14.7917,6.9881 -14.7917,15.5721 0,8.584 6.6379,15.5721 14.7917,15.5721 l 32.2917,0 c 8.1539,0 14.6876,-6.9881 14.6876,-15.5721 z m 283.354,-139.0445 c 0,8.1538 -6.61,14.7638 -14.7638,14.7638 -8.1539,0 -14.7639,-6.61 -14.7639,-14.7638 0,-8.1539 6.61,-14.7638 14.7639,-14.7638 8.1538,0 14.7638,6.6099 14.7638,14.7638 z m -255.3959,-56.6619 c 0,-8.584 -6.5337,-15.5721 -14.6876,-15.5721 l -32.2917,0 c -8.1538,0 -14.7917,6.9881 -14.7917,15.5721 0,8.584 6.6379,15.5721 14.7917,15.5721 l 32.2917,0 c 8.1539,0 14.6876,-6.9881 14.6876,-15.5721 z m -147.1322,-171.4115 c -8.584,0 -15.5721,6.5337 -15.5721,14.6876 l 0,32.2917 c 0,8.1538 6.9881,14.7917 15.5721,14.7917 8.584,0 15.572,-6.6379 15.572,-14.7917 l 0,-32.2917 c 0,-8.1539 -6.988,-14.6876 -15.572,-14.6876 z m -291.4799,42.8659 c 0,8.1538 -6.6099,14.7638 -14.76377,14.7638 -8.15384,0 -14.76383,-6.61 -14.76383,-14.7638 0,-8.1538 6.60999,-14.7638 14.76383,-14.7638 8.15387,0 14.76377,6.61 14.76377,14.7638 z"
     style="fill:#808000;fill-opacity:1;stroke:none"
     id="path4419"
     inkscape:connector-curvature="0" />
  <path
     sodipodi:type="inkscape:offset"
     inkscape:radius="12.833309"
     inkscape:original="M -2062.875 471.375 L -2062.875 1357.2188 L -1885.6875 1357.2188 L -1885.6875 1002.9375 L -1649.4375 1002.9375 L -1649.4375 1357.2188 L -1531.3125 1357.2188 L -1472.25 1357.2188 L -1472.25 955.75 L -1543.5312 955.75 L -1543.5312 872.9375 L -1472.25 872.9375 L -1472.25 648.5625 L -1649.4375 648.5625 L -1649.4375 825.75 L -1885.6875 825.75 L -1885.6875 766.6875 L -1944.75 766.6875 L -1944.75 471.375 L -2062.875 471.375 z "
     style="fill:#ff0000;fill-opacity:1;stroke:none"
     id="path5084"
     d="m -2062.875,458.53125 a 12.834593,12.834593 0 0 0 -12.8438,12.84375 l 0,885.8438 a 12.834593,12.834593 0 0 0 12.8438,12.8437 l 177.1875,0 a 12.834593,12.834593 0 0 0 12.8437,-12.8437 l 0,-341.4376 210.5626,0 0,341.4376 a 12.834593,12.834593 0 0 0 12.8437,12.8437 l 118.125,0 59.0625,0 a 12.834593,12.834593 0 0 0 12.8438,-12.8437 l 0,-401.4688 a 12.834593,12.834593 0 0 0 -12.8438,-12.84375 l -58.4375,0 0,-57.125 58.4375,0 a 12.834593,12.834593 0 0 0 12.8438,-12.84375 l 0,-224.375 a 12.834593,12.834593 0 0 0 -12.8438,-12.84375 l -177.1875,0 a 12.834593,12.834593 0 0 0 -12.8437,12.84375 l 0,164.34375 -210.5626,0 0,-46.21875 a 12.834593,12.834593 0 0 0 -12.8437,-12.84375 l -46.2187,0 0,-282.46875 a 12.834593,12.834593 0 0 0 -12.8438,-12.84375 l -118.125,0 z"
     transform="translate(-35.315437,-67.687921)" />
  <path
     style="fill:#00ff00;fill-opacity:1;stroke:none"
     d="m -352.15625,443.5625 0,35.4375 0,70.84375 -17.71875,0 0,17.71875 -17.71875,0 0,106.3125 212.59375,0 0,-106.3125 -17.71875,0 0,-17.71875 -17.6875,0 0,-17.71875 0,-88.5625 z m 35.4375,35.4375 70.875,0 0,53.125 -70.875,0 z m -17.71875,88.5625 106.3125,0 0,70.875 -106.3125,0 z"
     transform="matrix(3.3333429,0,0,3.3333429,-0.00147386,0)"
     id="rect4806"
     inkscape:connector-curvature="0"
     sodipodi:nodetypes="ccccccccccccccccccccccccc" />
  <rect
     style="fill:#ff0000;fill-opacity:1;stroke:none"
     id="rect4829"
     width="17.716587"
     height="885.82928"
     x="-1250.6904"
     y="371.3313" />
  <rect
     y="371.3313"
     x="-1114.8633"
     height="295.27643"
     width="17.716587"
     id="rect4835"
     style="fill:#ff0000;fill-opacity:1;stroke:none" />
  <rect
     style="fill:#ff0000;fill-opacity:1;stroke:none"
     id="rect4837"
     width="17.716587"
     height="153.54375"
     x="353.61472"
     y="1097.1467"
     transform="matrix(0,1,-1,0,0,0)" />
  <rect
     transform="matrix(0,1,-1,0,0,0)"
     y="1055.808"
     x="648.89111"
     height="59.055286"
     width="17.716587"
     id="rect4845"
     style="fill:#ff0000;fill-opacity:1;stroke:none" />
  <rect
     style="fill:#ff0000;fill-opacity:1;stroke:none"
     id="rect4847"
     width="17.716587"
     height="76.771873"
     x="1038.0914"
     y="-725.66296"
     transform="scale(-1,-1)" />
  <rect
     transform="matrix(0,1,-1,0,0,0)"
     y="819.58685"
     x="707.94635"
     height="236.22115"
     width="17.716587"
     id="rect4851"
     style="fill:#ff0000;fill-opacity:1;stroke:none" />
  <rect
     transform="scale(-1,-1)"
     y="-725.66296"
     x="819.58685"
     height="177.16586"
     width="17.716587"
     id="rect4853"
     style="fill:#ff0000;fill-opacity:1;stroke:none" />
  <rect
     style="fill:#ff0000;fill-opacity:1;stroke:none"
     id="rect4855"
     width="17.716587"
     height="212.59903"
     x="530.78052"
     y="624.70441"
     transform="matrix(0,1,-1,0,0,0)" />
  <rect
     style="fill:#ff0000;fill-opacity:1;stroke:none"
     id="rect4859"
     width="17.716587"
     height="253.93773"
     x="624.70441"
     y="-784.71826"
     transform="scale(-1,-1)" />
  <rect
     transform="matrix(0,1,-1,0,0,0)"
     y="624.70441"
     x="784.71826"
     height="76.771873"
     width="17.716587"
     id="rect4861"
     style="fill:#ff0000;fill-opacity:1;stroke:none" />
  <rect
     transform="scale(-1,-1)"
     y="-843.77356"
     x="683.7597"
     height="59.055286"
     width="17.716587"
     id="rect4865"
     style="fill:#ff0000;fill-opacity:1;stroke:none" />
  <rect
     style="fill:#ff0000;fill-opacity:1;stroke:none"
     id="rect4867"
     width="17.716587"
     height="76.771873"
     x="826.05695"
     y="624.70441"
     transform="matrix(0,1,-1,0,0,0)" />
  <rect
     transform="scale(-1,-1)"
     y="-1257.1605"
     x="624.70441"
     height="431.10361"
     width="17.716587"
     id="rect4869"
     style="fill:#ff0000;fill-opacity:1;stroke:none" />
  <rect
     transform="matrix(0,1,-1,0,0,0)"
     y="624.70441"
     x="530.78052"
     height="212.59903"
     width="17.716587"
     id="rect4871"
     style="fill:#ff0000;fill-opacity:1;stroke:none" />
  <path
     style="fill:#00ff00;fill-opacity:1;stroke:none"
     d="m -1722.1939,1803.026 0,545.1057 242.9174,0 0,-545.1057 z"
     id="path4875"
     inkscape:connector-curvature="0"
     sodipodi:nodetypes="ccccc" />
  <path
     style="fill:#ff0000;fill-opacity:1;stroke:none"
     d="M -487.03125 540.90625 L -487.03125 556.15625 L -487.03125 568.96875 L -504.75 568.96875 L -504.75 586.6875 L -487.03125 586.6875 L -487.03125 608 L -487.03125 633.6875 L -487.03125 646.21875 L -487.03125 684.15625 L -487.03125 696.65625 L -487.03125 704.4375 L -478.1875 704.4375 L -478.1875 687.8125 L -455.59375 665.21875 L -455.625 665.1875 L -455.59375 665.125 L -478.1875 642.53125 L -478.1875 540.90625 L -487.03125 540.90625 z M -478.1875 655.0625 L -468.0625 665.1875 L -478.1875 675.3125 L -478.1875 655.0625 z "
     transform="matrix(3.3333429,0,0,3.3333429,-0.00147386,0)"
     id="rect4892" />
  <path
     sodipodi:nodetypes="cccccccccccccccccccc"
     inkscape:connector-curvature="0"
     id="path5123"
     d="m -3275.3717,366.90017 0,885.84383 177.1875,0 0,-354.28134 236.25,0 0,354.28134 118.125,0 59.0625,0 0,-401.48194 -71.2923,0 0,-82.7863 71.2923,0 0,-224.38809 -177.1875,0 0,177.18749 -236.25,0 0,-59.06249 -59.0625,0 0,-295.3125 z"
     style="fill:#00ff00;fill-opacity:1;stroke:none" />
  <path
     d="m -2098.1875,304.65625 c -9.3696,0.002 -10.5851,0.19425 -19.3437,1.9375 -8.9641,1.78418 -10.1317,2.13203 -18.5626,5.625 -8.3559,3.46181 -9.4402,4.06267 -17.0624,9.15625 -7.5272,5.02945 -8.5188,5.73672 -15.0626,12.28125 -6.5429,6.5425 -7.2531,7.53816 -12.2812,15.0625 -5.0925,7.62086 -5.6936,8.7039 -9.1562,17.0625 -3.496,8.43652 -3.8413,9.60094 -5.625,18.5625 -1.7421,8.7541 -1.9361,9.97244 -1.9376,19.34375 l 0,885.8437 c 0,9.3753 0.1979,10.5981 1.9376,19.3438 1.784,8.9634 2.1322,10.1321 5.625,18.5625 3.4636,8.362 4.0637,9.442 9.1562,17.0625 5.0285,7.525 5.7411,8.5223 12.2812,15.0625 6.5451,6.5459 7.5393,7.2539 15.0626,12.2813 7.6222,5.0933 8.7079,5.6947 17.0624,9.1562 8.4325,3.4938 9.5997,3.841 18.5626,5.625 8.7569,1.743 9.9691,1.9365 19.3437,1.9375 l 177.1875,0 c 9.3805,-5e-4 10.5893,-0.1951 19.3438,-1.9375 8.9628,-1.784 10.1298,-2.1312 18.5624,-5.625 8.3594,-3.4634 9.4512,-4.0717 17.0626,-9.1562 7.5206,-5.0264 8.5209,-5.7397 15.0624,-12.2813 6.5381,-6.5384 7.2523,-7.5368 12.2813,-15.0625 5.0949,-7.6241 5.6958,-8.7115 9.1563,-17.0625 3.4889,-8.4234 3.8397,-9.5923 5.625,-18.5625 1.7431,-8.7581 1.9361,-9.9737 1.9374,-19.3438 l 0,-255.25 38.1876,0 0,255.25 c 0,9.3715 0.1949,10.5884 1.9374,19.3438 1.7856,8.9745 2.1359,10.1389 5.625,18.5625 3.4595,8.3477 4.0607,9.4374 9.1563,17.0625 5.03,7.5273 5.7462,8.5266 12.2813,15.0625 6.5388,6.5383 7.5404,7.254 15.0624,12.2813 7.615,5.0874 8.7053,5.6935 17.0626,9.1562 8.4326,3.4938 9.5996,3.841 18.5624,5.625 8.757,1.743 9.9692,1.9365 19.3438,1.9375 l 118.125,0 59.0625,0 c 9.3749,-10e-4 10.587,-0.1948 19.3437,-1.9375 8.9629,-1.784 10.1301,-2.1312 18.5626,-5.625 8.3565,-3.4622 9.4437,-4.0658 17.0624,-9.1562 7.5245,-5.0283 8.5203,-5.7385 15.0626,-12.2813 6.543,-6.5426 7.2537,-7.5389 12.2812,-15.0625 5.093,-7.6213 5.6931,-8.7024 9.1562,-17.0625 3.4963,-8.4371 3.8416,-9.6022 5.625,-18.5625 1.7406,-8.7486 1.9361,-9.9702 1.9376,-19.3438 l 0,-401.4687 0,-82.8125 0,-224.375 c 0,-9.37246 -0.1958,-10.59104 -1.9376,-19.34375 -1.7841,-8.96378 -2.1313,-10.13052 -5.625,-18.5625 -3.4642,-8.36376 -4.065,-9.44352 -9.1562,-17.0625 -5.028,-7.52428 -5.7382,-8.51996 -12.2812,-15.0625 -6.5411,-6.54132 -7.534,-7.25089 -15.0626,-12.28125 -7.6222,-5.09358 -8.7065,-5.69444 -17.0624,-9.15625 -8.4309,-3.49297 -9.5985,-3.84082 -18.5626,-5.625 -8.7582,-1.7432 -9.9737,-1.93601 -19.3437,-1.9375 l -177.1875,0 c -9.3696,0.002 -10.5851,0.19425 -19.3438,1.9375 -8.9641,1.78419 -10.1314,2.13205 -18.5624,5.625 -8.3575,3.46254 -9.4449,4.06642 -17.0626,9.15625 -7.5258,5.02918 -8.5247,5.74394 -15.0624,12.28125 -6.5376,6.53799 -7.2517,7.53587 -12.2813,15.0625 -5.0944,7.62368 -5.6962,8.71309 -9.1563,17.0625 -3.4888,8.42286 -3.8396,9.59101 -5.625,18.5625 -1.7432,8.75823 -1.9361,9.97357 -1.9374,19.34375 l 0,78.15625 -46.6876,0 c -2.5472,-6.03705 -3.7214,-8.26991 -8.2187,-15 -5.0296,-7.52663 -5.7437,-8.52451 -12.2813,-15.0625 -6.5376,-6.53735 -7.5366,-7.2521 -15.0624,-12.28125 -6.7248,-4.49325 -8.9578,-5.66939 -15,-8.21875 l 0,-204.78125 c 0,-9.37455 -0.1969,-10.59617 -1.9376,-19.34375 -1.7841,-8.96378 -2.1313,-10.13052 -5.625,-18.5625 -3.4642,-8.36376 -4.065,-9.44352 -9.1562,-17.0625 -5.028,-7.52428 -5.7382,-8.51996 -12.2812,-15.0625 -6.5421,-6.54242 -7.5367,-7.25235 -15.0626,-12.28125 -7.6222,-5.09358 -8.7065,-5.69444 -17.0624,-9.15625 -8.4309,-3.49297 -9.5985,-3.84082 -18.5626,-5.625 -8.7582,-1.7432 -9.9737,-1.93601 -19.3437,-1.9375 l -118.125,0 z"
     id="path5143"
     style="fill:#800000;fill-opacity:1;stroke:none"
     inkscape:original="M -2098.1875 317.90625 C -2107.6512 317.90825 -2105.9605 317.80705 -2114.9375 319.59375 C -2124.0596 321.40938 -2122.4615 320.91824 -2131.0312 324.46875 C -2139.5383 327.99319 -2138.0664 327.19865 -2145.8125 332.375 C -2153.5051 337.51498 -2152.2167 336.40338 -2158.8438 343.03125 C -2165.4695 349.65651 -2164.3616 348.37302 -2169.5 356.0625 C -2174.6757 363.80784 -2173.8811 362.33443 -2177.4062 370.84375 C -2180.9594 379.41844 -2180.4657 377.81631 -2182.2812 386.9375 C -2184.0669 395.91082 -2183.9673 394.22352 -2183.9688 403.6875 L -2183.9688 1289.5312 C -2183.9688 1298.9961 -2184.0649 1297.314 -2182.2812 1306.2812 C -2180.4657 1315.4025 -2180.9564 1313.8059 -2177.4062 1322.375 C -2173.8801 1330.8876 -2174.6761 1329.4106 -2169.5 1337.1562 C -2164.3616 1344.8456 -2165.4669 1343.5644 -2158.8438 1350.1875 C -2152.2162 1356.8159 -2153.5016 1355.7056 -2145.8125 1360.8438 C -2138.0666 1366.0197 -2139.5369 1365.2259 -2131.0312 1368.75 C -2122.4601 1372.3012 -2124.0588 1371.8095 -2114.9375 1373.625 C -2105.9606 1375.4118 -2107.6555 1375.3115 -2098.1875 1375.3125 L -1921 1375.3125 C -1911.5269 1375.312 -1913.2259 1375.4115 -1904.25 1373.625 C -1895.1287 1371.8095 -1896.7275 1372.3012 -1888.1562 1368.75 C -1879.649 1365.2253 -1881.1112 1366.0118 -1873.375 1360.8438 C -1865.6895 1355.7073 -1866.9674 1356.8111 -1860.3438 1350.1875 C -1853.7226 1343.566 -1854.8259 1344.8457 -1849.6875 1337.1562 C -1844.5106 1329.4093 -1845.3045 1330.8778 -1841.7812 1322.375 C -1838.2341 1313.8111 -1838.7224 1315.4072 -1836.9062 1306.2812 C -1835.1195 1297.3043 -1835.2202 1298.995 -1835.2188 1289.5312 L -1835.2188 1021.0312 L -1770.5312 1021.0312 L -1770.5312 1289.5312 C -1770.5312 1298.995 -1770.6302 1297.3056 -1768.8438 1306.2812 C -1767.0273 1315.4114 -1767.5166 1313.8099 -1763.9688 1322.375 C -1760.4463 1330.8749 -1761.2396 1329.4091 -1756.0625 1337.1562 C -1750.9236 1344.8464 -1752.0247 1343.5681 -1745.4062 1350.1875 C -1738.785 1356.8082 -1740.061 1355.707 -1732.375 1360.8438 C -1724.6357 1366.0143 -1726.1 1365.2256 -1717.5938 1368.75 C -1709.0225 1372.3012 -1710.6213 1371.8095 -1701.5 1373.625 C -1692.5231 1375.4118 -1694.218 1375.3115 -1684.75 1375.3125 L -1566.625 1375.3125 L -1507.5625 1375.3125 C -1498.0945 1375.3115 -1499.7894 1375.4115 -1490.8125 1373.625 C -1481.6912 1371.8095 -1483.2898 1372.3012 -1474.7188 1368.75 C -1466.2122 1365.2256 -1467.6803 1366.0172 -1459.9375 1360.8438 C -1452.2479 1355.7052 -1453.5312 1356.813 -1446.9062 1350.1875 C -1440.2805 1343.5623 -1441.3879 1344.845 -1436.25 1337.1562 C -1431.0736 1329.4101 -1431.8694 1330.886 -1428.3438 1322.375 C -1424.7904 1313.8 -1425.2841 1315.4013 -1423.4688 1306.2812 C -1421.6845 1297.3128 -1421.7827 1298.9961 -1421.7812 1289.5312 L -1421.7812 888.0625 L -1421.7812 805.25 L -1421.7812 580.875 C -1421.7812 571.41102 -1421.6831 573.09832 -1423.4688 564.125 C -1425.2845 555.0028 -1424.7927 556.60194 -1428.3438 548.03125 C -1431.8702 539.51739 -1431.0748 540.99461 -1436.25 533.25 C -1441.3884 525.56052 -1440.2804 526.84401 -1446.9062 520.21875 C -1453.5309 513.59378 -1452.2444 514.7028 -1459.9375 509.5625 C -1467.6836 504.38615 -1466.2117 505.18069 -1474.7188 501.65625 C -1483.2885 498.10574 -1481.6904 498.59688 -1490.8125 496.78125 C -1499.7895 494.99451 -1498.0988 495.09525 -1507.5625 495.09375 L -1684.75 495.09375 C -1694.2137 495.09575 -1692.523 494.99455 -1701.5 496.78125 C -1710.6221 498.59688 -1709.0238 498.10574 -1717.5938 501.65625 C -1726.101 505.18085 -1724.6331 504.38963 -1732.375 509.5625 C -1740.0645 514.70101 -1738.7853 513.59828 -1745.4062 520.21875 C -1752.0271 526.84006 -1750.9236 525.55975 -1756.0625 533.25 C -1761.2387 540.99606 -1760.4459 539.53011 -1763.9688 548.03125 C -1767.5159 556.59483 -1767.0275 554.99783 -1768.8438 564.125 C -1770.6306 573.10199 -1770.5298 571.41102 -1770.5312 580.875 L -1770.5312 672.28125 L -1839.375 672.28125 C -1839.908 670.79542 -1840.3972 669.49766 -1841.7812 666.15625 C -1845.304 657.65511 -1844.5113 659.12106 -1849.6875 651.375 C -1854.8264 643.68475 -1853.7229 644.96506 -1860.3438 638.34375 C -1866.9646 631.72328 -1865.6855 632.82601 -1873.375 627.6875 C -1881.1169 622.51463 -1879.6489 623.30585 -1888.1562 619.78125 C -1891.5005 618.39573 -1892.7946 617.90807 -1894.2812 617.375 L -1894.2812 403.6875 C -1894.2812 394.22247 -1894.1842 395.90613 -1895.9688 386.9375 C -1897.7845 377.8153 -1897.2927 379.41444 -1900.8438 370.84375 C -1904.3702 362.32989 -1903.5748 363.80711 -1908.75 356.0625 C -1913.8884 348.37302 -1912.7804 349.65651 -1919.4062 343.03125 C -1926.0313 336.40576 -1924.7467 337.51411 -1932.4375 332.375 C -1940.1836 327.19865 -1938.7117 327.99319 -1947.2188 324.46875 C -1955.7885 320.91824 -1954.1904 321.40938 -1963.3125 319.59375 C -1972.2895 317.80701 -1970.5988 317.90775 -1980.0625 317.90625 L -2098.1875 317.90625 z "
     inkscape:radius="13.243289"
     sodipodi:type="inkscape:offset"
     transform="translate(-1198.6457,-1256.9132)" />
  <path
     id="path5145"
     d="m -3296.8332,-939.00693 c -9.4637,0.002 -7.773,-0.0992 -16.75,1.6875 -9.1221,1.81563 -7.5239,1.32449 -16.0937,4.875 -8.507,3.52444 -7.0352,2.7299 -14.7813,7.90625 -7.6926,5.13998 -6.4043,4.02838 -13.0313,10.65625 -6.6258,6.62526 -5.5178,5.34177 -10.6562,13.03125 -5.1757,7.74534 -4.3811,6.27193 -7.9062,14.78125 -3.5532,8.57469 -3.0595,6.97256 -4.875,16.09375 -1.7856,8.97332 -1.6861,7.28602 -1.6876,16.75 l 0,885.843697 c 0,9.4649 -0.096,7.7827 1.6876,16.75 1.8156,9.1212 1.3248,7.5247 4.875,16.0938 3.5261,8.5126 2.7301,7.0355 7.9062,14.7812 5.1384,7.6894 4.0331,6.4082 10.6562,13.0313 6.6275,6.6284 5.3422,5.5182 13.0313,10.656303 7.7459,5.176 6.2756,4.3821 14.7813,7.9062 8.5711,3.5512 6.9724,3.0595 16.0937,4.875 8.9769,1.7868 7.282,1.6865 16.75,1.6875 l 177.1875,0 c 9.4731,-5e-4 7.7741,0.099 16.75,-1.6875 9.1213,-1.8155 7.5226,-1.3238 16.0938,-4.875 8.5072,-3.5247 7.045,-2.7381 14.7812,-7.9062 7.6855,-5.136403 6.4076,-4.032703 13.0312,-10.656303 6.6211,-6.6215 5.5179,-5.3419 10.6563,-13.0313 5.1769,-7.7469 4.383,-6.2784 7.9063,-14.7812 3.5472,-8.5639 3.0588,-6.9679 4.875,-16.0938 1.7867,-8.9769 1.686,-7.2862 1.6874,-16.75 l 0,-268.499997 64.6876,0 0,268.499997 c 0,9.4638 -0.099,7.7743 1.6874,16.75 1.8165,9.1301 1.3271,7.5287 4.875,16.0938 3.5224,8.4999 2.7292,7.0341 7.9063,14.7812 5.1389,7.6901 4.0378,6.4119 10.6563,13.0313 6.6212,6.6207 5.3452,5.5196 13.0312,10.656303 7.7393,5.1706 6.2749,4.3818 14.7812,7.9062 8.5712,3.5512 6.9725,3.0595 16.0938,4.875 8.9769,1.7868 7.282,1.6865 16.75,1.6875 l 118.125,0 59.0625,0 c 9.468,-0.001 7.7731,0.099 16.75,-1.6875 9.1213,-1.8155 7.5226,-1.3238 16.0937,-4.875 8.5066,-3.5244 7.0385,-2.7327 14.7813,-7.9062 7.6896,-5.138503 6.4063,-4.030803 13.0313,-10.656303 6.6257,-6.6252 5.5183,-5.3426 10.6562,-13.0313 5.1764,-7.7461 4.3805,-6.2702 7.9062,-14.7812 3.5533,-8.575 3.0596,-6.9738 4.875,-16.0938 1.7842,-8.9685 1.6861,-7.2851 1.6876,-16.75 l 0,-401.468697 0,-82.8125 0,-224.375 c 0,-9.46398 0.098,-7.77668 -1.6876,-16.75 -1.8157,-9.1222 -1.3239,-7.52306 -4.875,-16.09375 -3.5265,-8.51386 -2.731,-7.03664 -7.9062,-14.78125 -5.1384,-7.68948 -4.0304,-6.40599 -10.6562,-13.03125 -6.6246,-6.62497 -5.3382,-5.51595 -13.0313,-10.65625 -7.7461,-5.17635 -6.2743,-4.38181 -14.7813,-7.90625 -8.5698,-3.55051 -6.9716,-3.05937 -16.0937,-4.875 -8.977,-1.78674 -7.2863,-1.686 -16.75,-1.6875 l -177.1875,0 c -9.4637,0.002 -7.773,-0.0992 -16.75,1.6875 -9.1221,1.81563 -7.5239,1.32449 -16.0938,4.875 -8.5073,3.5246 -7.0393,2.73338 -14.7812,7.90625 -7.6895,5.13851 -6.4103,4.03578 -13.0312,10.65625 -6.6209,6.62131 -5.5174,5.341 -10.6563,13.03125 -5.1762,7.74606 -4.3835,6.28011 -7.9063,14.78125 -3.5471,8.56358 -3.0587,6.96658 -4.875,16.09375 -1.7868,8.97699 -1.686,7.28602 -1.6874,16.75 l 0,91.40625 -68.8438,0 c -0.533,-1.48583 -1.0222,-2.78359 -2.4062,-6.125 -3.5228,-8.50114 -2.7301,-7.03519 -7.9063,-14.78125 -5.1389,-7.69025 -4.0354,-6.40994 -10.6563,-13.03125 -6.6209,-6.62047 -5.3417,-5.51774 -13.0312,-10.65625 -7.7419,-5.17287 -6.2739,-4.38165 -14.7812,-7.90625 -3.3443,-1.38552 -4.6384,-1.87318 -6.125,-2.40625 l 0,-213.6875 c 0,-9.46503 0.097,-7.78137 -1.6876,-16.75 -1.8157,-9.1222 -1.3239,-7.52306 -4.875,-16.09375 -3.5265,-8.51386 -2.731,-7.03664 -7.9062,-14.78125 -5.1384,-7.68948 -4.0304,-6.40599 -10.6562,-13.03125 -6.6251,-6.62549 -5.3405,-5.51714 -13.0313,-10.65625 -7.7461,-5.17635 -6.2743,-4.38181 -14.7813,-7.90625 -8.5698,-3.55051 -6.9716,-3.05937 -16.0937,-4.875 -8.977,-1.78674 -7.2863,-1.686 -16.75,-1.6875 l -118.125,0 z"
     style="fill:#00ffff;fill-opacity:1;stroke:none"
     inkscape:connector-curvature="0" />
  <path
     id="path5147"
     d="m -3296.8332,-909.22568 c -1.8943,3e-4 -9.0796,0.72396 -10.9375,1.09375 -1.8579,0.36979 -8.7499,2.46243 -10.5,3.1875 -1.7501,0.72507 -8.0812,4.10375 -9.6562,5.15625 -1.5751,1.0525 -7.1606,5.62926 -8.5,6.96875 -1.3395,1.33949 -5.9163,6.92496 -6.9688,8.5 -1.0525,1.57504 -4.4312,7.90617 -5.1562,9.65625 -0.7251,1.75008 -2.8178,8.64211 -3.1876,10.5 -0.3697,1.85789 -1.0934,9.04317 -1.0937,10.9375 l 0,885.843697 c 3e-4,1.8944 0.724,9.0797 1.0937,10.9376 0.3698,1.8578 2.4625,8.7499 3.1876,10.5 0.725,1.75 4.1037,8.0812 5.1562,9.6562 1.0525,1.575 5.6293,7.1605 6.9688,8.5 1.3394,1.3395 6.9249,5.9163 8.5,6.9688 1.575,1.0524 7.9061,4.4311 9.6562,5.1562 1.7501,0.7251 8.6421,2.8177 10.5,3.1875 1.8579,0.3698 9.0432,1.0934 10.9375,1.0937 l 177.1875,0 c 1.8943,-2e-4 9.0796,-0.7239 10.9375,-1.0937 1.8579,-0.3698 8.7499,-2.4624 10.5,-3.1875 1.7501,-0.7251 8.0812,-4.1038 9.6563,-5.1562 1.575,-1.0525 7.1605,-5.6293 8.5,-6.9688 1.3394,-1.3395 5.9162,-6.925 6.9687,-8.5 1.0525,-1.575 4.4312,-7.9062 5.1563,-9.6562 0.725,-1.7501 2.8177,-8.6422 3.1874,-10.5 0.3698,-1.8579 1.0935,-9.0432 1.0938,-10.9376 l 0,-298.281197 124.25,0 0,298.281197 c 3e-4,1.8944 0.724,9.0797 1.0938,10.9376 0.3697,1.8578 2.4624,8.7499 3.1874,10.5 0.7251,1.75 4.1038,8.0812 5.1563,9.6562 1.0525,1.575 5.6293,7.1605 6.9687,8.5 1.3395,1.3395 6.925,5.9163 8.5,6.9688 1.5751,1.0524 7.9062,4.4311 9.6563,5.1562 1.7501,0.7251 8.6421,2.8177 10.5,3.1875 1.8579,0.3698 9.0432,1.0935 10.9375,1.0937 l 118.125,0 59.0625,0 c 1.8943,-3e-4 9.0796,-0.7239 10.9375,-1.0937 1.8579,-0.3698 8.7499,-2.4624 10.5,-3.1875 1.7501,-0.7251 8.0812,-4.1038 9.6562,-5.1562 1.5751,-1.0525 7.1606,-5.6293 8.5,-6.9688 1.3395,-1.3395 5.9163,-6.925 6.9688,-8.5 1.0525,-1.575 4.4312,-7.9062 5.1562,-9.6562 0.7251,-1.7501 2.8178,-8.6422 3.1876,-10.5 0.3697,-1.8579 1.0934,-9.0432 1.0937,-10.9376 l 0,-401.468697 0,-82.8125 0,-224.375 c -3e-4,-1.89433 -0.724,-9.07961 -1.0937,-10.9375 -0.3698,-1.85789 -2.4625,-8.74992 -3.1876,-10.5 -0.725,-1.75008 -4.1037,-8.08121 -5.1562,-9.65625 -1.0525,-1.57504 -5.6293,-7.16051 -6.9688,-8.5 -1.3394,-1.33949 -6.9249,-5.91625 -8.5,-6.96875 -1.575,-1.0525 -7.9061,-4.43118 -9.6562,-5.15625 -1.7501,-0.72507 -8.6421,-2.81771 -10.5,-3.1875 -1.8579,-0.36979 -9.0432,-1.09345 -10.9375,-1.09375 l -177.1875,0 c -1.8943,3e-4 -9.0796,0.72396 -10.9375,1.09375 -1.8579,0.36979 -8.7499,2.46243 -10.5,3.1875 -1.7501,0.72507 -8.0812,4.10375 -9.6563,5.15625 -1.575,1.0525 -7.1605,5.62925 -8.5,6.96875 -1.3394,1.3395 -5.9162,6.92496 -6.9687,8.5 -1.0525,1.57504 -4.4312,7.90617 -5.1563,9.65625 -0.725,1.75008 -2.8177,8.64211 -3.1874,10.5 -0.3698,1.85789 -1.0935,9.04317 -1.0938,10.9375 l 0,121.1875 -124.25,0 0,-3.0625 c -3e-4,-1.89433 -0.724,-9.07961 -1.0938,-10.9375 -0.3697,-1.85789 -2.4624,-8.74992 -3.1874,-10.5 -0.7251,-1.75008 -4.1038,-8.08121 -5.1563,-9.65625 -1.0525,-1.57504 -5.6293,-7.1605 -6.9687,-8.5 -1.3395,-1.3395 -6.925,-5.91625 -8.5,-6.96875 -1.5751,-1.0525 -7.9062,-4.43118 -9.6563,-5.15625 -1.7501,-0.72507 -8.6421,-2.81771 -10.5,-3.1875 -1.8579,-0.36979 -9.0432,-1.09345 -10.9375,-1.09375 l -3.0625,0 0,-239.3125 c -3e-4,-1.89433 -0.724,-9.07961 -1.0937,-10.9375 -0.3698,-1.85789 -2.4625,-8.74992 -3.1876,-10.5 -0.725,-1.75008 -4.1037,-8.08121 -5.1562,-9.65625 -1.0525,-1.57504 -5.6293,-7.16051 -6.9688,-8.5 -1.3394,-1.33949 -6.9249,-5.91625 -8.5,-6.96875 -1.575,-1.0525 -7.9061,-4.43118 -9.6562,-5.15625 -1.7501,-0.72507 -8.6421,-2.81771 -10.5,-3.1875 -1.8579,-0.36979 -9.0432,-1.09345 -10.9375,-1.09375 l -118.125,0 z"
     style="fill:#ff6600;fill-opacity:1;stroke:none"
     inkscape:connector-curvature="0" />
  <path
     id="path5149"
     d="m -3296.8332,-895.69443 a 42.475492,42.475492 0 0 0 -42.4687,42.46875 l 0,885.843697 a 42.475492,42.475492 0 0 0 42.4687,42.4688 l 177.1875,0 a 42.475492,42.475492 0 0 0 42.4688,-42.4688 l 0,-311.812447 151.3124,0 0,311.812447 a 42.475492,42.475492 0 0 0 42.4688,42.4688 l 118.125,0 59.0625,0 a 42.475492,42.475492 0 0 0 42.4687,-42.4688 l 0,-401.468697 0,-82.8125 0,-224.375 a 42.475492,42.475492 0 0 0 -42.4687,-42.46875 l -177.1875,0 a 42.475492,42.475492 0 0 0 -42.4688,42.46875 l 0,134.71875 -151.3124,0 0,-16.59375 a 42.475492,42.475492 0 0 0 -42.4688,-42.46875 l -16.5938,0 0,-252.84375 a 42.475492,42.475492 0 0 0 -42.4687,-42.46875 l -118.125,0 z"
     style="fill:#0000ff;fill-opacity:1;stroke:none"
     inkscape:connector-curvature="0" />
  <path
     transform="translate(-1233.9611,-1324.6011)"
     d="m -2062.875,458.53125 a 12.834593,12.834593 0 0 0 -12.8438,12.84375 l 0,885.8438 a 12.834593,12.834593 0 0 0 12.8438,12.8437 l 177.1875,0 a 12.834593,12.834593 0 0 0 12.8437,-12.8437 l 0,-341.4376 210.5626,0 0,341.4376 a 12.834593,12.834593 0 0 0 12.8437,12.8437 l 118.125,0 59.0625,0 a 12.834593,12.834593 0 0 0 12.8438,-12.8437 l 0,-401.4688 a 12.834593,12.834593 0 0 0 -12.8438,-12.84375 l -58.4375,0 0,-57.125 58.4375,0 a 12.834593,12.834593 0 0 0 12.8438,-12.84375 l 0,-224.375 a 12.834593,12.834593 0 0 0 -12.8438,-12.84375 l -177.1875,0 a 12.834593,12.834593 0 0 0 -12.8437,12.84375 l 0,164.34375 -210.5626,0 0,-46.21875 a 12.834593,12.834593 0 0 0 -12.8437,-12.84375 l -46.2187,0 0,-282.46875 a 12.834593,12.834593 0 0 0 -12.8438,-12.84375 l -118.125,0 z"
     id="path5151"
     style="fill:#ff0000;fill-opacity:1;stroke:none"
     inkscape:original="M -2062.875 471.375 L -2062.875 1357.2188 L -1885.6875 1357.2188 L -1885.6875 1002.9375 L -1649.4375 1002.9375 L -1649.4375 1357.2188 L -1531.3125 1357.2188 L -1472.25 1357.2188 L -1472.25 955.75 L -1543.5312 955.75 L -1543.5312 872.9375 L -1472.25 872.9375 L -1472.25 648.5625 L -1649.4375 648.5625 L -1649.4375 825.75 L -1885.6875 825.75 L -1885.6875 766.6875 L -1944.75 766.6875 L -1944.75 471.375 L -2062.875 471.375 z "
     inkscape:radius="12.833309"
     sodipodi:type="inkscape:offset" />
  <path
     sodipodi:nodetypes="cccccccccccccccccccc"
     inkscape:connector-curvature="0"
     id="path5153"
     d="m -3296.8362,-853.2261 0,885.843817 177.1875,0 0,-354.281317 236.25,0 0,354.281317 118.125,0 59.0625,0 0,-401.481917 -71.2923,0 0,-82.7863 71.2923,0 0,-224.3881 -177.1875,0 0,177.1875 -236.25,0 0,-59.0625 -59.0625,0 0,-295.3125 z"
     style="fill:#00ff00;fill-opacity:1;stroke:none" />
  <path
     style="fill:#00ffff;fill-opacity:1;stroke:none"
     d="m -1926.6896,-1856.9964 -0.9575,0.9575 -0.9576,-0.9575 -22.0971,22.0971 0.9575,0.9576 -25.0434,25.0434 -0.9576,-0.9575 -22.0971,22.0971 0.9575,0.9576 -25.0434,25.0434 -0.9575,-0.9575 -22.0972,22.0971 0.9576,0.9576 -25.0435,25.0434 -0.9575,-0.9575 -22.0972,22.0971 0.9576,0.9576 -25.0435,25.0434 -0.9575,-0.9576 -22.0972,22.0972 0.9576,0.9575 -25.0435,25.0435 -0.9575,-0.9576 -22.0972,22.0971 0.9576,0.9576 -25.0434,25.0434 -0.9576,-0.9575 -22.0971,22.0971 0.9575,0.9576 -25.0434,25.0434 -0.9576,-0.9575 -22.0971,22.0971 0.9575,0.9576 -25.0434,25.0434 -0.9576,-0.9575 -22.0971,22.0971 0.9575,0.9575 -25.0434,25.0435 -0.9576,-0.9576 -22.0971,22.0972 0.9575,0.9575 -25.0434,25.0435 -0.9575,-0.9576 -22.0972,22.0972 0.9576,0.9575 -25.0435,25.0435 -0.9575,-0.9576 -22.0972,22.0972 0.9576,0.9575 -25.0435,25.0434 -0.9575,-0.9575 -22.0972,22.0972 0.9576,0.9575 -25.0435,25.0434 -0.9575,-0.9575 -22.0972,22.0971 0.9576,0.9576 -0.9576,0.9575 22.0972,22.0972 0.9575,-0.9576 25.0435,25.0435 -0.9576,0.9575 22.0972,22.0972 0.9575,-0.9576 25.0435,25.0435 -0.9576,0.9575 22.0972,22.0971 0.9575,-0.9575 25.0435,25.0434 -0.9576,0.9576 22.0972,22.0971 0.9575,-0.9575 25.0434,25.0434 -0.9575,0.9576 22.0971,22.0971 0.9576,-0.9575 25.0434,25.04341 -0.9575,0.95755 22.0971,22.09715 0.9576,-0.95755 25.0434,25.04344 -0.9575,0.95754 22.0971,22.09715 0.9576,-0.95754 25.0434,25.04344 -0.9575,0.95754 22.0971,22.09715 0.9576,-0.95754 25.0434,25.04344 -0.9576,0.95754 22.0972,22.09715 0.9575,-0.95754 25.0435,25.04343 -0.9576,0.95755 22.0972,22.09715 0.9575,-0.95755 25.0435,25.04343 -0.9576,0.9575 22.0972,22.0972 0.9575,-0.9576 25.0435,25.0435 -0.9576,0.9575 22.0972,22.0972 0.9575,-0.9576 25.0434,25.0435 -0.9575,0.9575 22.0971,22.0972 0.9576,-0.9576 24.5278,24.52794 0.5156,0.5156 -0.9575,0.9575 0.4419,0.4419 21.6552,21.6553 0.442,0.4419 0.9575,-0.9575 0.5156,0.5156 24.5279,24.5278 -0.9576,0.9575 22.0972,22.0972 0.9575,-0.9576 25.0434,25.0435 -0.9575,0.9575 22.0972,22.0972 0.9575,-0.9576 25.0434,25.0435 -0.9575,0.9575 22.0971,22.0972 0.9576,-0.9576 25.0434,25.0434 -0.9575,0.9576 22.0971,22.0971 0.9576,-0.9575 25.0434,25.0434 -0.9575,0.9576 22.0971,22.0971 0.9576,-0.9575 25.0434,25.0434 -0.9576,0.9576 22.0972,22.0971 0.9575,-0.9575 25.0435,25.0434 -0.9576,0.9576 22.0972,22.0971 0.9575,-0.9575 25.0435,25.0434 -0.9576,0.9575 22.0972,22.0972 0.9575,-0.9576 25.0435,25.0435 -0.9576,0.9575 22.0972,22.0972 0.9575,-0.9576 25.0434,25.0435 -0.9575,0.9575 22.0971,22.0972 0.9576,-0.9576 25.0434,25.043504 -0.9575,0.9575 22.0971,22.0972 0.9576,-0.9576 25.0434,25.0434 -0.9575,0.9576 22.0971,22.0971 0.9576,-0.9575 25.0434,25.0434 -0.9575,0.9576 22.0971,22.0971 0.9576,-0.9575 0.9575,0.9575 22.0971,-22.0971 -0.9575,-0.9576 25.0434,-25.0434 0.9576,0.9575 22.0971,-22.0971 -0.9575,-0.9576 25.0434,-25.0434 0.9576,0.9576 22.0971,-22.0972 -0.9575,-0.9575 25.0434,-25.043504 0.9576,0.9576 22.0971,-22.0972 -0.9575,-0.9575 25.0434,-25.0435 0.9576,0.9576 22.0971,-22.0972 -0.9575,-0.9575 25.0434,-25.0435 0.9576,0.9576 22.0971,-22.0972 -0.9575,-0.9575 25.0434,-25.0434 0.9575,0.9575 22.0972,-22.0971 -0.9575,-0.9576 25.04345,-25.0434 0.9575,0.9575 22.0972,-22.0971 -0.9576,-0.9576 25.0435,-25.0434 0.9575,0.9575 22.0972,-22.0971 -0.9576,-0.9576 25.0435,-25.0434 0.9575,0.9575 22.0972,-22.0971 -0.9576,-0.9576 25.04349,-25.0434 0.9575,0.9576 22.0971,-22.0972 -0.9575,-0.9575 25.0434,-25.0435 0.9576,0.9576 22.0971,-22.0972 -0.9575,-0.9575 25.0434,-25.0435 0.9576,0.9576 22.09714,-22.0972 -0.95754,-0.9575 25.04343,-25.0434 0.95754,0.9575 22.09715,-22.0972 -0.95754,-0.9575 0.95754,-0.9575 -22.09715,-22.09724 -0.95754,0.95764 -25.04343,-25.04354 0.95754,-0.9575 -22.09714,-22.0972 -0.9576,0.9576 -25.0434,-25.0435 0.9575,-0.9575 -22.0971,-22.0972 -0.9576,0.9576 -25.0434,-25.0435 0.9575,-0.9575 -22.0971,-22.09714 -0.9575,0.95754 -25.04349,-25.04343 0.9576,-0.95755 -22.0972,-22.09715 -0.9575,0.95755 -25.0435,-25.04344 0.9576,-0.95754 -22.0972,-22.09716 -0.9575,0.95755 -25.0435,-25.04344 0.9576,-0.95754 -22.0972,-22.09715 -0.9575,0.95754 -25.04345,-25.04344 0.9575,-0.95754 -22.0972,-22.09715 -0.9575,0.95754 -25.0434,-25.04343 0.9575,-0.95755 -22.0971,-22.09711 -0.9576,0.9575 -25.0434,-25.0434 0.9575,-0.9576 -22.0971,-22.0971 -0.9576,0.9575 -25.0434,-25.0434 0.9575,-0.9576 -22.0971,-22.0971 -0.9576,0.9575 -25.0434,-25.0434 0.9575,-0.9575 -22.0971,-22.0972 -0.9576,0.9575 -25.0434,-25.0434 0.9575,-0.9575 -22.0971,-22.0972 -0.9576,0.9576 -24.5278,-24.5279 -0.5156,-0.5156 0.9575,-0.9575 -0.4419,-0.442 -21.6552,-21.6552 -0.4419,-0.4419 -0.9576,0.9575 -0.5156,-0.5156 -24.5278,-24.5278 0.9575,-0.9575 -22.0971,-22.0972 -0.9576,0.9575 -25.0434,-25.0434 0.9575,-0.9575 -22.0971,-22.0972 -0.9576,0.9576 -25.0434,-25.0435 0.9575,-0.9575 -22.0971,-22.0972 -0.9576,0.9576 -25.0434,-25.0435 0.9576,-0.9575 -22.0972,-22.0972 -0.9575,0.9576 -25.0435,-25.0435 0.9576,-0.9575 -22.0972,-22.0971 -0.9575,0.9575 -25.0435,-25.0434 0.9576,-0.9576 -22.0972,-22.0971 -0.9575,0.9575 -25.0434,-25.0434 0.9575,-0.9576 -22.0972,-22.0971 -0.9575,0.9575 -25.0434,-25.0434 0.9575,-0.9576 -22.0971,-22.0971 -0.9576,0.9576 -25.0434,-25.0435 0.9575,-0.9575 -22.0971,-22.0972 -0.9576,0.9576 -25.0434,-25.0434 0.9575,-0.9576 -22.0971,-22.0971 -0.9576,0.9575 -25.0434,-25.0434 0.9575,-0.9576 -22.0971,-22.0971 -0.9575,0.9575 -25.0435,-25.0434 0.9576,-0.9576 -22.0972,-22.0971 -0.9575,0.9575 -25.0435,-25.0434 0.9576,-0.9576 -22.0972,-22.0971 z m -0.9575,45.1518 25.0434,25.0435 -25.0434,25.0434 -25.0435,-25.0434 25.0435,-25.0435 z m 47.1406,47.1406 25.0434,25.0435 -25.0434,25.0434 -25.0435,-25.0434 25.0435,-25.0435 z m 47.1406,47.1406 25.0434,25.0435 -25.0434,25.0434 -25.0435,-25.0434 25.0435,-25.0435 z m 47.1405,47.1406 25.0435,25.0434 -25.0435,25.0435 -25.0434,-25.0435 25.0434,-25.0434 z m 47.1406,47.1406 25.0435,25.0434 -25.0435,25.0434 -25.0434,-25.0434 25.0434,-25.0434 z m 47.1406,47.1405 25.0434,25.0435 -25.0434,25.0434 -25.0434,-25.0434 25.0434,-25.0435 z m 47.1406,47.1406 25.0434,25.0435 -25.0434,25.0434 -25.0434,-25.0434 25.0434,-25.0435 z m 47.1406,47.1406 25.0434,25.0434 -25.0434,25.0435 -25.0434,-25.0435 25.0434,-25.0434 z m 47.1406,47.1406 25.0434,25.0434 -25.0434,25.0435 -25.0435,-25.0435 25.0435,-25.0434 z m 47.1406,47.1406 25.0434,25.0434 -25.0434,25.0435 -25.0435,-25.0435 25.0435,-25.0434 z m 47.1405,47.1406 25.0435,25.0434 -25.0435,25.0434 -25.0434,-25.0434 25.0434,-25.0434 z m 47.1406,47.1406 25.0435,25.0434 -25.0435,25.0434 -25.0434,-25.0434 25.0434,-25.0434 z m 47.1406,47.1405 24.5279,24.5279 0.5156,0.5156 -25.0435,25.0434 -0.5156,-0.5156 -24.5278,-24.5278 25.0434,-25.0435 z m 47.5826,47.5826 0.5156,0.5156 24.5278,24.5278 -25.0434,25.0434 -24.5279,-24.5278 -0.5156,-0.5156 25.0435,-25.0434 z m 47.1405,47.1406 25.0435,25.0434 -25.0435,25.0434 -25.0434,-25.0434 25.0434,-25.0434 z m 47.1406,47.1405 25.0435,25.0435 -25.0435,25.0434 -25.0434,-25.0434 25.0434,-25.0435 z m 47.1406,47.1406 25.0435,25.0435 -25.0435,25.0434 -25.0434,-25.0434 25.0434,-25.0435 z m 47.1406,47.1406 25.0435,25.04346 -25.0435,25.04343 -25.0434,-25.04343 25.0434,-25.04346 z m 47.1406,47.14061 25.0435,25.04343 -25.0435,25.04344 -25.0434,-25.04344 25.0434,-25.04343 z m 47.1406,47.14058 25.0434,25.04344 -25.0434,25.04344 -25.0434,-25.04344 25.0434,-25.04344 z m 47.14065,47.14059 25.0434,25.04344 -25.0434,25.04344 -25.04345,-25.04344 25.04345,-25.04344 z m 47.1406,47.14059 25.0434,25.04344 -25.0434,25.04343 -25.0435,-25.04343 25.0435,-25.04344 z m 47.1406,47.14059 25.0434,25.04338 -25.0434,25.0435 -25.0435,-25.0435 25.0435,-25.04338 z m 47.14059,47.14058 25.0434,25.0434 -25.0434,25.0435 -25.04349,-25.0435 25.04349,-25.0434 z m 47.1405,47.1406 25.0435,25.0434 -25.0435,25.04354 -25.0434,-25.04354 25.0434,-25.0434 z m 47.1406,47.1406 25.04348,25.04344 -25.04348,25.0434 -25.0434,-25.0434 25.0434,-25.04344 z M -1974.7877,-1764.704 l 25.0434,25.0435 -25.0434,25.0434 -25.0434,-25.0434 25.0434,-25.0435 z m 47.1406,47.1406 25.0434,25.0435 -25.0434,25.0434 -25.0435,-25.0434 25.0435,-25.0435 z m 47.1406,47.1406 25.0434,25.0434 -25.0434,25.0435 -25.0435,-25.0435 25.0435,-25.0434 z m 47.1406,47.1406 25.0434,25.0434 -25.0434,25.0434 -25.0435,-25.0434 25.0435,-25.0434 z m 47.1405,47.1405 25.0435,25.0435 -25.0435,25.0434 -25.0434,-25.0434 25.0434,-25.0435 z m 47.1406,47.1406 25.0435,25.0435 -25.0435,25.0434 -25.0434,-25.0434 25.0434,-25.0435 z m 47.1406,47.1406 25.0434,25.0434 -25.0434,25.0435 -25.0434,-25.0435 25.0434,-25.0434 z m 47.1406,47.1406 25.0434,25.0434 -25.0434,25.0435 -25.0434,-25.0435 25.0434,-25.0434 z m 47.1406,47.1406 25.0434,25.0434 -25.0434,25.0435 -25.0434,-25.0435 25.0434,-25.0434 z m 47.1406,47.1406 25.0434,25.0434 -25.0434,25.0434 -25.0435,-25.0434 25.0435,-25.0434 z m 47.1406,47.1406 25.0434,25.0434 -25.0434,25.0434 -25.0435,-25.0434 25.0435,-25.0434 z m 47.1405,47.1405 25.0435,25.0435 -25.0435,25.0434 -25.0434,-25.0434 25.0434,-25.0435 z m 47.1406,47.1406 24.5279,24.5279 0.5156,0.5156 -25.0435,25.0434 -0.5156,-0.5156 -24.5278,-24.5278 25.0434,-25.0435 z m 47.5826,47.5826 0.5156,0.5156 24.5278,24.5278 -25.0434,25.0434 -24.5279,-24.5278 -0.5156,-0.5156 25.0435,-25.0434 z m 47.1406,47.1405 25.0434,25.0435 -25.0434,25.0434 -25.0435,-25.0434 25.0435,-25.0435 z m 47.1405,47.1406 25.0435,25.0435 -25.0435,25.0434 -25.0434,-25.0434 25.0434,-25.0435 z m 47.1406,47.1406 25.0435,25.04346 -25.0435,25.04343 -25.0434,-25.04343 25.0434,-25.04346 z m 47.1406,47.14061 25.0435,25.04343 -25.0435,25.04344 -25.0434,-25.04344 25.0434,-25.04343 z m 47.1406,47.14058 25.0435,25.04344 -25.0435,25.04344 -25.0434,-25.04344 25.0434,-25.04344 z m 47.1406,47.14059 25.0435,25.04344 -25.0435,25.04344 -25.0434,-25.04344 25.0434,-25.04344 z m 47.1406,47.14059 25.0434,25.04344 -25.0434,25.04343 -25.0434,-25.04343 25.0434,-25.04344 z m 47.14065,47.14059 25.0434,25.04338 -25.0434,25.0435 -25.04345,-25.0435 25.04345,-25.04338 z m 47.1406,47.14058 25.0434,25.0434 -25.0434,25.0435 -25.0435,-25.0435 25.0435,-25.0434 z m 47.1406,47.1406 25.0434,25.0434 -25.0434,25.04354 -25.0435,-25.04354 25.0435,-25.0434 z m 47.14059,47.1406 25.0434,25.04344 -25.0434,25.0434 -25.04349,-25.0434 25.04349,-25.04344 z m 47.1405,47.14064 25.0435,25.0434 -25.0435,25.0434 -25.0434,-25.0434 25.0434,-25.0434 z m -1226.09724,-1131.81608 25.0434,25.0435 -25.0434,25.0434 -25.0434,-25.0434 25.0434,-25.0435 z m 47.1406,47.1406 25.0434,25.0434 -25.0434,25.0435 -25.0434,-25.0435 25.0434,-25.0434 z m 47.1406,47.1406 25.0434,25.0434 -25.0434,25.0434 -25.0435,-25.0434 25.0435,-25.0434 z m 47.1406,47.1405 25.0434,25.0435 -25.0434,25.0434 -25.0435,-25.0434 25.0435,-25.0435 z m 47.1406,47.1406 25.0434,25.0435 -25.0434,25.0434 -25.0435,-25.0434 25.0435,-25.0435 z m 47.1405,47.1406 25.0435,25.0434 -25.0435,25.0435 -25.0434,-25.0435 25.0434,-25.0434 z m 47.1406,47.1406 25.0435,25.0434 -25.0435,25.0435 -25.0434,-25.0435 25.0434,-25.0434 z m 47.1406,47.1406 25.0434,25.0434 -25.0434,25.0435 -25.0434,-25.0435 25.0434,-25.0434 z m 47.1406,47.1406 25.0434,25.0434 -25.0434,25.0434 -25.0434,-25.0434 25.0434,-25.0434 z m 47.1406,47.1406 25.0434,25.0434 -25.0434,25.0434 -25.0434,-25.0434 25.0434,-25.0434 z m 47.1406,47.1405 25.0434,25.0435 -25.0434,25.0434 -25.0435,-25.0434 25.0435,-25.0435 z m 47.1406,47.1406 25.0434,25.0435 -25.0434,25.0434 -25.0435,-25.0434 25.0435,-25.0435 z m 47.1405,47.1406 24.5279,24.5279 0.5156,0.5156 -25.0435,25.0434 -0.5156,-0.5156 -24.5278,-24.5278 25.0434,-25.0435 z m 47.5826,47.5825 0.5156,0.5156 24.5278,24.5279 -25.0434,25.0434 -24.5279,-24.5278 -0.5156,-0.5156 25.0435,-25.0435 z m 47.1406,47.1406 25.0434,25.0435 -25.0434,25.0434 -25.0435,-25.0434 25.0435,-25.0435 z m 47.1406,47.1406 25.0434,25.04346 -25.0434,25.04343 -25.0435,-25.04343 25.0435,-25.04346 z m 47.1405,47.14061 25.0435,25.04343 -25.0435,25.04344 -25.0434,-25.04344 25.0434,-25.04343 z m 47.1406,47.14058 25.0435,25.04344 -25.0435,25.04344 -25.0434,-25.04344 25.0434,-25.04344 z m 47.1406,47.14059 25.0435,25.04344 -25.0435,25.04344 -25.0434,-25.04344 25.0434,-25.04344 z m 47.1406,47.14059 25.0435,25.04344 -25.0435,25.04343 -25.0434,-25.04343 25.0434,-25.04344 z m 47.1406,47.14059 25.0435,25.04338 -25.0435,25.0435 -25.0434,-25.0435 25.0434,-25.04338 z m 47.1406,47.14058 25.0434,25.0434 -25.0434,25.0435 -25.0434,-25.0435 25.0434,-25.0434 z m 47.14065,47.1406 25.0434,25.0434 -25.0434,25.04354 -25.04345,-25.04354 25.04345,-25.0434 z m 47.1406,47.1406 25.0434,25.04344 -25.0434,25.0434 -25.0435,-25.0434 25.0435,-25.04344 z m 47.1406,47.14064 25.0434,25.0434 -25.0434,25.0434 -25.0435,-25.0434 25.0435,-25.0434 z m 47.14059,47.1405 25.0434,25.0435 -25.0434,25.0434 -25.04349,-25.0434 25.04349,-25.0435 z m -1226.09734,-1131.81598 25.0435,25.0434 -25.0435,25.0435 -25.0434,-25.0435 25.0434,-25.0434 z m 47.1406,47.1406 25.0434,25.0434 -25.0434,25.0434 -25.0434,-25.0434 25.0434,-25.0434 z m 47.1406,47.1405 25.0434,25.0435 -25.0434,25.0434 -25.0434,-25.0434 25.0434,-25.0435 z m 47.1406,47.1406 25.0434,25.0435 -25.0434,25.0434 -25.0435,-25.0434 25.0435,-25.0435 z m 47.1406,47.1406 25.0434,25.0434 -25.0434,25.0435 -25.0435,-25.0435 25.0435,-25.0434 z m 47.1406,47.1406 25.0434,25.0434 -25.0434,25.0435 -25.0435,-25.0435 25.0435,-25.0434 z m 47.1405,47.1406 25.0435,25.0434 -25.0435,25.0435 -25.0434,-25.0435 25.0434,-25.0434 z m 47.1406,47.1406 25.0435,25.0434 -25.0435,25.0434 -25.0434,-25.0434 25.0434,-25.0434 z m 47.1406,47.1406 25.0434,25.0434 -25.0434,25.0434 -25.0434,-25.0434 25.0434,-25.0434 z m 47.1406,47.1405 25.0434,25.0435 -25.0434,25.0434 -25.0434,-25.0434 25.0434,-25.0435 z m 47.1406,47.1406 25.0434,25.0435 -25.0434,25.0434 -25.0434,-25.0434 25.0434,-25.0435 z m 47.1406,47.1406 25.0434,25.0435 -25.0434,25.0434 -25.0435,-25.0434 25.0435,-25.0435 z m 47.1406,47.1406 24.5278,24.5278 0.5156,0.5156 -25.0434,25.0435 -0.5156,-0.5156 -24.5279,-24.5279 25.0435,-25.0434 z m 47.5825,47.5825 0.5156,0.5156 24.5278,24.5279 -25.0434,25.0434 -24.5278,-24.5278 -0.5156,-0.5156 25.0434,-25.0435 z m 47.1406,47.1406 25.0434,25.04346 -25.0434,25.04343 -25.0435,-25.04343 25.0435,-25.04346 z m 47.1406,47.14061 25.0434,25.04343 -25.0434,25.04344 -25.0435,-25.04344 25.0435,-25.04343 z m 47.1406,47.14058 25.0434,25.04344 -25.0434,25.04344 -25.0435,-25.04344 25.0435,-25.04344 z m 47.1405,47.14059 25.0435,25.04344 -25.0435,25.04344 -25.0434,-25.04344 25.0434,-25.04344 z m 47.1406,47.14059 25.0435,25.04344 -25.0435,25.04343 -25.0434,-25.04343 25.0434,-25.04344 z m 47.1406,47.14059 25.0435,25.04338 -25.0435,25.0435 -25.0434,-25.0435 25.0434,-25.04338 z m 47.1406,47.14058 25.0435,25.0434 -25.0435,25.0435 -25.0434,-25.0435 25.0434,-25.0434 z m 47.1406,47.1406 25.0435,25.0434 -25.0435,25.04354 -25.0434,-25.04354 25.0434,-25.0434 z m 47.1406,47.1406 25.0434,25.04344 -25.0434,25.0434 -25.0434,-25.0434 25.0434,-25.04344 z m 47.14065,47.14064 25.0434,25.0434 -25.0434,25.0434 -25.04345,-25.0434 25.04345,-25.0434 z m 47.1406,47.1405 25.0434,25.0435 -25.0434,25.0434 -25.0435,-25.0434 25.0435,-25.0435 z m 47.1406,47.1406 25.0434,25.0435 -25.0434,25.0434 -25.0435,-25.0434 25.0435,-25.0435 z m -1226.09735,-1131.81598 25.0435,25.0434 -25.0435,25.0434 -25.0434,-25.0434 25.0434,-25.0434 z m 47.1406,47.1405 25.0435,25.0435 -25.0435,25.0434 -25.0434,-25.0434 25.0434,-25.0435 z m 47.1406,47.1406 25.0434,25.0435 -25.0434,25.0434 -25.0434,-25.0434 25.0434,-25.0435 z m 47.1406,47.1406 25.0434,25.0434 -25.0434,25.0435 -25.0434,-25.0435 25.0434,-25.0434 z m 47.1406,47.1406 25.0434,25.0434 -25.0434,25.0435 -25.0435,-25.0435 25.0435,-25.0434 z m 47.1406,47.1406 25.0434,25.0434 -25.0434,25.0435 -25.0435,-25.0435 25.0435,-25.0434 z m 47.1406,47.1406 25.0434,25.0434 -25.0434,25.0434 -25.0435,-25.0434 25.0435,-25.0434 z m 47.1405,47.1406 25.0435,25.0434 -25.0435,25.0434 -25.0434,-25.0434 25.0434,-25.0434 z m 47.1406,47.1405 25.0435,25.0435 -25.0435,25.0434 -25.0434,-25.0434 25.0434,-25.0435 z m 47.1406,47.1406 25.0434,25.0435 -25.0434,25.0434 -25.0434,-25.0434 25.0434,-25.0435 z m 47.1406,47.1406 25.0434,25.0435 -25.0434,25.0434 -25.0434,-25.0434 25.0434,-25.0435 z m 47.1406,47.1406 25.0434,25.0434 -25.0434,25.0435 -25.0434,-25.0435 25.0434,-25.0434 z m 47.1406,47.1406 24.5278,24.5278 0.5156,0.5156 -25.0434,25.0435 -0.5156,-0.5156 -24.5279,-24.5279 25.0435,-25.0434 z m 47.5825,47.5825 0.5156,0.5156 24.5278,24.52786 -25.0434,25.04343 -24.5278,-24.52783 -0.5156,-0.5156 25.0434,-25.04346 z m 47.1406,47.14061 25.0434,25.04343 -25.0434,25.04344 -25.0434,-25.04344 25.0434,-25.04343 z m 47.1406,47.14058 25.0434,25.04344 -25.0434,25.04344 -25.0435,-25.04344 25.0435,-25.04344 z m 47.1406,47.14059 25.0434,25.04344 -25.0434,25.04344 -25.0435,-25.04344 25.0435,-25.04344 z m 47.1406,47.14059 25.0434,25.04344 -25.0434,25.04343 -25.0435,-25.04343 25.0435,-25.04344 z m 47.1405,47.14059 25.0435,25.04338 -25.0435,25.0435 -25.0434,-25.0435 25.0434,-25.04338 z m 47.1406,47.14058 25.0435,25.0434 -25.0435,25.0435 -25.0434,-25.0435 25.0434,-25.0434 z m 47.1406,47.1406 25.0435,25.0434 -25.0435,25.04354 -25.0434,-25.04354 25.0434,-25.0434 z m 47.1406,47.1406 25.0435,25.04344 -25.0435,25.0434 -25.0434,-25.0434 25.0434,-25.04344 z m 47.1406,47.14064 25.0435,25.0434 -25.0435,25.0434 -25.0434,-25.0434 25.0434,-25.0434 z m 47.1406,47.1405 25.0434,25.0435 -25.0434,25.0434 -25.0434,-25.0434 25.0434,-25.0435 z m 47.14065,47.1406 25.0434,25.0435 -25.0434,25.0434 -25.04345,-25.0434 25.04345,-25.0435 z m 47.1406,47.1406 25.0434,25.0434 -25.0434,25.0435 -25.0435,-25.0435 25.0435,-25.0434 z m -1226.09735,-1131.81608 25.0435,25.0435 -25.0435,25.0434 -25.0434,-25.0434 25.0434,-25.0435 z m 47.1406,47.1406 25.0435,25.0435 -25.0435,25.0434 -25.0434,-25.0434 25.0434,-25.0435 z m 47.1406,47.1406 25.0435,25.0434 -25.0435,25.0435 -25.0434,-25.0435 25.0434,-25.0434 z m 47.1406,47.1406 25.0434,25.0434 -25.0434,25.0435 -25.0434,-25.0435 25.0434,-25.0434 z m 47.1406,47.1406 25.0434,25.0434 -25.0434,25.0435 -25.0434,-25.0435 25.0434,-25.0434 z m 47.1406,47.1406 25.0434,25.0434 -25.0434,25.0434 -25.0435,-25.0434 25.0435,-25.0434 z m 47.1406,47.1406 25.0434,25.0434 -25.0434,25.0434 -25.0435,-25.0434 25.0435,-25.0434 z m 47.1406,47.1405 25.0434,25.0435 -25.0434,25.0434 -25.0435,-25.0434 25.0435,-25.0435 z m 47.1405,47.1406 25.0435,25.0435 -25.0435,25.0434 -25.0434,-25.0434 25.0434,-25.0435 z m 47.1406,47.1406 25.0435,25.0435 -25.0435,25.0434 -25.0434,-25.0434 25.0434,-25.0435 z m 47.1406,47.1406 25.0434,25.0434 -25.0434,25.0435 -25.0434,-25.0435 25.0434,-25.0434 z m 47.1406,47.1406 25.0434,25.0434 -25.0434,25.0435 -25.0434,-25.0435 25.0434,-25.0434 z m 47.1406,47.1406 24.5278,24.52781 0.5156,0.5156 -25.0434,25.04344 -0.5156,-0.5156 -24.5278,-24.52784 25.0434,-25.04341 z m 47.5825,47.58251 0.5156,0.5156 24.5279,24.52783 -25.0435,25.04344 -24.5278,-24.52784 -0.5156,-0.5156 25.0434,-25.04343 z m 47.1406,47.14058 25.0434,25.04344 -25.0434,25.04344 -25.0434,-25.04344 25.0434,-25.04344 z m 47.1406,47.14059 25.0434,25.04344 -25.0434,25.04344 -25.0434,-25.04344 25.0434,-25.04344 z m 47.1406,47.14059 25.0434,25.04344 -25.0434,25.04343 -25.0435,-25.04343 25.0435,-25.04344 z m 47.1406,47.14059 25.0434,25.04338 -25.0434,25.0435 -25.0435,-25.0435 25.0435,-25.04338 z m 47.1406,47.14058 25.0434,25.0434 -25.0434,25.0435 -25.0435,-25.0435 25.0435,-25.0434 z m 47.1405,47.1406 25.0435,25.0434 -25.0435,25.04354 -25.0434,-25.04354 25.0434,-25.0434 z m 47.1406,47.1406 25.0435,25.04344 -25.0435,25.0434 -25.0434,-25.0434 25.0434,-25.04344 z m 47.1406,47.14064 25.0435,25.0434 -25.0435,25.0434 -25.0434,-25.0434 25.0434,-25.0434 z m 47.1406,47.1405 25.0435,25.0435 -25.0435,25.0434 -25.0434,-25.0434 25.0434,-25.0435 z m 47.1406,47.1406 25.0435,25.0435 -25.0435,25.0434 -25.0434,-25.0434 25.0434,-25.0435 z m 47.1406,47.1406 25.0434,25.0434 -25.0434,25.0435 -25.0434,-25.0435 25.0434,-25.0434 z m 47.14065,47.1406 25.0434,25.0434 -25.0434,25.0435 -25.04345,-25.0435 25.04345,-25.0434 z m -1226.09725,-1131.81608 25.0434,25.0435 -25.0434,25.0434 -25.0435,-25.0434 25.0435,-25.0435 z m 47.1405,47.1406 25.0435,25.0434 -25.0435,25.0435 -25.0434,-25.0435 25.0434,-25.0434 z m 47.1406,47.1406 25.0435,25.0434 -25.0435,25.0435 -25.0434,-25.0435 25.0434,-25.0434 z m 47.1406,47.1406 25.0435,25.0434 -25.0435,25.0435 -25.0434,-25.0435 25.0434,-25.0434 z m 47.1406,47.1406 25.0434,25.0434 -25.0434,25.0434 -25.0434,-25.0434 25.0434,-25.0434 z m 47.1406,47.1406 25.0434,25.0434 -25.0434,25.0434 -25.0434,-25.0434 25.0434,-25.0434 z m 47.1406,47.1405 25.0434,25.0435 -25.0434,25.0434 -25.0435,-25.0434 25.0435,-25.0435 z m 47.1406,47.1406 25.0434,25.0435 -25.0434,25.0434 -25.0435,-25.0434 25.0435,-25.0435 z m 47.1406,47.1406 25.0434,25.0435 -25.0434,25.0434 -25.0435,-25.0434 25.0435,-25.0435 z m 47.1405,47.1406 25.0435,25.0434 -25.0435,25.0435 -25.0434,-25.0435 25.0434,-25.0434 z m 47.1406,47.1406 25.0435,25.0434 -25.0435,25.0435 -25.0434,-25.0435 25.0434,-25.0434 z m 47.1406,47.1406 25.0434,25.04341 -25.0434,25.04344 -25.0434,-25.04344 25.0434,-25.04341 z m 47.1406,47.14056 24.5278,24.52784 0.5156,0.5156 -25.0434,25.04344 -0.5156,-0.5156 -24.5278,-24.52784 25.0434,-25.04344 z m 47.5825,47.58253 0.5156,0.5156 24.5279,24.52784 -25.0435,25.04344 -24.5278,-24.52784 -0.5156,-0.5156 25.0434,-25.04344 z m 47.1406,47.14059 25.0435,25.04344 -25.0435,25.04344 -25.0434,-25.04344 25.0434,-25.04344 z m 47.1406,47.14059 25.0434,25.04344 -25.0434,25.04343 -25.0434,-25.04343 25.0434,-25.04344 z m 47.1406,47.14059 25.0434,25.04338 -25.0434,25.0435 -25.0434,-25.0435 25.0434,-25.04338 z m 47.1406,47.14058 25.0434,25.0434 -25.0434,25.0435 -25.0435,-25.0435 25.0435,-25.0434 z m 47.1406,47.1406 25.0434,25.0434 -25.0434,25.04354 -25.0435,-25.04354 25.0435,-25.0434 z m 47.1406,47.1406 25.0434,25.04344 -25.0434,25.0434 -25.0435,-25.0434 25.0435,-25.04344 z m 47.1405,47.14064 25.0435,25.0434 -25.0435,25.0434 -25.0434,-25.0434 25.0434,-25.0434 z m 47.1406,47.1405 25.0435,25.0435 -25.0435,25.0434 -25.0434,-25.0434 25.0434,-25.0435 z m 47.1406,47.1406 25.0435,25.0435 -25.0435,25.0434 -25.0434,-25.0434 25.0434,-25.0435 z m 47.1406,47.1406 25.0435,25.0434 -25.0435,25.0435 -25.0434,-25.0435 25.0434,-25.0434 z m 47.1406,47.1406 25.0435,25.0434 -25.0435,25.0435 -25.0434,-25.0435 25.0434,-25.0434 z m 47.1406,47.1406 25.0434,25.0434 -25.0434,25.0435 -25.0434,-25.0435 25.0434,-25.0434 z m -1226.0972,-1131.81608 25.0434,25.0434 -25.0434,25.0435 -25.0435,-25.0435 25.0435,-25.0434 z m 47.1406,47.1406 25.0434,25.0434 -25.0434,25.0435 -25.0435,-25.0435 25.0435,-25.0434 z m 47.1405,47.1406 25.0435,25.0434 -25.0435,25.0435 -25.0434,-25.0435 25.0434,-25.0434 z m 47.1406,47.1406 25.0435,25.0434 -25.0435,25.0434 -25.0434,-25.0434 25.0434,-25.0434 z m 47.1406,47.1406 25.0435,25.0434 -25.0435,25.0434 -25.0434,-25.0434 25.0434,-25.0434 z m 47.1406,47.1405 25.0434,25.0435 -25.0434,25.0434 -25.0434,-25.0434 25.0434,-25.0435 z m 47.1406,47.1406 25.0434,25.0435 -25.0434,25.0434 -25.0434,-25.0434 25.0434,-25.0435 z m 47.1406,47.1406 25.0434,25.0435 -25.0434,25.0434 -25.0435,-25.0434 25.0435,-25.0435 z m 47.1406,47.1406 25.0434,25.0434 -25.0434,25.0435 -25.0435,-25.0435 25.0435,-25.0434 z m 47.1406,47.1406 25.0434,25.0434 -25.0434,25.0435 -25.0435,-25.0435 25.0435,-25.0434 z m 47.1405,47.1406 25.0435,25.04341 -25.0435,25.04344 -25.0434,-25.04344 25.0434,-25.04341 z m 47.1406,47.14056 25.0435,25.04344 -25.0435,25.04344 -25.0434,-25.04344 25.0434,-25.04344 z m 47.1406,47.14059 24.5278,24.52784 0.5156,0.5156 -25.0434,25.04344 -0.5156,-0.51561 -24.5278,-24.52783 25.0434,-25.04344 z m 47.5825,47.58253 0.5156,0.5156 24.5279,24.52784 -25.0435,25.04344 -24.5278,-24.52784 -0.5156,-0.5156 25.0434,-25.04344 z m 47.1406,47.14059 25.0435,25.04344 -25.0435,25.04343 -25.0434,-25.04343 25.0434,-25.04344 z m 47.1406,47.14059 25.0435,25.04338 -25.0435,25.0435 -25.0434,-25.0435 25.0434,-25.04338 z m 47.1406,47.14058 25.0434,25.0434 -25.0434,25.0435 -25.0434,-25.0435 25.0434,-25.0434 z m 47.1406,47.1406 25.0434,25.0434 -25.0434,25.04354 -25.0434,-25.04354 25.0434,-25.0434 z m 47.1406,47.1406 25.0434,25.04344 -25.0434,25.0434 -25.0435,-25.0434 25.0435,-25.04344 z m 47.1406,47.14064 25.0434,25.0434 -25.0434,25.0434 -25.0435,-25.0434 25.0435,-25.0434 z m 47.1406,47.1405 25.0434,25.0435 -25.0434,25.0434 -25.0435,-25.0434 25.0435,-25.0435 z m 47.1405,47.1406 25.0435,25.0435 -25.0435,25.0434 -25.0434,-25.0434 25.0434,-25.0435 z m 47.1406,47.1406 25.0435,25.0434 -25.0435,25.0435 -25.0434,-25.0435 25.0434,-25.0434 z m 47.1406,47.1406 25.0435,25.0434 -25.0435,25.0435 -25.0434,-25.0435 25.0434,-25.0434 z m 47.1406,47.1406 25.0435,25.0434 -25.0435,25.0435 -25.0434,-25.0435 25.0434,-25.0434 z m 47.1406,47.1406 25.0435,25.0434 -25.0435,25.0434 -25.0434,-25.0434 25.0434,-25.0434 z m -1226.0972,-1131.81608 25.0434,25.0434 -25.0434,25.0435 -25.0435,-25.0435 25.0435,-25.0434 z m 47.1406,47.1406 25.0434,25.0434 -25.0434,25.0435 -25.0435,-25.0435 25.0435,-25.0434 z m 47.1406,47.1406 25.0434,25.0434 -25.0434,25.0434 -25.0435,-25.0434 25.0435,-25.0434 z m 47.1405,47.1406 25.0435,25.0434 -25.0435,25.0434 -25.0434,-25.0434 25.0434,-25.0434 z m 47.1406,47.1405 25.0435,25.0435 -25.0435,25.0434 -25.0434,-25.0434 25.0434,-25.0435 z m 47.1406,47.1406 25.0435,25.0435 -25.0435,25.0434 -25.0434,-25.0434 25.0434,-25.0435 z m 47.1406,47.1406 25.0434,25.0435 -25.0434,25.0434 -25.0434,-25.0434 25.0434,-25.0435 z m 47.1406,47.1406 25.0434,25.0434 -25.0434,25.0435 -25.0434,-25.0435 25.0434,-25.0434 z m 47.1406,47.1406 25.0434,25.0434 -25.0434,25.0435 -25.0435,-25.0435 25.0435,-25.0434 z m 47.1406,47.1406 25.0434,25.04341 -25.0434,25.04344 -25.0435,-25.04344 25.0435,-25.04341 z m 47.1406,47.14056 25.0434,25.04344 -25.0434,25.04344 -25.0435,-25.04344 25.0435,-25.04344 z m 47.1405,47.14059 25.0435,25.04344 -25.0435,25.04344 -25.0434,-25.04344 25.0434,-25.04344 z m 47.1406,47.14059 24.5279,24.52784 0.5156,0.5156 -25.0435,25.04343 -0.5156,-0.5156 -24.5278,-24.52783 25.0434,-25.04344 z m 47.5826,47.58253 0.5156,0.5156 24.5278,24.52784 -25.0434,25.04343 -24.5279,-24.52783 -0.5156,-0.5156 25.0435,-25.04344 z m 47.1405,47.14059 25.0435,25.04338 -25.0435,25.0435 -25.0434,-25.0435 25.0434,-25.04338 z m 47.1406,47.14058 25.0435,25.0434 -25.0435,25.0435 -25.0434,-25.0435 25.0434,-25.0434 z m 47.1406,47.1406 25.0435,25.0434 -25.0435,25.04354 -25.0434,-25.04354 25.0434,-25.0434 z m 47.1406,47.1406 25.0434,25.04344 -25.0434,25.0434 -25.0434,-25.0434 25.0434,-25.04344 z m 47.1406,47.14064 25.0434,25.0434 -25.0434,25.0434 -25.0434,-25.0434 25.0434,-25.0434 z m 47.1406,47.1405 25.0434,25.0435 -25.0434,25.0434 -25.0435,-25.0434 25.0435,-25.0435 z m 47.1406,47.1406 25.0434,25.0435 -25.0434,25.0434 -25.0435,-25.0434 25.0435,-25.0435 z m 47.1406,47.1406 25.0434,25.0434 -25.0434,25.0435 -25.0435,-25.0435 25.0435,-25.0434 z m 47.1405,47.1406 25.0435,25.0434 -25.0435,25.0435 -25.0434,-25.0435 25.0434,-25.0434 z m 47.1406,47.1406 25.0435,25.0434 -25.0435,25.0435 -25.0434,-25.0435 25.0434,-25.0434 z m 47.1406,47.1406 25.0435,25.0434 -25.0435,25.0434 -25.0434,-25.0434 25.0434,-25.0434 z m 47.1406,47.1406 25.0435,25.0434 -25.0435,25.0434 -25.0434,-25.0434 25.0434,-25.0434 z m -1226.0972,-1131.81608 25.0434,25.0434 -25.0434,25.0435 -25.0434,-25.0435 25.0434,-25.0434 z m 47.1406,47.1406 25.0434,25.0434 -25.0434,25.0434 -25.0435,-25.0434 25.0435,-25.0434 z m 47.1406,47.1406 25.0434,25.0434 -25.0434,25.0434 -25.0435,-25.0434 25.0435,-25.0434 z m 47.1406,47.1405 25.0434,25.0435 -25.0434,25.0434 -25.0435,-25.0434 25.0435,-25.0435 z m 47.1405,47.1406 25.0435,25.0435 -25.0435,25.0434 -25.0434,-25.0434 25.0434,-25.0435 z m 47.1406,47.1406 25.0435,25.0435 -25.0435,25.0434 -25.0434,-25.0434 25.0434,-25.0435 z m 47.1406,47.1406 25.0435,25.0434 -25.0435,25.0435 -25.0434,-25.0435 25.0434,-25.0434 z m 47.1406,47.1406 25.0434,25.0434 -25.0434,25.0435 -25.0434,-25.0435 25.0434,-25.0434 z m 47.1406,47.1406 25.0434,25.04341 -25.0434,25.04344 -25.0434,-25.04344 25.0434,-25.04341 z m 47.1406,47.14056 25.0434,25.04344 -25.0434,25.04344 -25.0435,-25.04344 25.0435,-25.04344 z m 47.1406,47.14059 25.0434,25.04344 -25.0434,25.04344 -25.0435,-25.04344 25.0435,-25.04344 z m 47.1406,47.14059 25.0434,25.04344 -25.0434,25.04343 -25.0435,-25.04343 25.0435,-25.04344 z m 47.1405,47.14059 24.5279,24.52783 0.5156,0.5156 -25.0435,25.04344 -0.5156,-0.5156 -24.5278,-24.52784 25.0434,-25.04343 z m 47.5826,47.58253 0.5156,0.5156 24.5278,24.52778 -25.0434,25.0435 -24.5279,-24.5279 -0.5156,-0.5156 25.0435,-25.04338 z m 47.1406,47.14058 25.0434,25.0434 -25.0434,25.0435 -25.0435,-25.0435 25.0435,-25.0434 z m 47.1405,47.1406 25.0435,25.0434 -25.0435,25.04354 -25.0434,-25.04354 25.0434,-25.0434 z m 47.1406,47.1406 25.0435,25.04344 -25.0435,25.0434 -25.0434,-25.0434 25.0434,-25.04344 z m 47.1406,47.14064 25.0435,25.0434 -25.0435,25.0434 -25.0434,-25.0434 25.0434,-25.0434 z m 47.1406,47.1405 25.0434,25.0435 -25.0434,25.0434 -25.0434,-25.0434 25.0434,-25.0435 z m 47.1406,47.1406 25.0434,25.0435 -25.0434,25.0434 -25.0434,-25.0434 25.0434,-25.0435 z m 47.1406,47.1406 25.0434,25.0434 -25.0434,25.0435 -25.0435,-25.0435 25.0435,-25.0434 z m 47.1406,47.1406 25.0434,25.0434 -25.0434,25.0435 -25.0435,-25.0435 25.0435,-25.0434 z m 47.1406,47.1406 25.0434,25.0434 -25.0434,25.0435 -25.0435,-25.0435 25.0435,-25.0434 z m 47.1405,47.1406 25.0435,25.0434 -25.0435,25.0434 -25.0434,-25.0434 25.0434,-25.0434 z m 47.1406,47.1406 25.0435,25.0434 -25.0435,25.0434 -25.0434,-25.0434 25.0434,-25.0434 z m 47.1406,47.1405 25.0435,25.0435 -25.0435,25.0434 -25.0434,-25.0434 25.0434,-25.0435 z m -1226.0972,-1131.81598 25.0434,25.0434 -25.0434,25.0434 -25.0434,-25.0434 25.0434,-25.0434 z m 47.1406,47.1406 25.0434,25.0434 -25.0434,25.0434 -25.0434,-25.0434 25.0434,-25.0434 z m 47.1406,47.1405 25.0434,25.0435 -25.0434,25.0434 -25.0435,-25.0434 25.0435,-25.0435 z m 47.1406,47.1406 25.0434,25.0435 -25.0434,25.0434 -25.0435,-25.0434 25.0435,-25.0435 z m 47.1406,47.1406 25.0434,25.0435 -25.0434,25.0434 -25.0435,-25.0434 25.0435,-25.0435 z m 47.1405,47.1406 25.0435,25.0434 -25.0435,25.0435 -25.0434,-25.0435 25.0434,-25.0434 z m 47.1406,47.1406 25.0435,25.0434 -25.0435,25.0435 -25.0434,-25.0435 25.0434,-25.0434 z m 47.1406,47.1406 25.0435,25.04341 -25.0435,25.04344 -25.0434,-25.04344 25.0434,-25.04341 z m 47.1406,47.14056 25.0434,25.04344 -25.0434,25.04344 -25.0434,-25.04344 25.0434,-25.04344 z m 47.1406,47.14059 25.0434,25.04344 -25.0434,25.04344 -25.0434,-25.04344 25.0434,-25.04344 z m 47.1406,47.14059 25.0434,25.04344 -25.0434,25.04343 -25.0435,-25.04343 25.0435,-25.04344 z m 47.1406,47.14059 25.0434,25.04343 -25.0434,25.04344 -25.0435,-25.04344 25.0435,-25.04343 z m 47.1406,47.14058 24.5278,24.52783 0.5156,0.5156 -25.0434,25.0434 -0.5156,-0.5156 -24.5279,-24.5278 25.0435,-25.04343 z m 47.5825,47.58253 0.5156,0.5156 24.5278,24.5278 -25.0434,25.0435 -24.5279,-24.5279 -0.5156,-0.5156 25.0435,-25.0434 z m 47.1406,47.1406 25.0434,25.0434 -25.0434,25.04354 -25.0435,-25.04354 25.0435,-25.0434 z m 47.1406,47.1406 25.0434,25.04344 -25.0434,25.0434 -25.0435,-25.0434 25.0435,-25.04344 z m 47.1405,47.14064 25.0435,25.0434 -25.0435,25.0434 -25.0434,-25.0434 25.0434,-25.0434 z m 47.1406,47.1405 25.0435,25.0435 -25.0435,25.0434 -25.0434,-25.0434 25.0434,-25.0435 z m 47.1406,47.1406 25.0435,25.0435 -25.0435,25.0434 -25.0434,-25.0434 25.0434,-25.0435 z m 47.1406,47.1406 25.0434,25.0434 -25.0434,25.0435 -25.0434,-25.0435 25.0434,-25.0434 z m 47.1406,47.1406 25.0434,25.0434 -25.0434,25.0435 -25.0434,-25.0435 25.0434,-25.0434 z m 47.1406,47.1406 25.0434,25.0434 -25.0434,25.0435 -25.0435,-25.0435 25.0435,-25.0434 z m 47.1406,47.1406 25.0434,25.0434 -25.0434,25.0434 -25.0435,-25.0434 25.0435,-25.0434 z m 47.1406,47.1406 25.0434,25.0434 -25.0434,25.0434 -25.0435,-25.0434 25.0435,-25.0434 z m 47.1405,47.1405 25.0435,25.0435 -25.0435,25.0434 -25.0434,-25.0434 25.0434,-25.0435 z m 47.1406,47.1406 25.0435,25.0435 -25.0435,25.0434 -25.0434,-25.0434 25.0434,-25.0435 z m -1226.0972,-1131.81598 25.0435,25.0434 -25.0435,25.0434 -25.0434,-25.0434 25.0434,-25.0434 z m 47.1406,47.1405 25.0434,25.0435 -25.0434,25.0434 -25.0434,-25.0434 25.0434,-25.0435 z m 47.1406,47.1406 25.0434,25.0435 -25.0434,25.0434 -25.0434,-25.0434 25.0434,-25.0435 z m 47.1406,47.1406 25.0434,25.0435 -25.0434,25.0434 -25.0435,-25.0434 25.0435,-25.0435 z m 47.1406,47.1406 25.0434,25.0434 -25.0434,25.0435 -25.0435,-25.0435 25.0435,-25.0434 z m 47.1406,47.1406 25.0434,25.0434 -25.0434,25.0435 -25.0435,-25.0435 25.0435,-25.0434 z m 47.1405,47.1406 25.0435,25.04341 -25.0435,25.04344 -25.0434,-25.04344 25.0434,-25.04341 z m 47.1406,47.14056 25.0435,25.04344 -25.0435,25.04344 -25.0434,-25.04344 25.0434,-25.04344 z m 47.1406,47.14059 25.0435,25.04344 -25.0435,25.04344 -25.0434,-25.04344 25.0434,-25.04344 z m 47.1406,47.14059 25.0434,25.04344 -25.0434,25.04343 -25.0434,-25.04343 25.0434,-25.04344 z m 47.1406,47.14059 25.0434,25.04343 -25.0434,25.04344 -25.0434,-25.04344 25.0434,-25.04343 z m 47.1406,47.14058 25.0434,25.04343 -25.0434,25.0434 -25.0435,-25.0434 25.0435,-25.04343 z m 47.1406,47.14053 24.5278,24.5279 0.5156,0.5156 -25.0434,25.0434 -0.5156,-0.5156 -24.5279,-24.5278 25.0435,-25.0435 z m 47.5825,47.5826 0.5156,0.5156 24.5278,24.5278 -25.0434,25.04354 -24.5278,-24.52794 -0.5156,-0.5156 25.0434,-25.0434 z m 47.1406,47.1406 25.0434,25.04344 -25.0434,25.0434 -25.0435,-25.0434 25.0435,-25.04344 z m 47.1406,47.14064 25.0434,25.0434 -25.0434,25.0434 -25.0435,-25.0434 25.0435,-25.0434 z m 47.1406,47.1405 25.0434,25.0435 -25.0434,25.0434 -25.0435,-25.0434 25.0435,-25.0435 z m 47.1405,47.1406 25.0435,25.0435 -25.0435,25.0434 -25.0434,-25.0434 25.0434,-25.0435 z m 47.1406,47.1406 25.0435,25.0434 -25.0435,25.0435 -25.0434,-25.0435 25.0434,-25.0434 z m 47.1406,47.1406 25.0435,25.0434 -25.0435,25.0435 -25.0434,-25.0435 25.0434,-25.0434 z m 47.1406,47.1406 25.0434,25.0434 -25.0434,25.0435 -25.0434,-25.0435 25.0434,-25.0434 z m 47.1406,47.1406 25.0434,25.0434 -25.0434,25.0434 -25.0434,-25.0434 25.0434,-25.0434 z m 47.1406,47.1406 25.0434,25.0434 -25.0434,25.0434 -25.0435,-25.0434 25.0435,-25.0434 z m 47.1406,47.1405 25.0434,25.0435 -25.0434,25.0434 -25.0435,-25.0434 25.0435,-25.0435 z m 47.1406,47.1406 25.0434,25.0435 -25.0434,25.0434 -25.0435,-25.0434 25.0435,-25.0435 z m 47.1405,47.1406 25.0435,25.043504 -25.0435,25.0434 -25.0434,-25.0434 25.0434,-25.043504 z m -1226.0972,-1131.81608 25.0435,25.0435 -25.0435,25.0434 -25.0434,-25.0434 25.0434,-25.0435 z m 47.1406,47.1406 25.0435,25.0435 -25.0435,25.0434 -25.0434,-25.0434 25.0434,-25.0435 z m 47.1406,47.1406 25.0434,25.0435 -25.0434,25.0434 -25.0434,-25.0434 25.0434,-25.0435 z m 47.1406,47.1406 25.0434,25.0434 -25.0434,25.0435 -25.0434,-25.0435 25.0434,-25.0434 z m 47.1406,47.1406 25.0434,25.0434 -25.0434,25.0435 -25.0435,-25.0435 25.0435,-25.0434 z m 47.1406,47.1406 25.0434,25.04341 -25.0434,25.04344 -25.0435,-25.04344 25.0435,-25.04341 z m 47.1406,47.14056 25.0434,25.04344 -25.0434,25.04344 -25.0435,-25.04344 25.0435,-25.04344 z m 47.1405,47.14059 25.0435,25.04344 -25.0435,25.04344 -25.0434,-25.04344 25.0434,-25.04344 z m 47.1406,47.14059 25.0435,25.04344 -25.0435,25.04343 -25.0434,-25.04343 25.0434,-25.04344 z m 47.1406,47.14059 25.0435,25.04343 -25.0435,25.04344 -25.0434,-25.04344 25.0434,-25.04343 z m 47.1406,47.14058 25.0434,25.04343 -25.0434,25.0434 -25.0434,-25.0434 25.0434,-25.04343 z m 47.1406,47.14053 25.0434,25.0435 -25.0434,25.0434 -25.0434,-25.0434 25.0434,-25.0435 z m 47.1406,47.1406 24.5278,24.5279 0.5156,0.5156 -25.0434,25.04344 -0.5156,-0.51564 -24.5279,-24.5278 25.0435,-25.0435 z m 47.5825,47.5826 0.5156,0.5156 24.5278,24.52784 -25.0434,25.0434 -24.5278,-24.5278 -0.5156,-0.5156 25.0434,-25.04344 z m 47.1406,47.14064 25.0434,25.0434 -25.0434,25.0434 -25.0434,-25.0434 25.0434,-25.0434 z m 47.1406,47.1405 25.0434,25.0435 -25.0434,25.0434 -25.0435,-25.0434 25.0435,-25.0435 z m 47.1406,47.1406 25.0434,25.0435 -25.0434,25.0434 -25.0435,-25.0434 25.0435,-25.0435 z m 47.1406,47.1406 25.0434,25.0434 -25.0434,25.0435 -25.0435,-25.0435 25.0435,-25.0434 z m 47.1405,47.1406 25.0435,25.0434 -25.0435,25.0435 -25.0434,-25.0435 25.0434,-25.0434 z m 47.1406,47.1406 25.0435,25.0434 -25.0435,25.0435 -25.0434,-25.0435 25.0434,-25.0434 z m 47.1406,47.1406 25.0435,25.0434 -25.0435,25.0434 -25.0434,-25.0434 25.0434,-25.0434 z m 47.1406,47.1406 25.0434,25.0434 -25.0434,25.0434 -25.0434,-25.0434 25.0434,-25.0434 z m 47.1406,47.1405 25.0434,25.0435 -25.0434,25.0434 -25.0434,-25.0434 25.0434,-25.0435 z m 47.1406,47.1406 25.0434,25.0435 -25.0434,25.0434 -25.0435,-25.0434 25.0435,-25.0435 z m 47.1406,47.1406 25.0434,25.043504 -25.0434,25.0434 -25.0435,-25.0434 25.0435,-25.043504 z m 47.1406,47.140604 25.0434,25.0434 -25.0434,25.0435 -25.0435,-25.0435 25.0435,-25.0434 z"
     id="rect5589"
     inkscape:connector-curvature="0" />
  <path
     style="fill:#00ff00;fill-opacity:1;stroke:none"
     d="m -2098.1905,403.68708 0,885.84382 177.1875,0 0,-354.28132 236.25,0 0,354.28132 118.125,0 59.0625,0 0,-401.48192 -71.2923,0 0,-82.7863 71.2923,0 0,-224.3881 -177.1875,0 0,177.1875 -236.25,0 0,-59.0625 -59.0625,0 0,-295.3125 z"
     id="path5071"
     inkscape:connector-curvature="0"
     sodipodi:nodetypes="cccccccccccccccccccc" />
</svg>
