<?xml version="1.0" encoding="UTF-8" standalone="no"?>
<svg
   xmlns:dc="http://purl.org/dc/elements/1.1/"
   xmlns:cc="http://creativecommons.org/ns#"
   xmlns:rdf="http://www.w3.org/1999/02/22-rdf-syntax-ns#"
   xmlns:svg="http://www.w3.org/2000/svg"
   xmlns="http://www.w3.org/2000/svg"
   xmlns:sodipodi="http://sodipodi.sourceforge.net/DTD/sodipodi-0.dtd"
   xmlns:inkscape="http://www.inkscape.org/namespaces/inkscape"
   width="277.34375"
   height="613.34375"
   viewBox="0 0 924.47878 2044.485"
   id="svg3004"
   version="1.1"
   inkscape:version="0.48.4 r9939"
   sodipodi:docname="dual_channel.svg">
  <sodipodi:namedview
     pagecolor="#ffffff"
     bordercolor="#666666"
     borderopacity="1"
     objecttolerance="10"
     gridtolerance="10"
     guidetolerance="10"
     inkscape:pageopacity="0"
     inkscape:pageshadow="2"
     inkscape:window-width="1276"
     inkscape:window-height="1391"
     id="namedview3010"
     showgrid="false"
     inkscape:zoom="1.1326524"
     inkscape:cx="202.8125"
     inkscape:cy="284.84052"
     inkscape:window-x="1280"
     inkscape:window-y="22"
     inkscape:window-maximized="0"
     inkscape:current-layer="svg3004"
     fit-margin-top="0"
     fit-margin-left="0"
     fit-margin-right="0"
     fit-margin-bottom="0"
     showguides="true"
     inkscape:guide-bbox="true" />
  <metadata
     id="metadata3014">
    <rdf:RDF>
      <cc:Work
         rdf:about="">
        <dc:format>image/svg+xml</dc:format>
        <dc:type
           rdf:resource="http://purl.org/dc/dcmitype/StillImage" />
        <dc:title></dc:title>
      </cc:Work>
    </rdf:RDF>
  </metadata>
  <defs
     id="defs3012" />
  <path
     id="path4314"
     d="m 261.6659,86.250245 -117.6045,117.604505 0,283.1258 143.85458,-143.85458 0,-244.063189 c -0.01,-3.370139 -1.35731,-6.689135 -3.75001,-9.062525 -2.3926,-2.37338 -5.7966,-3.771571 -9.16669,-3.750011 z M 590.31267,276.77162 c -3.35271,0.006 -6.69182,1.37926 -9.06252,3.75001 -2.37081,2.37075 -3.74422,5.70978 -3.75002,9.06253 l 0,163.95879 176.77134,-176.77133 z m 190.10471,90.72942 -289.27166,289.27166 86.35441,0 0,196.77139 202.91725,-202.91724 0,-53.85432 c -0.01,-3.37014 -1.35731,-6.68915 -3.75001,-9.06253 -2.39261,-2.37337 -5.79659,-3.77157 -9.1667,-3.75001 l -58.43766,0 0,-57.18766 58.43766,0 c 0.84254,0.007 1.66958,-0.0433 2.50001,-0.20833 2.49127,-0.49564 4.87221,-1.76164 6.66669,-3.54168 2.3927,-2.37337 3.74431,-5.69238 3.75001,-9.06253 z m -434.68874,34.6876 -201.66724,201.66724 0,283.12581 202.91725,-202.91725 0,-27.29174 27.29174,0 202.81308,-202.81308 -230.10482,0 0,-46.25013 c -0.003,-0.9592 -0.103,-1.88714 -0.31234,-2.81251 -0.19233,-0.8508 -0.47167,-1.70327 -0.83333,-2.5 -0.0333,-0.0703 -0.071,-0.13867 -0.104,-0.20834 z m 434.68874,365.31354 -202.91725,202.91724 0,41.14598 c 0.01,3.3528 1.37921,6.6918 3.75002,9.0625 2.3707,2.3708 5.70981,3.7442 9.06252,3.75 l 118.12534,0 59.06266,0 c 3.37011,0.023 6.77409,-1.3766 9.1667,-3.75 2.3927,-2.3733 3.74431,-5.6923 3.75001,-9.0625 z M 346.97865,800.93977 144.0614,1003.857 l 0,7.7084 c 0.01,3.3528 1.37921,6.6918 3.75001,9.0625 2.3707,2.3708 5.70983,3.7442 9.06253,3.75 l 177.188,0 c 3.37011,0.023 6.77409,-1.3766 9.1667,-3.75 2.3927,-2.3733 3.74431,-5.6923 3.75001,-9.0625 z M 216.04077,1140.0032 c -3.19119,0 -6.38935,1.2852 -8.64585,3.5417 -2.2566,2.2566 -3.54368,5.4546 -3.54168,8.6459 l 0,75.0002 87.18775,-87.1878 z m 191.87555,0 -204.06308,204.0631 0,150.2088 -46.87513,0 c -3.1912,0 -6.38926,1.2851 -8.64586,3.5417 -2.2565,2.2566 -3.54368,5.4546 -3.54168,8.6458 l 0,46.8751 -46.875131,0 c -3.191199,0 -6.389358,1.2851 -8.645858,3.5417 -2.2566,2.2565 -3.543677,5.4547 -3.541677,8.6459 l 0,179.7922 323.438416,-323.4385 -52.81265,0 1.56251,-128.7503 182.91718,-1.5625 150.20876,-151.563 z m 312.81339,87.1878 -152.50044,152.5004 0,42.1876 -42.18762,0 -159.18588,159.9148 -2.59197,9.4673 265.00075,-0.625 -1.97261,13.1185 109.47948,-109.4795 -16.04171,0 0,-46.8752 z m 73.85437,326.1467 -167.29214,167.2922 0,55.6251 -55.62516,0 -169.16714,169.1672 -3.54168,7.3958 145.83375,1.4584 133.33371,-0.7292 7.50002,-8.125 153.12544,-153.1254 0,-226.7715 c 0,-3.1912 -1.28507,-6.3894 -3.54168,-8.6459 -2.25651,-2.2566 -5.45465,-3.5437 -8.64586,-3.5417 z m -497.39724,97.3962 -211.458936,211.4589 0,71.0419 3.541677,8.6458 3.854178,7.6042 42.187621,2.9167 53.54182,-1.0417 90.31275,-0.8333 6.45836,-5.1042 169.16714,-169.1672 -157.60461,0 z"
     style="fill:#00ffff;fill-opacity:1;stroke:none"
     inkscape:connector-curvature="0"
     sodipodi:nodetypes="ccccccccccccccccccccccccccccccccccccccscccccccccccccscccccccsccccscccscccscccccccccccccccccccccccccccccccscccccccccccccccc" />
  <path
     id="path3102"
     d="m 156.97811,0 c -9.3696,0.00200001 -10.61646,0.23600064 -19.37506,1.9791723 -8.9641,1.7841701 -10.11132,2.132036 -18.54172,5.625016 -8.3567,3.4618097 -9.46138,4.0731127 -17.08338,9.1666927 -7.528004,5.02945 -8.56051,5.747182 -15.104209,12.291702 -6.542999,6.542488 -7.263691,7.475681 -12.291702,15.000042 -5.092301,7.620848 -5.703992,8.724792 -9.166692,17.083382 -3.496,8.436521 -3.841328,9.580161 -5.625016,18.541719 -1.742012,8.754092 -1.873706,10.003765 -1.875006,19.375055 l 0,912.502619 c 0,9.3753 0.136701,10.6293 1.875006,19.375 1.783988,8.9634 2.132316,10.1116 5.625016,18.5417 3.4637,8.362 4.074391,9.4629 9.166692,17.0834 5.028411,7.525 5.751703,8.4599 12.291702,15.0001 6.544999,6.5459 7.580205,7.2643 15.104209,12.2917 7.622,5.0933 8.72798,5.7052 17.08338,9.1667 4.9312,2.0433 7.4482,2.9423 10.4167,3.75 -1.5531,2.9235 -3.01368,5.8877 -3.85418,7.9167 -1.8253,4.406 -4.69423,13.7601 -5.62501,18.4375 -0.93069,4.6774 -1.87471,14.2934 -1.87501,19.0626 l 0,118.1253 0,146.6671 c -4.9637,2.2049 -10.03104,4.6259 -13.12504,6.5625 -5.062392,3.1688 -14.402718,10.7986 -18.541717,15.1042 -4.138998,4.3056 -11.408342,14.0874 -14.375041,19.2709 -2.115699,3.6967 -4.847487,10.0695 -6.979186,15.7292 -7.672599,3.0034 -17.304029,7.7469 -22.29173,11.1459 -6.501599,4.4299 -18.164032,15.3986 -22.916732,21.6667 -4.753999,6.2681 -12.1762404,20.462 -14.6875416,27.9168 -2.5113,7.4544 -5.19934809,23.2795 -5.20834809,31.1459 l 0,381.0427 c 3e-4,4.7691 0.94430528,14.385 1.87500529,19.0626 0.9306,4.6774 3.7996162,14.0314 5.625016,18.4375 1.8252999,4.406 6.4118264,12.9098 9.0625254,16.8751 2.6496,3.9653 8.815235,11.5235 12.187535,14.8959 3.3724,3.3722 10.826407,9.4334 14.791709,12.0833 3.965401,2.6497 12.469048,7.2372 16.875048,9.0626 4.405999,1.8253 13.760152,4.6943 18.437552,5.625 4.6787,0.9307 14.293554,1.8746 19.062554,1.875 l 728.647901,0 c 4.76912,-4e-4 14.38514,-0.9443 19.06256,-1.875 4.67751,-0.9307 14.03154,-3.7997 18.43755,-5.625 4.40611,-1.8254 12.90973,-6.4129 16.87505,-9.0626 3.96531,-2.6499 11.52366,-8.7111 14.89587,-12.0833 3.37231,-3.3724 9.43366,-10.9306 12.08337,-14.8959 2.64971,-3.9654 7.23722,-12.4691 9.06253,-16.8751 1.8253,-4.4061 4.69431,-13.7601 5.62501,-18.4375 0.9307,-4.6776 1.87461,-14.2935 1.87501,-19.0626 l 0,-381.0427 c 0,-7.8781 -2.59138,-23.6796 -5.10418,-31.1459 -2.51291,-7.4666 -10.0305,-21.6402 -14.79171,-27.9168 -4.76112,-6.2766 -16.40375,-17.4426 -22.91674,-21.8751 -4.99741,-3.4009 -14.7088,-8.0414 -22.39589,-11.0416 -2.13111,-5.6394 -4.76252,-11.9407 -6.87502,-15.6251 -2.96021,-5.1625 -10.25113,-14.8762 -14.37504,-19.1667 -4.12391,-4.2905 -13.50041,-11.942 -18.54172,-15.1042 -3.07511,-1.9289 -8.08596,-4.3607 -13.02087,-6.5625 l 0,-264.8966 c -4e-4,-4.7692 -0.9442,-14.3852 -1.87501,-19.0626 -0.9307,-4.6774 -3.79981,-14.0315 -5.62501,-18.4375 -0.84051,-2.029 -2.30108,-4.9932 -3.85418,-7.9167 2.92671,-0.8026 5.43271,-1.7282 10.31253,-3.75 8.35649,-3.4622 9.46469,-4.0763 17.08338,-9.1667 7.52439,-5.0283 8.56192,-5.7489 15.10421,-12.2917 6.54299,-6.5426 7.26419,-7.4765 12.2917,-15.0001 5.09302,-7.6213 5.70358,-8.7233 9.16669,-17.0834 3.49631,-8.4368 3.84161,-9.5814 5.62502,-18.5417 1.7406,-8.7486 1.87351,-10.0014 1.87501,-19.375 l 0,-414.79287 0,-82.81274 0,-224.37563 c 0,-9.37246 -0.13334,-10.62234 -1.87501,-19.37506 -1.78411,-8.96379 -2.13131,-10.10973 -5.62502,-18.54172 -3.46421,-8.36376 -4.07547,-9.4644 -9.16669,-17.08338 -5.02801,-7.52429 -5.74871,-8.45749 -12.2917,-15.00004 -6.54109,-6.54132 -7.57572,-7.26135 -15.10421,-12.2917 -7.62219,-5.09361 -8.72749,-5.70489 -17.08338,-9.1667 -8.43089,-3.49298 -9.57773,-3.84084 -18.54172,-5.62501 -8.75819,-1.7432 -10.00506,-1.97768 -19.37506,-1.97918 l -177.188,0 c -9.36959,0.002 -10.5122,0.23601 -19.27089,1.97918 -8.96409,1.78421 -10.11073,2.13206 -18.54172,5.62501 -8.35749,3.46254 -9.46569,4.07686 -17.08338,9.1667 -7.52579,5.02918 -8.56652,5.75438 -15.10421,12.2917 -6.53758,6.53799 -7.26209,7.47341 -12.2917,15.00004 -5.09441,7.62368 -5.70658,8.73395 -9.16669,17.08338 -3.48881,8.42286 -3.83961,9.57023 -5.62502,18.54172 -1.7432,8.75822 -1.8737,10.00487 -1.875,19.37506 l 0,78.12522 -66.66686,0 c -2.54721,-6.03705 -3.73188,-8.26996 -8.22919,-15.00004 -5.02961,-7.52663 -5.75412,-8.46206 -12.2917,-15.00005 -6.53759,-6.53735 -7.57842,-7.26255 -15.10421,-12.2917 -6.72479,-4.49325 -8.95786,-5.67982 -15.00004,-8.22919 l 0,-218.125619 c 0,-9.37456 -0.13434,-10.627463 -1.87501,-19.375055 -1.7841,-8.963788 -2.1313,-10.109728 -5.62501,-18.541719 -3.46421,-8.36376 -4.07548,-9.464394 -9.1667,-17.083382 -5.02801,-7.524291 -5.74871,-8.457484 -12.2917,-15.000042 -6.54208,-6.54242 -7.57832,-7.262782 -15.10421,-12.291702 -7.62221,-5.09358 -8.72748,-5.704883 -17.08338,-9.1666927 -8.4309,-3.49298 -9.57762,-3.8408459 -18.54172,-5.625016 C 285.61613,0.2359723 284.47344,0.0015 275.10344,0 z m -0.10417,99.062781 118.12534,0 0,308.646709 59.06266,0 0,59.06267 256.25073,0 0,-177.188 177.188,0 0,224.37563 -71.2502,0 0,82.81274 71.2502,0 0,414.79287 -59.06266,0 -118.12534,0 0,-367.60524 -256.25073,0 0,367.60524 -177.188,0 z m 233.22983,600.939209 144.27124,0 0,311.56341 c 3e-4,1.8944 0.67187,9.0796 1.04167,10.9375 0.3697,1.8578 2.50418,8.7708 3.22918,10.5209 0.7251,1.75 4.05168,8.1125 5.10418,9.6875 1.0525,1.575 5.63978,7.098 6.97919,8.4375 0.5714,0.5714 2.05737,1.8982 3.54167,3.125 l -184.06302,0 c 1.4843,-1.2268 2.97037,-2.5536 3.54168,-3.125 1.3394,-1.3395 5.92668,-6.8625 6.97918,-8.4375 1.05251,-1.575 4.37908,-7.9375 5.10418,-9.6875 0.72501,-1.7501 2.85948,-8.6631 3.22918,-10.5209 0.3698,-1.8579 1.04137,-9.0431 1.04167,-10.9375 z m -174.063,452.18881 492.5014,0 0,295.2091 0,59.0627 58.9585,0 0,59.0627 59.06267,0 0,381.0427 -728.647901,0 0,-381.0427 59.062671,0 0,-59.0627 59.06266,0 0,-236.1465 z"
     style="fill:#00ffff;fill-opacity:1;stroke:none"
     inkscape:connector-curvature="0"
     sodipodi:nodetypes="cccccccccsccsccccccccccsscccccccccccscccsscsssscssssccsscccscsccccccccsccsccsscccsccscccccscccsccsccsscccccccccccccccccccccccccccsccccsccccccccccccccccccc" />
  <path
     inkscape:connector-curvature="0"
     d="m 356.30159,1295.8371 0,152.7088 211.8756,0 0,-152.7088 -211.8756,0 z m 42.91679,43.021 125.93786,0 0,66.771 -125.93786,0 0,-66.771 z m -101.97946,252.1882 0,211.8756 330.00094,0 0,-211.8756 -330.00095,0 z m 29.79174,29.7918 270.41744,0 0,152.2921 -270.41744,0 0,-152.2921 z"
     style="fill:#00ffff;fill-opacity:1;stroke:none"
     id="path6366" />
  <path
     style="fill:#ff00ff;fill-opacity:1;stroke:none"
     d="m 156.97811,0 c -9.3696,0.002 -10.61646,0.2360023 -19.37506,1.9791723 -8.9641,1.7841697 -10.11132,2.132036 -18.54172,5.625016 -8.3567,3.4618097 -9.46138,4.0731127 -17.08338,9.1666927 -7.528001,5.02945 -8.56051,5.747182 -15.104209,12.291702 -6.542999,6.542488 -7.263701,7.475681 -12.291702,15.000042 -5.092301,7.620852 -5.703992,8.724792 -9.166692,17.083382 -3.496,8.436521 -3.841318,9.580161 -5.625016,18.541719 -1.742002,8.754092 -1.873706,10.003765 -1.875006,19.375055 l 0,912.502619 c 0,9.3753 0.136701,10.6293 1.875006,19.375 1.783998,8.9634 2.132316,10.1114 5.625016,18.5417 3.4637,8.362 4.074391,9.4629 9.166692,17.0834 5.028401,7.525 5.751703,8.4599 12.291702,15.0001 6.544999,6.5459 7.580208,7.2643 15.104209,12.2917 7.622,5.0933 8.72798,5.7052 17.08338,9.1667 4.9312,2.0433 7.4482,2.9423 10.4167,3.75 -1.5531,2.9235 -3.01368,5.8877 -3.85418,7.9167 -1.8253,4.406 -4.69422,13.7601 -5.62501,18.4375 -0.9307,4.6774 -1.87471,14.2934 -1.87501,19.0626 l 0,118.1253 0,146.6671 c -4.9637,2.2049 -10.03104,4.6259 -13.12504,6.5625 -5.062399,3.1688 -14.402718,10.7986 -18.541717,15.1042 -4.138998,4.3056 -11.408342,14.0874 -14.375041,19.2709 -2.115699,3.6967 -4.847487,10.0695 -6.979186,15.7292 -7.672599,3.0034 -17.304029,7.7469 -22.29173,11.1459 -6.501599,4.4299 -18.164032,15.3986 -22.916732,21.6667 -4.754,6.2681 -12.1762414,20.462 -14.6875416,27.9168 -2.5113,7.4546 -5.19934809,23.2795 -5.20834809,31.1459 l 0,381.0427 c 3e-4,4.7691 0.94430532,14.385 1.87500529,19.0626 0.9306,4.6774 3.7996162,14.0314 5.625016,18.4375 1.8252999,4.406 6.4118254,12.9098 9.0625254,16.8751 2.6496,3.9653 8.815235,11.5235 12.187535,14.8959 3.3724,3.3722 10.826407,9.4336 14.791709,12.0833 3.965401,2.6497 12.469048,7.2372 16.875048,9.0626 4.405999,1.8253 13.760152,4.6943 18.437552,5.625 4.6787,0.9307 14.293554,1.8746 19.062554,1.875 l 728.647901,0 c 4.76912,-4e-4 14.38514,-0.9443 19.06256,-1.875 4.67751,-0.9307 14.03154,-3.7997 18.43755,-5.625 4.40611,-1.8254 12.90973,-6.4129 16.87505,-9.0626 3.96531,-2.6497 11.52366,-8.7111 14.89587,-12.0833 3.37231,-3.3724 9.43366,-10.9306 12.08337,-14.8959 2.64971,-3.9654 7.23722,-12.4691 9.06253,-16.8751 1.8253,-4.4061 4.69431,-13.7601 5.62501,-18.4375 0.9307,-4.6776 1.87461,-14.2935 1.87501,-19.0626 l 0,-381.0427 c 0,-7.8781 -2.59138,-23.6794 -5.10418,-31.1459 -2.51291,-7.4666 -10.0305,-21.6402 -14.79171,-27.9168 -4.76112,-6.2766 -16.40375,-17.4428 -22.91674,-21.8751 -4.99741,-3.4009 -14.7088,-8.0414 -22.39589,-11.0416 -2.13111,-5.6392 -4.76252,-11.9407 -6.87502,-15.6251 -2.96021,-5.1625 -10.25113,-14.8762 -14.37504,-19.1667 -4.12391,-4.2905 -13.50041,-11.942 -18.54172,-15.1042 -3.07511,-1.9289 -8.08596,-4.3607 -13.02087,-6.5625 l 0,-264.8966 c -4e-4,-4.7692 -0.9442,-14.3852 -1.87501,-19.0626 -0.9307,-4.6774 -3.79981,-14.0315 -5.62501,-18.4375 -0.84051,-2.029 -2.30108,-4.9932 -3.85418,-7.9167 2.92671,-0.8026 5.43271,-1.7282 10.31253,-3.75 8.35649,-3.4622 9.46469,-4.0763 17.08338,-9.1667 7.52439,-5.0283 8.56192,-5.7489 15.10421,-12.2917 6.54299,-6.5426 7.26419,-7.4765 12.2917,-15.0001 5.09302,-7.6213 5.70358,-8.7233 9.16669,-17.0834 3.49631,-8.437 3.84161,-9.5814 5.62502,-18.5417 1.7406,-8.7486 1.87351,-10.0014 1.87501,-19.375 l 0,-414.79287 0,-82.81274 0,-224.37563 c 0,-9.37246 -0.13334,-10.62234 -1.87501,-19.37506 -1.78411,-8.96379 -2.13131,-10.10973 -5.62502,-18.54172 -3.46421,-8.36376 -4.07547,-9.4644 -9.16669,-17.08338 -5.02801,-7.52429 -5.74871,-8.45749 -12.2917,-15.00004 -6.54109,-6.54132 -7.57572,-7.26135 -15.10421,-12.2917 -7.62219,-5.09359 -8.72749,-5.70489 -17.08338,-9.1667 -8.43089,-3.49298 -9.57773,-3.84084 -18.54172,-5.62501 -8.75819,-1.7432 -10.00506,-1.97768 -19.37506,-1.97918 l -177.188,0 c -9.36959,0.002 -10.5122,0.23601 -19.27089,1.97918 -8.96409,1.78421 -10.11073,2.13206 -18.54172,5.62501 -8.35749,3.46254 -9.46569,4.07688 -17.08338,9.1667 -7.52579,5.02918 -8.56652,5.75438 -15.10421,12.2917 -6.53758,6.53799 -7.26209,7.47341 -12.2917,15.00004 -5.09441,7.62368 -5.70658,8.73395 -9.16669,17.08338 -3.48881,8.42286 -3.83961,9.57023 -5.62502,18.54172 -1.7432,8.75822 -1.8737,10.00487 -1.875,19.37506 l 0,78.12522 -66.66686,0 c -2.54721,-6.03705 -3.73188,-8.26996 -8.22919,-15.00004 -5.02961,-7.52663 -5.75412,-8.46206 -12.2917,-15.00005 -6.53759,-6.53735 -7.57842,-7.26255 -15.10421,-12.2917 -6.72479,-4.49325 -8.95786,-5.67982 -15.00004,-8.22919 l 0,-218.125619 c 0,-9.37456 -0.13434,-10.627463 -1.87501,-19.375055 -1.7841,-8.963788 -2.1313,-10.109728 -5.62501,-18.541719 -3.46421,-8.36376 -4.07548,-9.46439 -9.1667,-17.083382 -5.02801,-7.524291 -5.74871,-8.457484 -12.2917,-15.000042 -6.54208,-6.54242 -7.57832,-7.262782 -15.10421,-12.291702 -7.6222,-5.09358 -8.72748,-5.704883 -17.08338,-9.1666927 -8.4309,-3.49298 -9.57762,-3.8408463 -18.54172,-5.625016 C 285.61613,0.23597227 284.47344,0.0015 275.10344,0 z m -5.41669,13.333371 c 1.31271,-0.02 3.05079,5e-4 5.41669,0 l 118.12533,0 c 9.4637,0.002 7.68972,-0.119997 16.66672,1.666672 9.1221,1.81561 7.57607,1.345307 16.14588,4.895847 8.507,3.52444 7.04561,2.636172 14.7917,7.812522 7.6908,5.13912 6.39588,4.103707 13.02087,10.729197 6.62579,6.625249 5.48662,5.331382 10.62503,13.02087 5.17522,7.744619 4.39018,6.277848 7.91669,14.791709 3.55111,8.570691 3.07995,6.919523 4.89585,16.041712 1.78471,8.968629 1.66667,7.305861 1.66667,16.770881 l 0,226.979809 c 1.48661,0.53307 2.80154,1.1145 6.14585,2.50001 8.50729,3.52461 7.04992,2.63964 14.79171,7.81252 7.68949,5.13852 6.39999,4.10871 13.02087,10.7292 6.62079,6.62132 5.48612,5.33061 10.62503,13.02087 5.17632,7.74605 4.39388,6.29058 7.91669,14.79171 1.38391,3.34141 1.86274,4.66001 2.39584,6.14585 l 88.85442,0 0,-91.45859 c 0,-9.46399 -0.12033,-7.7939 1.66667,-16.77089 1.81631,-9.12715 1.34864,-7.47812 4.89585,-16.04171 3.52281,-8.50113 2.74047,-7.04565 7.91669,-14.79171 5.13901,-7.69025 4.00414,-6.39955 10.62503,-13.02087 6.62088,-6.62049 5.33148,-5.59067 13.02087,-10.72919 7.74179,-5.17288 6.28442,-4.28792 14.79171,-7.81253 8.56979,-3.55051 7.02388,-3.0802 16.14588,-4.89584 8.97709,-1.78667 7.20302,-1.66467 16.66671,-1.66667 l 177.188,0 c 9.4637,0.001 7.79399,-0.12 16.77088,1.66667 9.1222,1.81564 7.57609,1.34533 16.14588,4.89584 8.50699,3.52444 7.04552,2.63618 14.79171,7.81253 7.69309,5.14032 6.39639,4.1042 13.02087,10.72919 6.62579,6.62525 5.48662,5.33139 10.62503,13.02087 5.17522,7.74462 4.39018,6.27785 7.91669,14.79171 3.55111,8.57069 3.08014,6.91953 4.89585,16.04171 1.7855,8.97333 1.94774,7.31107 1.66667,16.77089 l 0,224.37563 0,82.81274 0,414.79287 c 0,9.4649 0.11733,7.8024 -1.66667,16.7709 -1.81541,9.1199 -1.34254,7.4666 -4.89585,16.0417 -3.52571,8.511 -2.74027,7.0456 -7.91669,14.7917 -5.13791,7.6887 -3.99934,6.3956 -10.62503,13.0208 -6.62488,6.6254 -5.33128,5.5906 -13.02087,10.7292 -7.74289,5.1735 -6.28512,4.3923 -14.79171,7.9167 -8.57109,3.5512 -7.02448,2.9762 -16.14588,4.7917 -6.37198,1.2682 -7.50402,1.6684 -10.93753,1.7708 13.14021,15.2914 20.59506,35.3594 20.62506,55.521 l 0,273.23 c 26.48761,8.6604 48.04057,31.1013 55.62516,57.9168 17.78528,4.9717 33.83353,15.9165 45.00013,30.6251 11.1666,14.7085 17.38588,33.0957 17.39588,51.5626 l 0,381.0428 c 0.01,22.3645 -9.18596,44.6027 -25.00007,60.4168 -15.81411,15.8141 -38.05224,25.0101 -60.41684,25.0001 l -728.647901,0 c -22.3644,0.01 -44.602837,-9.186 -60.416838,-25.0001 -15.8141,-15.8141 -25.000071,-38.0523 -25.000071,-60.4168 l 0,-381.0428 c 0.033,-18.4364 6.250183,-36.772 17.395883,-51.4584 11.144701,-14.6863 27.14626,-25.6391 44.89596,-30.6251 7.564102,-26.9369 29.222497,-49.4842 55.833497,-58.1252 l 0,-155.0004 0,-118.1254 c 0.059,-20.1744 7.55192,-40.2444 20.72922,-55.521 -3.6277,-0.093 -4.62947,-0.4737 -11.14586,-1.7708 -9.1212,-1.8155 -7.57478,-1.2405 -16.14588,-4.7917 -8.5058,-3.5241 -7.04461,-2.7407 -14.79171,-7.9167 -7.6887,-5.1382 -6.39347,-4.1009 -13.020872,-10.7292 -6.622999,-6.6231 -5.486729,-5.3314 -10.625031,-13.0208 -5.176001,-7.7457 -4.390689,-6.2791 -7.916689,-14.7917 -3.5503,-8.5692 -3.080848,-6.9206 -4.895847,-16.0417 -1.783298,-8.9673 -1.666671,-7.306 -1.666671,-16.7709 l 0,-912.502619 c 0,-9.46399 -0.119934,-7.797552 1.666671,-16.770881 1.814999,-9.121189 1.342547,-7.467021 4.895847,-16.041712 3.525,-8.509321 2.740988,-7.04635 7.916689,-14.791709 5.138302,-7.689488 3.999332,-6.395621 10.625031,-13.02087 6.627102,-6.62789 5.328572,-5.589217 13.020872,-10.729197 7.7471,-5.17635 6.28491,-4.288082 14.79171,-7.812522 8.5698,-3.55054 7.02388,-3.080237 16.14588,-4.895847 6.73279,-1.340001 7.41649,-1.610672 11.35419,-1.666672 z"
     id="path6147"
     inkscape:connector-curvature="0"
     sodipodi:nodetypes="cccccccccsccsccccccccccsscccsccccccsscccssssssscscssccsscccscsccccccccsccsccsscccsccscccccscccsccsccsscccccssccsccsccccscccsccsccscccssccscccccscccccssccccsccsccsscccccccssccsccssccsccscc" />
  <path
     sodipodi:nodetypes="csscccsccscccccsscccccccssccsccccccccsccssccssccsccccccccsccsscccccsccssccccscccsccccsccsccccscccsccccsccsccsccccccsccccscccccsccccscccsccsccsccscccsccccsccccccccccccccccccccccccccccccccccccccccccccccccccccccccccccccccccccccccccccccccccccccccccccccc"
     style="fill:#ff00ff;fill-opacity:1;stroke:none"
     d="m 156.9782,43.02096 c -1.8943,3e-4 -9.0797,0.77603 -10.9376,1.14583 -1.8579,0.3698 -8.7707,2.50411 -10.5208,3.22918 -1.7501,0.72507 -8.1125,4.05168 -9.6875,5.10418 -1.5752,1.0525 -7.2024,5.63968 -8.5417,6.97919 -1.3394,1.3395 -5.8227,6.96665 -6.8751,8.54169 -1.0523,1.57504 -4.4833,7.83329 -5.2083,9.58336 -0.725,1.75007 -2.8594,8.66296 -3.229,10.52086 -0.3707,1.85791 -1.041,9.0432 -1.042,10.93753 l 0,912.50262 c 0,1.8944 0.6713,9.0797 1.042,10.9376 0.3696,1.8578 2.504,8.7708 3.229,10.5209 0.725,1.75 4.156,8.1125 5.2083,9.6875 1.0524,1.575 5.5357,7.098 6.8751,8.4375 1.3393,1.3395 6.9665,5.9267 8.5417,6.9792 1.575,1.0524 7.9374,4.4832 9.6875,5.2083 1.7501,0.7251 8.6629,2.7553 10.5208,3.1251 1.8579,0.3698 9.0433,1.1455 10.9376,1.1458 l 160.7296,0 0,0.1042 292.60506,0 0,-0.1042 98.1252,0 59.0627,0 c 1.8943,-3e-4 9.0796,-0.776 10.9375,-1.1458 1.8579,-0.3698 8.7708,-2.4 10.5209,-3.1251 1.7501,-0.7251 8.1125,-4.1559 9.6875,-5.2083 1.5751,-1.0525 7.2023,-5.6397 8.5417,-6.9792 1.3395,-1.3395 5.8225,-6.8625 6.875,-8.4375 1.0525,-1.575 4.4834,-7.9375 5.2084,-9.6875 0.7251,-1.7501 2.8594,-8.6631 3.2292,-10.5209 0.3697,-1.8579 1.0413,-9.0432 1.0416,-10.9376 l 0,-414.79286 0,-82.81273 0,-224.37565 c -3e-4,-1.89434 -0.6719,-9.07962 -1.0416,-10.93753 -0.3698,-1.8579 -2.5041,-8.77079 -3.2292,-10.52086 -0.725,-1.75007 -4.1559,-8.00832 -5.2084,-9.58336 -1.0525,-1.57504 -5.5355,-7.20219 -6.875,-8.54169 -1.3394,-1.33951 -6.9666,-5.92669 -8.5417,-6.97919 -1.575,-1.0525 -7.9374,-4.37911 -9.6875,-5.10418 -1.7501,-0.72507 -8.663,-2.85938 -10.5209,-3.22918 -1.8579,-0.3698 -9.0432,-1.14553 -10.9375,-1.14583 l -177.188,0 c -1.8943,3e-4 -9.0796,0.77603 -10.9375,1.14583 -1.8579,0.3698 -8.6666,2.50411 -10.4167,3.22918 -1.7501,0.72507 -8.1125,4.05168 -9.6876,5.10418 -1.575,1.0525 -7.2022,5.63968 -8.5417,6.97919 -1.3394,1.3395 -5.9266,6.96665 -6.9791,8.54169 -1.0525,1.57504 -4.3791,7.83329 -5.1042,9.58336 -0.725,1.75007 -2.8595,8.66296 -3.2292,10.52086 -0.3698,1.85791 -1.0414,9.04319 -1.0417,10.93753 l 0,121.14618 -144.27126,0 0,-3.02084 c -3e-4,-1.89434 -0.6718,-9.07962 -1.0416,-10.93753 -0.3697,-1.8579 -2.5042,-8.77079 -3.2292,-10.52086 -0.7251,-1.75007 -4.0517,-8.00833 -5.1042,-9.58336 -1.0525,-1.57504 -5.6398,-7.20219 -6.9792,-8.54169 -1.3395,-1.33951 -6.9667,-5.92669 -8.5417,-6.97919 -1.5751,-1.0525 -7.9374,-4.37911 -9.6875,-5.10418 -1.7501,-0.72507 -8.5588,-2.85938 -10.4167,-3.22918 -1.8579,-0.3698 -9.0432,-1.14554 -10.9375,-1.14584 l -3.125,0 0,-252.60489 c -3e-4,-1.89433 -0.672,-9.07962 -1.0417,-10.93753 -0.3698,-1.8579 -2.5041,-8.77079 -3.2292,-10.52086 -0.725,-1.75007 -4.0517,-8.00832 -5.1042,-9.58336 -1.0525,-1.57504 -5.6396,-7.20219 -6.9791,-8.54169 -1.3394,-1.33951 -6.9666,-5.92669 -8.5417,-6.97919 -1.575,-1.0525 -7.9375,-4.37911 -9.6876,-5.10418 -1.7501,-0.72507 -8.5588,-2.85938 -10.4167,-3.22918 -1.8579,-0.3698 -9.0432,-1.14553 -10.9375,-1.14583 z m 0,13.5417 118.1253,0 c 11.1109,0.0208 22.1451,4.61133 29.992,12.47757 7.847,7.86624 12.4105,18.91162 12.404,30.02255 l 0,266.1466 16.6667,0 c 11.1109,0.0208 22.145,4.61136 29.992,12.4776 7.8469,7.86624 12.4104,18.91161 12.4039,30.02252 l 0,16.56255 171.35466,0 0,-134.68789 c -0.01,-11.11093 4.557,-22.15631 12.404,-30.02255 7.8469,-7.86624 18.8811,-12.45678 29.992,-12.47757 l 177.188,0 c 11.1283,-0.006 22.1905,4.57191 30.0593,12.44078 7.8689,7.86888 12.4473,18.93108 12.4408,30.05934 l 0,224.37565 0,82.81273 0,414.79286 c 0.01,11.1283 -4.5719,22.1905 -12.4408,30.0594 -7.8688,7.8689 -18.931,12.4472 -30.0593,12.4408 l -59.0627,0 -118.1253,0 c -11.1109,-0.021 -22.1451,-4.6113 -29.992,-12.4776 -7.847,-7.8662 -12.4105,-18.9116 -12.404,-30.0226 l 0,-325.1051 -171.35466,0 0,325.1051 c 0.01,11.1109 -4.557,22.1563 -12.4039,30.0226 -7.847,7.8662 -18.8811,12.4568 -29.992,12.4776 l -177.188,0 c -11.1282,0.01 -22.1904,-4.572 -30.0593,-12.4408 -7.8688,-7.8689 -12.4472,-18.9311 -12.4407,-30.0594 l 0,-912.50262 c -0.01,-11.12825 4.5719,-22.19043 12.4407,-30.0593 7.8689,-7.86887 18.9311,-12.44724 30.0593,-12.44082 z m 233.1256,643.43935 144.27126,0 0,311.56339 c 3e-4,1.8944 0.6719,9.0797 1.0417,10.9376 0.3697,1.8578 2.5042,8.7708 3.2292,10.5209 0.7251,1.75 4.0517,8.1125 5.1042,9.6875 1.0525,1.575 5.6397,7.098 6.9791,8.4375 0.5714,0.5714 2.0574,1.8982 3.5417,3.125 l -184.06296,0 c 1.4843,-1.2268 2.9703,-2.5536 3.5416,-3.125 1.3394,-1.3395 5.9267,-6.8625 6.9792,-8.4375 1.0525,-1.575 4.3791,-7.9375 5.1042,-9.6875 0.725,-1.7501 2.8595,-8.6631 3.2292,-10.5209 0.3698,-1.8579 1.0413,-9.0432 1.0416,-10.9376 z m -174.063,397.08449 c -14.4229,0.012 -28.7523,5.955 -38.9508,16.1535 -10.1985,10.1986 -16.1412,24.528 -16.1535,38.9509 l 0,118.1253 0,181.0422 -3.9583,0 c -14.4229,0.012 -28.7523,5.9549 -38.9509,16.1535 -10.1985,10.1985 -16.1412,24.5279 -16.1535,38.9508 l 0,3.9584 -3.9583,0 c -14.4229,0.012 -28.7522,5.955 -38.9507,16.1535 -10.1986,10.1985 -16.1412,24.5279 -16.1535,38.9508 l 0,381.0428 c -0.015,14.4402 5.9155,28.7977 16.1166,39.0181 10.2012,10.2205 24.5474,16.178 38.9876,16.1904 l 728.64796,0 c 14.4576,0.015 28.8319,-5.9304 39.055,-16.1535 10.2231,-10.2231 16.1684,-24.5974 16.1535,-39.055 l 0,-381.0428 c -0.012,-14.4403 -5.9699,-28.7865 -16.1903,-38.9877 -10.2205,-10.2011 -24.5779,-16.1316 -39.0182,-16.1166 l -3.8542,0 0,-3.9584 c -0.012,-14.4403 -5.9699,-28.7865 -16.1903,-38.9876 -10.2205,-10.2012 -24.5779,-16.1316 -39.0182,-16.1167 l -3.8542,0 0,-3.9584 0,-295.2091 c -0.012,-14.4229 -5.955,-28.7523 -16.1535,-38.9509 -10.1985,-10.1985 -24.5279,-16.1411 -38.9508,-16.1535 z m 0.2084,13.1251 492.08476,0 c 0.3683,0.4151 15.2324,3.4372 16.3542,3.3333 0.027,0 0.093,0.01 0.1041,0 1.7185,1.4503 11.3528,8.0039 13.2293,8.9584 -0.02,-0.082 0.083,-0.1257 0.2083,0 0.1257,0.1256 0.082,0.228 0,0.2083 0.9616,1.8906 7.5747,11.8289 8.9583,13.4376 0,-0.1689 0.1241,-0.2037 0.2084,0 0.1104,0.2668 0.022,0.2681 -0.2084,0 -0.017,1.4874 2.9243,15.887 3.3334,16.25 l 0,295.0008 0,17.0834 16.9792,0 c 0.8498,0.4844 14.3441,3.2934 16.0417,3.3334 -0.02,-0.02 0.014,-0.088 0,-0.1042 0.2219,0.092 0.2163,0.1093 0,0.1042 1.1576,1.1308 12.6615,8.8777 13.6459,9.1667 -0.048,-0.095 0.019,-0.1558 0,-0.2084 0.1327,0.1328 0.098,0.2371 0,0.2084 1.0017,1.9693 8.095,12.6136 9.0625,13.5417 -0.01,-0.2163 0.012,-0.3261 0.1042,-0.1042 0.069,0.1668 -0.033,0.2616 -0.1042,0.2083 0.172,2.2749 2.8344,15.6914 3.2292,16.0418 l 0,16.875 17.0834,0 c 0.8498,0.4844 14.344,3.2933 16.0417,3.3333 -0.02,-0.02 0.014,-0.088 0,-0.1041 0.2219,0.092 0.2163,0.1092 0,0.1041 1.1576,1.1308 12.6615,8.8777 13.6459,9.1667 -0.048,-0.095 0.018,-0.1558 0,-0.2083 0.1327,0.1327 0.098,0.237 0,0.2083 1.0017,1.9693 8.095,12.6136 9.0625,13.5417 -0.01,-0.2162 0.012,-0.3261 0.1041,-0.1041 0.069,0.1667 -0.033,0.2615 -0.1041,0.2083 0.172,2.2748 2.8344,15.6914 3.2292,16.0417 l 0,380.7303 c -0.3948,0.3503 -3.0572,13.7669 -3.2292,16.0418 0,0.058 0,0.061 0,0.1041 l 0.1041,-0.1041 c 0.036,-0.01 0.055,-0.029 0,0.1041 -0.092,0.222 -0.1092,0.2163 -0.1041,0 -1.0139,0.9727 -8.6596,12.4989 -9.0625,13.6459 -1.147,0.4029 -12.6732,8.0486 -13.6459,9.0625 0.2163,0 0.2219,0.012 0,0.1042 l 0,-0.1042 -0.1042,0 c -2.2048,0.1667 -14.8401,2.7141 -15.9375,3.2292 l -728.43966,0 c -0.3503,-0.3948 -13.871,-3.0572 -16.1457,-3.2292 0.083,0.094 0.08,0.1806 -0.1043,0.1042 -0.222,-0.092 -0.2163,-0.1093 0,-0.1042 -1.0957,-1.0703 -11.4854,-8.0701 -13.4377,-9.0625 -0.01,-8e-4 -0.086,0.013 -0.104,0 -0.3713,-1.0808 -7.607,-11.8505 -9.0627,-13.5417 0.074,-1.2274 -2.844,-15.3159 -3.3334,-16.1459 l 0,-380.8345 c 0.4084,-0.3611 3.2164,-14.5323 3.2294,-16.1459 -0.116,0.1114 -0.188,0.096 -0.104,-0.1041 0.077,-0.1865 0.2007,-0.1286 0.208,0 1.3847,-1.6087 7.996,-11.547 8.9587,-13.4376 -0.099,0.029 -0.134,-0.076 0,-0.2083 -0.024,0.053 0.048,0.1138 0,0.2083 0.9803,-0.2878 12.4114,-7.9887 13.6457,-9.1667 -0.2163,0 -0.222,-0.012 0,-0.1041 l 0,0.1041 0.1043,0 c 2.2747,-0.172 15.7954,-2.9385 16.1457,-3.3333 l 16.8751,0 0,-16.875 c 0.413,-0.3665 3.4073,-15.0015 3.3333,-16.2501 -0.2306,0.2681 -0.3186,0.2668 -0.2083,0 0.077,-0.1864 0.2007,-0.1285 0.2083,0 1.3837,-1.6087 7.9968,-11.547 8.9584,-13.4375 -0.098,0.029 -0.1327,-0.076 0,-0.2084 -0.024,0.053 0.048,0.1138 0,0.2084 0.9806,-0.2879 12.4116,-7.9888 13.6459,-9.1667 -0.2163,0 -0.222,-0.012 0,-0.1042 l 0,0.1042 0.1041,0 c 2.2749,-0.172 15.7955,-2.9385 16.1459,-3.3334 l 16.8751,0 0,-194.1672 0,-117.917 c 0.4091,-0.363 3.3504,-14.7626 3.3333,-16.25 -0.2306,0.2681 -0.3188,0.2668 -0.2083,0 0.084,-0.2037 0.2064,-0.1689 0.2083,0 1.3836,-1.6087 7.9967,-11.547 8.9584,-13.4376 -0.082,0.02 -0.1257,-0.083 0,-0.2083 0.1256,-0.1257 0.228,-0.082 0.2083,0 1.8764,-0.9545 11.5107,-7.5081 13.2292,-8.9584 -0.01,0 0.1023,0.01 0.1042,0 1.1216,0.1039 15.9859,-2.9183 16.3542,-3.3333 z"
     id="path5147"
     inkscape:connector-curvature="0"
     inkscape:export-filename="/home/fincham/Working/k8/rect5589-9.png"
     inkscape:export-xdpi="89.948212"
     inkscape:export-ydpi="89.948212" />
  <path
     sodipodi:nodetypes="csccccscccsccsccsccscccsccccsccccccccccccccccccsccsccsccccscccsccsccccsccsccsccccscccsccccccccccccccccccccccc"
     inkscape:connector-curvature="0"
     id="path5944"
     style="fill:#ff00ff;fill-opacity:1;stroke:none"
     d="m 216.0408,1140.0033 c -3.1912,0 -6.3636,1.3109 -8.6201,3.5674 -2.2566,2.2566 -3.5694,5.4289 -3.5674,8.6202 l 0,118.1253 0,223.959 -46.8751,0 c -3.1912,0 -6.3636,1.3108 -8.6202,3.5673 -2.2565,2.2566 -3.5694,5.429 -3.5674,8.6202 l 0,46.8752 -46.8751,0 c -3.1912,0 -6.3635,1.3108 -8.62,3.5674 -2.2566,2.2565 -3.5694,5.4289 -3.5674,8.6201 l 0,381.0428 c 0,3.1912 1.3108,6.3636 3.5673,8.6201 2.2566,2.2565 5.4289,3.5694 8.6201,3.5674 l 728.64796,0 c 3.1912,0 6.3636,-1.3108 8.6201,-3.5674 2.2566,-2.2565 3.5694,-5.4289 3.5674,-8.6201 l 0,-381.0428 c 0,-3.1912 -1.3108,-6.3636 -3.5674,-8.6201 -2.2565,-2.2566 -5.4289,-3.5694 -8.6201,-3.5674 l -46.8752,0 0,-46.8752 c 0,-3.1912 -1.3108,-6.3636 -3.5674,-8.6201 -2.2565,-2.2565 -5.4289,-3.5694 -8.6201,-3.5674 l -46.771,0 0,-46.8752 0,-295.2091 c 0,-3.1913 -1.3108,-6.3636 -3.5674,-8.6202 -2.2565,-2.2565 -5.4289,-3.5694 -8.6201,-3.5674 z m 0,12.1876 492.50146,0 0,295.2091 0,59.0627 58.9585,0 0,59.0627 59.0627,0 0,381.0428 -728.64796,0 0,-381.0428 59.0627,0 0,-59.0627 59.0626,0 0,-236.1465 z M 155.624,86.25025 c -3.1391,0.31263 -6.1429,1.83071 -8.2564,4.17266 -2.1134,2.34195 -3.3163,5.48528 -3.3062,8.63987 l 0,912.50262 c 0.01,3.3528 1.3884,6.6827 3.7592,9.0534 2.3707,2.3708 5.7007,3.7534 9.0534,3.7592 l 177.188,0 c 3.3701,0.022 6.7281,-1.3489 9.1207,-3.7223 2.3927,-2.3733 3.7903,-5.7201 3.796,-9.0903 l 0,-354.79268 230.52146,0 0,354.79268 c 0.01,3.3528 1.3884,6.6827 3.7592,9.0534 2.3707,2.3708 5.7007,3.7534 9.0534,3.7592 l 118.1253,0 59.0627,0 c 3.3701,0.022 6.7281,-1.3489 9.1207,-3.7223 2.3927,-2.3733 3.7903,-5.7201 3.796,-9.0903 l 0,-414.79286 c -0.01,-3.37014 -1.4033,-6.71691 -3.796,-9.0903 -2.3926,-2.37338 -5.7506,-3.74379 -9.1207,-3.72223 l -58.4377,0 0,-57.18767 58.4377,0 c 3.3701,0.0216 6.7281,-1.34885 9.1207,-3.72223 2.3927,-2.37339 3.7903,-5.72016 3.796,-9.0903 l 0,-224.37565 c -0.01,-3.37014 -1.4033,-6.71691 -3.796,-9.0903 -2.3926,-2.37338 -5.7506,-3.74379 -9.1207,-3.72223 l -177.188,0 c -3.3527,0.006 -6.6827,1.38837 -9.0534,3.75912 -2.3708,2.37075 -3.7534,5.70066 -3.7592,9.05341 l 0,164.37547 -230.52146,0 0,-46.25013 c -0.01,-3.37014 -1.4033,-6.71691 -3.796,-9.0903 -2.3926,-2.37338 -5.7506,-3.74379 -9.1207,-3.72223 l -46.146,0 0,-295.83419 c -0.01,-3.37014 -1.4033,-6.71691 -3.796,-9.0903 -2.3926,-2.37338 -5.7506,-3.74379 -9.1207,-3.72223 l -118.1253,0 c -0.4163,-0.0203 -0.8337,-0.0203 -1.25,0 z m 1.25,12.81253 118.1253,0 0,308.64672 59.0627,0 0,59.06267 256.25076,0 0,-177.18801 177.188,0 0,224.37565 -71.2502,0 0,82.81273 71.2502,0 0,414.79286 -59.0627,0 -118.1253,0 0,-367.60522 -256.25076,0 0,367.60522 -177.188,0 z" />
  <path
     inkscape:connector-curvature="0"
     d="m 327.03067,1620.8381 0,152.2921 270.41744,0 0,-152.2921 -270.41744,0 z m 13.22921,13.2292 243.95903,0 0,125.9378 -243.95903,0 0,-125.9378 z m 45.83346,-308.4384 0,93.1253 152.2921,0 0,-93.1253 -152.2921,0 z m 13.12504,13.2292 125.93786,0 0,66.771 -125.93786,0 0,-66.771 z"
     style="fill:#ff00ff;fill-opacity:1;stroke:none"
     id="path6649" />
  <path
     inkscape:connector-curvature="0"
     d="m 285.05137,1578.8588 0,236.2507 354.37603,0 0,-236.2507 -354.37602,0 z m 12.18754,12.1875 330.00095,0 0,211.8756 -330.00095,0 0,-211.8756 z m 46.87513,-307.3967 0,177.0838 236.25068,0 0,-177.0838 -236.25068,0 z m 12.18755,12.1875 211.87561,0 0,152.7088 -211.8756,0 0,-152.7088 z"
     style="fill:#ff00ff;fill-opacity:1;stroke:none"
     id="path6662" />
  <path
     style="fill:#ff0000;fill-opacity:1;stroke:none"
     d="m 361.56202,955.21105 c -8.15379,0 -14.68754,6.53371 -14.68754,14.68754 l 0,33.33341 c 0,8.1538 6.53375,14.7917 14.68754,14.7917 8.15389,0 14.79171,-6.6379 14.79171,-14.7917 l 0,-33.33341 c 0,-8.15383 -6.63782,-14.68754 -14.79171,-14.68754 z M 136.14471,1064.8989 c -8.15383,0 -14.7917,6.6379 -14.7917,14.7917 0,8.1539 6.63787,14.7917 14.7917,14.7917 8.15383,0 14.79171,-6.6378 14.79171,-14.7917 0,-8.1538 -6.63788,-14.7917 -14.79171,-14.7917 z m 629.27262,32.2917 c -8.15382,0 -14.7917,6.6378 -14.7917,14.7917 0,8.1538 6.63788,14.7917 14.7917,14.7917 8.15383,0 14.68755,-6.6379 14.68755,-14.7917 0,-8.1539 -6.53372,-14.7917 -14.68755,-14.7917 z m -319.89674,13.1251 c -8.15382,0 -14.68754,6.6378 -14.68754,14.7917 0,8.1538 6.53372,14.6875 14.68754,14.6875 l 33.33343,0 c 8.15382,0 14.79171,-6.5337 14.79171,-14.6875 0,-8.1539 -6.63789,-14.7917 -14.79171,-14.7917 l -33.33343,0 z m 0,186.1463 c -8.15382,0 -14.68754,6.6378 -14.68754,14.7917 0,8.1538 6.53372,14.6876 14.68754,14.6876 l 33.33343,0 c 8.15382,0 14.79171,-6.5338 14.79171,-14.6876 0,-8.1539 -6.63789,-14.7917 -14.79171,-14.7917 l -33.33343,0 z m 0,294.5842 c -8.15382,0 -14.68754,6.6378 -14.68754,14.7917 0,8.1538 6.53372,14.6875 14.68754,14.6875 l 33.33343,0 c 8.15382,0 14.79171,-6.5337 14.79171,-14.6875 0,-8.1539 -6.63789,-14.7917 -14.79171,-14.7917 l -33.33343,0 z"
     id="path3553"
     inkscape:connector-curvature="0" />
  <rect
     y="1015.5699"
     x="462.23349"
     height="0.011811057"
     width="0.011811057"
     id="rect3449"
     style="fill:#800000;fill-opacity:1;stroke:none" />
  <rect
     style="fill:#800000;fill-opacity:1;stroke:none"
     id="rect3451"
     width="0.011811057"
     height="0.011811057"
     x="462.23349"
     y="1562.7068" />
  <rect
     y="1287.7015"
     x="450.56229"
     height="0.33333427"
     width="0.33333427"
     id="rect3810"
     style="fill:#800000;fill-opacity:1;stroke:none" />
  <rect
     style="fill:#800000;fill-opacity:1;stroke:none"
     id="rect3812"
     width="0.33333427"
     height="0.33333427"
     x="462.07272"
     y="1015.4091" />
</svg>
