<?xml version="1.0" encoding="UTF-8" standalone="no"?>
<svg
   xmlns:dc="http://purl.org/dc/elements/1.1/"
   xmlns:cc="http://creativecommons.org/ns#"
   xmlns:rdf="http://www.w3.org/1999/02/22-rdf-syntax-ns#"
   xmlns:svg="http://www.w3.org/2000/svg"
   xmlns="http://www.w3.org/2000/svg"
   xmlns:sodipodi="http://sodipodi.sourceforge.net/DTD/sodipodi-0.dtd"
   xmlns:inkscape="http://www.inkscape.org/namespaces/inkscape"
   sodipodi:docname="k_no_dimensions.svg"
   inkscape:version="0.48.4 r9939"
   version="1.1"
   id="svg3004"
   viewBox="0 0 898.2645 2281.5489"
   height="684.46271"
   width="269.47946">
  <sodipodi:namedview
     pagecolor="#ffffff"
     bordercolor="#666666"
     borderopacity="1"
     objecttolerance="10"
     gridtolerance="10"
     guidetolerance="10"
     inkscape:pageopacity="0"
     inkscape:pageshadow="2"
     inkscape:window-width="1276"
     inkscape:window-height="684"
     id="namedview3010"
     showgrid="false"
     inkscape:zoom="2.2653048"
     inkscape:cx="218.49773"
     inkscape:cy="107.02784"
     inkscape:window-x="0"
     inkscape:window-y="22"
     inkscape:window-maximized="0"
     inkscape:current-layer="svg3004"
     fit-margin-top="0"
     fit-margin-left="0"
     fit-margin-right="0"
     fit-margin-bottom="0" />
  <metadata
     id="metadata3014">
    <rdf:RDF>
      <cc:Work
         rdf:about="">
        <dc:format>image/svg+xml</dc:format>
        <dc:type
           rdf:resource="http://purl.org/dc/dcmitype/StillImage" />
        <dc:title />
      </cc:Work>
    </rdf:RDF>
  </metadata>
  <defs
     id="defs3012" />
  <path
     id="rect4423"
     transform="matrix(3.3333429,0,0,3.3333429,-0.00147386,0)"
     d="M 42.96875 0.0625 C 41.349631 0.0649147 39.47949 0.4813879 37.90625 0.875 C 34.430148 1.74312 33.048329 2.1633353 29.8125 3.78125 C 27.06446 5.1552704 24.391431 6.7129755 22.09375 8.78125 L 20.03125 10.8125 L 18 12.84375 C 15.867733 15.213875 14.291279 17.981149 12.875 20.8125 C 11.46355 23.635399 10.867693 24.964314 10.09375 28.0625 C 9.5890572 30.078856 8.941121 32.780305 8.9375 34.84375 L 8.9375 74.5625 L 8.9375 243 L 8.9375 327.15625 C 8.94354 330.65529 10.354321 335.62907 11.46875 338.96875 C 12.368262 341.66487 14.89011 346.34303 16.59375 348.625 L 18.25 350.8125 C 18.970818 351.64077 22.235431 354.8708 23.0625 355.53125 C 27.470714 359.04721 32.191562 361.38443 37.65625 362.75 C 37.931559 362.8189 38.255233 362.89769 38.5625 362.96875 C 34.935403 367.64576 32.196295 373.05794 30.78125 378.71875 C 30.308058 380.60955 29.59663 384.30048 29.59375 386.1875 L 29.59375 409.3125 L 29.59375 454.25 L 29.5 455.875 L 29.5 458.5625 L 29.40625 459.875 C 29.40245 460.25357 29.32324 461.6214 29.1875 461.90625 C 29.020211 462.25806 28.376708 462.8985 28.09375 463.21875 L 26.71875 464.65625 L 26.03125 465.40625 L 25.1875 466.1875 L 21.84375 469.34375 L 20.3125 470.875 L 16.40625 474.6875 L 15.625 475.5625 L 13.28125 478.0625 C 8.5914009 483.3861 4.3574191 489.33398 2.09375 496.125 C 0.81183259 499.9736 0.16294158 505.16459 0.15625 509.21875 L 0.0625 510.84375 L 0.0625 601.65625 C 0.0644119 602.92861 0.37866319 604.65938 0.59375 605.9375 C 1.297323 610.13215 2.5029707 614.00404 4.40625 617.8125 C 6.3181328 621.63626 8.2281336 624.61171 11.0625 627.84375 L 13.15625 629.9375 L 15.0625 631.84375 C 19.875665 636.19041 26.484692 639.92526 32.65625 641.9375 L 36.28125 642.9375 C 38.780081 643.56273 43.715137 644.46485 46.21875 644.46875 L 135.78125 644.46875 L 225.46875 644.46875 L 226.59375 644.375 C 229.28854 644.18666 232.50189 643.68702 235.125 643.03125 L 238.375 642.15625 C 244.03418 640.34762 250.0287 637.07621 254.4375 633.09375 L 255.9375 631.5625 L 257.75 629.75 C 263.42542 623.46661 267.22933 614.84792 268.625 606.53125 L 269.34375 600.6875 L 269.4375 599.5625 L 269.4375 518.78125 L 269.34375 517.625 C 269.15639 514.9044 268.79716 512.37273 268.3125 509.6875 C 266.44937 499.35571 262.31037 489.68192 256.28125 481.09375 L 252.8125 476.625 C 250.31653 473.53252 246.52143 469.69517 243.53125 467.0625 C 241.92432 465.64866 240.22825 464.26416 238.8125 462.65625 C 238.08407 461.82936 237.24936 460.79837 236.8125 459.78125 C 236.25046 458.47256 236.2518 457.26685 236.25 455.875 L 236.15625 454.25 L 236.15625 386.09375 C 236.15425 384.92654 235.88155 383.23544 235.6875 382.0625 C 235.11489 378.60393 234.45824 376.25499 233.15625 373 C 231.80377 369.61917 229.93678 366.23138 227.71875 363.21875 C 228.79157 363.01038 229.85565 362.77853 230.71875 362.5625 C 236.81732 361.03874 242.68972 358.09054 247.5 354.03125 L 250.65625 350.9375 C 253.49484 348.09891 255.18542 345.56543 256.96875 342 C 258.42366 339.08896 258.96398 337.52028 259.75 334.375 C 260.14361 332.80177 260.5601 330.93163 260.5625 329.3125 L 260.5625 221.5 C 260.5575 218.70246 259.47216 214.22041 258.71875 211.46875 L 257.84375 208.8125 C 257.72663 208.47684 257.49154 207.96186 257.5 207.625 C 257.507 207.35454 257.80483 206.58431 257.90625 206.28125 L 258.8125 203.5 C 259.52728 200.99706 260.55887 196.51274 260.5625 193.96875 L 260.5625 128.40625 C 260.5605 126.78713 260.14361 124.91699 259.75 123.34375 C 258.86015 119.78434 258.62289 119.02944 256.96875 115.71875 L 255.21875 112.46875 C 254.52449 111.3507 252.82238 108.94902 251.96875 108 L 250.03125 106.0625 L 247.875 103.9375 C 243.5187 100.14748 237.535 97.086876 231.9375 95.6875 C 229.84025 95.16228 227.08425 94.47238 224.9375 94.46875 L 208.03125 94.46875 L 197.15625 94.46875 C 195.25701 94.47115 193.09249 95.007525 191.25 95.46875 C 187.37545 96.437084 186.24933 96.906585 182.6875 98.6875 L 179.1875 100.59375 C 176.60125 102.25875 175.15762 103.56113 173 105.71875 L 170.40625 108.375 C 167.58214 111.72191 165.38247 115.82133 164 119.96875 C 163.30574 122.05151 162.37863 125.64763 162.375 127.8125 L 162.375 164.375 L 127.375 164.375 C 127.16491 162.88386 125.89177 158.33155 125.375 156.78125 C 124.19537 153.24116 123.24789 151.27702 121.59375 147.96875 L 119.65625 144.09375 L 112.125 131.78125 L 107.96875 125.15625 L 105.75 121.53125 C 105.4071 120.68245 105.34055 119.0944 105.25 118.15625 L 105.03125 114.875 L 104.90625 113.4375 L 104.78125 110.65625 L 104.78125 105.21875 L 104.6875 103.1875 L 104.6875 34.96875 C 104.6835 32.603458 104.00739 30.215862 103.4375 27.9375 C 102.11288 22.639433 99.310763 16.878098 95.71875 12.75 L 93.4375 10.4375 L 91.15625 8.1875 C 88.665387 6.085418 86.65607 4.9692626 83.78125 3.53125 C 80.754301 2.018379 79.551951 1.6839574 76.3125 0.875 C 74.73926 0.4813879 72.837872 0.06491469 71.21875 0.0625 L 42.96875 0.0625 z M 46.125 28.4375 L 68.34375 28.4375 C 73.242169 28.49545 76.305255 33.637242 76.3125 38.09375 L 76.3125 85.1875 L 76.3125 87.625 L 37.3125 87.625 L 37.3125 58.875 L 37.3125 37.71875 C 37.36804 33.00265 41.274875 28.444744 46.125 28.4375 z M 37.3125 104.5 L 76.3125 104.5 L 76.3125 106.5625 L 76.4375 108.375 L 76.4375 114.03125 L 76.53125 115.25 L 76.53125 116.8125 L 76.65625 118.03125 L 76.875 121.28125 C 77.2505 125.15942 77.799912 128.84641 79.25 132.5 C 80.273873 135.08021 81.912837 137.40282 83.375 139.75 L 90.59375 151.34375 C 94.409133 157.47009 97.374129 161.80284 99.15625 168.96875 C 99.537789 170.50094 99.966335 172.97008 99.96875 174.53125 L 99.96875 181.78125 L 100.09375 183.59375 L 100.09375 185.40625 C 100.09465 186.49653 100.32919 188.5806 100.625 189.625 C 100.80128 190.24923 101.06867 190.93188 101.5625 191.375 C 102.10221 191.85796 103.02087 192.13878 103.71875 192.28125 C 105.56486 192.65796 106.49054 192.60447 108.3125 192.625 L 110.09375 192.75 L 171.9375 192.75 L 173.375 192.65625 L 174.9375 192.65625 C 175.86358 192.64055 177.51022 192.40469 178.4375 192.21875 C 183.32626 191.24076 188.19991 188.6884 189.96875 183.71875 C 190.53502 182.12619 190.54517 181.34632 190.65625 179.71875 L 190.75 178.28125 L 190.75 168.0625 L 232.1875 168.0625 L 232.1875 183.21875 L 232.1875 190.84375 C 232.1825 194.3114 230.69384 198.30281 228.5 200.96875 C 225.83044 204.21062 221.96538 206.24303 217.9375 207.25 L 213.21875 208.09375 L 216.84375 208.71875 C 221.85566 209.78609 227.38946 211.83795 230.03125 216.5625 C 230.72792 217.80854 231.21598 219.02378 231.5625 220.40625 C 231.87401 221.64625 232.18509 223.35361 232.1875 224.625 L 232.1875 258.90625 L 190.75 258.90625 L 190.75 243.125 L 190.65625 241.1875 C 190.64925 239.65893 190.3569 238.16038 189.84375 236.71875 C 187.97711 231.47502 183.21191 229.34156 178.09375 228.5 L 174.8125 228.125 L 173.25 228.125 L 171.4375 228.03125 L 131.84375 228.03125 L 109.875 228.03125 L 108.0625 228.125 C 106.14153 228.127 103.35513 228.4649 101.90625 229.84375 C 100.63003 231.0596 100.09737 233.44295 100.09375 235.15625 L 99.96875 237.3125 L 99.96875 258.90625 L 37.3125 258.90625 L 37.3125 249.75 L 37.3125 104.5 z M 200.3125 122.84375 L 222.03125 122.84375 C 222.72068 122.85175 223.54381 123.03295 224.21875 123.1875 C 228.18989 124.09788 232.18026 127.12907 232.1875 131.53125 L 232.1875 149.78125 L 232.1875 151.1875 L 190.75 151.1875 L 190.75 130.9375 C 190.757 126.34817 196.06004 122.84979 200.3125 122.84375 z M 123.40625 250.53125 L 168.3125 250.875 L 168.1875 344.65625 L 123.40625 344.375 L 123.40625 250.53125 z M 37.3125 275.78125 L 99.96875 275.78125 L 99.96875 313.03125 L 99.96875 323.53125 C 99.95905 330.08866 92.739554 335.33409 86.5625 335.34375 L 46.84375 335.34375 C 41.778712 335.33575 38.772809 331.81317 37.71875 327.15625 C 37.501419 326.19506 37.313706 324.98163 37.3125 324 L 37.3125 275.78125 z M 190.75 275.78125 L 232.1875 275.78125 L 232.1875 303.125 L 232.1875 326.1875 C 232.1795 331.65336 225.49458 335.33649 220.59375 335.34375 L 200.78125 335.34375 C 195.64135 335.33575 190.75845 332.04544 190.75 326.53125 L 190.75 275.78125 z M 110.03125 311.78125 C 112.60645 311.78125 114.71875 313.74134 114.71875 316.1875 L 114.71875 325.875 C 114.71875 328.32113 112.60645 330.3125 110.03125 330.3125 C 107.45606 330.3125 105.375 328.32113 105.375 325.875 L 105.375 316.1875 C 105.375 313.74134 107.45606 311.78125 110.03125 311.78125 z M 18.15625 320.21875 C 20.602395 320.21875 22.59375 322.21012 22.59375 324.65625 C 22.59375 327.10238 20.602395 329.0625 18.15625 329.0625 C 15.710108 329.0625 13.75 327.10238 13.75 324.65625 C 13.75 322.21012 15.710108 320.21875 18.15625 320.21875 z M 140.09375 358.53125 L 149.78125 358.53125 C 152.22741 358.53125 154.1875 360.64356 154.1875 363.21875 C 154.1875 365.79394 152.22741 367.875 149.78125 367.875 L 140.09375 367.875 C 137.64762 367.875 135.65625 365.79394 135.65625 363.21875 C 135.65625 360.64356 137.64762 358.53125 140.09375 358.53125 z M 76.53125 373.09375 L 81.03125 373.09375 L 89.53125 373.09375 L 115.625 373.09375 L 165.34375 373.09375 L 181.875 373.09375 L 190.1875 373.09375 C 191.07844 373.09875 192.72833 373.35155 193.625 373.53125 C 200.25063 374.8562 206.06095 379.31716 207.4375 386.1875 C 207.60766 387.03923 207.7803 387.87913 207.78125 388.75 L 207.78125 428.5 L 171.0625 428.5 L 171.0625 411.21875 L 96.03125 411.21875 L 96.03125 428.5 L 57.96875 428.5 L 57.96875 388.84375 C 57.97055 387.88111 58.173004 386.84117 58.40625 385.90625 C 59.648018 380.91621 63.670451 377.0167 68.3125 375.03125 C 70.335271 374.16515 72.53538 373.59162 74.71875 373.3125 L 76.53125 373.09375 z M 226.375 375.78125 C 228.82114 375.78125 230.8125 377.74134 230.8125 380.1875 C 230.8125 382.63363 228.82114 384.625 226.375 384.625 C 223.92886 384.625 221.9375 382.63363 221.9375 380.1875 C 221.9375 377.74134 223.92886 375.78125 226.375 375.78125 z M 131.6875 417.25 L 141.375 417.25 C 143.82116 417.25 145.78125 419.33106 145.78125 421.90625 C 145.78125 424.48144 143.82116 426.59375 141.375 426.59375 L 131.6875 426.59375 C 129.24137 426.59375 127.25 424.48144 127.25 421.90625 C 127.25 419.33106 129.24137 417.25 131.6875 417.25 z M 115.625 430.71875 L 151.46875 430.71875 L 151.46875 442.5 L 115.625 442.5 L 115.625 430.71875 z M 57.96875 445.34375 L 96.03125 445.34375 L 96.03125 461.96875 L 171.0625 461.96875 L 171.0625 445.34375 L 207.78125 445.34375 L 207.78125 456.9375 L 207.875 458.5625 C 207.879 461.03551 208.21217 463.50398 208.8125 465.90625 C 210.342 472.0214 213.60922 477.41662 217.8125 482.0625 C 220.48054 485.01155 223.59585 487.4822 226.5 490.1875 C 227.91097 491.50192 229.5414 493.29187 230.78125 494.78125 C 235.83149 500.8505 239.05455 507.75947 240.40625 515.53125 L 240.96875 520.3125 L 241.03125 521.4375 L 241.03125 535.25 L 182.09375 535.25 L 182.09375 507.6875 L 87.21875 507.6875 L 87.21875 535.25 L 28.4375 535.25 L 28.4375 513.5 L 28.53125 511.96875 L 28.53125 510.5625 L 28.625 509.59375 C 28.740669 507.90076 28.773417 506.13055 29.40625 504.53125 C 30.050555 502.90612 31.172953 501.32935 32.21875 499.9375 C 33.683253 497.98736 35.349749 496.25796 37.03125 494.5 L 38.375 493.0625 L 39.25 492.28125 L 40.875 490.6875 C 44.186382 487.6027 47.442534 484.49499 50.4375 481.09375 C 52.295851 478.98305 54.483307 476.31097 55.65625 473.75 C 56.67337 471.53031 57.12395 469.09169 57.4375 466.6875 L 57.6875 463.90625 L 57.78125 462.9375 L 57.875 461.21875 L 57.875 458.5625 L 57.96875 456.9375 L 57.96875 445.34375 z M 131.6875 513.03125 L 141.375 513.03125 C 143.82116 513.03125 145.78125 515.14356 145.78125 517.71875 C 145.78125 520.29394 143.82116 522.375 141.375 522.375 L 131.6875 522.375 C 129.24137 522.375 127.25 520.29394 127.25 517.71875 C 127.25 515.14356 129.24137 513.03125 131.6875 513.03125 z M 107.125 527.46875 L 162.375 527.46875 L 162.375 558.15625 L 107.125 558.15625 L 107.125 527.46875 z M 28.4375 552.125 L 87.21875 552.125 L 87.21875 577.625 L 182.09375 577.625 L 182.09375 552.125 L 241.03125 552.125 L 241.03125 596.875 L 240.96875 598.03125 C 240.65425 602.60447 239.46196 607.48943 236.25 610.9375 C 233.46534 613.92768 229.60525 615.24754 225.65625 615.8125 L 222.78125 616.09375 L 72.875 616.09375 L 55 616.09375 L 48.90625 616.09375 C 46.627286 616.08975 42.919692 615.33711 40.78125 614.53125 C 35.214802 612.43105 30.422078 608.13029 28.9375 602.21875 C 28.687044 601.22362 28.439412 599.99256 28.4375 598.96875 L 28.4375 552.125 z "
     style="fill:#ff00ff;fill-opacity:1;stroke:none" />
  <path
     style="fill:#00ffff;stroke:#000000;stroke-width:0.09559399"
     d="M 43.8125 5.375 C 41.489466 5.37862 38.186743 6.2298218 35.96875 6.96875 C 32.345345 8.1773565 28.604434 10.271067 25.71875 12.78125 L 23.78125 14.65625 C 21.832508 16.604992 20.648453 17.990529 19.1875 20.34375 L 17.46875 23.59375 C 15.850835 26.831994 14.256036 32.058059 14.25 35.6875 L 14.25 78.90625 L 14.25 243.84375 L 14.25 326.3125 C 14.2548 329.56644 15.438839 333.84778 16.46875 336.9375 C 17.334455 339.53222 19.175409 343.03925 20.78125 345.25 C 22.195114 347.19633 22.47555 347.44428 24.15625 349.125 L 26.0625 351.03125 C 29.182419 353.74549 32.912598 355.63715 36.8125 356.9375 C 38.878357 357.62573 42.406085 358.40265 44.5625 358.40625 L 51.03125 358.40625 C 50.271429 358.95063 49.536184 359.4957 48.8125 360.09375 C 42.590278 365.23577 37.961589 372.30989 36 380.15625 C 35.55931 381.91805 34.9405 385.07145 34.9375 386.84375 L 34.9375 408.5625 L 34.9375 454.90625 L 34.84375 456.53125 L 34.65625 461.8125 C 34.59889 462.41571 34.61781 463.66937 34.375 464.1875 C 34.21249 464.53451 33.273696 465.55639 32.96875 465.90625 L 30.75 468.3125 L 29.875 469.25 L 29 470.03125 L 27.6875 471.34375 L 25.46875 473.375 C 22.688872 476.03347 19.953174 478.73836 17.375 481.59375 C 13.250112 486.16124 9.210636 491.87002 7.25 497.75 C 6.0512496 501.34816 5.505736 506.08565 5.5 509.875 L 5.40625 511.5 L 5.40625 600.96875 C 5.40817 602.10824 5.6535175 603.67112 5.84375 604.8125 C 6.3695177 607.96711 7.1501431 610.6504 8.40625 613.59375 C 10.032306 617.40602 12.375417 621.23343 15.15625 624.3125 L 16.96875 626.125 L 18.6875 627.8125 C 24.051288 632.65719 30.738466 635.97414 37.71875 637.71875 C 40.069408 638.30663 44.508094 639.1211 46.875 639.125 L 135.78125 639.125 L 224.78125 639.125 L 225.9375 639.03125 L 230.53125 638.46875 C 239.43107 636.99566 247.66639 632.86055 253.75 626.125 C 258.89488 620.42952 262.08191 612.8007 263.34375 605.28125 L 264 600.03125 L 264.09375 598.875 L 264.09375 519.4375 L 264 518.28125 C 263.82889 515.79867 263.5051 513.38948 263.0625 510.9375 C 260.95178 499.23105 255.83341 488.55686 248.15625 479.46875 C 246.10385 477.03972 242.93898 473.74976 240.5625 471.65625 C 237.60865 469.05418 233.70635 465.88133 232 462.28125 C 231.09377 460.36843 230.90925 458.60658 230.90625 456.53125 L 230.8125 454.90625 L 230.8125 386.75 C 230.8105 385.68029 230.55663 384.01675 230.375 382.9375 C 229.89703 380.08976 229.26006 377.7761 228.1875 375.09375 C 227.09868 372.37219 225.74878 369.74602 224.0625 367.34375 C 222.63146 365.30475 221.47194 364.03444 219.71875 362.28125 L 217.71875 360.3125 C 216.9623 359.64898 216.16648 359.01807 215.34375 358.40625 L 222.875 358.40625 C 225.37311 358.40225 229.66098 357.39427 232.0625 356.59375 C 236.29926 355.18231 240.75515 352.74406 244.125 349.8125 L 246.0625 347.90625 L 248.09375 345.875 C 250.50251 343.10646 252.58969 339.3247 253.75 335.84375 C 254.42373 333.82137 255.22465 330.83776 255.25 328.71875 L 255.25 316.03125 L 255.25 290.8125 L 255.25 222.34375 C 255.246 219.67419 254.16734 214.75322 253.3125 212.1875 L 252.09375 208.9375 C 251.91143 208.51249 251.5441 207.95398 251.625 207.5 L 252.3125 205.8125 L 253.15625 203.5 C 254.10527 200.65295 255.24517 196.09883 255.25 193.125 L 255.25 129.25 C 255.245 125.81736 253.77615 121.30351 252.25 118.25 C 251.04381 115.83762 249.81202 113.82431 248.0625 111.75 L 246.1875 109.8125 L 244.375 108.03125 C 240.43405 104.60224 235.43159 102.1079 230.375 100.84375 C 228.53251 100.38252 225.97609 99.78365 224.09375 99.78125 L 208.03125 99.78125 L 198 99.78125 C 196.31447 99.78365 194.20456 100.24573 192.5625 100.65625 C 188.43682 101.68737 184.44123 103.39379 180.96875 105.875 C 179.10332 107.20797 178.34739 107.96511 176.75 109.5625 L 174.625 111.75 C 172.09912 114.65379 170.27352 118.14819 169.0625 121.78125 C 168.40326 123.76018 167.69113 126.57832 167.6875 128.65625 L 167.6875 142.65625 L 167.6875 169.6875 L 122.78125 169.6875 C 122.74025 167.78826 121.79667 164.03042 121.3125 162.09375 C 118.61155 151.28873 112.23905 142.1925 106.4375 132.875 L 102.53125 126.59375 L 100.6875 123.5625 C 100.0838 122.08585 99.970669 119.17693 99.8125 117.53125 C 99.447854 113.7207 99.47478 109.89358 99.46875 106.0625 L 99.375 104.03125 L 99.375 35.8125 C 99.371326 33.6585 98.770388 31.361599 98.25 29.28125 C 95.68669 19.025602 87.960404 10.237606 77.875 6.875 C 75.830872 6.1940269 72.50968 5.378621 70.375 5.375 L 43.8125 5.375 z M 45.28125 23.125 L 68.9375 23.125 C 70.420186 23.1274 72.209151 23.65326 73.53125 24.3125 C 77.551889 26.319198 80.014335 29.683548 81.09375 34 C 81.388355 35.182045 81.622585 36.008796 81.625 37.25 L 81.625 84.34375 L 81.625 86.59375 L 32 86.59375 L 32 37.125 C 32.0036 35.141244 32.653471 33.101724 33.53125 31.34375 C 34.209806 29.987842 34.643243 29.119544 35.65625 27.9375 C 37.857338 25.369362 41.829298 23.12983 45.28125 23.125 z M 32 105.53125 L 81.625 105.53125 L 81.625 105.71875 L 81.75 107.53125 L 81.75 113.1875 L 81.84375 114.40625 L 81.84375 115.96875 L 81.96875 117.1875 L 82.1875 120.4375 C 82.55817 124.26496 83.084999 128.13789 84.75 131.65625 L 88.96875 138.5625 L 94.53125 147.46875 L 99.5 155.5625 L 100.96875 158.46875 C 102.69654 161.92554 103.40922 163.91694 104.34375 167.65625 C 104.79169 169.44562 105.27884 171.85346 105.28125 173.6875 L 105.28125 180.9375 L 105.40625 182.75 L 105.40625 184.5625 C 105.40725 184.99716 105.46275 186.7392 105.71875 187 C 105.96023 187.24751 107.07528 187.30767 107.4375 187.3125 L 109.03125 187.3125 L 110.96875 187.4375 L 149.84375 187.4375 L 171.3125 187.4375 L 173.125 187.3125 L 174.09375 187.3125 L 175.1875 187.21875 C 178.53562 186.8843 182.82747 185.856 184.5625 182.625 C 185.26762 181.31256 185.24716 180.28162 185.34375 178.875 L 185.4375 177.4375 L 185.4375 169.5 L 237.5 169.5 L 237.5 174.78125 L 237.5 191.90625 C 237.4879 192.89873 237.18139 194.55205 236.9375 195.53125 C 236.09353 198.92284 234.83468 201.74486 232.59375 204.46875 L 229.15625 207.96875 C 230.11492 208.46258 230.80908 209.15283 231.5625 209.90625 C 233.35307 211.69562 233.96604 212.49458 235.09375 214.75 C 236.44 217.44371 237.49517 220.74102 237.5 223.78125 L 237.5 228.75 L 237.5 238.65625 L 237.5 258.59375 L 185.4375 258.59375 L 185.4375 243.96875 L 185.34375 242.03125 C 185.33675 240.60169 185.1221 239.09234 184.4375 237.8125 C 182.32938 233.87517 176.34962 233.48338 172.40625 233.4375 L 170.59375 233.34375 L 120.625 233.34375 L 110.96875 233.34375 L 109.5 233.4375 L 108.1875 233.4375 C 107.72386 233.4484 106.12643 233.58764 105.8125 233.875 C 105.54808 234.11889 105.48701 234.68593 105.4375 235.03125 L 105.28125 238.15625 L 105.28125 258.59375 L 32 258.59375 L 32 247.5625 L 32 105.53125 z M 199.46875 117.53125 L 222.875 117.53125 C 223.85903 117.54335 225.07137 117.85348 226.03125 118.09375 C 230.3803 119.18041 234.16632 121.95883 236.1875 126 C 236.92884 127.48389 237.49759 129.0068 237.5 130.6875 L 237.5 140.71875 L 237.5 149 L 185.4375 149 L 185.4375 130.09375 C 185.4385 129.13508 185.54581 128.94405 185.78125 128.03125 C 186.80754 124.04563 189.79613 120.99256 193.40625 119.1875 C 194.41081 118.68522 195.08756 118.37628 196.1875 118.09375 C 197.33815 117.79794 198.26376 117.53366 199.46875 117.53125 z M 114.625 242.09375 L 177.03125 242.09375 L 177.03125 248.40625 L 177 350.0625 L 114.53125 350.0625 C 114.74061 317.64821 114.625 285.22836 114.625 252.8125 L 114.625 248.71875 L 114.625 242.09375 z M 32 276.28125 L 105.28125 276.28125 L 105.28125 324.375 C 105.27725 326.43242 104.53176 328.46533 103.625 330.28125 C 101.14621 335.23883 96.375198 338.75836 91.03125 340.09375 C 89.850411 340.38958 88.628137 340.65385 87.40625 340.65625 L 46 340.65625 C 44.424345 340.65325 42.600299 340.18068 41.15625 339.5625 C 36.262661 337.46644 33.532611 333.29948 32.4375 328.21875 C 32.198434 327.10794 32.001209 325.98474 32 324.84375 L 32 276.28125 z M 185.4375 276.28125 L 237.5 276.28125 L 237.5 327.03125 C 237.498 328.27247 237.15114 329.51043 236.6875 330.65625 C 234.81603 335.27456 230.36148 338.58642 225.65625 339.9375 C 224.36071 340.30938 222.78375 340.65385 221.4375 340.65625 L 199.6875 340.65625 C 198.78919 340.64545 197.44511 340.37843 196.5625 340.15625 C 193.00429 339.26279 189.63774 337.2967 187.625 334.15625 L 186.75 332.46875 C 186.02315 331.00901 185.43991 329.01225 185.4375 327.375 L 185.4375 276.28125 z M 75.84375 367.75 L 80.25 367.75 L 88.5625 367.75 L 113.90625 367.75 L 190.65625 367.75 C 191.80433 367.744 193.72405 368.05088 194.875 368.28125 C 202.34377 369.7754 208.84614 374.50648 211.71875 381.6875 C 212.43762 383.48371 213.12213 386.15897 213.125 388.09375 L 213.125 428.1875 L 165.53125 428.1875 L 165.53125 416.53125 L 101.34375 416.53125 L 101.34375 428.1875 L 52.625 428.1875 L 52.625 388.1875 C 52.6268 387.07381 52.946309 385.55949 53.21875 384.46875 C 55.1249 376.84226 61.445287 371.53777 68.6875 369.125 C 70.186413 368.62598 72.455862 368.13925 74.03125 367.9375 L 75.84375 367.75 z M 110.28125 425.375 L 156.8125 425.375 L 156.8125 447.84375 L 110.28125 447.84375 L 110.28125 425.375 z M 52.625 446.3125 L 101.34375 446.3125 L 101.34375 456.65625 L 165.53125 456.65625 L 165.53125 446.3125 L 213.125 446.3125 L 213.125 456.25 L 213.21875 457.40625 L 213.21875 458.75 L 213.3125 459.875 C 213.5534 463.31638 214.49881 466.67988 215.9375 469.8125 C 217.30354 472.78834 219.65274 476.01516 221.84375 478.4375 C 224.38847 481.25083 227.38593 483.60649 230.15625 486.1875 C 231.34353 487.29354 232.48993 488.50087 233.5625 489.71875 C 239.84112 496.85387 244.02255 504.88822 245.65625 514.28125 L 246.3125 519.625 L 246.40625 520.78125 L 246.40625 533.6875 L 176.53125 533.6875 L 176.53125 513.21875 L 92.6875 513.21875 L 92.6875 534.3125 L 23.09375 534.3125 L 23.09375 512.84375 L 23.1875 511.40625 L 23.1875 509.875 L 23.28125 508.9375 C 23.41317 507.01319 23.501134 504.9196 24.1875 503.09375 C 25.60994 499.31301 28.462109 495.72076 31.1875 492.78125 L 34.65625 489.125 L 35.59375 488.28125 L 37.21875 486.65625 L 39.25 484.8125 L 40.6875 483.40625 L 41.625 482.53125 L 44.125 479.96875 C 46.47279 477.51389 48.883208 474.93533 50.53125 471.9375 C 51.344755 470.45676 51.859839 467.7877 52.0625 466.09375 L 52.34375 463.21875 L 52.4375 462.28125 L 52.53125 460.46875 L 52.53125 457.875 L 52.625 456.25 L 52.625 446.3125 z M 101.75 522.125 L 167.71875 522.125 L 167.71875 563.5 L 101.75 563.5 L 101.75 522.125 z M 176.53125 553.125 L 246.40625 553.125 L 246.40625 597.53125 L 246.3125 598.6875 L 246.03125 601.375 C 245.36974 606.12888 243.59681 610.86678 240.34375 614.46875 C 237.00942 618.1606 232.30008 620.18937 227.46875 621 C 226.28434 621.19884 224.62191 621.43558 223.4375 621.4375 L 110.5625 621.4375 L 68.875 621.4375 L 48.03125 621.4375 C 46.50939 621.4192 43.721491 620.93819 42.21875 620.5625 L 39.34375 619.75 C 33.357847 617.61731 28.117825 613.51687 25.25 607.78125 C 24.135372 605.55103 23.097574 602.15701 23.09375 599.65625 L 23.09375 553.75 L 92.6875 553.75 L 92.6875 572.34375 L 176.53125 572.34375 L 176.53125 553.125 z "
     transform="matrix(3.3333429,0,0,3.3333429,-0.00147386,0)"
     id="Selection #2-5" />
</svg>
