<?xml version="1.0" encoding="UTF-8" standalone="no"?>
<!DOCTYPE svg PUBLIC "-//W3C//DTD SVG 20010904//EN"
              "http://www.w3.org/TR/2001/REC-SVG-20010904/DTD/svg10.dtd">

<svg xmlns="http://www.w3.org/2000/svg"
     width="3.14997in" height="4.96108in"
     viewBox="0 0 2348 3698">
  <path id="Selection #3"
        fill="none" stroke="black" stroke-width="1"
        d="M 1121.00,2887.00
           C 1121.00,2887.00 1121.00,3048.00 1121.00,3048.00
             1120.97,3065.22 1116.04,3084.33 1111.87,3101.00
             1104.69,3129.74 1100.34,3138.81 1087.25,3165.00
             1073.74,3192.01 1061.82,3211.07 1041.71,3234.00
             1041.71,3234.00 1024.00,3252.00 1024.00,3252.00
             1015.88,3260.12 1007.90,3268.10 999.00,3275.39
             971.52,3297.88 933.27,3320.32 900.00,3332.94
             900.00,3332.94 859.00,3345.37 859.00,3345.37
             841.87,3349.66 818.54,3354.97 801.00,3355.00
             801.00,3355.00 653.00,3355.00 653.00,3355.00
             653.00,3355.00 509.00,3355.00 509.00,3355.00
             509.00,3355.00 420.00,3355.00 420.00,3355.00
             405.26,3354.98 384.46,3350.49 370.00,3346.87
             324.74,3335.56 285.51,3316.12 249.00,3287.00
             242.15,3281.53 215.26,3254.86 209.29,3248.00
             209.29,3248.00 195.37,3230.00 195.37,3230.00
             181.26,3211.10 160.45,3172.33 153.00,3150.00
             143.77,3122.34 132.05,3080.98 132.00,3052.00
             132.00,3052.00 132.00,2355.00 132.00,2355.00
             132.00,2355.00 132.00,960.00 132.00,960.00
             132.00,960.00 132.00,631.00 132.00,631.00
             132.03,613.91 137.45,591.70 141.63,575.00
             148.04,549.34 153.06,538.38 164.75,515.00
             176.48,491.55 189.51,468.63 207.17,449.00
             207.17,449.00 224.00,432.00 224.00,432.00
             224.00,432.00 241.00,415.17 241.00,415.17
             260.03,398.04 282.24,385.13 305.00,373.75
             331.80,360.35 343.21,356.82 372.00,349.63
             385.03,346.37 400.59,343.02 414.00,343.00
             414.00,343.00 648.00,343.00 648.00,343.00
             661.41,343.02 676.97,346.37 690.00,349.63
             716.83,356.33 726.93,359.22 752.00,371.75
             775.81,383.66 792.37,393.03 813.00,410.44
             813.00,410.44 832.00,429.00 832.00,429.00
             832.00,429.00 850.71,448.00 850.71,448.00
             880.46,482.19 903.90,530.12 914.87,574.00
             919.59,592.87 924.97,612.41 925.00,632.00
             925.00,632.00 925.00,1197.00 925.00,1197.00
             925.00,1197.00 926.00,1214.00 926.00,1214.00
             926.00,1214.00 926.00,1259.00 926.00,1259.00
             926.00,1259.00 927.00,1282.00 927.00,1282.00
             927.00,1282.00 927.91,1294.00 927.91,1294.00
             927.91,1294.00 929.83,1321.00 929.83,1321.00
             930.58,1328.77 931.14,1341.97 933.98,1349.00
             933.98,1349.00 952.32,1379.00 952.32,1379.00
             952.32,1379.00 986.58,1434.00 986.58,1434.00
             986.58,1434.00 1049.14,1536.00 1049.14,1536.00
             1049.14,1536.00 1065.25,1568.00 1065.25,1568.00
             1078.95,1595.40 1086.56,1611.68 1096.33,1641.00
             1100.61,1653.84 1111.26,1691.65 1113.00,1704.00
             1113.00,1704.00 1403.00,1704.00 1403.00,1704.00
             1403.00,1704.00 1403.00,1401.00 1403.00,1401.00
             1403.03,1383.07 1410.58,1353.25 1416.33,1336.00
             1427.78,1301.65 1446.05,1267.72 1469.44,1240.00
             1469.44,1240.00 1491.00,1218.00 1491.00,1218.00
             1508.87,1200.13 1520.58,1189.48 1542.00,1175.69
             1542.00,1175.69 1571.00,1159.75 1571.00,1159.75
             1600.50,1145.00 1609.91,1141.15 1642.00,1133.13
             1657.26,1129.31 1675.27,1125.02 1691.00,1125.00
             1691.00,1125.00 1781.00,1125.00 1781.00,1125.00
             1781.00,1125.00 1921.00,1125.00 1921.00,1125.00
             1938.78,1125.03 1961.63,1130.78 1979.00,1135.13
             2025.36,1146.72 2074.92,1171.90 2111.00,1203.29
             2111.00,1203.29 2129.00,1221.00 2129.00,1221.00
             2129.00,1221.00 2144.83,1237.00 2144.83,1237.00
             2151.90,1244.86 2166.19,1264.74 2171.94,1274.00
             2171.94,1274.00 2186.25,1301.00 2186.25,1301.00
             2199.95,1328.42 2202.00,1334.52 2209.37,1364.00
             2212.63,1377.03 2215.98,1392.59 2216.00,1406.00
             2216.00,1406.00 2216.00,1949.00 2216.00,1949.00
             2215.97,1970.07 2207.49,2007.27 2201.57,2028.00
             2201.57,2028.00 2194.00,2051.00 2194.00,2051.00
             2193.16,2053.51 2190.76,2059.76 2190.70,2062.00
             2190.63,2064.79 2192.69,2069.22 2193.66,2072.00
             2193.66,2072.00 2200.85,2094.00 2200.85,2094.00
             2207.09,2116.79 2215.96,2153.83 2216.00,2177.00
             2216.00,2177.00 2216.00,3070.00 2216.00,3070.00
             2215.98,3083.41 2212.63,3098.97 2209.37,3112.00
             2202.86,3138.05 2198.30,3150.89 2186.25,3175.00
             2171.48,3204.53 2157.51,3225.49 2134.00,3249.00
             2134.00,3249.00 2108.00,3274.56 2108.00,3274.56
             2068.16,3308.18 2019.51,3332.75 1969.00,3345.37
             1952.46,3349.51 1927.81,3354.97 1911.00,3355.00
             1911.00,3355.00 1771.00,3355.00 1771.00,3355.00
             1771.00,3355.00 1693.00,3355.00 1693.00,3355.00
             1677.54,3354.82 1654.22,3349.68 1639.00,3345.87
             1625.16,3342.41 1611.31,3338.35 1598.00,3333.19
             1568.69,3321.83 1527.58,3298.55 1505.00,3276.96
             1505.00,3276.96 1472.44,3244.00 1472.44,3244.00
             1454.41,3222.63 1446.02,3207.54 1433.75,3183.00
             1433.75,3183.00 1422.06,3158.00 1422.06,3158.00
             1422.06,3158.00 1411.13,3122.00 1411.13,3122.00
             1407.31,3106.74 1403.02,3088.73 1403.00,3073.00
             1403.00,3073.00 1403.00,2912.00 1403.00,2912.00
             1403.00,2912.00 1403.00,2466.00 1403.00,2466.00
             1403.00,2466.00 1121.00,2466.00 1121.00,2466.00
             1121.00,2466.00 1121.00,2887.00 1121.00,2887.00 Z" />
  <path id="Selection #2"
        fill="none" stroke="black" stroke-width="1"
        d="M 1077.00,2901.00
           C 1077.00,2901.00 1077.00,3041.00 1077.00,3041.00
             1076.98,3055.89 1072.99,3073.53 1069.37,3088.00
             1055.21,3144.66 1023.14,3193.82 980.00,3232.83
             942.78,3266.50 896.56,3290.23 848.00,3302.37
             832.59,3306.23 809.70,3310.98 794.00,3311.00
             794.00,3311.00 658.00,3311.00 658.00,3311.00
             658.00,3311.00 427.00,3311.00 427.00,3311.00
             409.14,3310.97 380.11,3304.37 363.00,3298.67
             330.70,3287.90 299.84,3272.19 274.00,3249.71
             274.00,3249.71 258.00,3234.00 258.00,3234.00
             244.08,3220.08 241.86,3218.12 230.15,3202.00
             216.85,3183.69 201.50,3154.49 194.33,3133.00
             185.80,3107.41 176.04,3071.95 176.00,3045.00
             176.00,3045.00 176.00,2362.00 176.00,2362.00
             176.00,2362.00 176.00,996.00 176.00,996.00
             176.00,996.00 176.00,638.00 176.00,638.00
             176.05,607.94 189.35,564.82 202.75,538.00
             202.75,538.00 217.06,511.00 217.06,511.00
             229.16,491.51 238.86,480.14 255.00,464.00
             255.00,464.00 271.00,448.29 271.00,448.29
             294.90,427.50 325.99,410.34 356.00,400.33
             374.37,394.21 401.76,387.03 421.00,387.00
             421.00,387.00 641.00,387.00 641.00,387.00
             658.68,387.03 686.07,393.69 703.00,399.33
             786.53,427.18 850.64,500.06 871.87,585.00
             876.18,602.23 880.97,621.16 881.00,639.00
             881.00,639.00 881.00,1204.00 881.00,1204.00
             881.00,1204.00 882.00,1221.00 882.00,1221.00
             882.05,1252.73 881.81,1284.44 884.83,1316.00
             886.14,1329.63 887.09,1353.77 892.09,1366.00
             892.09,1366.00 907.19,1391.00 907.19,1391.00
             907.19,1391.00 939.58,1443.00 939.58,1443.00
             987.63,1520.17 1040.50,1595.51 1062.87,1685.00
             1066.88,1701.04 1074.66,1732.27 1075.00,1748.00
             1075.00,1748.00 1447.00,1748.00 1447.00,1748.00
             1447.00,1748.00 1447.00,1524.00 1447.00,1524.00
             1447.00,1524.00 1447.00,1408.00 1447.00,1408.00
             1447.03,1390.79 1452.87,1367.39 1458.33,1351.00
             1468.36,1320.91 1483.37,1292.05 1504.29,1268.00
             1504.29,1268.00 1522.00,1250.00 1522.00,1250.00
             1535.23,1236.77 1541.55,1230.47 1557.00,1219.43
             1585.76,1198.88 1618.83,1184.67 1653.00,1176.13
             1666.60,1172.73 1684.04,1169.02 1698.00,1169.00
             1698.00,1169.00 1781.00,1169.00 1781.00,1169.00
             1781.00,1169.00 1914.00,1169.00 1914.00,1169.00
             1929.59,1169.02 1950.74,1173.81 1966.00,1177.63
             2007.88,1188.10 2049.36,1208.89 2082.00,1237.29
             2082.00,1237.29 2097.00,1252.00 2097.00,1252.00
             2097.00,1252.00 2112.56,1268.00 2112.56,1268.00
             2127.05,1285.18 2137.26,1302.02 2147.25,1322.00
             2159.89,1347.29 2171.96,1384.57 2172.00,1413.00
             2172.00,1413.00 2172.00,1942.00 2172.00,1942.00
             2171.96,1966.63 2162.53,2004.42 2154.67,2028.00
             2154.67,2028.00 2147.85,2047.00 2147.85,2047.00
             2147.85,2047.00 2142.16,2061.00 2142.16,2061.00
             2141.49,2064.76 2144.49,2069.48 2146.00,2073.00
             2146.00,2073.00 2156.00,2100.00 2156.00,2100.00
             2163.08,2121.25 2171.97,2161.89 2172.00,2184.00
             2172.00,2184.00 2172.00,2751.00 2172.00,2751.00
             2172.00,2751.00 2172.00,2960.00 2172.00,2960.00
             2172.00,2960.00 2172.00,3065.00 2172.00,3065.00
             2171.79,3082.55 2165.25,3107.25 2159.67,3124.00
             2150.06,3152.83 2132.66,3184.07 2112.71,3207.00
             2112.71,3207.00 2096.00,3224.00 2096.00,3224.00
             2096.00,3224.00 2080.00,3239.71 2080.00,3239.71
             2052.09,3263.99 2015.09,3284.31 1980.00,3296.00
             1960.11,3302.63 1924.69,3310.97 1904.00,3311.00
             1904.00,3311.00 1774.00,3311.00 1774.00,3311.00
             1774.00,3311.00 1702.00,3311.00 1702.00,3311.00
             1688.40,3310.98 1665.43,3306.73 1652.00,3303.37
             1621.18,3295.67 1594.06,3284.74 1567.00,3267.94
             1550.51,3257.70 1537.67,3246.67 1524.00,3233.00
             1524.00,3233.00 1507.29,3216.00 1507.29,3216.00
             1485.46,3190.91 1469.80,3160.39 1459.33,3129.00
             1453.57,3111.70 1447.03,3084.09 1447.00,3066.00
             1447.00,3066.00 1447.00,2960.00 1447.00,2960.00
             1447.00,2960.00 1447.00,2422.00 1447.00,2422.00
             1447.00,2422.00 1077.00,2422.00 1077.00,2422.00
             1077.00,2422.00 1077.00,2901.00 1077.00,2901.00 Z" />
  <path id="Selection #1"
        fill="none" stroke="black" stroke-width="1"
        d="M 1976.00,2081.00
           C 1990.83,2095.82 1995.91,2102.32 2005.25,2121.00
             2016.40,2143.31 2024.96,2170.82 2025.00,2196.00
             2025.00,2196.00 2025.00,2237.00 2025.00,2237.00
             2025.00,2237.00 2025.00,2319.00 2025.00,2319.00
             2025.00,2319.00 2025.00,3051.00 2025.00,3051.00
             2024.98,3061.28 2022.24,3071.51 2018.40,3081.00
             2002.90,3119.25 1965.97,3146.81 1927.00,3158.00
             1916.27,3161.08 1903.15,3163.98 1892.00,3164.00
             1892.00,3164.00 1712.00,3164.00 1712.00,3164.00
             1704.56,3163.91 1693.31,3161.71 1686.00,3159.87
             1656.53,3152.47 1628.76,3136.01 1612.09,3110.00
             1612.09,3110.00 1604.75,3096.00 1604.75,3096.00
             1598.73,3083.91 1594.02,3067.56 1594.00,3054.00
             1594.00,3054.00 1594.00,2363.00 1594.00,2363.00
             1594.00,2363.00 1593.00,2347.00 1593.00,2347.00
             1592.94,2335.16 1591.35,2322.60 1585.68,2312.00
             1568.22,2279.39 1518.66,2276.38 1486.00,2276.00
             1486.00,2276.00 1471.00,2275.00 1471.00,2275.00
             1471.00,2275.00 1057.00,2275.00 1057.00,2275.00
             1057.00,2275.00 977.00,2275.00 977.00,2275.00
             977.00,2275.00 965.00,2275.96 965.00,2275.96
             965.00,2275.96 954.00,2275.96 954.00,2275.96
             950.16,2276.05 937.11,2277.21 934.51,2279.59
             932.32,2281.61 931.84,2286.14 931.43,2289.00
             931.43,2289.00 930.00,2315.00 930.00,2315.00
             930.00,2315.00 930.00,3029.00 930.00,3029.00
             929.97,3046.04 923.76,3062.96 916.25,3078.00
             895.72,3119.06 856.26,3148.31 812.00,3159.37
             802.22,3161.82 792.12,3163.98 782.00,3164.00
             782.00,3164.00 439.00,3164.00 439.00,3164.00
             425.95,3163.98 410.96,3159.97 399.00,3154.85
             358.47,3137.49 335.86,3103.08 326.79,3061.00
             324.81,3051.80 323.01,3042.45 323.00,3033.00
             323.00,3033.00 323.00,2393.00 323.00,2393.00
             323.00,2393.00 323.00,1114.00 323.00,1114.00
             323.00,1114.00 323.00,650.00 323.00,650.00
             323.03,633.57 328.48,616.56 335.75,602.00
             341.37,590.77 344.91,583.79 353.30,574.00
             371.53,552.73 404.41,534.04 433.00,534.00
             433.00,534.00 629.00,534.00 629.00,534.00
             641.28,534.02 656.05,538.29 667.00,543.75
             700.30,560.37 720.69,588.25 729.63,624.00
             732.07,633.79 733.98,640.72 734.00,651.00
             734.00,651.00 734.00,1041.00 734.00,1041.00
             734.00,1041.00 734.00,1218.00 734.00,1218.00
             734.00,1218.00 735.00,1233.00 735.00,1233.00
             735.00,1233.00 735.00,1280.00 735.00,1280.00
             735.00,1280.00 735.96,1290.00 735.96,1290.00
             735.96,1290.00 735.96,1303.00 735.96,1303.00
             735.96,1303.00 736.91,1313.00 736.91,1313.00
             736.91,1313.00 738.83,1340.00 738.83,1340.00
             741.90,1371.70 746.10,1403.86 759.89,1433.00
             759.89,1433.00 794.95,1490.00 794.95,1490.00
             794.95,1490.00 841.05,1564.00 841.05,1564.00
             841.05,1564.00 882.14,1631.00 882.14,1631.00
             882.14,1631.00 894.25,1655.00 894.25,1655.00
             908.56,1683.63 914.63,1700.03 922.37,1731.00
             926.08,1745.82 929.98,1765.81 930.00,1781.00
             930.00,1781.00 930.00,1841.00 930.00,1841.00
             930.00,1841.00 931.00,1856.00 931.00,1856.00
             931.00,1856.00 931.00,1871.00 931.00,1871.00
             931.01,1874.60 931.62,1889.24 933.74,1891.40
             935.74,1893.45 945.00,1893.96 948.00,1894.00
             948.00,1894.00 961.00,1894.00 961.00,1894.00
             961.00,1894.00 977.00,1895.00 977.00,1895.00
             977.00,1895.00 1299.00,1895.00 1299.00,1895.00
             1299.00,1895.00 1477.00,1895.00 1477.00,1895.00
             1477.00,1895.00 1492.00,1894.00 1492.00,1894.00
             1492.00,1894.00 1500.00,1894.00 1500.00,1894.00
             1500.00,1894.00 1509.00,1893.17 1509.00,1893.17
             1536.73,1890.40 1572.31,1881.76 1586.68,1855.00
             1592.52,1844.13 1592.29,1835.65 1593.09,1824.00
             1593.09,1824.00 1594.00,1812.00 1594.00,1812.00
             1594.00,1812.00 1594.00,1420.00 1594.00,1420.00
             1594.01,1412.06 1594.68,1410.56 1596.63,1403.00
             1605.13,1369.99 1630.10,1344.70 1660.00,1329.75
             1668.32,1325.59 1673.89,1322.97 1683.00,1320.63
             1692.53,1318.18 1700.02,1316.02 1710.00,1316.00
             1710.00,1316.00 1904.00,1316.00 1904.00,1316.00
             1912.15,1316.10 1922.05,1318.64 1930.00,1320.63
             1966.02,1329.63 1997.51,1352.53 2014.25,1386.00
             2020.39,1398.29 2024.98,1411.08 2025.00,1425.00
             2025.00,1425.00 2025.00,1508.00 2025.00,1508.00
             2025.00,1508.00 2025.00,1790.00 2025.00,1790.00
             2025.00,1790.00 2025.00,1932.00 2025.00,1932.00
             2024.90,1940.22 2022.39,1953.89 2020.37,1962.00
             2013.38,1990.09 2003.10,2013.44 1984.54,2036.00
             1984.54,2036.00 1956.00,2065.00 1956.00,2065.00
             1963.94,2069.09 1969.76,2074.76 1976.00,2081.00 Z" />
  <path id="Selection"
        fill="none" stroke="black" stroke-width="1"
        d="M 1854.00,2071.21
           C 1895.51,2080.05 1941.26,2096.87 1963.14,2136.00
             1968.91,2146.32 1973.00,2156.55 1975.87,2168.00
             1978.45,2178.27 1980.98,2192.47 1981.00,2203.00
             1981.00,2203.00 1981.00,2853.00 1981.00,2853.00
             1981.00,2853.00 1981.00,3044.00 1981.00,3044.00
             1980.93,3089.27 1925.59,3119.94 1885.00,3120.00
             1885.00,3120.00 1721.00,3120.00 1721.00,3120.00
             1678.43,3119.93 1638.07,3092.67 1638.00,3047.00
             1638.00,3047.00 1638.00,2356.00 1638.00,2356.00
             1638.00,2356.00 1637.00,2340.00 1637.00,2340.00
             1636.94,2327.34 1634.56,2314.94 1630.31,2303.00
             1614.85,2259.57 1575.39,2241.89 1533.00,2234.92
             1533.00,2234.92 1506.00,2232.00 1506.00,2232.00
             1506.00,2232.00 1493.00,2232.00 1493.00,2232.00
             1493.00,2232.00 1478.00,2231.00 1478.00,2231.00
             1478.00,2231.00 1150.00,2231.00 1150.00,2231.00
             1150.00,2231.00 968.00,2231.00 968.00,2231.00
             968.00,2231.00 953.00,2232.00 953.00,2232.00
             937.09,2232.02 914.09,2234.76 902.09,2246.18
             891.52,2256.25 887.03,2275.81 887.00,2290.00
             887.00,2290.00 886.00,2308.00 886.00,2308.00
             886.00,2308.00 886.00,2935.00 886.00,2935.00
             886.00,2935.00 886.00,3022.00 886.00,3022.00
             885.92,3076.31 826.16,3119.92 775.00,3120.00
             775.00,3120.00 446.00,3120.00 446.00,3120.00
             404.05,3119.93 379.08,3090.57 370.35,3052.00
             368.55,3044.04 367.01,3034.13 367.00,3026.00
             367.00,3026.00 367.00,2411.00 367.00,2411.00
             367.00,2411.00 367.00,1181.00 367.00,1181.00
             367.00,1181.00 367.00,830.00 367.00,830.00
             367.00,830.00 367.00,655.00 367.00,655.00
             367.46,615.94 399.83,578.06 440.00,578.00
             440.00,578.00 624.00,578.00 624.00,578.00
             664.57,578.48 689.94,621.09 690.00,658.00
             690.00,658.00 690.00,1048.00 690.00,1048.00
             690.00,1048.00 690.00,1225.00 690.00,1225.00
             690.00,1225.00 691.00,1240.00 691.00,1240.00
             691.00,1240.00 691.00,1287.00 691.00,1287.00
             691.00,1287.00 691.96,1297.00 691.96,1297.00
             691.96,1297.00 691.96,1310.00 691.96,1310.00
             691.96,1310.00 692.91,1320.00 692.91,1320.00
             692.91,1320.00 694.83,1347.00 694.83,1347.00
             697.94,1379.12 702.44,1409.74 714.45,1440.00
             722.93,1461.37 736.47,1480.56 748.58,1500.00
             748.58,1500.00 808.42,1596.00 808.42,1596.00
             840.02,1646.74 864.61,1682.65 879.37,1742.00
             882.53,1754.69 885.98,1775.07 886.00,1788.00
             886.00,1788.00 886.00,1848.00 886.00,1848.00
             886.00,1848.00 887.00,1863.00 887.00,1863.00
             887.00,1863.00 887.00,1878.00 887.00,1878.00
             887.01,1887.03 888.98,1904.35 891.43,1913.00
             892.89,1918.17 895.09,1923.94 899.18,1927.61
             903.65,1931.61 911.22,1933.82 917.00,1935.00
             932.29,1938.12 939.91,1937.83 955.00,1938.00
             955.00,1938.00 970.00,1939.00 970.00,1939.00
             970.00,1939.00 1482.00,1939.00 1482.00,1939.00
             1482.00,1939.00 1494.00,1938.04 1494.00,1938.04
             1494.00,1938.04 1507.00,1938.04 1507.00,1938.04
             1514.67,1937.91 1528.32,1935.94 1536.00,1934.40
             1576.49,1926.30 1616.66,1905.16 1631.31,1864.00
             1636.00,1850.81 1636.17,1844.48 1637.09,1831.00
             1637.09,1831.00 1638.00,1819.00 1638.00,1819.00
             1638.00,1819.00 1638.00,1427.00 1638.00,1427.00
             1638.06,1388.99 1681.78,1360.05 1717.00,1360.00
             1717.00,1360.00 1897.00,1360.00 1897.00,1360.00
             1902.71,1360.07 1909.41,1361.37 1915.00,1362.65
             1947.89,1370.19 1980.94,1395.54 1981.00,1432.00
             1981.00,1432.00 1981.00,1583.00 1981.00,1583.00
             1981.00,1583.00 1981.00,1860.00 1981.00,1860.00
             1981.00,1860.00 1981.00,1923.00 1981.00,1923.00
             1980.96,1951.72 1968.71,1984.92 1950.54,2007.00
             1928.43,2033.85 1896.36,2050.77 1863.00,2059.11
             1863.00,2059.11 1824.00,2066.00 1824.00,2066.00
             1824.00,2066.00 1854.00,2071.21 1854.00,2071.21 Z" />
</svg>
