<?xml version="1.0" encoding="UTF-8" standalone="no"?>
<svg
   xmlns:dc="http://purl.org/dc/elements/1.1/"
   xmlns:cc="http://creativecommons.org/ns#"
   xmlns:rdf="http://www.w3.org/1999/02/22-rdf-syntax-ns#"
   xmlns:svg="http://www.w3.org/2000/svg"
   xmlns="http://www.w3.org/2000/svg"
   xmlns:sodipodi="http://sodipodi.sourceforge.net/DTD/sodipodi-0.dtd"
   xmlns:inkscape="http://www.inkscape.org/namespaces/inkscape"
   width="138.487"
   height="209.1105"
   viewBox="0 0 461.62314 697.03702"
   id="svg3004"
   version="1.1"
   inkscape:version="0.48.4 r9939"
   sodipodi:docname="bits.svg">
  <sodipodi:namedview
     pagecolor="#ffffff"
     bordercolor="#666666"
     borderopacity="1"
     objecttolerance="10"
     gridtolerance="10"
     guidetolerance="10"
     inkscape:pageopacity="0"
     inkscape:pageshadow="2"
     inkscape:window-width="1276"
     inkscape:window-height="1391"
     id="namedview3010"
     showgrid="false"
     inkscape:zoom="1.6018124"
     inkscape:cx="66.116272"
     inkscape:cy="87.599775"
     inkscape:window-x="0"
     inkscape:window-y="22"
     inkscape:window-maximized="0"
     inkscape:current-layer="svg3004"
     fit-margin-top="0"
     fit-margin-left="0"
     fit-margin-right="0"
     fit-margin-bottom="0" />
  <metadata
     id="metadata3014">
    <rdf:RDF>
      <cc:Work
         rdf:about="">
        <dc:format>image/svg+xml</dc:format>
        <dc:type
           rdf:resource="http://purl.org/dc/dcmitype/StillImage" />
        <dc:title></dc:title>
      </cc:Work>
    </rdf:RDF>
  </metadata>
  <defs
     id="defs3012" />
  <path
     style="fill:#00ff00;stroke:#000000;stroke-width:1"
     d="m 40.203964,0.5 c -3.23921,0.006 -6.40822,1.06725 -9.45564,2.0836 -4.68998,1.56236 -9.7285,3.9726 -13.50805,7.20815 l -3.51772,3.43513 c -2.8772,2.87875 -4.0218096,4.03208 -6.1911896,7.54603 l -2.50462,4.87114 c -2.17479,4.35732 -4.52272003,11.07241 -4.53082003,15.96492 l 0,109.19223 0,333.82748 0,167.05453 c 0.006,4.1248 1.31230003,9.069 2.61718003,12.9803 1.62366,4.8763 4.23275,10.7744 7.3449996,14.8668 1.20492,1.5867 3.1645,3.3914 4.61526,4.843 l 3.51772,3.3788 c 2.40442,1.8948 5.1083,3.1736 7.82342,4.5333 4.23341,2.1164 10.37735,4.2435 15.14028,4.2516 l 93.205566,0 c 3.92273,-0.01 8.71316,-1.3751 12.43867,-2.6185 3.57422,-1.1894 4.24604,-1.5892 7.54199,-3.2381 6.85668,-3.4302 8.85073,-4.8853 14.32417,-10.3617 4.90341,-4.906 6.6784,-7.0005 9.79334,-13.2337 2.13157,-4.2654 4.80415,-11.7426 4.81225,-16.4999 l 0,-179.19014 119.12416,0 4.58711,0.2534 c 3.40672,0.006 6.07593,0.16062 9.45564,0.70393 1.11306,0.1784 3.99838,0.52597 4.72782,1.32337 0.76186,0.83795 0.6646,3.36598 0.67541,4.47694 l 0.28141,4.05458 0,35.39315 0,139.48897 c 0.006,3.4329 1.1788,6.771 2.25134,9.9957 1.43456,4.3032 3.90496,9.1848 6.78217,12.6987 l 3.12374,3.2381 c 1.57233,1.5731 2.80406,2.9148 4.58711,4.2798 3.33378,2.5544 9.49346,5.4759 13.50805,6.814 3.06902,1.0244 8.15325,2.3836 11.34115,2.4214 l 51.61201,0 c 5.37889,-0.01 13.56774,-2.6625 18.37659,-5.0682 3.63096,-1.8164 5.52773,-2.5992 8.92095,-5.0401 1.91543,-1.3785 3.73634,-3.0907 5.40322,-4.7585 4.75211,-4.7519 6.00816,-6.465 8.97723,-12.4171 1.7074,-3.4302 3.70931,-9.1555 3.71471,-12.9803 l 0,-66.50649 0,-156.21415 c -0.008,-5.64666 -2.75047,-15.75974 -5.20623,-20.83606 -1.04011,-2.14891 -2.43685,-5.06756 -3.71472,-7.01105 -0.42144,-0.64062 -1.78261,-2.43072 -1.74479,-3.1254 0.0271,-0.53521 1.43907,-2.50529 1.80108,-3.09726 l 3.65843,-7.03921 c 2.38281,-4.92224 5.19813,-14.82358 5.20623,-20.27293 l 0,-134.33627 c -0.006,-3.82482 -2.00731,-9.55014 -3.71471,-12.9803 -2.88802,-5.78993 -3.80118,-7.23835 -8.44253,-11.88219 -5.387,-5.38987 -6.8486,-6.18685 -13.50806,-9.51701 -4.50088,-2.25164 -12.28222,-4.80671 -17.3072,-4.81483 l -15.11213,0 -39.45479,0 c -3.63635,0.006 -7.11019,1.19634 -10.52502,2.33702 -4.77102,1.58939 -10.42845,4.32288 -14.32416,7.51788 l -4.05242,3.94196 c -4.64406,4.64654 -5.22718,5.19461 -8.16112,11.06564 -1.85059,3.70588 -3.99073,9.09106 -3.99613,13.26187 l 0,99.19654 -0.28141,3.77301 c -0.0216,0.90283 0.13169,1.89373 -0.42214,2.67491 -0.86991,1.23259 -3.27862,1.70225 -4.69968,1.94282 -3.41482,0.57575 -5.46018,0.77217 -8.92094,0.78839 l -3.771,0.28157 -40.27089,0 -80.48549,0 0,-17.2883 c -0.006,-3.85184 -1.13693,-9.48301 -2.0825,-13.26187 -1.54802,-6.19809 -3.7244,-12.83368 -6.38818,-18.63983 -4.57112,-9.96073 -9.24291,-17.29171 -14.94329,-26.49558 l -10.21546,-16.49991 -6.55704,-10.53066 c -1.83439,-2.91118 -3.75456,-5.69017 -4.98109,-8.92572 -1.6831,-4.44652 -2.50214,-11.66303 -2.98303,-16.47175 l -0.75983,-11.62878 -0.28141,-4.58956 0,-11.62878 -0.25329,-4.05458 0,-24.86248 0,-49.47157 0,-46.48695 0,-23.25755 c -0.0378,-3.13012 -1.33616,-7.53567 -2.33576,-10.53065 -1.78575,-5.36555 -4.3111,-10.81809 -8.02041,-15.14837 l -3.43329,-3.51961 c -2.5098,-2.51113 -3.16112,-3.26283 -6.21933,-5.20902 L 109.62974,4.49827 C 106.29867,2.83319 100.36838,0.54595 96.656384,0.5 l -56.45242,0 z m 4.86853,25.96059 46.7435,0 C 101.9308,26.5795 108.26543,37.58641 108.27893,46.73352 l 0,98.66156 0,44.88201 0.28142,4.05458 0,12.16376 0.25328,2.70305 0,3.23804 0.25328,2.70305 0.25327,3.77302 c 0.96177,10.06616 1.76214,18.06974 5.82534,27.56555 1.90464,4.45462 6.35465,11.10236 9.06167,15.42995 l 13.90204,22.41284 c 8.14803,13.15844 15.39581,23.90632 18.48914,39.47588 0.4917,2.4787 1.12297,6.70585 1.12568,9.17913 l 0,15.14838 0.25327,3.23804 0,4.58956 c 0.0162,3.21123 0.63106,10.1509 3.01117,12.38902 2.93124,2.7517 10.16212,2.71611 14.01461,2.75936 l 4.05242,0.28157 129.67733,0 3.26444,-0.28157 3.48958,0 4.61526,-0.50682 c 11.38455,-1.58398 22.79372,-7.15142 26.81911,-18.69614 1.11036,-3.18689 1.0757,-4.61368 1.29452,-7.8276 l 0.25328,-3.23803 0,-99.19655 c 0.0162,-9.72016 10.97622,-17.02138 19.98066,-17.03489 l 45.3927,0 c 9.65553,0.11355 21.31526,7.5981 21.33147,18.10485 l 0,38.65934 0,70.81445 0,15.14838 c -0.0107,7.50096 -3.28045,16.2312 -8.18925,21.87787 -5.45724,6.27917 -12.52065,10.07835 -20.43094,12.33269 l -7.03545,1.436 c -1.38323,0.22976 -2.52825,0.18786 -3.771,0.8447 2.65027,0.0243 7.06945,0.97085 9.70892,1.6331 8.46412,2.11649 16.86077,5.23471 22.626,12.1356 4.52518,5.4196 7.08091,13.77727 7.09172,20.8079 l 0,171.92566 0,41.0808 c -0.019,11.4664 -14.05651,19.1868 -24.31449,19.203 l -41.34028,0 c -10.73618,-0.016 -21.03115,-6.7958 -21.05006,-18.3864 l 0,-174.88214 -0.28142,-4.33617 c -0.0162,-3.00308 -0.559,-6.08481 -1.5478,-8.92571 -0.67539,-1.93267 -1.50254,-3.7032 -2.64532,-5.40611 -5.11684,-7.63883 -13.28611,-10.79015 -22.00688,-12.22008 -2.04781,-0.33517 -5.25171,-0.74671 -7.28872,-0.76022 l -3.79914,0 -3.2363,-0.25342 -82.93383,0 -45.92739,0 -4.05242,0.28157 c -4.14156,0.006 -9.77938,0.62644 -12.88893,3.63223 -2.71512,2.62196 -3.83651,7.27416 -3.85542,10.95301 l -0.28142,4.87113 0,158.66381 0,21.906 c -0.0216,13.6531 -14.91046,24.8436 -27.83222,24.8625 l -83.468536,0 c -10.84153,-0.016 -17.29256,-7.8366 -19.30525,-17.8514 -0.39443,-1.957 -0.70085,-3.9436 -0.70354,-5.9411 l 0,-467.34725 0,-88.94745 0,-44.60044 c 0.11892,-10.05534 8.38109,-19.44015 18.65799,-19.45638 z"
     id="Selection #3"
     inkscape:connector-curvature="0" />
  <path
     style="fill:#000000;fill-opacity:1;stroke:#000000;stroke-width:1"
     d="m 41.273364,5.37112 c -3.04471,0.006 -6.02371,0.92963 -8.8928,1.88652 -8.68837,2.89766 -16.25944,8.86695 -20.96564,16.78147 l -2.0824896,4.05458 c -1.95325,3.91131 -3.95988,10.20361 -3.96799,14.58524 l 0,111.89528 0,330.58946 0,165.42144 c 0.006,3.841 1.20447,8.7935 2.42019,12.4453 1.55613,4.6736 4.0168496,10.2281 7.1480196,14.0503 l 3.37701,3.5196 c 1.06444,1.065 2.33441,2.4104 3.51773,3.2943 2.25582,1.6867 4.03418,2.5659 6.50075,3.8012 4.12805,2.0651 9.63845,3.9902 14.29602,3.9983 l 91.066796,0 c 5.27083,-0.01 12.85699,-2.4632 17.56047,-4.8149 l 6.47262,-3.4914 c 3.33107,-2.1705 5.04076,-3.7764 7.82341,-6.5605 5.50046,-5.5034 8.70303,-10.1581 11.17229,-17.5699 1.05093,-3.1491 2.07708,-6.3959 2.08249,-9.7423 l 0,-182.73786 3.771,-0.25341 43.22578,0 78.09344,0 4.05242,0.25341 c 4.41982,0.0513 8.33965,0.23764 12.69194,1.21074 1.79386,0.40275 4.11816,1.09293 5.29065,2.59042 0.95637,1.22179 1.17385,4.11069 1.18195,5.65953 l 0.28142,4.33616 0,32.15511 0,143.262 c 0.006,3.0463 0.92914,6.0551 1.88551,8.9257 4.16857,12.5178 13.26764,20.6498 25.6653,24.6936 3.03931,0.992 7.62936,2.0782 10.80645,2.0836 l 13.78946,0 35.12095,0 c 4.60894,-0.01 12.32139,-2.2418 16.46294,-4.2799 l 5.68464,-2.872 c 7.09982,-4.2275 12.635,-10.3513 16.26595,-17.7388 1.40754,-2.8625 3.16382,-8.1765 3.18002,-11.3472 l 0,-52.1746 0,-168.65948 c -0.0107,-7.39825 -2.99857,-16.13951 -6.27561,-22.69441 -1.14008,-2.27866 -2.51138,-4.45262 -4.02427,-6.50422 -0.47279,-0.64334 -1.77182,-1.95431 -1.74479,-2.70306 0.0243,-0.65414 1.27245,-2.09488 1.6885,-2.70306 1.38052,-2.00566 2.70498,-4.04671 3.79914,-6.22266 3.23382,-6.42514 6.54622,-15.43402 6.55703,-22.69442 l 0,-63.8034 0,-68.36479 c -0.006,-3.95457 -1.95327,-9.20212 -3.71471,-12.7269 -5.34377,-10.69055 -15.83958,-18.42246 -27.35382,-21.31473 -2.48006,-0.6244 -4.99281,-1.34724 -7.57013,-1.37968 l -52.9347,0 c -3.34458,0.006 -6.58968,1.03212 -9.73705,2.08361 -4.71159,1.57047 -9.7096,3.92553 -13.50806,7.17999 l -3.2363,3.18173 c -3.98486,3.98699 -4.85256,4.95178 -7.37315,9.99567 -1.68309,3.3707 -3.42789,8.08981 -3.4333,11.88219 l 0,99.19655 c -0.002,1.61101 -0.24854,6.91981 -1.0131,8.10916 -1.11576,1.72724 -3.80657,2.99363 -5.74092,3.54776 -3.39322,0.9731 -7.56497,1.31797 -11.08786,1.32338 l -4.05242,0.28156 -24.56778,0 -49.19183,0 -29.971,0 -18.91127,0 -3.79914,-0.28156 -0.25328,-5.65953 0,-15.14837 c -0.006,-3.85185 -1.10879,-9.45485 -2.05435,-13.23373 -1.52101,-6.09537 -3.51165,-12.13448 -6.13491,-17.85144 -4.41712,-9.62825 -8.90813,-16.51794 -14.4086,-25.39745 l -10.3843,-16.78148 -10.69389,-17.2883 -1.32266,-3.23804 c -1.83709,-4.89252 -2.62777,-11.8045 -3.15188,-17.03489 l -0.75982,-11.62878 -0.25329,-4.58956 0,-11.62878 -0.28141,-4.05458 0,-24.86249 0,-49.47156 0,-46.48695 0,-23.25755 c -0.0352,-2.89496 -1.24297,-7.21964 -2.16692,-9.99567 C 123.75107,22.07333 117.59699,14.01818 107.74424,9.08783 104.51313,7.47141 99.207144,5.41438 95.586994,5.37112 l -54.31363,0 z m 2.7016,16.21834 48.37572,0 c 2.77725,0.006 5.09549,0.74109 7.57015,1.97099 6.151536,3.05714 9.651726,7.83031 11.791396,14.24735 0.84021,2.52465 1.42983,5.18515 1.43523,7.85576 l 0,98.66157 0,44.85384 0.28142,4.05458 0,12.16376 0.25327,2.70305 0,3.23804 0.25329,2.70306 0.50654,7.03921 c 0.83211,8.31457 2.11763,17.0081 5.79721,24.60908 l 8.18927,13.51528 13.73318,22.15943 c 3.92273,6.33324 7.97652,12.50098 11.31299,19.17481 4.2064,8.41729 7.30922,16.58643 8.61139,25.9606 0.24855,1.78401 0.50385,3.60319 0.50656,5.40611 l 0,15.14838 0.25327,3.23804 0,4.58956 c 0.0135,1.72725 0.39015,5.31467 0.70354,7.03921 0.1594,0.8785 0.35234,2.14308 1.04125,2.75938 0.71863,0.64603 2.44879,0.88232 3.40516,1.0418 3.32567,0.54872 4.84939,0.46898 8.10483,0.50682 l 4.05241,0.28157 82.39914,0 45.64597,0 4.05242,-0.28157 2.16692,0 4.58711,-0.50682 c 8.76669,-1.21908 18.07491,-4.89864 22.31642,-13.26187 1.6858,-3.32746 1.78307,-5.89808 2.02621,-9.4607 l 0.25329,-3.2662 0,-99.19654 c 0.0162,-11.16628 13.27326,-20.79169 23.7798,-20.8079 l 47.53146,0 c 2.75565,0.0324 6.64665,1.02018 9.20237,2.05545 2.41523,0.9785 4.9595,2.33364 7.0073,3.94196 4.80885,3.77345 8.91014,9.56996 8.92095,15.90861 l 0,8.89756 0,16.49991 0,71.91256 0,19.70979 0,9.74227 c -0.0135,7.8875 -3.97589,18.20195 -9.2305,24.04594 -2.37741,2.64358 -5.3474,5.46176 -8.32997,7.40525 l -6.75404,3.68854 c 1.90734,0.51629 3.64449,1.48398 5.40323,2.36519 8.78291,4.40596 13.88044,10.85842 16.94136,20.07582 0.99418,2.99767 1.9321,7.66858 1.96992,10.81223 l 0,62.17029 0,124.3406 0,29.1986 c -0.0162,9.9365 -9.32914,17.5638 -17.84189,20.8643 -3.11496,1.2082 -6.89632,2.1063 -10.2436,2.1117 l -43.78863,0 c -1.88031,-0.01 -4.10623,-0.4268 -5.93791,-0.8728 -8.17234,-1.9949 -14.75283,-6.9262 -17.47604,-15.0921 -0.76457,-2.2949 -1.15112,-3.7791 -1.15381,-6.2227 l 0,-174.88208 -0.28142,-4.30801 c -0.0162,-3.36529 -0.70153,-7.21739 -2.13878,-10.27725 -3.79035,-8.07129 -12.08005,-11.15551 -20.29023,-12.50163 -2.04781,-0.33517 -5.25171,-0.75754 -7.28871,-0.76023 l -2.95489,0 -4.05242,-0.25341 -109.41525,0 -16.7725,0 -3.2363,0.25341 -2.95489,0 c -2.64757,0.0432 -7.3225,0.70933 -9.14608,2.7312 -1.83709,2.03811 -2.20969,5.99247 -2.2232,8.64416 l -0.25327,4.308 0,124.62216 0,56.48258 c -0.0459,3.733 -1.71149,8.1387 -3.54588,11.3473 -5.24379,9.1714 -17.35899,16.7652 -28.05734,16.7814 l -85.663586,0 c -6.9134,-0.011 -13.70843,-3.7444 -17.84189,-9.2073 -3.42833,-4.5303 -5.90167,-12.6965 -5.90977,-18.3864 l 0,-160.2687 0,-320.59377 0,-81.37327 0,-40.79926 c 0.0378,-3.24906 1.17993,-6.85812 2.61718,-9.74226 3.07713,-6.17107 7.24034,-10.23311 13.84576,-12.41717 2.18019,-0.72171 3.62534,-1.09542 5.93791,-1.09812 z"
     id="Selection #2"
     inkscape:connector-curvature="0" />
</svg>
